G04*
G04 #@! TF.GenerationSoftware,Altium Limited,Altium Designer,23.3.1 (30)*
G04*
G04 Layer_Color=8421504*
%FSLAX25Y25*%
%MOIN*%
G70*
G04*
G04 #@! TF.SameCoordinates,0E6FF7DC-0273-4275-BA36-AC07C98EDA83*
G04*
G04*
G04 #@! TF.FilePolarity,Positive*
G04*
G01*
G75*
%ADD17R,0.03740X0.03347*%
%ADD18R,0.12008X0.02402*%
%ADD19R,0.05118X0.09055*%
%ADD20R,0.11024X0.11024*%
%ADD21R,0.03347X0.03740*%
G36*
X380098Y720827D02*
X364784D01*
Y730669D01*
X367198D01*
X367198Y730669D01*
X367699Y730108D01*
X368873Y729171D01*
X370226Y728519D01*
X371690Y728184D01*
X373192D01*
X374656Y728519D01*
X376009Y729171D01*
X377182Y730108D01*
X377683Y730669D01*
X380098Y730669D01*
Y720827D01*
D02*
G37*
G36*
Y789016D02*
X377683D01*
X377182Y789577D01*
X376009Y790514D01*
X374656Y791166D01*
X373192Y791501D01*
X371690D01*
X370226Y791166D01*
X368873Y790514D01*
X367699Y789577D01*
X367198Y789016D01*
X364784D01*
Y798858D01*
X380098D01*
Y789016D01*
D02*
G37*
D17*
X72500Y723941D02*
D03*
Y729059D02*
D03*
X294000Y413500D02*
D03*
Y408382D02*
D03*
X294500Y95087D02*
D03*
Y89969D02*
D03*
X289500Y263087D02*
D03*
Y257968D02*
D03*
X299000Y806551D02*
D03*
Y811669D02*
D03*
X292000D02*
D03*
Y806551D02*
D03*
X175000Y773551D02*
D03*
Y778669D02*
D03*
X161000Y778169D02*
D03*
Y773051D02*
D03*
X152500D02*
D03*
Y778169D02*
D03*
X62000Y434559D02*
D03*
Y429441D02*
D03*
X306500Y645327D02*
D03*
Y640209D02*
D03*
X73000Y505559D02*
D03*
Y500441D02*
D03*
X59000Y184000D02*
D03*
Y178882D02*
D03*
D18*
X333150Y745787D02*
D03*
Y749803D02*
D03*
Y753819D02*
D03*
Y757835D02*
D03*
Y761850D02*
D03*
Y765866D02*
D03*
Y769882D02*
D03*
Y773898D02*
D03*
D19*
X175500Y721886D02*
D03*
Y756335D02*
D03*
X232500Y756059D02*
D03*
Y721610D02*
D03*
D20*
X278376Y861811D02*
D03*
X235066Y885826D02*
D03*
Y861811D02*
D03*
X278376Y885826D02*
D03*
D21*
X313059Y861610D02*
D03*
X307941D02*
D03*
X98559Y836500D02*
D03*
X93441D02*
D03*
X319500Y724110D02*
D03*
X314382D02*
D03*
M02*
