G04*
G04 #@! TF.GenerationSoftware,Altium Limited,Altium Designer,23.3.1 (30)*
G04*
G04 Layer_Physical_Order=1*
G04 Layer_Color=255*
%FSLAX25Y25*%
%MOIN*%
G70*
G04*
G04 #@! TF.SameCoordinates,F033A793-50B7-4F20-A00A-8D76AD39941E*
G04*
G04*
G04 #@! TF.FilePolarity,Positive*
G04*
G01*
G75*
%ADD16R,0.12008X0.02402*%
%ADD17R,0.05118X0.09055*%
%ADD18R,0.03740X0.03347*%
%ADD19R,0.03347X0.03740*%
%ADD20R,0.11024X0.11024*%
%ADD40R,0.15315X0.04724*%
%ADD41C,0.01181*%
%ADD42C,0.01500*%
%ADD43C,0.06791*%
%ADD44R,0.06791X0.06791*%
%ADD45C,0.16795*%
%ADD46C,0.12598*%
%ADD47C,0.18740*%
%ADD48R,0.06653X0.06653*%
%ADD49C,0.06653*%
%ADD50C,0.06000*%
%ADD51R,0.06791X0.06791*%
%ADD52C,0.07650*%
%ADD53C,0.13287*%
%ADD54C,0.13780*%
%ADD55C,0.07087*%
%ADD56C,0.07874*%
%ADD57C,0.05000*%
G36*
X386422Y905238D02*
X386522Y905228D01*
X386620Y905205D01*
X387297Y905179D01*
X388619Y904887D01*
X389869Y904365D01*
X391006Y903630D01*
X391995Y902705D01*
X392804Y901618D01*
X393408Y900406D01*
X393787Y899106D01*
X393858Y898432D01*
X393887Y898340D01*
X393901Y898244D01*
X393990Y897997D01*
X393990Y8491D01*
X393927Y8279D01*
X393917Y8179D01*
X393894Y8081D01*
X393866Y7372D01*
X393549Y5991D01*
X392982Y4692D01*
X392183Y3520D01*
X391180Y2518D01*
X390009Y1719D01*
X388710Y1151D01*
X387329Y834D01*
X386620Y807D01*
X386522Y783D01*
X386422Y774D01*
X386210Y711D01*
X8065Y808D01*
X7372Y834D01*
X5991Y1151D01*
X4692Y1719D01*
X3520Y2518D01*
X2518Y3520D01*
X1719Y4691D01*
X1151Y5991D01*
X834Y7372D01*
X807Y8081D01*
X783Y8179D01*
X774Y8279D01*
X711Y8491D01*
Y897997D01*
X800Y898243D01*
X814Y898339D01*
X843Y898432D01*
X914Y899105D01*
X1293Y900406D01*
X1896Y901618D01*
X2705Y902704D01*
X3694Y903630D01*
X4832Y904365D01*
X6081Y904887D01*
X7404Y905179D01*
X8081Y905205D01*
X8179Y905228D01*
X8279Y905238D01*
X8491Y905301D01*
X386210D01*
X386422Y905238D01*
D02*
G37*
%LPC*%
G36*
X133480Y903483D02*
Y900610D01*
X136354D01*
X136208Y901154D01*
X135681Y902066D01*
X134936Y902811D01*
X134024Y903338D01*
X133480Y903483D01*
D02*
G37*
G36*
X131480D02*
X130936Y903338D01*
X130024Y902811D01*
X129279Y902066D01*
X128753Y901154D01*
X128607Y900610D01*
X131480D01*
Y903483D01*
D02*
G37*
G36*
X192981Y903410D02*
X191980D01*
X191014Y903151D01*
X190147Y902651D01*
X189440Y901943D01*
X188939Y901077D01*
X188680Y900111D01*
Y899110D01*
X188939Y898143D01*
X189440Y897277D01*
X190147Y896570D01*
X191014Y896069D01*
X191980Y895810D01*
X192981D01*
X193947Y896069D01*
X194814Y896570D01*
X195521Y897277D01*
X196021Y898143D01*
X196280Y899110D01*
Y900111D01*
X196021Y901077D01*
X195521Y901943D01*
X194814Y902651D01*
X193947Y903151D01*
X192981Y903410D01*
D02*
G37*
G36*
X182981D02*
X181980D01*
X181014Y903151D01*
X180147Y902651D01*
X179440Y901943D01*
X178939Y901077D01*
X178680Y900111D01*
Y899110D01*
X178939Y898143D01*
X179440Y897277D01*
X180147Y896570D01*
X181014Y896069D01*
X181980Y895810D01*
X182981D01*
X183947Y896069D01*
X184814Y896570D01*
X185521Y897277D01*
X186021Y898143D01*
X186280Y899110D01*
Y900111D01*
X186021Y901077D01*
X185521Y901943D01*
X184814Y902651D01*
X183947Y903151D01*
X182981Y903410D01*
D02*
G37*
G36*
X172981D02*
X171980D01*
X171014Y903151D01*
X170147Y902651D01*
X169440Y901943D01*
X168939Y901077D01*
X168680Y900111D01*
Y899110D01*
X168939Y898143D01*
X169440Y897277D01*
X170147Y896570D01*
X171014Y896069D01*
X171980Y895810D01*
X172981D01*
X173947Y896069D01*
X174814Y896570D01*
X175521Y897277D01*
X176021Y898143D01*
X176280Y899110D01*
Y900111D01*
X176021Y901077D01*
X175521Y901943D01*
X174814Y902651D01*
X173947Y903151D01*
X172981Y903410D01*
D02*
G37*
G36*
X162981D02*
X161980D01*
X161014Y903151D01*
X160147Y902651D01*
X159440Y901943D01*
X158939Y901077D01*
X158680Y900111D01*
Y899110D01*
X158939Y898143D01*
X159440Y897277D01*
X160147Y896570D01*
X161014Y896069D01*
X161980Y895810D01*
X162981D01*
X163947Y896069D01*
X164814Y896570D01*
X165521Y897277D01*
X166021Y898143D01*
X166280Y899110D01*
Y900111D01*
X166021Y901077D01*
X165521Y901943D01*
X164814Y902651D01*
X163947Y903151D01*
X162981Y903410D01*
D02*
G37*
G36*
X152981D02*
X151980D01*
X151014Y903151D01*
X150147Y902651D01*
X149440Y901943D01*
X148939Y901077D01*
X148680Y900111D01*
Y899110D01*
X148939Y898143D01*
X149440Y897277D01*
X150147Y896570D01*
X151014Y896069D01*
X151980Y895810D01*
X152981D01*
X153947Y896069D01*
X154814Y896570D01*
X155521Y897277D01*
X156021Y898143D01*
X156280Y899110D01*
Y900111D01*
X156021Y901077D01*
X155521Y901943D01*
X154814Y902651D01*
X153947Y903151D01*
X152981Y903410D01*
D02*
G37*
G36*
X142981D02*
X141980D01*
X141014Y903151D01*
X140147Y902651D01*
X139440Y901943D01*
X138939Y901077D01*
X138680Y900111D01*
Y899110D01*
X138939Y898143D01*
X139440Y897277D01*
X140147Y896570D01*
X141014Y896069D01*
X141980Y895810D01*
X142981D01*
X143947Y896069D01*
X144814Y896570D01*
X145521Y897277D01*
X146021Y898143D01*
X146280Y899110D01*
Y900111D01*
X146021Y901077D01*
X145521Y901943D01*
X144814Y902651D01*
X143947Y903151D01*
X142981Y903410D01*
D02*
G37*
G36*
X136354Y898610D02*
X133480D01*
Y895737D01*
X134024Y895883D01*
X134936Y896409D01*
X135681Y897154D01*
X136208Y898066D01*
X136354Y898610D01*
D02*
G37*
G36*
X131480D02*
X128607D01*
X128753Y898066D01*
X129279Y897154D01*
X130024Y896409D01*
X130936Y895883D01*
X131480Y895737D01*
Y898610D01*
D02*
G37*
G36*
X133480Y893483D02*
Y890610D01*
X136354D01*
X136208Y891154D01*
X135681Y892066D01*
X134936Y892811D01*
X134024Y893338D01*
X133480Y893483D01*
D02*
G37*
G36*
X131480D02*
X130936Y893338D01*
X130024Y892811D01*
X129279Y892066D01*
X128753Y891154D01*
X128607Y890610D01*
X131480D01*
Y893483D01*
D02*
G37*
G36*
X241577Y892338D02*
X236066D01*
Y886826D01*
X241577D01*
Y892338D01*
D02*
G37*
G36*
X234066D02*
X228554D01*
Y886826D01*
X234066D01*
Y892338D01*
D02*
G37*
G36*
X192981Y893410D02*
X191980D01*
X191014Y893151D01*
X190147Y892651D01*
X189440Y891943D01*
X188939Y891077D01*
X188680Y890110D01*
Y889110D01*
X188939Y888144D01*
X189440Y887277D01*
X190147Y886569D01*
X191014Y886069D01*
X191980Y885810D01*
X192981D01*
X193947Y886069D01*
X194814Y886569D01*
X195521Y887277D01*
X196021Y888144D01*
X196280Y889110D01*
Y890110D01*
X196021Y891077D01*
X195521Y891943D01*
X194814Y892651D01*
X193947Y893151D01*
X192981Y893410D01*
D02*
G37*
G36*
X182981D02*
X181980D01*
X181014Y893151D01*
X180147Y892651D01*
X179440Y891943D01*
X178939Y891077D01*
X178680Y890110D01*
Y889110D01*
X178939Y888144D01*
X179440Y887277D01*
X180147Y886569D01*
X181014Y886069D01*
X181980Y885810D01*
X182981D01*
X183947Y886069D01*
X184814Y886569D01*
X185521Y887277D01*
X186021Y888144D01*
X186280Y889110D01*
Y890110D01*
X186021Y891077D01*
X185521Y891943D01*
X184814Y892651D01*
X183947Y893151D01*
X182981Y893410D01*
D02*
G37*
G36*
X172981D02*
X171980D01*
X171014Y893151D01*
X170147Y892651D01*
X169440Y891943D01*
X168939Y891077D01*
X168680Y890110D01*
Y889110D01*
X168939Y888144D01*
X169440Y887277D01*
X170147Y886569D01*
X171014Y886069D01*
X171980Y885810D01*
X172981D01*
X173947Y886069D01*
X174814Y886569D01*
X175521Y887277D01*
X176021Y888144D01*
X176280Y889110D01*
Y890110D01*
X176021Y891077D01*
X175521Y891943D01*
X174814Y892651D01*
X173947Y893151D01*
X172981Y893410D01*
D02*
G37*
G36*
X162981D02*
X161980D01*
X161014Y893151D01*
X160147Y892651D01*
X159440Y891943D01*
X158939Y891077D01*
X158680Y890110D01*
Y889110D01*
X158939Y888144D01*
X159440Y887277D01*
X160147Y886569D01*
X161014Y886069D01*
X161980Y885810D01*
X162981D01*
X163947Y886069D01*
X164814Y886569D01*
X165521Y887277D01*
X166021Y888144D01*
X166280Y889110D01*
Y890110D01*
X166021Y891077D01*
X165521Y891943D01*
X164814Y892651D01*
X163947Y893151D01*
X162981Y893410D01*
D02*
G37*
G36*
X152981D02*
X151980D01*
X151014Y893151D01*
X150147Y892651D01*
X149440Y891943D01*
X148939Y891077D01*
X148680Y890110D01*
Y889110D01*
X148939Y888144D01*
X149440Y887277D01*
X150147Y886569D01*
X151014Y886069D01*
X151980Y885810D01*
X152981D01*
X153947Y886069D01*
X154814Y886569D01*
X155521Y887277D01*
X156021Y888144D01*
X156280Y889110D01*
Y890110D01*
X156021Y891077D01*
X155521Y891943D01*
X154814Y892651D01*
X153947Y893151D01*
X152981Y893410D01*
D02*
G37*
G36*
X142981D02*
X141980D01*
X141014Y893151D01*
X140147Y892651D01*
X139440Y891943D01*
X138939Y891077D01*
X138680Y890110D01*
Y889110D01*
X138939Y888144D01*
X139440Y887277D01*
X140147Y886569D01*
X141014Y886069D01*
X141980Y885810D01*
X142981D01*
X143947Y886069D01*
X144814Y886569D01*
X145521Y887277D01*
X146021Y888144D01*
X146280Y889110D01*
Y890110D01*
X146021Y891077D01*
X145521Y891943D01*
X144814Y892651D01*
X143947Y893151D01*
X142981Y893410D01*
D02*
G37*
G36*
X136354Y888610D02*
X133480D01*
Y885737D01*
X134024Y885883D01*
X134936Y886409D01*
X135681Y887154D01*
X136208Y888066D01*
X136354Y888610D01*
D02*
G37*
G36*
X131480D02*
X128607D01*
X128753Y888066D01*
X129279Y887154D01*
X130024Y886409D01*
X130936Y885883D01*
X131480Y885737D01*
Y888610D01*
D02*
G37*
G36*
X257293Y890170D02*
X256150D01*
X255045Y889875D01*
X254055Y889303D01*
X253246Y888494D01*
X252674Y887504D01*
X252378Y886399D01*
Y885255D01*
X252674Y884151D01*
X253246Y883160D01*
X254055Y882352D01*
X255045Y881780D01*
X256150Y881484D01*
X257293D01*
X258398Y881780D01*
X259388Y882352D01*
X260197Y883160D01*
X260769Y884151D01*
X261065Y885255D01*
Y886399D01*
X260769Y887504D01*
X260197Y888494D01*
X259388Y889303D01*
X258398Y889875D01*
X257293Y890170D01*
D02*
G37*
G36*
X241577Y884826D02*
X236066D01*
Y879314D01*
X241577D01*
Y884826D01*
D02*
G37*
G36*
X234066D02*
X228554D01*
Y879314D01*
X234066D01*
Y884826D01*
D02*
G37*
G36*
X376779Y896682D02*
X375189D01*
X375111Y896666D01*
X375030D01*
X373471Y896356D01*
X373397Y896325D01*
X373318Y896310D01*
X371849Y895701D01*
X371782Y895657D01*
X371708Y895626D01*
X370386Y894742D01*
X370329Y894686D01*
X370263Y894641D01*
X369138Y893517D01*
X369094Y893450D01*
X369037Y893393D01*
X368154Y892071D01*
X368123Y891997D01*
X368078Y891930D01*
X367470Y890462D01*
X367454Y890383D01*
X367424Y890309D01*
X367113Y888749D01*
Y888669D01*
X367098Y888590D01*
Y887000D01*
X367113Y886922D01*
Y886841D01*
X367424Y885282D01*
X367454Y885208D01*
X367470Y885129D01*
X368078Y883660D01*
X368123Y883593D01*
X368154Y883519D01*
X369037Y882197D01*
X369094Y882141D01*
X369138Y882074D01*
X370263Y880949D01*
X370329Y880905D01*
X370386Y880848D01*
X371708Y879965D01*
X371782Y879934D01*
X371849Y879889D01*
X373318Y879281D01*
X373397Y879265D01*
X373471Y879235D01*
X375030Y878924D01*
X375111D01*
X375189Y878909D01*
X376779D01*
X376858Y878924D01*
X376938D01*
X378498Y879235D01*
X378572Y879265D01*
X378651Y879281D01*
X380119Y879889D01*
X380186Y879934D01*
X380260Y879965D01*
X381582Y880848D01*
X381639Y880905D01*
X381706Y880949D01*
X382830Y882074D01*
X382875Y882140D01*
X382931Y882197D01*
X383815Y883519D01*
X383845Y883593D01*
X383890Y883660D01*
X384499Y885129D01*
X384514Y885208D01*
X384545Y885282D01*
X384855Y886841D01*
Y886922D01*
X384871Y887000D01*
Y888590D01*
X384855Y888669D01*
Y888749D01*
X384545Y890309D01*
X384514Y890383D01*
X384499Y890462D01*
X383890Y891930D01*
X383845Y891997D01*
X383815Y892071D01*
X382931Y893393D01*
X382875Y893450D01*
X382830Y893517D01*
X381706Y894641D01*
X381639Y894686D01*
X381582Y894742D01*
X380260Y895626D01*
X380186Y895656D01*
X380119Y895701D01*
X378651Y896310D01*
X378572Y896325D01*
X378498Y896356D01*
X376938Y896666D01*
X376858D01*
X376779Y896682D01*
D02*
G37*
G36*
X18511D02*
X16922D01*
X16843Y896666D01*
X16762D01*
X15203Y896356D01*
X15129Y896325D01*
X15050Y896310D01*
X13581Y895701D01*
X13515Y895657D01*
X13440Y895626D01*
X12118Y894742D01*
X12062Y894686D01*
X11995Y894641D01*
X10871Y893517D01*
X10826Y893450D01*
X10769Y893393D01*
X9886Y892071D01*
X9855Y891997D01*
X9811Y891930D01*
X9202Y890462D01*
X9187Y890383D01*
X9156Y890309D01*
X8846Y888749D01*
Y888669D01*
X8830Y888590D01*
Y887000D01*
X8846Y886922D01*
Y886841D01*
X9156Y885282D01*
X9187Y885208D01*
X9202Y885129D01*
X9811Y883660D01*
X9855Y883593D01*
X9886Y883519D01*
X10769Y882197D01*
X10826Y882141D01*
X10871Y882074D01*
X11995Y880949D01*
X12062Y880905D01*
X12118Y880848D01*
X13440Y879965D01*
X13515Y879934D01*
X13581Y879889D01*
X15050Y879281D01*
X15129Y879265D01*
X15203Y879235D01*
X16762Y878924D01*
X16843D01*
X16922Y878909D01*
X18511D01*
X18590Y878924D01*
X18671D01*
X20230Y879235D01*
X20304Y879265D01*
X20383Y879281D01*
X21852Y879889D01*
X21918Y879934D01*
X21993Y879965D01*
X23315Y880848D01*
X23371Y880905D01*
X23438Y880949D01*
X24562Y882074D01*
X24607Y882140D01*
X24664Y882197D01*
X25547Y883519D01*
X25578Y883593D01*
X25622Y883660D01*
X26231Y885129D01*
X26247Y885208D01*
X26277Y885282D01*
X26587Y886841D01*
Y886922D01*
X26603Y887000D01*
Y888590D01*
X26587Y888669D01*
Y888749D01*
X26277Y890309D01*
X26247Y890383D01*
X26231Y890462D01*
X25622Y891930D01*
X25578Y891997D01*
X25547Y892071D01*
X24664Y893393D01*
X24607Y893450D01*
X24562Y893517D01*
X23438Y894641D01*
X23371Y894686D01*
X23315Y894742D01*
X21993Y895626D01*
X21918Y895656D01*
X21852Y895701D01*
X20383Y896310D01*
X20304Y896325D01*
X20230Y896356D01*
X18671Y896666D01*
X18590D01*
X18511Y896682D01*
D02*
G37*
G36*
X257345Y872847D02*
X256098D01*
X254893Y872524D01*
X253813Y871901D01*
X252931Y871019D01*
X252307Y869939D01*
X251985Y868734D01*
Y867487D01*
X252307Y866282D01*
X252931Y865202D01*
X253813Y864320D01*
X254893Y863696D01*
X256098Y863373D01*
X257345D01*
X258550Y863696D01*
X259630Y864320D01*
X260512Y865202D01*
X261136Y866282D01*
X261458Y867487D01*
Y868734D01*
X261136Y869939D01*
X260512Y871019D01*
X259630Y871901D01*
X258550Y872524D01*
X257345Y872847D01*
D02*
G37*
G36*
X364458Y869300D02*
X362943D01*
X361458Y869005D01*
X360058Y868425D01*
X358799Y867583D01*
X358321Y867105D01*
X358314Y867102D01*
X352463Y863028D01*
X316071D01*
X315532Y863297D01*
Y864280D01*
X310614D01*
Y864480D01*
X308941D01*
Y861610D01*
Y858740D01*
X310614D01*
Y858940D01*
X315532D01*
Y859923D01*
X316071Y860192D01*
X352463D01*
X358314Y856118D01*
X358321Y856115D01*
X358799Y855637D01*
X360058Y854796D01*
X361458Y854216D01*
X362943Y853920D01*
X364458D01*
X365944Y854216D01*
X367343Y854796D01*
X368603Y855637D01*
X369674Y856708D01*
X370515Y857968D01*
X371095Y859367D01*
X371391Y860853D01*
Y862368D01*
X371095Y863853D01*
X370515Y865253D01*
X369674Y866512D01*
X368603Y867583D01*
X367343Y868425D01*
X365944Y869005D01*
X364458Y869300D01*
D02*
G37*
G36*
X241577Y868323D02*
X236066D01*
Y862811D01*
X241577D01*
Y868323D01*
D02*
G37*
G36*
X234066D02*
X228554D01*
Y862811D01*
X234066D01*
Y868323D01*
D02*
G37*
G36*
X306941Y864480D02*
X305268D01*
Y862610D01*
X306941D01*
Y864480D01*
D02*
G37*
G36*
Y860610D02*
X305268D01*
Y858740D01*
X306941D01*
Y860610D01*
D02*
G37*
G36*
X122981Y903410D02*
X121980D01*
X121014Y903151D01*
X120147Y902651D01*
X119440Y901943D01*
X118939Y901077D01*
X118680Y900111D01*
Y899110D01*
X118939Y898143D01*
X119440Y897277D01*
X119698Y897019D01*
X121063Y894669D01*
Y894551D01*
X119698Y892202D01*
X119440Y891943D01*
X118939Y891077D01*
X118680Y890110D01*
Y889110D01*
X118939Y888144D01*
X119440Y887277D01*
X119698Y887019D01*
X121063Y884669D01*
Y871520D01*
X121170Y870977D01*
X121478Y870517D01*
X169387Y822608D01*
X169847Y822300D01*
X170390Y822192D01*
X227288D01*
X228876Y821178D01*
X229474Y820580D01*
X230226Y820145D01*
X231066Y819921D01*
X231934D01*
X232774Y820145D01*
X233526Y820580D01*
X234141Y821194D01*
X234446Y821723D01*
X234466Y821745D01*
X235685Y823790D01*
X271602Y859707D01*
X272064Y859516D01*
Y855499D01*
X284687D01*
Y868123D01*
X280059D01*
X279793Y868660D01*
Y878978D01*
X280059Y879514D01*
X284687D01*
Y892138D01*
X272064D01*
Y879514D01*
X276692D01*
X276958Y878978D01*
Y868660D01*
X276692Y868123D01*
X272064D01*
Y863559D01*
X271703Y863428D01*
X271407Y863370D01*
X270947Y863062D01*
X234287Y826402D01*
X232821Y826268D01*
X232774Y826296D01*
X231934Y826521D01*
X231066D01*
X230226Y826296D01*
X229631Y825952D01*
X227553Y825028D01*
X170977D01*
X123898Y872107D01*
Y884669D01*
X125263Y887019D01*
X125521Y887277D01*
X126021Y888144D01*
X126280Y889110D01*
Y890110D01*
X126021Y891077D01*
X125521Y891943D01*
X125263Y892202D01*
X123898Y894551D01*
Y894669D01*
X125263Y897019D01*
X125521Y897277D01*
X126021Y898143D01*
X126280Y899110D01*
Y900111D01*
X126021Y901077D01*
X125521Y901943D01*
X124814Y902651D01*
X123947Y903151D01*
X122981Y903410D01*
D02*
G37*
G36*
X241577Y860811D02*
X236066D01*
Y855299D01*
X241577D01*
Y860811D01*
D02*
G37*
G36*
X234066D02*
X228554D01*
Y855299D01*
X234066D01*
Y860811D01*
D02*
G37*
G36*
X101232Y839370D02*
X99559D01*
Y837500D01*
X101232D01*
Y839370D01*
D02*
G37*
G36*
Y835500D02*
X99559D01*
Y833630D01*
X101232D01*
Y835500D01*
D02*
G37*
G36*
X38701Y842505D02*
X36889D01*
X35112Y842151D01*
X33439Y841458D01*
X31932Y840451D01*
X30651Y839170D01*
X29644Y837664D01*
X28951Y835990D01*
X28598Y834213D01*
Y832401D01*
X28951Y830624D01*
X29644Y828950D01*
X30651Y827444D01*
X31932Y826163D01*
X33439Y825156D01*
X35112Y824463D01*
X36889Y824109D01*
X38701D01*
X40478Y824463D01*
X42152Y825156D01*
X43658Y826163D01*
X44940Y827444D01*
X45688Y828564D01*
X51411Y833962D01*
X75804D01*
X75995Y833500D01*
X61413Y818918D01*
X29500D01*
X28957Y818810D01*
X28497Y818503D01*
X7998Y798002D01*
X7690Y797543D01*
X7582Y797000D01*
Y790114D01*
X6563Y788230D01*
X6359Y788026D01*
X5925Y787274D01*
X5700Y786435D01*
Y785566D01*
X5925Y784726D01*
X6359Y783974D01*
X6974Y783359D01*
X7726Y782925D01*
X8566Y782700D01*
X9434D01*
X10274Y782925D01*
X11026Y783359D01*
X11641Y783974D01*
X12075Y784726D01*
X12300Y785566D01*
Y786435D01*
X12075Y787274D01*
X11641Y788026D01*
X11437Y788230D01*
X10418Y790114D01*
Y796413D01*
X30087Y816082D01*
X62000D01*
X62543Y816190D01*
X63003Y816498D01*
X79779Y833274D01*
X81440Y833962D01*
X90640D01*
X90968Y833921D01*
Y833830D01*
X91757D01*
X91775Y833826D01*
X91794Y833830D01*
X95886D01*
Y833630D01*
X97559D01*
Y836500D01*
Y839370D01*
X95886D01*
Y839170D01*
X90968D01*
Y837063D01*
X90431Y836798D01*
X50976D01*
X42533Y841207D01*
X42523Y841210D01*
X42152Y841458D01*
X40478Y842151D01*
X38701Y842505D01*
D02*
G37*
G36*
X307934Y828410D02*
X307066D01*
X306226Y828185D01*
X305474Y827751D01*
X305270Y827547D01*
X303386Y826528D01*
X293110D01*
X292568Y826420D01*
X292108Y826113D01*
X284913Y818918D01*
X128000D01*
X127457Y818810D01*
X126997Y818503D01*
X124987Y816492D01*
X124679Y816032D01*
X124571Y815489D01*
Y814511D01*
X124582Y814457D01*
Y805000D01*
X124690Y804457D01*
X124997Y803998D01*
X128226Y800769D01*
X128686Y800462D01*
X129228Y800354D01*
X129258D01*
X130728Y799311D01*
X130859Y799084D01*
X131474Y798470D01*
X132226Y798035D01*
X133066Y797810D01*
X133934D01*
X134774Y798035D01*
X135526Y798470D01*
X136141Y799084D01*
X136575Y799836D01*
X136800Y800676D01*
Y801545D01*
X136575Y802384D01*
X136141Y803137D01*
X135526Y803751D01*
X134774Y804185D01*
X133934Y804410D01*
X133066D01*
X132226Y804185D01*
X131967Y804036D01*
X131953Y804033D01*
X129789Y803216D01*
X127418Y805587D01*
Y814500D01*
X127407Y814554D01*
Y814902D01*
X128587Y816082D01*
X285500D01*
X286043Y816190D01*
X286503Y816498D01*
X293698Y823692D01*
X303386D01*
X305270Y822674D01*
X305474Y822470D01*
X306226Y822035D01*
X307066Y821810D01*
X307934D01*
X308774Y822035D01*
X309526Y822470D01*
X310141Y823084D01*
X310575Y823837D01*
X310800Y824676D01*
Y825545D01*
X310575Y826384D01*
X310141Y827137D01*
X309526Y827751D01*
X308774Y828185D01*
X307934Y828410D01*
D02*
G37*
G36*
X364458Y829300D02*
X362943D01*
X361458Y829004D01*
X360058Y828425D01*
X358799Y827583D01*
X357728Y826512D01*
X356886Y825253D01*
X356307Y823853D01*
X356011Y822368D01*
Y820853D01*
X356307Y819367D01*
X356886Y817968D01*
X357728Y816708D01*
X358799Y815637D01*
X360058Y814796D01*
X361458Y814216D01*
X362943Y813920D01*
X364458D01*
X365944Y814216D01*
X367343Y814796D01*
X368603Y815637D01*
X369674Y816708D01*
X370515Y817968D01*
X371095Y819367D01*
X371391Y820853D01*
Y822368D01*
X371095Y823853D01*
X370515Y825253D01*
X369674Y826512D01*
X368603Y827583D01*
X367343Y828425D01*
X365944Y829004D01*
X364458Y829300D01*
D02*
G37*
G36*
X344273Y855954D02*
X343129D01*
X342024Y855658D01*
X341034Y855086D01*
X340225Y854277D01*
X339653Y853287D01*
X339357Y852182D01*
Y851736D01*
X338576Y848490D01*
X310503Y820418D01*
X296390D01*
X295847Y820310D01*
X295387Y820002D01*
X290998Y815613D01*
X290690Y815153D01*
X290605Y814725D01*
X290317Y814143D01*
X289330D01*
Y813276D01*
X288910Y813087D01*
X137094D01*
X135187Y814090D01*
X135026Y814251D01*
X134274Y814685D01*
X133434Y814910D01*
X132566D01*
X131726Y814685D01*
X130974Y814251D01*
X130359Y813636D01*
X129925Y812884D01*
X129700Y812045D01*
Y811176D01*
X129925Y810336D01*
X130359Y809584D01*
X130974Y808970D01*
X131726Y808535D01*
X132566Y808310D01*
X133434D01*
X134274Y808535D01*
X135026Y808970D01*
X135277Y809220D01*
X137133Y810252D01*
X285966D01*
X286082Y810110D01*
Y803610D01*
X286190Y803068D01*
X286497Y802608D01*
X320226Y768879D01*
X320686Y768572D01*
X321228Y768464D01*
X325809D01*
X326160Y768290D01*
X326346Y767867D01*
X326346Y767381D01*
Y764351D01*
X326346Y763865D01*
X326346Y763365D01*
Y760335D01*
X326346Y759850D01*
X326346Y759350D01*
Y756320D01*
X326346Y755834D01*
X326346Y755334D01*
Y752304D01*
X326346Y751818D01*
X326346Y751318D01*
Y748288D01*
X326346Y747802D01*
X326346Y747302D01*
Y743787D01*
X339953D01*
Y747302D01*
X339953Y747788D01*
X339953Y748288D01*
Y751318D01*
X339953Y751804D01*
X339953Y752304D01*
Y755334D01*
X339953Y755820D01*
X339953Y756320D01*
Y759350D01*
X339953Y759835D01*
X339953Y760335D01*
Y763365D01*
X339953Y763851D01*
X339953Y764351D01*
Y767381D01*
X339953Y767867D01*
X339953Y768367D01*
Y771397D01*
X339953Y771883D01*
X339953Y772383D01*
Y775898D01*
X326346D01*
Y775898D01*
X325846Y775770D01*
X300418Y801198D01*
Y803541D01*
X300683Y804078D01*
X301670D01*
Y808696D01*
X301670Y809024D01*
X301670Y809986D01*
X302207Y810252D01*
X303367D01*
X305223Y809220D01*
X305474Y808970D01*
X306226Y808535D01*
X307066Y808310D01*
X307934D01*
X308774Y808535D01*
X309526Y808970D01*
X309777Y809220D01*
X311633Y810252D01*
X313760D01*
X314302Y810359D01*
X314762Y810667D01*
X340581Y836485D01*
X343827Y837267D01*
X344273D01*
X345377Y837563D01*
X346368Y838135D01*
X347176Y838943D01*
X347748Y839934D01*
X348044Y841038D01*
Y842182D01*
X347748Y843287D01*
X347176Y844277D01*
X346368Y845086D01*
X345377Y845658D01*
X344273Y845953D01*
X343129D01*
X342024Y845658D01*
X341034Y845086D01*
X340225Y844277D01*
X339653Y843287D01*
X339357Y842182D01*
Y841736D01*
X338576Y838490D01*
X313173Y813087D01*
X311594D01*
X309687Y814090D01*
X309526Y814251D01*
X308774Y814685D01*
X307934Y814910D01*
X307066D01*
X306226Y814685D01*
X305474Y814251D01*
X305313Y814090D01*
X303406Y813087D01*
X302207D01*
X301670Y813353D01*
Y814143D01*
X296330D01*
Y809524D01*
X296330Y809196D01*
X296330Y808235D01*
X295793Y807969D01*
X295207D01*
X294670Y808235D01*
X294670Y809024D01*
X294670Y809524D01*
Y814143D01*
X294245D01*
X294037Y814643D01*
X296977Y817582D01*
X311091D01*
X311633Y817690D01*
X312093Y817997D01*
X340581Y846485D01*
X343827Y847267D01*
X344273D01*
X345377Y847563D01*
X346368Y848135D01*
X347176Y848943D01*
X347748Y849934D01*
X348044Y851038D01*
Y852182D01*
X347748Y853287D01*
X347176Y854277D01*
X346368Y855086D01*
X345377Y855658D01*
X344273Y855954D01*
D02*
G37*
G36*
X117696Y815306D02*
X109304D01*
Y806915D01*
X117696D01*
Y815306D01*
D02*
G37*
G36*
X100196D02*
X91804D01*
Y806915D01*
X100196D01*
Y815306D01*
D02*
G37*
G36*
X43938Y810081D02*
X42834D01*
X41766Y809796D01*
X40810Y809243D01*
X40029Y808462D01*
X39476Y807505D01*
X39190Y806438D01*
Y805334D01*
X39476Y804266D01*
X40029Y803310D01*
X40810Y802528D01*
X41766Y801976D01*
X42834Y801690D01*
X43938D01*
X45005Y801976D01*
X45962Y802528D01*
X46743Y803310D01*
X47296Y804266D01*
X47581Y805334D01*
Y806438D01*
X47296Y807505D01*
X46743Y808462D01*
X45962Y809243D01*
X45005Y809796D01*
X43938Y810081D01*
D02*
G37*
G36*
X33205Y804716D02*
Y801433D01*
X36487D01*
X36301Y802130D01*
X35722Y803132D01*
X34904Y803951D01*
X33901Y804529D01*
X33205Y804716D01*
D02*
G37*
G36*
X31205Y804716D02*
X30508Y804529D01*
X29506Y803951D01*
X28687Y803132D01*
X28109Y802130D01*
X27922Y801433D01*
X31205D01*
Y804716D01*
D02*
G37*
G36*
Y799433D02*
X27922D01*
X28109Y798736D01*
X28687Y797734D01*
X29506Y796916D01*
X30508Y796337D01*
X31205Y796150D01*
Y799433D01*
D02*
G37*
G36*
X36487D02*
X33205D01*
Y796150D01*
X33901Y796337D01*
X34904Y796916D01*
X35722Y797734D01*
X36301Y798736D01*
X36487Y799433D01*
D02*
G37*
G36*
X43938Y799176D02*
X42834D01*
X41766Y798890D01*
X40810Y798338D01*
X40029Y797556D01*
X39476Y796600D01*
X39190Y795533D01*
Y794428D01*
X39476Y793361D01*
X40029Y792404D01*
X40810Y791623D01*
X41165Y791418D01*
X41031Y790918D01*
X37801D01*
X35102Y792564D01*
X34781Y792885D01*
X33824Y793437D01*
X32757Y793723D01*
X31652D01*
X30585Y793437D01*
X29629Y792885D01*
X28847Y792104D01*
X28295Y791147D01*
X28009Y790080D01*
Y788975D01*
X28295Y787908D01*
X28847Y786951D01*
X29629Y786170D01*
X30585Y785618D01*
X31652Y785332D01*
X32757D01*
X33824Y785618D01*
X34781Y786170D01*
X35061Y786450D01*
X37787Y788082D01*
X40936D01*
X41069Y787582D01*
X40810Y787432D01*
X40029Y786651D01*
X39476Y785694D01*
X39190Y784627D01*
Y783522D01*
X39476Y782455D01*
X40029Y781499D01*
X40810Y780717D01*
X41329Y780418D01*
X41195Y779918D01*
X37822D01*
X35179Y781581D01*
X34781Y781979D01*
X33824Y782532D01*
X32757Y782818D01*
X31652D01*
X30585Y782532D01*
X29629Y781979D01*
X28847Y781198D01*
X28295Y780241D01*
X28009Y779174D01*
Y778810D01*
X27219Y775724D01*
X5997Y754502D01*
X5690Y754043D01*
X5582Y753500D01*
Y600614D01*
X4563Y598730D01*
X4359Y598526D01*
X3925Y597774D01*
X3700Y596935D01*
Y596066D01*
X3925Y595226D01*
X4359Y594474D01*
X4974Y593859D01*
X5726Y593425D01*
X6566Y593200D01*
X7434D01*
X8274Y593425D01*
X9026Y593859D01*
X9120Y593953D01*
X9582Y593762D01*
Y573000D01*
X9690Y572457D01*
X9997Y571997D01*
X22727Y559268D01*
X23187Y558961D01*
X23729Y558853D01*
X26553D01*
X29045Y557187D01*
X29629Y556603D01*
X30585Y556051D01*
X31652Y555765D01*
X32757D01*
X33824Y556051D01*
X34781Y556603D01*
X35562Y557384D01*
X36114Y558341D01*
X36400Y559408D01*
Y560513D01*
X36114Y561580D01*
X35562Y562537D01*
X34781Y563318D01*
X33824Y563870D01*
X32757Y564156D01*
X31652D01*
X30585Y563870D01*
X29629Y563318D01*
X29528Y563217D01*
X26708Y561689D01*
X24317D01*
X12418Y573587D01*
Y699739D01*
X12674Y699875D01*
X12918Y699915D01*
X13474Y699359D01*
X14226Y698925D01*
X15066Y698700D01*
X15935D01*
X16774Y698925D01*
X17526Y699359D01*
X17780Y699613D01*
X19635Y700645D01*
X24142D01*
X31372Y695537D01*
X31382Y695532D01*
X31932Y694982D01*
X33439Y693975D01*
X35112Y693282D01*
X36889Y692928D01*
X38701D01*
X40478Y693282D01*
X42152Y693975D01*
X43658Y694982D01*
X44940Y696263D01*
X45946Y697769D01*
X46639Y699443D01*
X46993Y701220D01*
Y701309D01*
X47176Y701583D01*
X47284Y702126D01*
X47176Y702669D01*
X46993Y702943D01*
Y703032D01*
X46639Y704809D01*
X45946Y706483D01*
X44940Y707989D01*
X43658Y709270D01*
X42152Y710277D01*
X40478Y710970D01*
X38701Y711324D01*
X36889D01*
X35112Y710970D01*
X33439Y710277D01*
X31932Y709270D01*
X31288Y708626D01*
X31278Y708621D01*
X24129Y703481D01*
X19592D01*
X17684Y704483D01*
X17526Y704641D01*
X16774Y705075D01*
X15935Y705300D01*
X15066D01*
X14226Y705075D01*
X13474Y704641D01*
X12918Y704085D01*
X12674Y704125D01*
X12418Y704261D01*
Y734413D01*
X29654Y751649D01*
X32703Y752615D01*
X32757D01*
X33824Y752901D01*
X34781Y753454D01*
X35562Y754235D01*
X36114Y755192D01*
X36400Y756259D01*
Y757363D01*
X36114Y758430D01*
X35562Y759387D01*
X34781Y760168D01*
X33824Y760721D01*
X32757Y761007D01*
X31652D01*
X30585Y760721D01*
X29629Y760168D01*
X28847Y759387D01*
X28295Y758430D01*
X28009Y757363D01*
Y756333D01*
X27498Y753503D01*
X9997Y736002D01*
X9690Y735543D01*
X9582Y735000D01*
Y599512D01*
X9082Y599386D01*
X8418Y600614D01*
Y752913D01*
X29204Y773699D01*
X32269Y774426D01*
X32757D01*
X33824Y774712D01*
X34781Y775265D01*
X34995Y775479D01*
X37762Y777082D01*
X40772D01*
X40906Y776582D01*
X40810Y776527D01*
X40029Y775745D01*
X39476Y774789D01*
X39190Y773722D01*
Y772617D01*
X39476Y771550D01*
X40029Y770593D01*
X40810Y769812D01*
X41766Y769260D01*
X42834Y768974D01*
X43938D01*
X45005Y769260D01*
X45962Y769812D01*
X46743Y770593D01*
X47296Y771550D01*
X47581Y772617D01*
Y773722D01*
X47296Y774789D01*
X46743Y775745D01*
X45962Y776527D01*
X45866Y776582D01*
X46000Y777082D01*
X79523D01*
X135722Y720883D01*
X136182Y720576D01*
X136724Y720468D01*
X171604D01*
X172141Y720202D01*
Y716558D01*
X178859D01*
Y727213D01*
X172141D01*
Y723569D01*
X171604Y723304D01*
X137312D01*
X81113Y779502D01*
X80653Y779810D01*
X80110Y779918D01*
X45577D01*
X45443Y780418D01*
X45962Y780717D01*
X46743Y781499D01*
X47296Y782455D01*
X47581Y783522D01*
Y784627D01*
X47296Y785694D01*
X46743Y786651D01*
X45962Y787432D01*
X45702Y787582D01*
X45836Y788082D01*
X112523D01*
X163997Y736608D01*
X164457Y736300D01*
X165000Y736193D01*
X230802D01*
X239664Y727330D01*
Y652614D01*
X238645Y650730D01*
X238442Y650526D01*
X238007Y649774D01*
X237782Y648935D01*
Y648066D01*
X238007Y647226D01*
X238442Y646474D01*
X239056Y645859D01*
X239809Y645425D01*
X240648Y645200D01*
X240936D01*
X242989Y644588D01*
X265174Y622403D01*
X265634Y622096D01*
X266177Y621988D01*
X323413D01*
X340714Y604686D01*
X341174Y604379D01*
X341717Y604271D01*
X345710D01*
X348423Y602632D01*
X348723Y602332D01*
X349680Y601779D01*
X350747Y601493D01*
X351852D01*
X352919Y601779D01*
X353875Y602332D01*
X354657Y603113D01*
X355209Y604070D01*
X355495Y605137D01*
Y606241D01*
X355209Y607308D01*
X354657Y608265D01*
X353875Y609046D01*
X352919Y609599D01*
X351852Y609885D01*
X350747D01*
X349680Y609599D01*
X348723Y609046D01*
X348423Y608746D01*
X345710Y607107D01*
X342304D01*
X325003Y624408D01*
X324543Y624715D01*
X324000Y624823D01*
X266764D01*
X244994Y646593D01*
X244382Y648646D01*
Y648935D01*
X244157Y649774D01*
X243723Y650526D01*
X243519Y650730D01*
X242500Y652614D01*
Y727918D01*
X242392Y728460D01*
X242085Y728920D01*
X232392Y738613D01*
X231932Y738920D01*
X231390Y739028D01*
X165587D01*
X114113Y790503D01*
X113653Y790810D01*
X113110Y790918D01*
X45741D01*
X45607Y791418D01*
X45962Y791623D01*
X46277Y791938D01*
X48980Y793582D01*
X115523D01*
X166498Y742608D01*
X166957Y742300D01*
X167500Y742193D01*
X233302D01*
X247082Y728413D01*
Y659114D01*
X246063Y657230D01*
X245859Y657026D01*
X245425Y656274D01*
X245200Y655435D01*
Y654565D01*
X245425Y653726D01*
X245859Y652974D01*
X246474Y652359D01*
X247226Y651925D01*
X247466Y651861D01*
X247474Y651855D01*
X249649Y650846D01*
X272639Y627856D01*
X273099Y627549D01*
X273642Y627441D01*
X324054D01*
X335903Y615592D01*
X336363Y615285D01*
X336906Y615177D01*
X345710D01*
X348423Y613537D01*
X348723Y613237D01*
X349680Y612685D01*
X350747Y612399D01*
X351852D01*
X352919Y612685D01*
X353875Y613237D01*
X354175Y613537D01*
X356889Y615177D01*
X360078D01*
X360212Y614677D01*
X359904Y614499D01*
X359123Y613718D01*
X358571Y612761D01*
X358285Y611694D01*
Y610589D01*
X358571Y609522D01*
X359123Y608566D01*
X359904Y607784D01*
X360861Y607232D01*
X361928Y606946D01*
X363033D01*
X364100Y607232D01*
X365056Y607784D01*
X365838Y608566D01*
X366390Y609522D01*
X366676Y610589D01*
Y611694D01*
X366390Y612761D01*
X365838Y613718D01*
X365056Y614499D01*
X364749Y614677D01*
X364883Y615177D01*
X370318D01*
X377582Y607913D01*
Y466087D01*
X369665Y458170D01*
X367367D01*
X364717Y459761D01*
X364424Y460054D01*
X363483Y460598D01*
X362433Y460879D01*
X361347D01*
X360297Y460598D01*
X359356Y460054D01*
X358588Y459286D01*
X358217Y458644D01*
X357717Y458778D01*
Y465631D01*
X358217Y465765D01*
X358588Y465124D01*
X359356Y464355D01*
X360297Y463812D01*
X361347Y463531D01*
X362433D01*
X363483Y463812D01*
X364424Y464355D01*
X365192Y465124D01*
X365735Y466065D01*
X366017Y467114D01*
Y468201D01*
X365735Y469250D01*
X365192Y470191D01*
X364424Y470960D01*
X363483Y471503D01*
X362433Y471784D01*
X361347D01*
X360297Y471503D01*
X359356Y470960D01*
X358588Y470191D01*
X358217Y469550D01*
X357717Y469684D01*
Y476537D01*
X358217Y476671D01*
X358588Y476029D01*
X359356Y475261D01*
X360297Y474718D01*
X361347Y474436D01*
X362433D01*
X363483Y474718D01*
X364424Y475261D01*
X365192Y476029D01*
X365735Y476970D01*
X366017Y478020D01*
Y479106D01*
X365735Y480156D01*
X365192Y481097D01*
X364424Y481865D01*
X363483Y482409D01*
X362433Y482690D01*
X361347D01*
X360297Y482409D01*
X359356Y481865D01*
X358588Y481097D01*
X358217Y480455D01*
X357717Y480589D01*
Y496177D01*
X363520Y504229D01*
X363526Y504241D01*
X364199Y504915D01*
X365312Y506580D01*
X366078Y508431D01*
X366469Y510396D01*
Y512399D01*
X366078Y514364D01*
X365312Y516215D01*
X364199Y517881D01*
X362782Y519297D01*
X361117Y520410D01*
X359266Y521177D01*
X357301Y521568D01*
X355298D01*
X353333Y521177D01*
X351482Y520410D01*
X349816Y519297D01*
X348400Y517881D01*
X347287Y516215D01*
X346520Y514364D01*
X346129Y512399D01*
Y510396D01*
X346520Y508431D01*
X347287Y506580D01*
X348400Y504915D01*
X349073Y504241D01*
X349078Y504229D01*
X354881Y496177D01*
Y488624D01*
X354835Y488142D01*
X354381Y488142D01*
X348908D01*
X347577Y488818D01*
X316918Y519477D01*
Y555687D01*
X317418Y555753D01*
X317425Y555726D01*
X317859Y554974D01*
X318474Y554359D01*
X319226Y553925D01*
X320065Y553700D01*
X320935D01*
X321774Y553925D01*
X322526Y554359D01*
X322538Y554372D01*
X324409Y555148D01*
X343225D01*
X350217Y550122D01*
X351027Y549312D01*
X352533Y548306D01*
X354207Y547612D01*
X355984Y547259D01*
X357796D01*
X359573Y547612D01*
X361246Y548306D01*
X362753Y549312D01*
X364034Y550594D01*
X365041Y552100D01*
X365734Y553774D01*
X366087Y555551D01*
Y557363D01*
X365734Y559139D01*
X365041Y560813D01*
X364034Y562320D01*
X362753Y563601D01*
X361246Y564607D01*
X359573Y565301D01*
X357796Y565654D01*
X355984D01*
X354207Y565301D01*
X352533Y564607D01*
X351027Y563601D01*
X350624Y563198D01*
X343291Y558309D01*
X324631D01*
X322963Y559204D01*
X322526Y559641D01*
X321774Y560075D01*
X320935Y560300D01*
X320065D01*
X319226Y560075D01*
X318474Y559641D01*
X317859Y559026D01*
X317425Y558274D01*
X317418Y558247D01*
X316918Y558313D01*
Y590924D01*
X317380Y591115D01*
X325620Y582875D01*
X326080Y582568D01*
X326622Y582460D01*
X345710D01*
X348423Y580821D01*
X348723Y580521D01*
X349680Y579968D01*
X350747Y579682D01*
X351852D01*
X352919Y579968D01*
X353875Y580521D01*
X354657Y581302D01*
X355209Y582259D01*
X355495Y583326D01*
Y584430D01*
X355209Y585497D01*
X354657Y586454D01*
X353875Y587235D01*
X352919Y587788D01*
X351852Y588074D01*
X350747D01*
X349680Y587788D01*
X348723Y587235D01*
X348423Y586935D01*
X345710Y585296D01*
X327209D01*
X316502Y596002D01*
X293550Y618955D01*
X293090Y619263D01*
X292547Y619371D01*
X210745D01*
X82558Y747558D01*
X72502Y757613D01*
X72502Y757613D01*
X72502Y757613D01*
X66849Y763266D01*
X66389Y763574D01*
X65847Y763682D01*
X48975D01*
X46262Y765321D01*
X45962Y765621D01*
X45005Y766174D01*
X43938Y766460D01*
X42834D01*
X41766Y766174D01*
X40810Y765621D01*
X40029Y764840D01*
X39476Y763883D01*
X39190Y762816D01*
Y761711D01*
X39476Y760644D01*
X40029Y759688D01*
X40810Y758906D01*
X41766Y758354D01*
X42834Y758068D01*
X43938D01*
X45005Y758354D01*
X45962Y758906D01*
X46262Y759206D01*
X48975Y760846D01*
X65259D01*
X70498Y755608D01*
X79449Y746656D01*
X80137Y744995D01*
Y653642D01*
X70498Y644002D01*
X70190Y643543D01*
X70082Y643000D01*
Y582198D01*
X54716Y566831D01*
X48975D01*
X46262Y568471D01*
X45962Y568771D01*
X45005Y569323D01*
X43938Y569609D01*
X42834D01*
X41766Y569323D01*
X40810Y568771D01*
X40029Y567990D01*
X39476Y567033D01*
X39190Y565966D01*
Y564861D01*
X39476Y563794D01*
X40029Y562837D01*
X40810Y562056D01*
X41766Y561504D01*
X42834Y561218D01*
X43938D01*
X45005Y561504D01*
X45962Y562056D01*
X46262Y562356D01*
X48975Y563996D01*
X55303D01*
X55846Y564104D01*
X56306Y564411D01*
X72502Y580608D01*
X72810Y581068D01*
X72918Y581610D01*
Y642413D01*
X82558Y652053D01*
X82865Y652513D01*
X82973Y653055D01*
Y742479D01*
X83435Y742670D01*
X208689Y617416D01*
X208690Y617410D01*
X208998Y616950D01*
X209457Y616643D01*
X210000Y616535D01*
X291960D01*
X313394Y595101D01*
X314082Y593440D01*
Y518890D01*
X314190Y518347D01*
X314497Y517887D01*
X345520Y486865D01*
X346582Y485112D01*
Y479889D01*
X354835Y479889D01*
X354881Y479408D01*
Y475136D01*
X354381Y475002D01*
X354011Y475644D01*
X353243Y476412D01*
X352302Y476956D01*
X351252Y477237D01*
X350165D01*
X349116Y476956D01*
X348175Y476412D01*
X347406Y475644D01*
X346863Y474703D01*
X346582Y473654D01*
Y472567D01*
X346863Y471517D01*
X347406Y470576D01*
X348175Y469808D01*
X349116Y469265D01*
X350165Y468984D01*
X351252D01*
X352302Y469265D01*
X353243Y469808D01*
X354011Y470576D01*
X354381Y471218D01*
X354881Y471084D01*
Y464231D01*
X354381Y464097D01*
X354011Y464739D01*
X353243Y465507D01*
X352302Y466050D01*
X351252Y466331D01*
X350165D01*
X349116Y466050D01*
X348175Y465507D01*
X347406Y464739D01*
X346863Y463798D01*
X346582Y462748D01*
Y461661D01*
X346863Y460612D01*
X347406Y459671D01*
X348175Y458903D01*
X349116Y458359D01*
X350165Y458078D01*
X351252D01*
X352302Y458359D01*
X353243Y458903D01*
X354011Y459671D01*
X354381Y460313D01*
X354881Y460179D01*
Y453325D01*
X354381Y453191D01*
X354011Y453833D01*
X353243Y454601D01*
X352302Y455145D01*
X351252Y455426D01*
X350165D01*
X349116Y455145D01*
X348175Y454601D01*
X347406Y453833D01*
X346863Y452892D01*
X346582Y451842D01*
Y450756D01*
X346863Y449706D01*
X347406Y448765D01*
X348175Y447997D01*
X349116Y447454D01*
X350165Y447172D01*
X351252D01*
X352302Y447454D01*
X353243Y447997D01*
X354011Y448765D01*
X354381Y449407D01*
X354881Y449273D01*
Y442420D01*
X354381Y442286D01*
X354011Y442928D01*
X353243Y443696D01*
X352302Y444239D01*
X351252Y444521D01*
X350165D01*
X349116Y444239D01*
X348175Y443696D01*
X347406Y442928D01*
X346863Y441987D01*
X346582Y440937D01*
Y439850D01*
X346863Y438801D01*
X347406Y437860D01*
X348175Y437091D01*
X349116Y436548D01*
X350165Y436267D01*
X351252D01*
X352302Y436548D01*
X353243Y437091D01*
X354011Y437860D01*
X354381Y438502D01*
X354881Y438368D01*
Y435546D01*
X334453Y415117D01*
X332792Y414430D01*
X297207D01*
X296670Y414695D01*
Y415973D01*
X291330D01*
Y411055D01*
X291130D01*
Y409382D01*
X294000D01*
X296870D01*
Y411055D01*
X296870Y411055D01*
X296870D01*
X297024Y411504D01*
X297206Y411594D01*
X341078D01*
X349131Y405791D01*
X349143Y405785D01*
X349816Y405112D01*
X351482Y403999D01*
X353333Y403233D01*
X355298Y402842D01*
X357301D01*
X359266Y403233D01*
X361117Y403999D01*
X362782Y405112D01*
X364199Y406529D01*
X365312Y408194D01*
X366078Y410045D01*
X366469Y412010D01*
Y414013D01*
X366078Y415978D01*
X365312Y417829D01*
X364199Y419495D01*
X362782Y420911D01*
X361117Y422024D01*
X359266Y422791D01*
X357301Y423182D01*
X355298D01*
X353333Y422791D01*
X351482Y422024D01*
X349816Y420911D01*
X349143Y420238D01*
X349131Y420232D01*
X341078Y414430D01*
X338428D01*
X338237Y414891D01*
X357302Y433956D01*
X357609Y434416D01*
X357717Y434959D01*
Y443820D01*
X358217Y443954D01*
X358588Y443313D01*
X359356Y442544D01*
X360297Y442001D01*
X361347Y441720D01*
X362433D01*
X363483Y442001D01*
X364424Y442544D01*
X365192Y443313D01*
X365735Y444254D01*
X366017Y445303D01*
Y446390D01*
X365735Y447439D01*
X365192Y448380D01*
X364424Y449149D01*
X363483Y449692D01*
X362433Y449973D01*
X361347D01*
X360297Y449692D01*
X359356Y449149D01*
X358588Y448380D01*
X358217Y447739D01*
X357717Y447872D01*
Y454726D01*
X358217Y454860D01*
X358588Y454218D01*
X359356Y453450D01*
X360297Y452906D01*
X361347Y452625D01*
X362433D01*
X363483Y452906D01*
X364424Y453450D01*
X364717Y453743D01*
X367367Y455334D01*
X370252D01*
X370795Y455442D01*
X371254Y455749D01*
X380002Y464498D01*
X380310Y464957D01*
X380418Y465500D01*
Y608500D01*
X380310Y609043D01*
X380002Y609503D01*
X371908Y617597D01*
X371448Y617904D01*
X370905Y618012D01*
X364883D01*
X364749Y618512D01*
X365056Y618690D01*
X365838Y619471D01*
X366390Y620428D01*
X366676Y621495D01*
Y622600D01*
X366390Y623667D01*
X365838Y624623D01*
X365056Y625405D01*
X364100Y625957D01*
X363033Y626243D01*
X361928D01*
X360861Y625957D01*
X359904Y625405D01*
X359123Y624623D01*
X358571Y623667D01*
X358285Y622600D01*
Y621495D01*
X358571Y620428D01*
X359123Y619471D01*
X359904Y618690D01*
X360212Y618512D01*
X360078Y618012D01*
X356889D01*
X354175Y619652D01*
X353875Y619952D01*
X352919Y620504D01*
X351852Y620790D01*
X350747D01*
X349680Y620504D01*
X348723Y619952D01*
X348423Y619652D01*
X345710Y618012D01*
X337493D01*
X325644Y629861D01*
X325184Y630168D01*
X324642Y630276D01*
X274229D01*
X252004Y652501D01*
X251718Y654261D01*
X251800Y654565D01*
Y655435D01*
X251575Y656274D01*
X251141Y657026D01*
X250937Y657230D01*
X249918Y659114D01*
Y729000D01*
X249810Y729543D01*
X249502Y730002D01*
X234892Y744613D01*
X234432Y744920D01*
X233890Y745028D01*
X168087D01*
X117113Y796002D01*
X116653Y796310D01*
X116110Y796418D01*
X48970D01*
X46248Y798052D01*
X45962Y798338D01*
X45005Y798890D01*
X43938Y799176D01*
D02*
G37*
G36*
X380098Y799674D02*
X364784D01*
X364471Y799612D01*
X364207Y799435D01*
X364030Y799170D01*
X363968Y798858D01*
Y793405D01*
X363308Y792105D01*
X347437Y776234D01*
X347130Y775774D01*
X347022Y775231D01*
Y738137D01*
X335101Y726216D01*
X333440Y725528D01*
X322512D01*
X321973Y725797D01*
Y726780D01*
X317055D01*
Y726980D01*
X315382D01*
Y724110D01*
Y721240D01*
X317055D01*
Y721440D01*
X321973D01*
Y722423D01*
X322512Y722692D01*
X363685D01*
X363968Y722663D01*
Y720827D01*
X364030Y720515D01*
X364207Y720250D01*
X364471Y720073D01*
X364784Y720011D01*
X380098D01*
X380411Y720073D01*
X380675Y720250D01*
X380852Y720515D01*
X380914Y720827D01*
Y730669D01*
X380852Y730981D01*
X380675Y731246D01*
X380411Y731423D01*
X380098Y731485D01*
X379184D01*
X378906Y731901D01*
X379267Y732772D01*
X379540Y734143D01*
Y735542D01*
X379267Y736913D01*
X378732Y738205D01*
X377955Y739368D01*
X376966Y740357D01*
X375804Y741134D01*
X374512Y741669D01*
X373140Y741942D01*
X371742D01*
X370370Y741669D01*
X369078Y741134D01*
X367916Y740357D01*
X366927Y739368D01*
X366150Y738205D01*
X365615Y736913D01*
X365342Y735542D01*
Y734143D01*
X365615Y732772D01*
X365975Y731901D01*
X365698Y731485D01*
X364784D01*
X364471Y731423D01*
X364207Y731246D01*
X364030Y730981D01*
X363968Y730669D01*
Y725786D01*
X363447Y725528D01*
X339076D01*
X338885Y725990D01*
X349443Y736548D01*
X349750Y737008D01*
X349858Y737550D01*
Y774644D01*
X363624Y788411D01*
X364207Y788439D01*
X364471Y788262D01*
X364784Y788200D01*
X365698D01*
X365975Y787784D01*
X365615Y786913D01*
X365342Y785542D01*
Y784143D01*
X365615Y782772D01*
X366150Y781480D01*
X366927Y780317D01*
X367916Y779328D01*
X369078Y778551D01*
X370370Y778016D01*
X371742Y777743D01*
X373140D01*
X374512Y778016D01*
X375804Y778551D01*
X376966Y779328D01*
X377955Y780317D01*
X378732Y781480D01*
X379267Y782772D01*
X379540Y784143D01*
Y785542D01*
X379267Y786913D01*
X378906Y787784D01*
X379184Y788200D01*
X380098D01*
X380411Y788262D01*
X380675Y788439D01*
X380852Y788704D01*
X380914Y789016D01*
Y798858D01*
X380852Y799170D01*
X380675Y799435D01*
X380411Y799612D01*
X380098Y799674D01*
D02*
G37*
G36*
X177670Y781143D02*
X172330D01*
Y776524D01*
X172330Y776196D01*
X172330Y775696D01*
Y774735D01*
X171793Y774469D01*
X164207D01*
X163670Y774735D01*
X163670Y775524D01*
X163670Y776024D01*
Y780643D01*
X158330D01*
Y779853D01*
X157793Y779587D01*
X155707D01*
X155170Y779853D01*
Y780643D01*
X149830D01*
Y775724D01*
X149630D01*
Y774051D01*
X152500D01*
X155370D01*
Y775724D01*
X155170D01*
Y776486D01*
X155707Y776752D01*
X157793D01*
X158330Y776486D01*
X158330Y775696D01*
X158330Y775196D01*
Y770578D01*
X163670D01*
Y771368D01*
X164207Y771633D01*
X171798D01*
X172330Y771376D01*
Y771078D01*
X173086D01*
X173095Y771076D01*
X173112Y771078D01*
X173120D01*
X173138Y771074D01*
X173157Y771078D01*
X173817D01*
X174082Y770541D01*
Y762199D01*
X173817Y761662D01*
X172141D01*
Y751007D01*
X178859D01*
Y761662D01*
X177183D01*
X176918Y762199D01*
Y770541D01*
X177183Y771078D01*
X177670D01*
Y775696D01*
X177670Y776024D01*
X177733Y776498D01*
X178182Y776692D01*
X227913D01*
X228088Y776517D01*
X228700Y774464D01*
Y774176D01*
X228925Y773337D01*
X229359Y772584D01*
X229974Y771970D01*
X230054Y771923D01*
X231082Y770382D01*
Y761923D01*
X230817Y761387D01*
X229141D01*
Y750732D01*
X235859D01*
Y761387D01*
X234183D01*
X233918Y761923D01*
Y770725D01*
X234824Y772897D01*
X234826Y772905D01*
X235075Y773337D01*
X235300Y774176D01*
Y775045D01*
X235075Y775884D01*
X234641Y776637D01*
X234026Y777251D01*
X233274Y777685D01*
X232435Y777910D01*
X232146D01*
X230093Y778522D01*
X229503Y779113D01*
X229043Y779420D01*
X228500Y779528D01*
X178207D01*
X177670Y779794D01*
Y781143D01*
D02*
G37*
G36*
X155370Y772051D02*
X153500D01*
Y770378D01*
X155370D01*
Y772051D01*
D02*
G37*
G36*
X151500D02*
X149630D01*
Y770378D01*
X151500D01*
Y772051D01*
D02*
G37*
G36*
X32757Y771912D02*
X31652D01*
X30585Y771626D01*
X29629Y771074D01*
X28847Y770293D01*
X28295Y769336D01*
X28009Y768269D01*
Y767164D01*
X28295Y766097D01*
X28847Y765140D01*
X29629Y764359D01*
X30585Y763807D01*
X31652Y763521D01*
X32757D01*
X33824Y763807D01*
X34781Y764359D01*
X35562Y765140D01*
X36114Y766097D01*
X36400Y767164D01*
Y768269D01*
X36114Y769336D01*
X35562Y770293D01*
X34781Y771074D01*
X33824Y771626D01*
X32757Y771912D01*
D02*
G37*
G36*
X43938Y755554D02*
X42834D01*
X41766Y755268D01*
X40810Y754716D01*
X40029Y753934D01*
X39476Y752978D01*
X39190Y751911D01*
Y750806D01*
X39476Y749739D01*
X40029Y748782D01*
X40810Y748001D01*
X41766Y747448D01*
X42834Y747163D01*
X43938D01*
X45005Y747448D01*
X45962Y748001D01*
X46743Y748782D01*
X47296Y749739D01*
X47581Y750806D01*
Y751911D01*
X47296Y752978D01*
X46743Y753934D01*
X45962Y754716D01*
X45005Y755268D01*
X43938Y755554D01*
D02*
G37*
G36*
X33205Y750188D02*
Y746906D01*
X36487D01*
X36301Y747602D01*
X35722Y748604D01*
X34904Y749423D01*
X33901Y750002D01*
X33205Y750188D01*
D02*
G37*
G36*
X31205D02*
X30508Y750002D01*
X29506Y749423D01*
X28687Y748604D01*
X28109Y747602D01*
X27922Y746906D01*
X31205D01*
Y750188D01*
D02*
G37*
G36*
X36487Y744906D02*
X33205D01*
Y741623D01*
X33901Y741809D01*
X34904Y742388D01*
X35722Y743207D01*
X36301Y744209D01*
X36487Y744906D01*
D02*
G37*
G36*
X31205D02*
X27922D01*
X28109Y744209D01*
X28687Y743207D01*
X29506Y742388D01*
X30508Y741809D01*
X31205Y741623D01*
Y744906D01*
D02*
G37*
G36*
X44386Y744735D02*
Y741453D01*
X47669D01*
X47482Y742149D01*
X46903Y743152D01*
X46085Y743970D01*
X45083Y744549D01*
X44386Y744735D01*
D02*
G37*
G36*
X42386Y744735D02*
X41689Y744549D01*
X40687Y743970D01*
X39868Y743152D01*
X39290Y742149D01*
X39103Y741453D01*
X42386D01*
Y744735D01*
D02*
G37*
G36*
Y739453D02*
X39103D01*
X39290Y738756D01*
X39868Y737754D01*
X40687Y736935D01*
X41689Y736357D01*
X42386Y736170D01*
Y739453D01*
D02*
G37*
G36*
X47669D02*
X44386D01*
Y736170D01*
X45083Y736357D01*
X46085Y736935D01*
X46903Y737754D01*
X47482Y738756D01*
X47669Y739453D01*
D02*
G37*
G36*
X33205Y739283D02*
Y736000D01*
X36487D01*
X36301Y736697D01*
X35722Y737699D01*
X34904Y738517D01*
X33901Y739096D01*
X33205Y739283D01*
D02*
G37*
G36*
X31205D02*
X30508Y739096D01*
X29506Y738517D01*
X28687Y737699D01*
X28109Y736697D01*
X27922Y736000D01*
X31205D01*
Y739283D01*
D02*
G37*
G36*
X36487Y734000D02*
X33205D01*
Y730717D01*
X33901Y730904D01*
X34904Y731483D01*
X35722Y732301D01*
X36301Y733303D01*
X36487Y734000D01*
D02*
G37*
G36*
X31205D02*
X27922D01*
X28109Y733303D01*
X28687Y732301D01*
X29506Y731483D01*
X30508Y730904D01*
X31205Y730717D01*
Y734000D01*
D02*
G37*
G36*
X313382Y726980D02*
X311709D01*
Y725110D01*
X313382D01*
Y726980D01*
D02*
G37*
G36*
X47581Y733743D02*
X39190D01*
Y725352D01*
X47581D01*
Y727376D01*
X48118Y727641D01*
X69293D01*
X69830Y727376D01*
Y726614D01*
X69630D01*
Y724941D01*
X72500D01*
X75370D01*
Y726614D01*
X75170D01*
Y731532D01*
X69830D01*
Y730742D01*
X69293Y730477D01*
X48118D01*
X47581Y730742D01*
Y733743D01*
D02*
G37*
G36*
X75370Y722941D02*
X73500D01*
Y721268D01*
X75370D01*
Y722941D01*
D02*
G37*
G36*
X71500D02*
X69630D01*
Y721268D01*
X71500D01*
Y722941D01*
D02*
G37*
G36*
X313382Y723110D02*
X311709D01*
Y721240D01*
X313382D01*
Y723110D01*
D02*
G37*
G36*
X357796Y696835D02*
X355984D01*
X354207Y696482D01*
X352533Y695789D01*
X351027Y694782D01*
X349745Y693501D01*
X348739Y691994D01*
X348268Y690858D01*
X345818Y688985D01*
X345629Y688948D01*
X345169Y688640D01*
X332016Y675488D01*
X330266Y675211D01*
X329935Y675300D01*
X329065D01*
X328226Y675075D01*
X327474Y674641D01*
X326859Y674026D01*
X326425Y673274D01*
X326200Y672435D01*
Y672146D01*
X325588Y670093D01*
X305694Y650199D01*
X305387Y649739D01*
X305279Y649197D01*
Y648339D01*
X305010Y647800D01*
X303830D01*
Y642882D01*
X303630D01*
Y641209D01*
X306500D01*
Y640209D01*
D01*
Y641209D01*
X309370D01*
Y642882D01*
X309170D01*
Y647800D01*
X308384D01*
X308115Y648339D01*
Y648610D01*
X327593Y668088D01*
X329646Y668700D01*
X329935D01*
X330774Y668925D01*
X331526Y669359D01*
X332141Y669974D01*
X332575Y670726D01*
X332633Y670942D01*
X332636Y670946D01*
X333659Y673120D01*
X346391Y685852D01*
X348268Y684417D01*
X348739Y683281D01*
X349745Y681775D01*
X351027Y680493D01*
X352533Y679487D01*
X354207Y678794D01*
X355984Y678440D01*
X357796D01*
X359573Y678794D01*
X361246Y679487D01*
X362753Y680493D01*
X364034Y681775D01*
X365041Y683281D01*
X365734Y684955D01*
X366087Y686732D01*
Y688544D01*
X365734Y690321D01*
X365041Y691994D01*
X364034Y693501D01*
X362753Y694782D01*
X361246Y695789D01*
X359573Y696482D01*
X357796Y696835D01*
D02*
G37*
G36*
X355495Y664412D02*
X347104D01*
Y656021D01*
X355495D01*
Y664412D01*
D02*
G37*
G36*
X363033Y658959D02*
X361928D01*
X360861Y658673D01*
X359904Y658121D01*
X359123Y657340D01*
X358571Y656383D01*
X358285Y655316D01*
Y654211D01*
X358571Y653144D01*
X359123Y652188D01*
X359904Y651406D01*
X360861Y650854D01*
X361928Y650568D01*
X363033D01*
X364100Y650854D01*
X365056Y651406D01*
X365838Y652188D01*
X366390Y653144D01*
X366676Y654211D01*
Y655316D01*
X366390Y656383D01*
X365838Y657340D01*
X365056Y658121D01*
X364100Y658673D01*
X363033Y658959D01*
D02*
G37*
G36*
X351852Y653507D02*
X350747D01*
X349680Y653221D01*
X348723Y652668D01*
X347942Y651887D01*
X347390Y650931D01*
X347104Y649863D01*
Y648759D01*
X347390Y647692D01*
X347942Y646735D01*
X348723Y645954D01*
X349680Y645401D01*
X350747Y645115D01*
X351852D01*
X352919Y645401D01*
X353875Y645954D01*
X354657Y646735D01*
X355209Y647692D01*
X355495Y648759D01*
Y649863D01*
X355209Y650931D01*
X354657Y651887D01*
X353875Y652668D01*
X352919Y653221D01*
X351852Y653507D01*
D02*
G37*
G36*
X363033Y648054D02*
X361928D01*
X360861Y647768D01*
X359904Y647216D01*
X359123Y646434D01*
X358571Y645478D01*
X358285Y644411D01*
Y643306D01*
X358571Y642239D01*
X359123Y641282D01*
X359904Y640501D01*
X360861Y639949D01*
X361928Y639663D01*
X363033D01*
X364100Y639949D01*
X365056Y640501D01*
X365838Y641282D01*
X366390Y642239D01*
X366676Y643306D01*
Y644411D01*
X366390Y645478D01*
X365838Y646434D01*
X365056Y647216D01*
X364100Y647768D01*
X363033Y648054D01*
D02*
G37*
G36*
X309370Y639209D02*
X307500D01*
Y637535D01*
X309370D01*
Y639209D01*
D02*
G37*
G36*
X305500D02*
X303630D01*
Y637535D01*
X305500D01*
Y639209D01*
D02*
G37*
G36*
X351852Y642601D02*
X350747D01*
X349680Y642315D01*
X348723Y641763D01*
X347942Y640982D01*
X347390Y640025D01*
X347104Y638958D01*
Y637853D01*
X347390Y636786D01*
X347942Y635829D01*
X348723Y635048D01*
X349680Y634496D01*
X350747Y634210D01*
X351852D01*
X352919Y634496D01*
X353875Y635048D01*
X354657Y635829D01*
X355209Y636786D01*
X355495Y637853D01*
Y638958D01*
X355209Y640025D01*
X354657Y640982D01*
X353875Y641763D01*
X352919Y642315D01*
X351852Y642601D01*
D02*
G37*
G36*
X235859Y726938D02*
X229141D01*
Y716283D01*
X230813D01*
X231082Y715744D01*
Y660698D01*
X206907Y636522D01*
X204854Y635910D01*
X204566D01*
X203726Y635685D01*
X202974Y635251D01*
X202359Y634636D01*
X201925Y633884D01*
X201700Y633045D01*
Y632176D01*
X201925Y631336D01*
X202359Y630584D01*
X202974Y629970D01*
X203726Y629535D01*
X204566Y629310D01*
X205434D01*
X206274Y629535D01*
X207026Y629970D01*
X207641Y630584D01*
X208075Y631336D01*
X208300Y632176D01*
Y632464D01*
X208912Y634517D01*
X233503Y659108D01*
X233810Y659568D01*
X233918Y660110D01*
Y715744D01*
X234187Y716283D01*
X235859D01*
Y726938D01*
D02*
G37*
G36*
X363033Y637148D02*
X361928D01*
X360861Y636863D01*
X359904Y636310D01*
X359123Y635529D01*
X358571Y634572D01*
X358285Y633505D01*
Y632400D01*
X358571Y631333D01*
X359123Y630377D01*
X359904Y629595D01*
X360861Y629043D01*
X361928Y628757D01*
X363033D01*
X364100Y629043D01*
X365056Y629595D01*
X365838Y630377D01*
X366390Y631333D01*
X366676Y632400D01*
Y633505D01*
X366390Y634572D01*
X365838Y635529D01*
X365056Y636310D01*
X364100Y636863D01*
X363033Y637148D01*
D02*
G37*
G36*
X38701Y645654D02*
X36889D01*
X35112Y645301D01*
X33439Y644607D01*
X31932Y643601D01*
X30651Y642320D01*
X29644Y640813D01*
X28951Y639140D01*
X28598Y637363D01*
Y635551D01*
X28951Y633774D01*
X29644Y632100D01*
X30651Y630593D01*
X31932Y629312D01*
X33439Y628306D01*
X35112Y627612D01*
X36889Y627259D01*
X38701D01*
X40478Y627612D01*
X42152Y628306D01*
X43658Y629312D01*
X44940Y630593D01*
X45946Y632100D01*
X46639Y633774D01*
X46993Y635551D01*
Y637363D01*
X46639Y639140D01*
X45946Y640813D01*
X44940Y642320D01*
X43658Y643601D01*
X42152Y644607D01*
X40478Y645301D01*
X38701Y645654D01*
D02*
G37*
G36*
X351852Y631696D02*
X350747D01*
X349680Y631410D01*
X348723Y630857D01*
X347942Y630076D01*
X347390Y629119D01*
X347104Y628052D01*
Y626948D01*
X347390Y625880D01*
X347942Y624924D01*
X348723Y624143D01*
X349680Y623590D01*
X350747Y623304D01*
X351852D01*
X352919Y623590D01*
X353875Y624143D01*
X354657Y624924D01*
X355209Y625880D01*
X355495Y626948D01*
Y628052D01*
X355209Y629119D01*
X354657Y630076D01*
X353875Y630857D01*
X352919Y631410D01*
X351852Y631696D01*
D02*
G37*
G36*
X43938Y613231D02*
X42834D01*
X41766Y612945D01*
X40810Y612393D01*
X40029Y611612D01*
X39476Y610655D01*
X39190Y609588D01*
Y608483D01*
X39476Y607416D01*
X40029Y606459D01*
X40810Y605678D01*
X41766Y605126D01*
X42834Y604840D01*
X43938D01*
X45005Y605126D01*
X45962Y605678D01*
X46743Y606459D01*
X47296Y607416D01*
X47581Y608483D01*
Y609588D01*
X47296Y610655D01*
X46743Y611612D01*
X45962Y612393D01*
X45005Y612945D01*
X43938Y613231D01*
D02*
G37*
G36*
X33205Y607865D02*
Y604583D01*
X36487D01*
X36301Y605279D01*
X35722Y606282D01*
X34904Y607100D01*
X33901Y607679D01*
X33205Y607865D01*
D02*
G37*
G36*
X31205Y607865D02*
X30508Y607679D01*
X29506Y607100D01*
X28687Y606282D01*
X28109Y605279D01*
X27922Y604583D01*
X31205D01*
Y607865D01*
D02*
G37*
G36*
X36487Y602583D02*
X33205D01*
Y599300D01*
X33901Y599487D01*
X34904Y600065D01*
X35722Y600884D01*
X36301Y601886D01*
X36487Y602583D01*
D02*
G37*
G36*
X31205D02*
X27922D01*
X28109Y601886D01*
X28687Y600884D01*
X29506Y600065D01*
X30508Y599487D01*
X31205Y599300D01*
Y602583D01*
D02*
G37*
G36*
X363033Y604432D02*
X361928D01*
X360861Y604146D01*
X359904Y603594D01*
X359123Y602812D01*
X358571Y601856D01*
X358285Y600789D01*
Y599684D01*
X358571Y598617D01*
X359123Y597660D01*
X359904Y596879D01*
X360861Y596326D01*
X361928Y596040D01*
X363033D01*
X364100Y596326D01*
X365056Y596879D01*
X365838Y597660D01*
X366390Y598617D01*
X366676Y599684D01*
Y600789D01*
X366390Y601856D01*
X365838Y602812D01*
X365056Y603594D01*
X364100Y604146D01*
X363033Y604432D01*
D02*
G37*
G36*
X43938Y602326D02*
X42834D01*
X41766Y602040D01*
X40810Y601487D01*
X40029Y600706D01*
X39476Y599749D01*
X39190Y598682D01*
Y597578D01*
X39476Y596511D01*
X40029Y595554D01*
X40810Y594773D01*
X41117Y594595D01*
X40983Y594095D01*
X37794D01*
X35081Y595735D01*
X34781Y596034D01*
X33824Y596587D01*
X32757Y596873D01*
X31652D01*
X30585Y596587D01*
X29629Y596034D01*
X28847Y595253D01*
X28295Y594297D01*
X28009Y593229D01*
Y592706D01*
X28003Y592677D01*
X28009Y592648D01*
Y592125D01*
X28295Y591058D01*
X28847Y590101D01*
X29629Y589320D01*
X30585Y588767D01*
X31652Y588482D01*
X32757D01*
X33824Y588767D01*
X34781Y589320D01*
X35081Y589620D01*
X37794Y591259D01*
X40983D01*
X41117Y590759D01*
X40810Y590582D01*
X40029Y589801D01*
X39476Y588844D01*
X39190Y587777D01*
Y586672D01*
X39476Y585605D01*
X40029Y584648D01*
X40810Y583867D01*
X41766Y583315D01*
X42834Y583029D01*
X43938D01*
X45005Y583315D01*
X45962Y583867D01*
X46743Y584648D01*
X47296Y585605D01*
X47581Y586672D01*
Y587777D01*
X47296Y588844D01*
X46743Y589801D01*
X45962Y590582D01*
X45654Y590759D01*
X45788Y591259D01*
X61765D01*
X63279Y590223D01*
X63359Y590084D01*
X63974Y589470D01*
X64726Y589035D01*
X65566Y588810D01*
X66435D01*
X67274Y589035D01*
X68026Y589470D01*
X68641Y590084D01*
X69075Y590836D01*
X69300Y591676D01*
Y592545D01*
X69075Y593384D01*
X68641Y594136D01*
X68026Y594751D01*
X67447Y595085D01*
X67438Y595109D01*
Y595611D01*
X67447Y595635D01*
X68026Y595970D01*
X68641Y596584D01*
X69075Y597336D01*
X69300Y598176D01*
Y599045D01*
X69075Y599884D01*
X68641Y600636D01*
X68026Y601251D01*
X67274Y601685D01*
X66435Y601910D01*
X65566D01*
X64726Y601685D01*
X63974Y601251D01*
X63359Y600636D01*
X63147Y600269D01*
X61754Y599233D01*
X49038D01*
X46551Y600899D01*
X45962Y601487D01*
X45005Y602040D01*
X43938Y602326D01*
D02*
G37*
G36*
X351852Y598979D02*
X350747D01*
X349680Y598693D01*
X348723Y598141D01*
X347942Y597360D01*
X347390Y596403D01*
X347104Y595336D01*
Y594231D01*
X347390Y593164D01*
X347942Y592207D01*
X348723Y591426D01*
X349680Y590874D01*
X350747Y590588D01*
X351852D01*
X352919Y590874D01*
X353875Y591426D01*
X354657Y592207D01*
X355209Y593164D01*
X355495Y594231D01*
Y595336D01*
X355209Y596403D01*
X354657Y597360D01*
X353875Y598141D01*
X352919Y598693D01*
X351852Y598979D01*
D02*
G37*
G36*
X363033Y593526D02*
X361928D01*
X360861Y593240D01*
X359904Y592688D01*
X359123Y591907D01*
X358571Y590950D01*
X358285Y589883D01*
Y588778D01*
X358571Y587711D01*
X359123Y586755D01*
X359904Y585973D01*
X360861Y585421D01*
X361928Y585135D01*
X363033D01*
X364100Y585421D01*
X365056Y585973D01*
X365838Y586755D01*
X366390Y587711D01*
X366676Y588778D01*
Y589883D01*
X366390Y590950D01*
X365838Y591907D01*
X365056Y592688D01*
X364100Y593240D01*
X363033Y593526D01*
D02*
G37*
G36*
X32757Y585967D02*
X31652D01*
X30585Y585681D01*
X29629Y585129D01*
X28847Y584348D01*
X28295Y583391D01*
X28009Y582324D01*
Y581219D01*
X28295Y580152D01*
X28847Y579195D01*
X29629Y578414D01*
X30585Y577862D01*
X31652Y577576D01*
X32757D01*
X33824Y577862D01*
X34781Y578414D01*
X35562Y579195D01*
X36114Y580152D01*
X36400Y581219D01*
Y582324D01*
X36114Y583391D01*
X35562Y584348D01*
X34781Y585129D01*
X33824Y585681D01*
X32757Y585967D01*
D02*
G37*
G36*
X22544Y656800D02*
X21675D01*
X20836Y656575D01*
X20083Y656141D01*
X19469Y655526D01*
X19034Y654774D01*
X18810Y653934D01*
Y653065D01*
X18891Y652761D01*
X18606Y651001D01*
X15998Y648393D01*
X15690Y647933D01*
X15582Y647391D01*
Y580614D01*
X14563Y578730D01*
X14359Y578526D01*
X13925Y577774D01*
X13700Y576934D01*
Y576065D01*
X13925Y575226D01*
X14359Y574474D01*
X14974Y573859D01*
X15726Y573425D01*
X16566Y573200D01*
X17435D01*
X18274Y573425D01*
X19026Y573859D01*
X19641Y574474D01*
X19975Y575053D01*
X19999Y575062D01*
X20501D01*
X20525Y575053D01*
X20859Y574474D01*
X21474Y573859D01*
X22226Y573425D01*
X23065Y573200D01*
X23934D01*
X24774Y573425D01*
X25526Y573859D01*
X26141Y574474D01*
X26575Y575226D01*
X26800Y576065D01*
Y576934D01*
X26575Y577774D01*
X26141Y578526D01*
X25937Y578730D01*
X24918Y580614D01*
Y633851D01*
X26002Y634936D01*
X26310Y635395D01*
X26418Y635938D01*
Y636886D01*
X27437Y638770D01*
X27641Y638974D01*
X28075Y639726D01*
X28300Y640565D01*
Y641434D01*
X28075Y642274D01*
X27641Y643026D01*
X27026Y643641D01*
X26274Y644075D01*
X25434Y644300D01*
X24566D01*
X23726Y644075D01*
X22974Y643641D01*
X22359Y643026D01*
X21925Y642274D01*
X21700Y641434D01*
Y640565D01*
X21925Y639726D01*
X22359Y638974D01*
X22563Y638770D01*
X23582Y636886D01*
Y636525D01*
X22498Y635440D01*
X22190Y634981D01*
X22082Y634438D01*
Y580614D01*
X21063Y578730D01*
X20859Y578526D01*
X20525Y577947D01*
X20501Y577938D01*
X19999D01*
X19975Y577947D01*
X19641Y578526D01*
X19437Y578730D01*
X18418Y580614D01*
Y646803D01*
X20960Y649346D01*
X23136Y650355D01*
X23143Y650361D01*
X23383Y650425D01*
X24136Y650859D01*
X24750Y651474D01*
X25185Y652226D01*
X25409Y653065D01*
Y653934D01*
X25185Y654774D01*
X24750Y655526D01*
X24136Y656141D01*
X23383Y656575D01*
X22544Y656800D01*
D02*
G37*
G36*
X43938Y580515D02*
X42834D01*
X41766Y580229D01*
X40810Y579676D01*
X40029Y578895D01*
X39476Y577938D01*
X39190Y576871D01*
Y575767D01*
X39476Y574699D01*
X40029Y573743D01*
X40810Y572962D01*
X41766Y572409D01*
X42834Y572123D01*
X43938D01*
X45005Y572409D01*
X45962Y572962D01*
X46743Y573743D01*
X47296Y574699D01*
X47581Y575767D01*
Y576871D01*
X47296Y577938D01*
X46743Y578895D01*
X45962Y579676D01*
X45005Y580229D01*
X43938Y580515D01*
D02*
G37*
G36*
X32757Y575062D02*
X31652D01*
X30585Y574776D01*
X29629Y574224D01*
X28847Y573442D01*
X28295Y572486D01*
X28009Y571419D01*
Y570314D01*
X28295Y569247D01*
X28847Y568290D01*
X29629Y567509D01*
X30585Y566956D01*
X31652Y566671D01*
X32757D01*
X33824Y566956D01*
X34781Y567509D01*
X35562Y568290D01*
X36114Y569247D01*
X36400Y570314D01*
Y571419D01*
X36114Y572486D01*
X35562Y573442D01*
X34781Y574224D01*
X33824Y574776D01*
X32757Y575062D01*
D02*
G37*
G36*
X43938Y558704D02*
X42834D01*
X41766Y558418D01*
X40810Y557865D01*
X40029Y557084D01*
X39476Y556127D01*
X39190Y555060D01*
Y553956D01*
X39476Y552888D01*
X40029Y551932D01*
X40810Y551151D01*
X41766Y550598D01*
X42834Y550312D01*
X43938D01*
X45005Y550598D01*
X45962Y551151D01*
X46743Y551932D01*
X47296Y552888D01*
X47581Y553956D01*
Y555060D01*
X47296Y556127D01*
X46743Y557084D01*
X45962Y557865D01*
X45005Y558418D01*
X43938Y558704D01*
D02*
G37*
G36*
X32757Y553251D02*
X31652D01*
X30585Y552965D01*
X29629Y552413D01*
X28847Y551631D01*
X28295Y550675D01*
X28009Y549608D01*
Y548503D01*
X28295Y547436D01*
X28847Y546479D01*
X29629Y545698D01*
X30585Y545145D01*
X31652Y544860D01*
X32757D01*
X33824Y545145D01*
X34781Y545698D01*
X35562Y546479D01*
X36114Y547436D01*
X36400Y548503D01*
Y549608D01*
X36114Y550675D01*
X35562Y551631D01*
X34781Y552413D01*
X33824Y552965D01*
X32757Y553251D01*
D02*
G37*
G36*
X43938Y547798D02*
X42834D01*
X41766Y547512D01*
X40810Y546960D01*
X40029Y546179D01*
X39476Y545222D01*
X39190Y544155D01*
Y543050D01*
X39476Y541983D01*
X40029Y541026D01*
X40810Y540245D01*
X41766Y539693D01*
X42834Y539407D01*
X43938D01*
X45005Y539693D01*
X45962Y540245D01*
X46743Y541026D01*
X47296Y541983D01*
X47581Y543050D01*
Y544155D01*
X47296Y545222D01*
X46743Y546179D01*
X45962Y546960D01*
X45005Y547512D01*
X43938Y547798D01*
D02*
G37*
G36*
X47581Y536893D02*
X39190D01*
Y528501D01*
X47581D01*
Y536893D01*
D02*
G37*
G36*
X77934Y640910D02*
X77065D01*
X76226Y640685D01*
X75474Y640251D01*
X74859Y639637D01*
X74425Y638884D01*
X74200Y638045D01*
Y637176D01*
X74425Y636337D01*
X74859Y635584D01*
X75063Y635380D01*
X76082Y633496D01*
Y510646D01*
X74145Y508709D01*
X72791Y508032D01*
X70330D01*
Y506959D01*
X69793Y506693D01*
X51455D01*
X44266Y511818D01*
X44256Y511823D01*
X43658Y512420D01*
X42152Y513426D01*
X40478Y514120D01*
X38701Y514473D01*
X36889D01*
X35112Y514120D01*
X33439Y513426D01*
X31932Y512420D01*
X30651Y511139D01*
X29644Y509632D01*
X28951Y507958D01*
X28598Y506181D01*
Y504370D01*
X28951Y502593D01*
X29644Y500919D01*
X30651Y499412D01*
X31932Y498131D01*
X33439Y497125D01*
X35112Y496431D01*
X36889Y496078D01*
X38701D01*
X40478Y496431D01*
X42152Y497125D01*
X43658Y498131D01*
X44256Y498728D01*
X44266Y498733D01*
X51455Y503858D01*
X69793D01*
X70330Y503592D01*
Y503114D01*
X70130D01*
Y501441D01*
X73000D01*
X75870D01*
Y503114D01*
X75670D01*
Y505547D01*
X76347Y506901D01*
X78503Y509057D01*
X78810Y509516D01*
X78918Y510059D01*
Y633496D01*
X79937Y635380D01*
X80141Y635584D01*
X80575Y636337D01*
X80800Y637176D01*
Y638045D01*
X80575Y638884D01*
X80141Y639637D01*
X79526Y640251D01*
X78774Y640685D01*
X77934Y640910D01*
D02*
G37*
G36*
X75870Y499441D02*
X74000D01*
Y497768D01*
X75870D01*
Y499441D01*
D02*
G37*
G36*
X72000D02*
X70130D01*
Y497768D01*
X72000D01*
Y499441D01*
D02*
G37*
G36*
X38403Y453064D02*
X36400D01*
X34435Y452673D01*
X32584Y451906D01*
X30918Y450793D01*
X29502Y449377D01*
X28389Y447711D01*
X27622Y445860D01*
X27231Y443895D01*
Y441892D01*
X27622Y439927D01*
X28389Y438076D01*
X29502Y436411D01*
X30918Y434994D01*
X32584Y433881D01*
X34435Y433114D01*
X36400Y432724D01*
X38403D01*
X40368Y433114D01*
X41773Y433696D01*
X45096Y433295D01*
X45253Y433190D01*
X45795Y433082D01*
X51902D01*
X52582Y432402D01*
Y361694D01*
X47162Y356273D01*
X37365Y354683D01*
X37352Y354678D01*
X36400D01*
X34435Y354287D01*
X32584Y353520D01*
X30918Y352408D01*
X29502Y350991D01*
X28389Y349325D01*
X27622Y347474D01*
X27231Y345510D01*
Y343506D01*
X27622Y341541D01*
X28389Y339690D01*
X29502Y338025D01*
X30918Y336608D01*
X32584Y335495D01*
X34435Y334729D01*
X36400Y334338D01*
X38403D01*
X40368Y334729D01*
X42219Y335495D01*
X43885Y336608D01*
X45301Y338025D01*
X46414Y339690D01*
X47181Y341541D01*
X47572Y343506D01*
Y344458D01*
X47576Y344471D01*
X49167Y354268D01*
X55002Y360104D01*
X55310Y360564D01*
X55418Y361106D01*
Y432402D01*
X56098Y433082D01*
X58793D01*
X59330Y432817D01*
Y432114D01*
X59130D01*
Y430441D01*
X62000D01*
X64870D01*
Y432114D01*
X64670D01*
Y437032D01*
X59330D01*
Y436183D01*
X58793Y435918D01*
X46914D01*
X46599Y438522D01*
X47181Y439927D01*
X47572Y441892D01*
Y443895D01*
X47181Y445860D01*
X46414Y447711D01*
X45301Y449377D01*
X43885Y450793D01*
X42219Y451906D01*
X40368Y452673D01*
X38403Y453064D01*
D02*
G37*
G36*
X64870Y428441D02*
X63000D01*
Y426768D01*
X64870D01*
Y428441D01*
D02*
G37*
G36*
X61000D02*
X59130D01*
Y426768D01*
X61000D01*
Y428441D01*
D02*
G37*
G36*
X43535Y419639D02*
X42449D01*
X41399Y419357D01*
X40458Y418814D01*
X39690Y418046D01*
X39147Y417105D01*
X38865Y416055D01*
Y414968D01*
X39147Y413919D01*
X39690Y412978D01*
X40458Y412210D01*
X41399Y411666D01*
X42449Y411385D01*
X43535D01*
X44585Y411666D01*
X45526Y412210D01*
X46294Y412978D01*
X46838Y413919D01*
X47119Y414968D01*
Y416055D01*
X46838Y417105D01*
X46294Y418046D01*
X45526Y418814D01*
X44585Y419357D01*
X43535Y419639D01*
D02*
G37*
G36*
X32354Y414186D02*
X31268D01*
X30218Y413905D01*
X29277Y413361D01*
X28509Y412593D01*
X27966Y411652D01*
X27684Y410602D01*
Y409516D01*
X27966Y408466D01*
X28509Y407525D01*
X29277Y406757D01*
X30218Y406214D01*
X31268Y405932D01*
X32354D01*
X33404Y406214D01*
X34345Y406757D01*
X35113Y407525D01*
X35657Y408466D01*
X35938Y409516D01*
Y410602D01*
X35657Y411652D01*
X35113Y412593D01*
X34345Y413361D01*
X33404Y413905D01*
X32354Y414186D01*
D02*
G37*
G36*
X296870Y407382D02*
X295000D01*
Y405709D01*
X296870D01*
Y407382D01*
D02*
G37*
G36*
X293000D02*
X291130D01*
Y405709D01*
X293000D01*
Y407382D01*
D02*
G37*
G36*
X43535Y408733D02*
X42449D01*
X41399Y408452D01*
X40458Y407908D01*
X39690Y407140D01*
X39147Y406199D01*
X38865Y405150D01*
Y404063D01*
X39147Y403013D01*
X39690Y402072D01*
X40458Y401304D01*
X41399Y400761D01*
X42449Y400480D01*
X43535D01*
X44585Y400761D01*
X45526Y401304D01*
X46294Y402072D01*
X46838Y403013D01*
X47119Y404063D01*
Y405150D01*
X46838Y406199D01*
X46294Y407140D01*
X45526Y407908D01*
X44585Y408452D01*
X43535Y408733D01*
D02*
G37*
G36*
X32354Y403280D02*
X31268D01*
X30218Y402999D01*
X29277Y402456D01*
X28509Y401687D01*
X27966Y400746D01*
X27684Y399697D01*
Y398610D01*
X27966Y397561D01*
X28509Y396620D01*
X29277Y395851D01*
X30218Y395308D01*
X31268Y395027D01*
X32354D01*
X33404Y395308D01*
X34345Y395851D01*
X35113Y396620D01*
X35657Y397561D01*
X35938Y398610D01*
Y399697D01*
X35657Y400746D01*
X35113Y401687D01*
X34345Y402456D01*
X33404Y402999D01*
X32354Y403280D01*
D02*
G37*
G36*
X43535Y397828D02*
X42449D01*
X41399Y397546D01*
X40458Y397003D01*
X39690Y396235D01*
X39147Y395294D01*
X38865Y394244D01*
Y393158D01*
X39147Y392108D01*
X39690Y391167D01*
X40458Y390399D01*
X41399Y389855D01*
X42449Y389574D01*
X43535D01*
X44585Y389855D01*
X45526Y390399D01*
X46294Y391167D01*
X46838Y392108D01*
X47119Y393158D01*
Y394244D01*
X46838Y395294D01*
X46294Y396235D01*
X45526Y397003D01*
X44585Y397546D01*
X43535Y397828D01*
D02*
G37*
G36*
X32811Y392460D02*
Y389248D01*
X36022D01*
X35843Y389918D01*
X35273Y390905D01*
X34468Y391710D01*
X33481Y392280D01*
X32811Y392460D01*
D02*
G37*
G36*
X30811D02*
X30141Y392280D01*
X29154Y391710D01*
X28349Y390905D01*
X27779Y389918D01*
X27600Y389248D01*
X30811D01*
Y392460D01*
D02*
G37*
G36*
X36022Y387248D02*
X32811D01*
Y384037D01*
X33481Y384216D01*
X34468Y384786D01*
X35273Y385591D01*
X35843Y386578D01*
X36022Y387248D01*
D02*
G37*
G36*
X30811D02*
X27600D01*
X27779Y386578D01*
X28349Y385591D01*
X29154Y384786D01*
X30141Y384216D01*
X30811Y384037D01*
Y387248D01*
D02*
G37*
G36*
X43535Y386922D02*
X42449D01*
X41399Y386641D01*
X40458Y386098D01*
X39690Y385329D01*
X39147Y384388D01*
X38865Y383339D01*
Y382252D01*
X39147Y381202D01*
X39690Y380261D01*
X40458Y379493D01*
X41399Y378950D01*
X42449Y378668D01*
X43535D01*
X44585Y378950D01*
X45526Y379493D01*
X46294Y380261D01*
X46838Y381202D01*
X47119Y382252D01*
Y383339D01*
X46838Y384388D01*
X46294Y385329D01*
X45526Y386098D01*
X44585Y386641D01*
X43535Y386922D01*
D02*
G37*
G36*
X32354Y381469D02*
X31268D01*
X30218Y381188D01*
X29277Y380645D01*
X28509Y379876D01*
X27966Y378935D01*
X27684Y377886D01*
Y376799D01*
X27966Y375750D01*
X28509Y374809D01*
X29277Y374040D01*
X30218Y373497D01*
X31268Y373216D01*
X32354D01*
X33404Y373497D01*
X34345Y374040D01*
X35113Y374809D01*
X35657Y375750D01*
X35938Y376799D01*
Y377886D01*
X35657Y378935D01*
X35113Y379876D01*
X34345Y380645D01*
X33404Y381188D01*
X32354Y381469D01*
D02*
G37*
G36*
X32757Y542345D02*
X31652D01*
X30585Y542059D01*
X29629Y541507D01*
X28847Y540726D01*
X28295Y539769D01*
X28009Y538702D01*
Y537597D01*
X28295Y536530D01*
X28847Y535573D01*
X29147Y535273D01*
X30787Y532560D01*
Y521292D01*
X19997Y510502D01*
X19690Y510043D01*
X19582Y509500D01*
Y377000D01*
X19690Y376457D01*
X19997Y375997D01*
X25997Y369998D01*
X26457Y369690D01*
X27000Y369582D01*
X38329D01*
X38865Y369317D01*
Y367763D01*
X47119D01*
Y376016D01*
X38865D01*
Y372683D01*
X38329Y372418D01*
X27587D01*
X22418Y377587D01*
Y508913D01*
X33207Y519702D01*
X33515Y520162D01*
X33623Y520705D01*
Y532560D01*
X35262Y535273D01*
X35562Y535573D01*
X36114Y536530D01*
X36400Y537597D01*
Y538702D01*
X36114Y539769D01*
X35562Y540726D01*
X34781Y541507D01*
X33824Y542059D01*
X32757Y542345D01*
D02*
G37*
G36*
X357796Y379906D02*
X355984D01*
X354207Y379553D01*
X352533Y378859D01*
X351027Y377853D01*
X350430Y377256D01*
X350419Y377251D01*
X343230Y372126D01*
X332996D01*
X332453Y372019D01*
X331994Y371711D01*
X288497Y328215D01*
X288190Y327755D01*
X288082Y327213D01*
Y266098D01*
X287813Y265560D01*
X286830D01*
Y260642D01*
X286630D01*
Y258968D01*
X289500D01*
X292370D01*
Y260642D01*
X292170D01*
Y261403D01*
X292707Y261669D01*
X292854D01*
X298082Y256440D01*
Y243827D01*
X297063Y241943D01*
X296859Y241739D01*
X296425Y240986D01*
X296200Y240147D01*
Y239278D01*
X296425Y238439D01*
X296859Y237686D01*
X297474Y237072D01*
X298226Y236637D01*
X299065Y236413D01*
X299935D01*
X300774Y236637D01*
X301526Y237072D01*
X302141Y237686D01*
X302575Y238439D01*
X302800Y239278D01*
Y240147D01*
X302575Y240986D01*
X302141Y241739D01*
X301937Y241943D01*
X300918Y243827D01*
Y257028D01*
X300810Y257570D01*
X300502Y258030D01*
X294443Y264089D01*
X293984Y264397D01*
X293441Y264504D01*
X292707D01*
X292170Y264770D01*
Y265560D01*
X291187D01*
X290918Y266098D01*
Y326625D01*
X333583Y369291D01*
X343230D01*
X350419Y364166D01*
X350430Y364161D01*
X351027Y363564D01*
X352533Y362558D01*
X354207Y361864D01*
X355984Y361511D01*
X357796D01*
X359573Y361864D01*
X361246Y362558D01*
X362753Y363564D01*
X364034Y364845D01*
X365041Y366352D01*
X365734Y368026D01*
X366087Y369803D01*
Y371615D01*
X365734Y373392D01*
X365041Y375065D01*
X364034Y376572D01*
X362753Y377853D01*
X361246Y378859D01*
X359573Y379553D01*
X357796Y379906D01*
D02*
G37*
G36*
X355495Y347483D02*
X347104D01*
Y339092D01*
X355495D01*
Y347483D01*
D02*
G37*
G36*
X363033Y342030D02*
X361928D01*
X360861Y341744D01*
X359904Y341192D01*
X359123Y340411D01*
X358571Y339454D01*
X358285Y338387D01*
Y337282D01*
X358571Y336215D01*
X359123Y335258D01*
X359904Y334477D01*
X360861Y333925D01*
X361928Y333639D01*
X363033D01*
X364100Y333925D01*
X365056Y334477D01*
X365838Y335258D01*
X366390Y336215D01*
X366676Y337282D01*
Y338387D01*
X366390Y339454D01*
X365838Y340411D01*
X365056Y341192D01*
X364100Y341744D01*
X363033Y342030D01*
D02*
G37*
G36*
X351852Y336578D02*
X350747D01*
X349680Y336292D01*
X348723Y335739D01*
X347942Y334958D01*
X347390Y334001D01*
X347104Y332934D01*
Y331830D01*
X347390Y330762D01*
X347942Y329806D01*
X348723Y329025D01*
X349680Y328472D01*
X350747Y328186D01*
X351852D01*
X352919Y328472D01*
X353875Y329025D01*
X354657Y329806D01*
X355209Y330762D01*
X355495Y331830D01*
Y332934D01*
X355209Y334001D01*
X354657Y334958D01*
X353875Y335739D01*
X352919Y336292D01*
X351852Y336578D01*
D02*
G37*
G36*
X363033Y331125D02*
X361928D01*
X360861Y330839D01*
X359904Y330287D01*
X359123Y329505D01*
X358571Y328549D01*
X358285Y327482D01*
Y326377D01*
X358571Y325310D01*
X359123Y324353D01*
X359904Y323572D01*
X360861Y323019D01*
X361928Y322733D01*
X363033D01*
X364100Y323019D01*
X365056Y323572D01*
X365838Y324353D01*
X366390Y325310D01*
X366676Y326377D01*
Y327482D01*
X366390Y328549D01*
X365838Y329505D01*
X365056Y330287D01*
X364100Y330839D01*
X363033Y331125D01*
D02*
G37*
G36*
X351852Y325672D02*
X350747D01*
X349680Y325386D01*
X348723Y324834D01*
X347942Y324053D01*
X347390Y323096D01*
X347104Y322029D01*
Y320924D01*
X347390Y319857D01*
X347942Y318900D01*
X348723Y318119D01*
X349680Y317567D01*
X350747Y317281D01*
X351852D01*
X352919Y317567D01*
X353875Y318119D01*
X354657Y318900D01*
X355209Y319857D01*
X355495Y320924D01*
Y322029D01*
X355209Y323096D01*
X354657Y324053D01*
X353875Y324834D01*
X352919Y325386D01*
X351852Y325672D01*
D02*
G37*
G36*
X363033Y320219D02*
X361928D01*
X360861Y319933D01*
X359904Y319381D01*
X359123Y318600D01*
X358571Y317643D01*
X358285Y316576D01*
Y315471D01*
X358571Y314404D01*
X359123Y313447D01*
X359904Y312666D01*
X360861Y312114D01*
X361928Y311828D01*
X363033D01*
X364100Y312114D01*
X365056Y312666D01*
X365838Y313447D01*
X366390Y314404D01*
X366676Y315471D01*
Y316576D01*
X366390Y317643D01*
X365838Y318600D01*
X365056Y319381D01*
X364100Y319933D01*
X363033Y320219D01*
D02*
G37*
G36*
X351852Y314767D02*
X350747D01*
X349680Y314481D01*
X348723Y313928D01*
X347942Y313147D01*
X347390Y312190D01*
X347104Y311123D01*
Y310018D01*
X347390Y308951D01*
X347942Y307995D01*
X348723Y307213D01*
X349680Y306661D01*
X350747Y306375D01*
X351852D01*
X352919Y306661D01*
X353875Y307213D01*
X354657Y307995D01*
X355209Y308951D01*
X355495Y310018D01*
Y311123D01*
X355209Y312190D01*
X354657Y313147D01*
X353875Y313928D01*
X352919Y314481D01*
X351852Y314767D01*
D02*
G37*
G36*
X363033Y309314D02*
X361928D01*
X360861Y309028D01*
X359904Y308475D01*
X359123Y307694D01*
X358571Y306738D01*
X358285Y305670D01*
Y304566D01*
X358571Y303499D01*
X359123Y302542D01*
X359904Y301761D01*
X360861Y301208D01*
X361928Y300922D01*
X363033D01*
X364100Y301208D01*
X365056Y301761D01*
X365838Y302542D01*
X366390Y303499D01*
X366676Y304566D01*
Y305670D01*
X366390Y306738D01*
X365838Y307694D01*
X365056Y308475D01*
X364100Y309028D01*
X363033Y309314D01*
D02*
G37*
G36*
X351852Y303861D02*
X350747D01*
X349680Y303575D01*
X348723Y303023D01*
X347942Y302242D01*
X347390Y301285D01*
X347104Y300218D01*
Y299113D01*
X347390Y298046D01*
X347942Y297089D01*
X348723Y296308D01*
X349680Y295756D01*
X350747Y295470D01*
X351852D01*
X352919Y295756D01*
X353875Y296308D01*
X354657Y297089D01*
X355209Y298046D01*
X355495Y299113D01*
Y300218D01*
X355209Y301285D01*
X354657Y302242D01*
X353875Y303023D01*
X352919Y303575D01*
X351852Y303861D01*
D02*
G37*
G36*
Y292955D02*
X350747D01*
X349680Y292670D01*
X348723Y292117D01*
X348423Y291817D01*
X345710Y290178D01*
X342054D01*
X341511Y290070D01*
X341051Y289762D01*
X323997Y272709D01*
X323690Y272249D01*
X323582Y271706D01*
Y186658D01*
X323690Y186115D01*
X323997Y185655D01*
X339082Y170570D01*
Y124224D01*
X339190Y123682D01*
X339497Y123222D01*
X345833Y116886D01*
X346582Y113887D01*
Y113472D01*
X346863Y112423D01*
X347406Y111482D01*
X348175Y110714D01*
X349116Y110170D01*
X350165Y109889D01*
X351252D01*
X352302Y110170D01*
X353243Y110714D01*
X354011Y111482D01*
X354554Y112423D01*
X354835Y113472D01*
Y114559D01*
X354554Y115609D01*
X354011Y116550D01*
X353243Y117318D01*
X352302Y117861D01*
X351252Y118142D01*
X350838D01*
X347838Y118891D01*
X341918Y124812D01*
Y171158D01*
X341810Y171700D01*
X341502Y172160D01*
X326418Y187245D01*
Y271119D01*
X342641Y287342D01*
X345710D01*
X348423Y285703D01*
X348723Y285402D01*
X349680Y284850D01*
X350747Y284564D01*
X351852D01*
X352919Y284850D01*
X353875Y285402D01*
X354657Y286184D01*
X355209Y287140D01*
X355495Y288208D01*
Y289312D01*
X355209Y290379D01*
X354657Y291336D01*
X353875Y292117D01*
X352919Y292670D01*
X351852Y292955D01*
D02*
G37*
G36*
X363033Y287503D02*
X361928D01*
X360861Y287217D01*
X359904Y286665D01*
X359123Y285883D01*
X358571Y284927D01*
X358285Y283859D01*
Y282755D01*
X358571Y281688D01*
X359123Y280731D01*
X359904Y279950D01*
X360861Y279397D01*
X361928Y279111D01*
X363033D01*
X364100Y279397D01*
X365056Y279950D01*
X365838Y280731D01*
X366390Y281688D01*
X366676Y282755D01*
Y283859D01*
X366390Y284927D01*
X365838Y285883D01*
X365056Y286665D01*
X364100Y287217D01*
X363033Y287503D01*
D02*
G37*
G36*
X351852Y282050D02*
X350747D01*
X349680Y281764D01*
X348723Y281212D01*
X347942Y280431D01*
X347390Y279474D01*
X347104Y278407D01*
Y277302D01*
X347390Y276235D01*
X347942Y275278D01*
X348723Y274497D01*
X349680Y273945D01*
X350747Y273659D01*
X351852D01*
X352919Y273945D01*
X353875Y274497D01*
X354657Y275278D01*
X355209Y276235D01*
X355495Y277302D01*
Y278407D01*
X355209Y279474D01*
X354657Y280431D01*
X353875Y281212D01*
X352919Y281764D01*
X351852Y282050D01*
D02*
G37*
G36*
Y271145D02*
X350747D01*
X349680Y270859D01*
X348723Y270306D01*
X348423Y270006D01*
X345710Y268367D01*
X342835D01*
X342292Y268259D01*
X341832Y267951D01*
X329997Y256117D01*
X329690Y255657D01*
X329582Y255114D01*
Y192543D01*
X328676Y190371D01*
X328674Y190362D01*
X328425Y189931D01*
X328200Y189092D01*
Y188223D01*
X328425Y187384D01*
X328859Y186631D01*
X329474Y186017D01*
X330226Y185582D01*
X331066Y185357D01*
X331354D01*
X333407Y184746D01*
X349291Y168862D01*
Y162301D01*
X349025Y161765D01*
X346582D01*
Y153511D01*
X354835D01*
Y161765D01*
X352392D01*
X352126Y162301D01*
Y169449D01*
X352018Y169991D01*
X351711Y170451D01*
X335412Y186751D01*
X334800Y188804D01*
Y189092D01*
X334575Y189931D01*
X334141Y190684D01*
X333526Y191298D01*
X333446Y191344D01*
X332418Y192886D01*
Y254527D01*
X343422Y265531D01*
X345710D01*
X348423Y263892D01*
X348723Y263591D01*
X349680Y263039D01*
X350747Y262753D01*
X351852D01*
X352919Y263039D01*
X353875Y263591D01*
X354657Y264373D01*
X355209Y265329D01*
X355495Y266396D01*
Y267501D01*
X355209Y268568D01*
X354657Y269525D01*
X353875Y270306D01*
X352919Y270859D01*
X351852Y271145D01*
D02*
G37*
G36*
X292370Y256968D02*
X290500D01*
Y255295D01*
X292370D01*
Y256968D01*
D02*
G37*
G36*
X288500D02*
X286630D01*
Y255295D01*
X288500D01*
Y256968D01*
D02*
G37*
G36*
X357796Y248725D02*
X355984D01*
X354207Y248372D01*
X352533Y247678D01*
X351027Y246672D01*
X349745Y245391D01*
X348739Y243884D01*
X348046Y242210D01*
X347692Y240433D01*
Y238622D01*
X348046Y236845D01*
X348739Y235171D01*
X349745Y233664D01*
X351027Y232383D01*
X352533Y231377D01*
X354207Y230683D01*
X355984Y230330D01*
X357796D01*
X359573Y230683D01*
X361246Y231377D01*
X362753Y232383D01*
X364034Y233664D01*
X365041Y235171D01*
X365734Y236845D01*
X366087Y238622D01*
Y240433D01*
X365734Y242210D01*
X365041Y243884D01*
X364034Y245391D01*
X362753Y246672D01*
X361246Y247678D01*
X359573Y248372D01*
X357796Y248725D01*
D02*
G37*
G36*
X38403Y207001D02*
X36400D01*
X34435Y206610D01*
X32584Y205843D01*
X30918Y204730D01*
X29502Y203314D01*
X28389Y201648D01*
X27622Y199797D01*
X27231Y197832D01*
Y195829D01*
X27622Y193864D01*
X28389Y192013D01*
X29502Y190348D01*
X30918Y188931D01*
X32584Y187818D01*
X34435Y187051D01*
X36400Y186661D01*
X37352D01*
X37365Y186656D01*
X47162Y185065D01*
X47746Y184481D01*
Y183519D01*
X43645Y179418D01*
X28472D01*
X27930Y179310D01*
X27470Y179002D01*
X15497Y167030D01*
X15190Y166570D01*
X15082Y166028D01*
Y116528D01*
X15190Y115985D01*
X15497Y115525D01*
X24511Y106511D01*
X27443Y96318D01*
X27463Y96278D01*
X27622Y95478D01*
X28389Y93628D01*
X29502Y91962D01*
X30918Y90545D01*
X32584Y89432D01*
X34435Y88666D01*
X36400Y88275D01*
X38403D01*
X40368Y88666D01*
X42219Y89432D01*
X43885Y90545D01*
X45301Y91962D01*
X46414Y93628D01*
X47181Y95478D01*
X47572Y97443D01*
Y99447D01*
X47181Y101411D01*
X46414Y103262D01*
X45301Y104928D01*
X43885Y106344D01*
X42219Y107457D01*
X40368Y108224D01*
X38403Y108615D01*
X36400D01*
X35304Y108397D01*
X26252Y108780D01*
X17918Y117115D01*
Y165440D01*
X29060Y176582D01*
X44232D01*
X44775Y176690D01*
X45235Y176997D01*
X50132Y181894D01*
X51792Y182582D01*
X55793D01*
X56330Y182317D01*
Y181555D01*
X56130D01*
Y179882D01*
X59000D01*
X61870D01*
Y181555D01*
X61670D01*
Y186473D01*
X56330D01*
Y185683D01*
X55793Y185418D01*
X51792D01*
X50132Y186106D01*
X49167Y187071D01*
X47576Y196868D01*
X47572Y196880D01*
Y197832D01*
X47181Y199797D01*
X46414Y201648D01*
X45301Y203314D01*
X43885Y204730D01*
X42219Y205843D01*
X40368Y206610D01*
X38403Y207001D01*
D02*
G37*
G36*
X61870Y177882D02*
X60000D01*
Y176209D01*
X61870D01*
Y177882D01*
D02*
G37*
G36*
X58000D02*
X56130D01*
Y176209D01*
X58000D01*
Y177882D01*
D02*
G37*
G36*
X357301Y195190D02*
X355298D01*
X353333Y194799D01*
X351482Y194032D01*
X349816Y192919D01*
X348400Y191503D01*
X347287Y189837D01*
X346520Y187986D01*
X346129Y186021D01*
Y184018D01*
X346520Y182053D01*
X347287Y180202D01*
X348400Y178537D01*
X349816Y177120D01*
X351482Y176007D01*
X353333Y175240D01*
X355298Y174850D01*
X357301D01*
X359266Y175240D01*
X361117Y176007D01*
X362782Y177120D01*
X364199Y178537D01*
X365312Y180202D01*
X366078Y182053D01*
X366469Y184018D01*
Y186021D01*
X366078Y187986D01*
X365312Y189837D01*
X364199Y191503D01*
X362782Y192919D01*
X361117Y194032D01*
X359266Y194799D01*
X357301Y195190D01*
D02*
G37*
G36*
X43535Y173576D02*
X42449D01*
X41399Y173294D01*
X40458Y172751D01*
X39690Y171983D01*
X39147Y171042D01*
X38865Y169992D01*
Y168905D01*
X39147Y167856D01*
X39690Y166915D01*
X40458Y166147D01*
X41399Y165603D01*
X42449Y165322D01*
X43535D01*
X44585Y165603D01*
X45526Y166147D01*
X46294Y166915D01*
X46838Y167856D01*
X47119Y168905D01*
Y169992D01*
X46838Y171042D01*
X46294Y171983D01*
X45526Y172751D01*
X44585Y173294D01*
X43535Y173576D01*
D02*
G37*
G36*
X32354Y168123D02*
X31268D01*
X30218Y167842D01*
X29277Y167298D01*
X28509Y166530D01*
X27966Y165589D01*
X27684Y164539D01*
Y163453D01*
X27966Y162403D01*
X28509Y161462D01*
X29277Y160694D01*
X30218Y160151D01*
X31268Y159869D01*
X32354D01*
X33404Y160151D01*
X34345Y160694D01*
X35113Y161462D01*
X35657Y162403D01*
X35938Y163453D01*
Y164539D01*
X35657Y165589D01*
X35113Y166530D01*
X34345Y167298D01*
X33404Y167842D01*
X32354Y168123D01*
D02*
G37*
G36*
X43535Y162670D02*
X42449D01*
X41399Y162389D01*
X40458Y161846D01*
X39690Y161077D01*
X39147Y160136D01*
X38865Y159087D01*
Y158000D01*
X39147Y156950D01*
X39690Y156009D01*
X40458Y155241D01*
X41399Y154698D01*
X42449Y154417D01*
X43535D01*
X44585Y154698D01*
X45526Y155241D01*
X46294Y156009D01*
X46838Y156950D01*
X47119Y158000D01*
Y159087D01*
X46838Y160136D01*
X46294Y161077D01*
X45526Y161846D01*
X44585Y162389D01*
X43535Y162670D01*
D02*
G37*
G36*
X32354Y157217D02*
X31268D01*
X30218Y156936D01*
X29277Y156393D01*
X28509Y155624D01*
X27966Y154683D01*
X27684Y153634D01*
Y152547D01*
X27966Y151498D01*
X28509Y150557D01*
X29277Y149788D01*
X30218Y149245D01*
X31268Y148964D01*
X32354D01*
X33404Y149245D01*
X34345Y149788D01*
X35113Y150557D01*
X35657Y151498D01*
X35938Y152547D01*
Y153634D01*
X35657Y154683D01*
X35113Y155624D01*
X34345Y156393D01*
X33404Y156936D01*
X32354Y157217D01*
D02*
G37*
G36*
X363033Y298408D02*
X361928D01*
X360861Y298122D01*
X359904Y297570D01*
X359123Y296789D01*
X358571Y295832D01*
X358285Y294765D01*
Y293660D01*
X358571Y292593D01*
X359123Y291636D01*
X359904Y290855D01*
X360861Y290303D01*
X361928Y290017D01*
X363033D01*
X363103Y290036D01*
X365885Y289584D01*
X376582Y278887D01*
Y146615D01*
X372665Y142697D01*
X367367D01*
X364717Y144289D01*
X364424Y144582D01*
X363483Y145125D01*
X362433Y145406D01*
X361347D01*
X360297Y145125D01*
X359356Y144582D01*
X359052Y144278D01*
X358590Y144469D01*
Y148995D01*
X359052Y149187D01*
X359356Y148883D01*
X360297Y148339D01*
X361347Y148058D01*
X362433D01*
X363483Y148339D01*
X364424Y148883D01*
X365192Y149651D01*
X365735Y150592D01*
X366017Y151642D01*
Y152728D01*
X365735Y153778D01*
X365192Y154719D01*
X364424Y155487D01*
X363483Y156031D01*
X362433Y156312D01*
X361347D01*
X360297Y156031D01*
X359356Y155487D01*
X359052Y155184D01*
X358590Y155375D01*
Y159585D01*
X374502Y175497D01*
X374810Y175957D01*
X374918Y176500D01*
Y261382D01*
X374810Y261924D01*
X374502Y262384D01*
X367435Y269452D01*
X366676Y272530D01*
Y272954D01*
X366390Y274021D01*
X365838Y274978D01*
X365056Y275759D01*
X364100Y276311D01*
X363033Y276597D01*
X361928D01*
X360861Y276311D01*
X359904Y275759D01*
X359123Y274978D01*
X358571Y274021D01*
X358285Y272954D01*
Y271849D01*
X358571Y270782D01*
X359123Y269825D01*
X359904Y269044D01*
X360861Y268492D01*
X361928Y268206D01*
X362352D01*
X365430Y267447D01*
X372082Y260795D01*
Y177087D01*
X356170Y161175D01*
X355863Y160715D01*
X355755Y160172D01*
Y136207D01*
X355297Y135749D01*
X354835Y135941D01*
Y136370D01*
X354554Y137420D01*
X354011Y138361D01*
X353243Y139129D01*
X352302Y139672D01*
X351252Y139953D01*
X350165D01*
X349116Y139672D01*
X348175Y139129D01*
X347406Y138361D01*
X346863Y137420D01*
X346582Y136370D01*
Y135284D01*
X346863Y134234D01*
X347406Y133293D01*
X348175Y132525D01*
X349116Y131981D01*
X350165Y131700D01*
X350595D01*
X350786Y131238D01*
X350570Y131022D01*
X350263Y130562D01*
X350228Y130388D01*
X348681Y128516D01*
X348175Y128224D01*
X347406Y127455D01*
X346863Y126514D01*
X346582Y125465D01*
Y124378D01*
X346863Y123328D01*
X347406Y122387D01*
X348175Y121619D01*
X349116Y121076D01*
X350165Y120794D01*
X351252D01*
X352302Y121076D01*
X353243Y121619D01*
X354011Y122387D01*
X354554Y123328D01*
X354835Y124378D01*
Y125465D01*
X354554Y126514D01*
X354236Y127066D01*
X354234Y127074D01*
X353171Y129613D01*
X358175Y134617D01*
X358482Y135077D01*
X358590Y135619D01*
Y138090D01*
X359052Y138281D01*
X359356Y137977D01*
X360297Y137434D01*
X361347Y137153D01*
X362433D01*
X363483Y137434D01*
X364424Y137977D01*
X364717Y138270D01*
X367367Y139862D01*
X373252D01*
X373795Y139970D01*
X374254Y140277D01*
X379002Y145025D01*
X379310Y145485D01*
X379418Y146028D01*
Y279474D01*
X379310Y280017D01*
X379002Y280477D01*
X367693Y291786D01*
X366638Y294905D01*
X366390Y295832D01*
X365838Y296789D01*
X365056Y297570D01*
X364100Y298122D01*
X363033Y298408D01*
D02*
G37*
G36*
X43535Y151765D02*
X42449D01*
X41399Y151483D01*
X40458Y150940D01*
X39690Y150172D01*
X39147Y149231D01*
X38865Y148181D01*
Y147095D01*
X39147Y146045D01*
X39690Y145104D01*
X40458Y144335D01*
X41399Y143792D01*
X42449Y143511D01*
X43535D01*
X44585Y143792D01*
X45526Y144335D01*
X46294Y145104D01*
X46838Y146045D01*
X47119Y147095D01*
Y148181D01*
X46838Y149231D01*
X46294Y150172D01*
X45526Y150940D01*
X44585Y151483D01*
X43535Y151765D01*
D02*
G37*
G36*
X351252Y150859D02*
X350165D01*
X349116Y150578D01*
X348175Y150034D01*
X347406Y149266D01*
X346863Y148325D01*
X346582Y147276D01*
Y146189D01*
X346863Y145139D01*
X347406Y144198D01*
X348175Y143430D01*
X349116Y142887D01*
X350165Y142605D01*
X351252D01*
X352302Y142887D01*
X353243Y143430D01*
X354011Y144198D01*
X354554Y145139D01*
X354835Y146189D01*
Y147276D01*
X354554Y148325D01*
X354011Y149266D01*
X353243Y150034D01*
X352302Y150578D01*
X351252Y150859D01*
D02*
G37*
G36*
X59535Y146628D02*
X58666D01*
X57826Y146403D01*
X57074Y145968D01*
X56459Y145354D01*
X56025Y144601D01*
X55800Y143762D01*
Y143474D01*
X55188Y141421D01*
X51917Y138150D01*
X48469D01*
X45819Y139742D01*
X45526Y140034D01*
X44585Y140578D01*
X43535Y140859D01*
X42449D01*
X41399Y140578D01*
X40458Y140034D01*
X39690Y139266D01*
X39147Y138325D01*
X38865Y137276D01*
Y136189D01*
X39147Y135139D01*
X39690Y134198D01*
X40458Y133430D01*
X41399Y132887D01*
X42449Y132606D01*
X43535D01*
X44585Y132887D01*
X45526Y133430D01*
X45819Y133723D01*
X48469Y135315D01*
X52505D01*
X53047Y135423D01*
X53507Y135730D01*
X57193Y139416D01*
X59246Y140028D01*
X59535D01*
X60374Y140252D01*
X61126Y140687D01*
X61741Y141301D01*
X62175Y142054D01*
X62400Y142893D01*
Y143762D01*
X62175Y144601D01*
X61741Y145354D01*
X61126Y145968D01*
X60374Y146403D01*
X59535Y146628D01*
D02*
G37*
G36*
X322804Y182457D02*
X321936D01*
X321096Y182233D01*
X320344Y181798D01*
X319729Y181184D01*
X319295Y180431D01*
X319070Y179592D01*
Y179547D01*
X318347Y177509D01*
X278913Y138075D01*
X260614D01*
X258730Y139094D01*
X258526Y139298D01*
X257774Y139733D01*
X256934Y139957D01*
X256066D01*
X255226Y139733D01*
X254474Y139298D01*
X253859Y138684D01*
X253425Y137931D01*
X253200Y137092D01*
Y136223D01*
X253425Y135384D01*
X253859Y134631D01*
X254474Y134017D01*
X255226Y133582D01*
X256066Y133358D01*
X256934D01*
X257774Y133582D01*
X258526Y134017D01*
X258730Y134221D01*
X260614Y135240D01*
X279500D01*
X280043Y135348D01*
X280503Y135655D01*
X320227Y175379D01*
X322179Y175857D01*
X322804D01*
X323644Y176082D01*
X324396Y176517D01*
X325011Y177131D01*
X325445Y177884D01*
X325670Y178723D01*
Y179592D01*
X325445Y180431D01*
X325011Y181184D01*
X324396Y181798D01*
X323644Y182233D01*
X322804Y182457D01*
D02*
G37*
G36*
X32354Y146312D02*
X31268D01*
X30218Y146031D01*
X29277Y145487D01*
X28509Y144719D01*
X27966Y143778D01*
X27684Y142728D01*
Y141642D01*
X27966Y140592D01*
X28509Y139651D01*
X29277Y138883D01*
X30218Y138339D01*
X31268Y138058D01*
X32354D01*
X33404Y138339D01*
X34345Y138883D01*
X35113Y139651D01*
X35657Y140592D01*
X35938Y141642D01*
Y142728D01*
X35657Y143778D01*
X35113Y144719D01*
X34345Y145487D01*
X33404Y146031D01*
X32354Y146312D01*
D02*
G37*
G36*
X70434Y139957D02*
X69565D01*
X68726Y139733D01*
X67974Y139298D01*
X67359Y138684D01*
X66925Y137931D01*
X66700Y137092D01*
Y136223D01*
X66925Y135384D01*
X67359Y134631D01*
X67563Y134427D01*
X68336Y132999D01*
X62582Y127245D01*
X47655D01*
X47119Y127510D01*
Y129954D01*
X38865D01*
Y121700D01*
X47119D01*
Y124143D01*
X47655Y124409D01*
X63169D01*
X63712Y124517D01*
X64172Y124824D01*
X71003Y131655D01*
X71310Y132115D01*
X71382Y132477D01*
X72437Y134427D01*
X72641Y134631D01*
X73075Y135384D01*
X73300Y136223D01*
Y137092D01*
X73075Y137931D01*
X72641Y138684D01*
X72026Y139298D01*
X71274Y139733D01*
X70434Y139957D01*
D02*
G37*
G36*
X32354Y135406D02*
X31268D01*
X30218Y135125D01*
X29277Y134582D01*
X28509Y133813D01*
X27966Y132872D01*
X27684Y131823D01*
Y130736D01*
X27966Y129687D01*
X28509Y128746D01*
X29277Y127977D01*
X30218Y127434D01*
X31268Y127153D01*
X32354D01*
X33404Y127434D01*
X34345Y127977D01*
X35113Y128746D01*
X35657Y129687D01*
X35938Y130736D01*
Y131823D01*
X35657Y132872D01*
X35113Y133813D01*
X34345Y134582D01*
X33404Y135125D01*
X32354Y135406D01*
D02*
G37*
G36*
X362433Y134501D02*
X361347D01*
X360297Y134220D01*
X359356Y133676D01*
X358588Y132908D01*
X358044Y131967D01*
X357763Y130917D01*
Y129831D01*
X358044Y128781D01*
X358588Y127840D01*
X359356Y127072D01*
X360297Y126529D01*
X361347Y126247D01*
X362433D01*
X363483Y126529D01*
X364424Y127072D01*
X365192Y127840D01*
X365735Y128781D01*
X366017Y129831D01*
Y130917D01*
X365735Y131967D01*
X365192Y132908D01*
X364424Y133676D01*
X363483Y134220D01*
X362433Y134501D01*
D02*
G37*
G36*
X387934Y283457D02*
X387066D01*
X386226Y283233D01*
X385474Y282798D01*
X384859Y282184D01*
X384425Y281431D01*
X384200Y280592D01*
Y279723D01*
X384425Y278884D01*
X384674Y278452D01*
X384676Y278444D01*
X385582Y276272D01*
Y130615D01*
X375854Y120886D01*
X367367D01*
X364717Y122478D01*
X364424Y122771D01*
X363483Y123314D01*
X362433Y123595D01*
X361347D01*
X360297Y123314D01*
X359356Y122771D01*
X358588Y122002D01*
X358044Y121061D01*
X357763Y120012D01*
Y118925D01*
X358044Y117876D01*
X358588Y116935D01*
X359356Y116166D01*
X360297Y115623D01*
X361347Y115342D01*
X362433D01*
X363483Y115623D01*
X364424Y116166D01*
X364717Y116459D01*
X367367Y118051D01*
X376441D01*
X376984Y118159D01*
X377444Y118466D01*
X388002Y129025D01*
X388310Y129485D01*
X388418Y130028D01*
Y275929D01*
X389446Y277470D01*
X389526Y277517D01*
X390141Y278131D01*
X390575Y278884D01*
X390800Y279723D01*
Y280592D01*
X390575Y281431D01*
X390141Y282184D01*
X389526Y282798D01*
X388774Y283233D01*
X387934Y283457D01*
D02*
G37*
G36*
X297370Y88968D02*
X295500D01*
Y87295D01*
X297370D01*
Y88968D01*
D02*
G37*
G36*
X293500D02*
X291630D01*
Y87295D01*
X293500D01*
Y88968D01*
D02*
G37*
G36*
X326434Y159328D02*
X325566D01*
X324726Y159103D01*
X323974Y158668D01*
X323359Y158054D01*
X322925Y157301D01*
X322700Y156462D01*
Y156174D01*
X322088Y154121D01*
X293497Y125530D01*
X293190Y125070D01*
X293082Y124528D01*
Y98098D01*
X292813Y97560D01*
X291830D01*
Y92642D01*
X291630D01*
Y90969D01*
X294500D01*
X297370D01*
Y92642D01*
X297170D01*
Y93403D01*
X297707Y93669D01*
X316585D01*
X324623Y85631D01*
X325083Y85324D01*
X325625Y85216D01*
X341078D01*
X349131Y79413D01*
X349143Y79408D01*
X349816Y78734D01*
X351482Y77621D01*
X353333Y76855D01*
X355298Y76464D01*
X357301D01*
X359266Y76855D01*
X361117Y77621D01*
X362782Y78734D01*
X364199Y80151D01*
X365312Y81817D01*
X366078Y83667D01*
X366469Y85632D01*
Y87635D01*
X366078Y89600D01*
X365312Y91451D01*
X364199Y93117D01*
X362782Y94533D01*
X361117Y95647D01*
X359266Y96413D01*
X357301Y96804D01*
X355298D01*
X353333Y96413D01*
X351482Y95647D01*
X349816Y94533D01*
X349143Y93860D01*
X349131Y93855D01*
X341078Y88052D01*
X326213D01*
X318175Y96089D01*
X317715Y96396D01*
X317173Y96504D01*
X297707D01*
X297170Y96770D01*
Y97560D01*
X296187D01*
X295918Y98098D01*
Y123940D01*
X324093Y152116D01*
X326146Y152728D01*
X326434D01*
X327274Y152952D01*
X328026Y153387D01*
X328641Y154001D01*
X329075Y154754D01*
X329300Y155593D01*
Y156462D01*
X329075Y157301D01*
X328641Y158054D01*
X328026Y158668D01*
X327274Y159103D01*
X326434Y159328D01*
D02*
G37*
G36*
X215609Y62808D02*
X214391D01*
X213215Y62493D01*
X212160Y61884D01*
X211299Y61023D01*
X210690Y59968D01*
X210375Y58792D01*
Y57574D01*
X210690Y56398D01*
X211299Y55343D01*
X212160Y54482D01*
X213215Y53873D01*
X214391Y53558D01*
X215609D01*
X216785Y53873D01*
X217840Y54482D01*
X218701Y55343D01*
X219310Y56398D01*
X219625Y57574D01*
Y58792D01*
X219310Y59968D01*
X218701Y61023D01*
X217840Y61884D01*
X216785Y62493D01*
X215609Y62808D01*
D02*
G37*
G36*
X175609D02*
X174391D01*
X173215Y62493D01*
X172160Y61884D01*
X171299Y61023D01*
X170690Y59968D01*
X170375Y58792D01*
Y57574D01*
X170690Y56398D01*
X171299Y55343D01*
X172160Y54482D01*
X173215Y53873D01*
X174391Y53558D01*
X175609D01*
X176785Y53873D01*
X177840Y54482D01*
X178701Y55343D01*
X179310Y56398D01*
X179625Y57574D01*
Y58792D01*
X179310Y59968D01*
X178701Y61023D01*
X177840Y61884D01*
X176785Y62493D01*
X175609Y62808D01*
D02*
G37*
G36*
X196000Y50817D02*
Y44222D01*
X202594D01*
X202350Y45452D01*
X201774Y46843D01*
X200937Y48095D01*
X199873Y49160D01*
X198621Y49996D01*
X197230Y50572D01*
X196000Y50817D01*
D02*
G37*
G36*
X194000D02*
X192770Y50572D01*
X191379Y49996D01*
X190127Y49160D01*
X189063Y48095D01*
X188226Y46843D01*
X187650Y45452D01*
X187406Y44222D01*
X194000D01*
Y50817D01*
D02*
G37*
G36*
X202594Y42222D02*
X196000D01*
Y35628D01*
X197230Y35872D01*
X198621Y36449D01*
X199873Y37285D01*
X200937Y38350D01*
X201774Y39602D01*
X202350Y40993D01*
X202594Y42222D01*
D02*
G37*
G36*
X194000D02*
X187406D01*
X187650Y40993D01*
X188226Y39602D01*
X189063Y38350D01*
X190127Y37285D01*
X191379Y36449D01*
X192770Y35872D01*
X194000Y35628D01*
Y42222D01*
D02*
G37*
G36*
X215609Y22808D02*
X214391D01*
X213215Y22493D01*
X212160Y21884D01*
X211299Y21023D01*
X210690Y19968D01*
X210375Y18792D01*
Y17574D01*
X210690Y16398D01*
X211299Y15343D01*
X212160Y14482D01*
X213215Y13873D01*
X214391Y13558D01*
X215609D01*
X216785Y13873D01*
X217840Y14482D01*
X218701Y15343D01*
X219310Y16398D01*
X219625Y17574D01*
Y18792D01*
X219310Y19968D01*
X218701Y21023D01*
X217840Y21884D01*
X216785Y22493D01*
X215609Y22808D01*
D02*
G37*
G36*
X175609D02*
X174391D01*
X173215Y22493D01*
X172160Y21884D01*
X171299Y21023D01*
X170690Y19968D01*
X170375Y18792D01*
Y17574D01*
X170690Y16398D01*
X171299Y15343D01*
X172160Y14482D01*
X173215Y13873D01*
X174391Y13558D01*
X175609D01*
X176785Y13873D01*
X177840Y14482D01*
X178701Y15343D01*
X179310Y16398D01*
X179625Y17574D01*
Y18792D01*
X179310Y19968D01*
X178701Y21023D01*
X177840Y21884D01*
X176785Y22493D01*
X175609Y22808D01*
D02*
G37*
G36*
X376779Y26603D02*
X375189D01*
X375111Y26587D01*
X375030D01*
X373471Y26277D01*
X373397Y26247D01*
X373318Y26231D01*
X371849Y25622D01*
X371782Y25578D01*
X371708Y25547D01*
X370386Y24664D01*
X370329Y24607D01*
X370263Y24562D01*
X369138Y23438D01*
X369094Y23371D01*
X369037Y23315D01*
X368154Y21993D01*
X368123Y21918D01*
X368078Y21852D01*
X367470Y20383D01*
X367454Y20304D01*
X367424Y20230D01*
X367113Y18671D01*
Y18590D01*
X367098Y18511D01*
Y16922D01*
X367113Y16843D01*
Y16762D01*
X367424Y15203D01*
X367454Y15129D01*
X367470Y15050D01*
X368078Y13581D01*
X368123Y13515D01*
X368154Y13440D01*
X369037Y12118D01*
X369094Y12062D01*
X369138Y11995D01*
X370263Y10871D01*
X370329Y10826D01*
X370386Y10769D01*
X371708Y9886D01*
X371782Y9855D01*
X371849Y9811D01*
X373318Y9202D01*
X373397Y9187D01*
X373471Y9156D01*
X375030Y8846D01*
X375111D01*
X375189Y8830D01*
X376779D01*
X376858Y8846D01*
X376938D01*
X378498Y9156D01*
X378572Y9187D01*
X378651Y9202D01*
X380119Y9811D01*
X380186Y9855D01*
X380260Y9886D01*
X381582Y10769D01*
X381639Y10826D01*
X381706Y10871D01*
X382830Y11995D01*
X382875Y12062D01*
X382931Y12118D01*
X383815Y13440D01*
X383845Y13515D01*
X383890Y13581D01*
X384499Y15050D01*
X384514Y15129D01*
X384545Y15203D01*
X384855Y16762D01*
Y16843D01*
X384871Y16922D01*
Y18511D01*
X384855Y18590D01*
Y18671D01*
X384545Y20230D01*
X384514Y20304D01*
X384499Y20383D01*
X383890Y21852D01*
X383845Y21918D01*
X383815Y21993D01*
X382931Y23315D01*
X382875Y23371D01*
X382830Y23438D01*
X381706Y24562D01*
X381639Y24607D01*
X381582Y24664D01*
X380260Y25547D01*
X380186Y25578D01*
X380119Y25622D01*
X378651Y26231D01*
X378572Y26247D01*
X378498Y26277D01*
X376938Y26587D01*
X376858D01*
X376779Y26603D01*
D02*
G37*
G36*
X18511D02*
X16922D01*
X16843Y26587D01*
X16762D01*
X15203Y26277D01*
X15129Y26247D01*
X15050Y26231D01*
X13581Y25622D01*
X13515Y25578D01*
X13440Y25547D01*
X12118Y24664D01*
X12062Y24607D01*
X11995Y24562D01*
X10871Y23438D01*
X10826Y23371D01*
X10769Y23315D01*
X9886Y21993D01*
X9855Y21918D01*
X9811Y21852D01*
X9202Y20383D01*
X9187Y20304D01*
X9156Y20230D01*
X8846Y18671D01*
Y18590D01*
X8830Y18511D01*
Y16922D01*
X8846Y16843D01*
Y16762D01*
X9156Y15203D01*
X9187Y15129D01*
X9202Y15050D01*
X9811Y13581D01*
X9855Y13515D01*
X9886Y13440D01*
X10769Y12118D01*
X10826Y12062D01*
X10871Y11995D01*
X11995Y10871D01*
X12062Y10826D01*
X12118Y10769D01*
X13440Y9886D01*
X13515Y9855D01*
X13581Y9811D01*
X15050Y9202D01*
X15129Y9187D01*
X15203Y9156D01*
X16762Y8846D01*
X16843D01*
X16922Y8830D01*
X18511D01*
X18590Y8846D01*
X18671D01*
X20230Y9156D01*
X20304Y9187D01*
X20383Y9202D01*
X21852Y9811D01*
X21918Y9855D01*
X21993Y9886D01*
X23315Y10769D01*
X23371Y10826D01*
X23438Y10871D01*
X24562Y11995D01*
X24607Y12062D01*
X24664Y12118D01*
X25547Y13440D01*
X25578Y13515D01*
X25622Y13581D01*
X26231Y15050D01*
X26247Y15129D01*
X26277Y15203D01*
X26587Y16762D01*
Y16843D01*
X26603Y16922D01*
Y18511D01*
X26587Y18590D01*
Y18671D01*
X26277Y20230D01*
X26247Y20304D01*
X26231Y20383D01*
X25622Y21852D01*
X25578Y21918D01*
X25547Y21993D01*
X24664Y23315D01*
X24607Y23371D01*
X24562Y23438D01*
X23438Y24562D01*
X23371Y24607D01*
X23315Y24664D01*
X21993Y25547D01*
X21918Y25578D01*
X21852Y25622D01*
X20383Y26231D01*
X20304Y26247D01*
X20230Y26277D01*
X18671Y26587D01*
X18590D01*
X18511Y26603D01*
D02*
G37*
%LPD*%
G36*
X315901Y862201D02*
Y861020D01*
X314720Y860429D01*
Y862791D01*
X315901Y862201D01*
D02*
G37*
G36*
X358781Y856787D02*
X352703Y861020D01*
Y862201D01*
X358781Y866433D01*
Y856787D01*
D02*
G37*
G36*
X123071Y894869D02*
X121890D01*
X120380Y897468D01*
X124580D01*
X123071Y894869D01*
D02*
G37*
G36*
X124580Y891753D02*
X120380D01*
X121890Y894351D01*
X123071D01*
X124580Y891753D01*
D02*
G37*
G36*
X123071Y884869D02*
X121890D01*
X120380Y887468D01*
X124580D01*
X123071Y884869D01*
D02*
G37*
G36*
X278966Y879145D02*
X277785D01*
X277194Y880338D01*
X279557D01*
X278966Y879145D01*
D02*
G37*
G36*
X279557Y867299D02*
X277194D01*
X277785Y868492D01*
X278966D01*
X279557Y867299D01*
D02*
G37*
G36*
X272876Y861133D02*
X271950Y861469D01*
Y862650D01*
X272876Y862986D01*
Y861133D01*
D02*
G37*
G36*
X235060Y824335D02*
X233765Y822163D01*
X232661Y825435D01*
X234673Y825618D01*
X235060Y824335D01*
D02*
G37*
G36*
X229464Y821770D02*
X227508Y823020D01*
X227700Y824201D01*
X230009Y825227D01*
X229464Y821770D01*
D02*
G37*
G36*
X91780Y834642D02*
X90599Y834789D01*
Y835970D01*
X91792Y836561D01*
X91780Y834642D01*
D02*
G37*
G36*
X81306Y834789D02*
X79289Y833954D01*
X77619D01*
X77273Y834789D01*
X79880Y835970D01*
X81306Y834789D01*
D02*
G37*
G36*
X50798Y835970D02*
X51100Y834789D01*
X45058Y829091D01*
X42156Y840484D01*
X50798Y835970D01*
D02*
G37*
G36*
X10750Y787785D02*
X7250D01*
X8409Y789929D01*
X9591D01*
X10750Y787785D01*
D02*
G37*
G36*
X305715Y823360D02*
X303571Y824520D01*
Y825701D01*
X305715Y826860D01*
Y823360D01*
D02*
G37*
G36*
X131315Y799895D02*
X129501Y801181D01*
X129836Y802362D01*
X132241Y803270D01*
X131315Y799895D01*
D02*
G37*
G36*
X343665Y848067D02*
X340145Y847219D01*
X339310Y848054D01*
X340158Y851575D01*
X343665Y848067D01*
D02*
G37*
G36*
Y838067D02*
X340145Y837219D01*
X339310Y838054D01*
X340158Y841575D01*
X343665Y838067D01*
D02*
G37*
G36*
X293181Y813319D02*
X290819D01*
X291409Y814512D01*
X292590D01*
X293181Y813319D01*
D02*
G37*
G36*
X290154Y811353D02*
X290485Y811079D01*
X290154Y810942D01*
Y810586D01*
X289743Y810771D01*
X288468Y810244D01*
X287082Y810528D01*
X286452Y811079D01*
X289059Y812260D01*
X290154Y812752D01*
Y811353D01*
D02*
G37*
G36*
X302039Y812260D02*
Y811079D01*
X300846Y810488D01*
Y812850D01*
X302039Y812260D01*
D02*
G37*
G36*
X311414D02*
X311443Y811079D01*
X309326Y809903D01*
X309244Y813402D01*
X311414Y812260D01*
D02*
G37*
G36*
X305674Y809903D02*
X303557Y811079D01*
X303586Y812260D01*
X305756Y813402D01*
X305674Y809903D01*
D02*
G37*
G36*
X136914Y812260D02*
X136943Y811079D01*
X134826Y809903D01*
X134744Y813402D01*
X136914Y812260D01*
D02*
G37*
G36*
X297154Y805370D02*
X295961Y805961D01*
Y807142D01*
X297154Y807732D01*
Y805370D01*
D02*
G37*
G36*
X295039Y807142D02*
Y805961D01*
X293846Y805370D01*
Y807732D01*
X295039Y807142D01*
D02*
G37*
G36*
X299590Y803709D02*
X298410D01*
X297819Y804902D01*
X300181D01*
X299590Y803709D01*
D02*
G37*
G36*
X327170Y772717D02*
X325977Y773307D01*
Y774488D01*
X327170Y775079D01*
Y772717D01*
D02*
G37*
G36*
Y768701D02*
X325977Y769291D01*
Y770472D01*
X327170Y771063D01*
Y768701D01*
D02*
G37*
G36*
X48764Y795590D02*
X48771Y794410D01*
X45825Y792618D01*
X45797Y797371D01*
X48764Y795590D01*
D02*
G37*
G36*
X37591Y790091D02*
X37581Y788909D01*
X34610Y787131D01*
X34649Y791885D01*
X37591Y790091D01*
D02*
G37*
G36*
X37605Y779090D02*
X37562Y777910D01*
X34543Y776159D01*
X34714Y780910D01*
X37605Y779090D01*
D02*
G37*
G36*
X32112Y775228D02*
X28769Y774434D01*
X27948Y775283D01*
X28809Y778647D01*
X32112Y775228D01*
D02*
G37*
G36*
X48767Y762854D02*
Y761673D01*
X45811Y759887D01*
Y764641D01*
X48767Y762854D01*
D02*
G37*
G36*
X32600Y753438D02*
X29194Y752359D01*
X28251Y753086D01*
X28841Y756349D01*
X32600Y753438D01*
D02*
G37*
G36*
X81973Y746973D02*
X82981Y744294D01*
X82146Y743948D01*
X80965Y745129D01*
X80129Y747146D01*
X81973Y746973D01*
D02*
G37*
G36*
X172965Y720705D02*
X171772Y721295D01*
Y722476D01*
X172965Y723067D01*
Y720705D01*
D02*
G37*
G36*
X19413Y702654D02*
X19444Y701472D01*
X17329Y700295D01*
X17241Y703794D01*
X19413Y702654D01*
D02*
G37*
G36*
X31842Y696203D02*
X24385Y701472D01*
X24376Y702654D01*
X31754Y707959D01*
X31842Y696203D01*
D02*
G37*
G36*
X250250Y656785D02*
X246750D01*
X247909Y658929D01*
X249091D01*
X250250Y656785D01*
D02*
G37*
G36*
X251244Y652091D02*
X250154Y651511D01*
X247817Y652595D01*
X250891Y654269D01*
X251244Y652091D01*
D02*
G37*
G36*
X242832Y650285D02*
X239332D01*
X240492Y652429D01*
X241673D01*
X242832Y650285D01*
D02*
G37*
G36*
X244278Y646139D02*
X243443Y645304D01*
X241107Y646000D01*
X243582Y648475D01*
X244278Y646139D01*
D02*
G37*
G36*
X356680Y617185D02*
Y616004D01*
X353724Y614218D01*
Y618971D01*
X356680Y617185D01*
D02*
G37*
G36*
X348874Y614218D02*
X345918Y616004D01*
Y617185D01*
X348874Y618971D01*
Y614218D01*
D02*
G37*
G36*
Y603312D02*
X345918Y605098D01*
Y606280D01*
X348874Y608066D01*
Y603312D01*
D02*
G37*
G36*
X8750Y598285D02*
X5250D01*
X6409Y600429D01*
X7591D01*
X8750Y598285D01*
D02*
G37*
G36*
X315918Y595418D02*
X316926Y592739D01*
X316090Y592393D01*
X314910Y593574D01*
X314074Y595590D01*
X315082Y596253D01*
X315918Y595418D01*
D02*
G37*
G36*
X348874Y581501D02*
X345918Y583287D01*
Y584469D01*
X348874Y586255D01*
Y581501D01*
D02*
G37*
G36*
X48767Y566004D02*
X48767Y564823D01*
X45811Y563036D01*
X45811Y567790D01*
X48767Y566004D01*
D02*
G37*
G36*
X29573Y557815D02*
X26783Y559680D01*
X26893Y560861D01*
X30007Y562549D01*
X29573Y557815D01*
D02*
G37*
G36*
X324454Y557478D02*
X324282Y555978D01*
X322085Y555066D01*
X322465Y558546D01*
X324454Y557478D01*
D02*
G37*
G36*
X350706Y550775D02*
X343467Y555978D01*
X343516Y557478D01*
X351086Y562526D01*
X350706Y550775D01*
D02*
G37*
G36*
X362858Y504706D02*
X356890Y496424D01*
X355709D01*
X349740Y504706D01*
X362858Y504706D01*
D02*
G37*
G36*
X348730Y487319D02*
X347406Y485325D01*
X346141Y487414D01*
X347059Y488166D01*
X348730Y487319D01*
D02*
G37*
G36*
X367160Y457342D02*
X367160Y456161D01*
X364265Y454423D01*
X364266Y459081D01*
X367160Y457342D01*
D02*
G37*
G36*
X336959Y413602D02*
X334352Y412421D01*
X332927Y413602D01*
X334943Y414437D01*
X336613D01*
X336959Y413602D01*
D02*
G37*
G36*
X297039D02*
Y412421D01*
X295858Y411839D01*
X295846Y414193D01*
X297039Y413602D01*
D02*
G37*
G36*
X349608Y406453D02*
X341326Y412421D01*
X341326Y413602D01*
X349608Y419571D01*
X349608Y406453D01*
D02*
G37*
G36*
X380098Y789016D02*
X377683D01*
X377182Y789577D01*
X376009Y790514D01*
X374656Y791166D01*
X373192Y791501D01*
X371690D01*
X370226Y791166D01*
X368873Y790514D01*
X367699Y789577D01*
X367198Y789016D01*
X364784D01*
Y790764D01*
X363960Y791587D01*
X364784Y793210D01*
Y798858D01*
X380098D01*
Y789016D01*
D02*
G37*
G36*
Y720827D02*
X364784D01*
Y723399D01*
X363614Y723520D01*
Y724701D01*
X364784Y725280D01*
Y730669D01*
X367198D01*
X367198Y730669D01*
X367699Y730108D01*
X368873Y729171D01*
X370226Y728519D01*
X371690Y728184D01*
X373192D01*
X374656Y728519D01*
X376009Y729171D01*
X377182Y730108D01*
X377683Y730669D01*
X380098Y730669D01*
Y720827D01*
D02*
G37*
G36*
X337607Y724701D02*
X335000Y723520D01*
X333574Y724701D01*
X335591Y725536D01*
X337261D01*
X337607Y724701D01*
D02*
G37*
G36*
X322342D02*
Y723520D01*
X321161Y722929D01*
Y725291D01*
X322342Y724701D01*
D02*
G37*
G36*
X178039Y778701D02*
Y777520D01*
X176858Y777008D01*
X176846Y779291D01*
X178039Y778701D01*
D02*
G37*
G36*
X159154Y776988D02*
X157961Y777579D01*
Y778760D01*
X159154Y779350D01*
Y776988D01*
D02*
G37*
G36*
X155539Y778760D02*
Y777579D01*
X154346Y776988D01*
Y779350D01*
X155539Y778760D01*
D02*
G37*
G36*
X231975Y777110D02*
X229500Y774635D01*
X228804Y776971D01*
X229639Y777806D01*
X231975Y777110D01*
D02*
G37*
G36*
X173142Y771890D02*
X171961Y772461D01*
Y773642D01*
X173154Y774232D01*
X173142Y771890D01*
D02*
G37*
G36*
X164039Y773642D02*
Y772461D01*
X162846Y771870D01*
Y774232D01*
X164039Y773642D01*
D02*
G37*
G36*
X176091Y770709D02*
X174909D01*
X174319Y771902D01*
X176681D01*
X176091Y770709D01*
D02*
G37*
G36*
X233090Y770861D02*
X231909Y770612D01*
X230642Y772511D01*
X234072Y773211D01*
X233090Y770861D01*
D02*
G37*
G36*
X176681Y760838D02*
X174319D01*
X174909Y762031D01*
X176091D01*
X176681Y760838D01*
D02*
G37*
G36*
X233681Y760563D02*
X231319D01*
X231909Y761756D01*
X233090D01*
X233681Y760563D01*
D02*
G37*
G36*
X70654Y727878D02*
X69461Y728469D01*
Y729650D01*
X70654Y730240D01*
Y727878D01*
D02*
G37*
G36*
X47951Y729650D02*
Y728469D01*
X46758Y727878D01*
Y730240D01*
X47951Y729650D01*
D02*
G37*
G36*
X348941Y684930D02*
X346171Y687047D01*
Y688228D01*
X348941Y690346D01*
Y684930D01*
D02*
G37*
G36*
X332996Y673627D02*
X331898Y671293D01*
X330255Y674383D01*
X332425Y674726D01*
X332996Y673627D01*
D02*
G37*
G36*
X329475Y669500D02*
X327139Y668804D01*
X326304Y669639D01*
X327000Y671975D01*
X329475Y669500D01*
D02*
G37*
G36*
X307878Y646988D02*
X305516D01*
X306106Y648169D01*
X307287D01*
X307878Y646988D01*
D02*
G37*
G36*
X233090Y715914D02*
X231909D01*
X231319Y717095D01*
X233681D01*
X233090Y715914D01*
D02*
G37*
G36*
X208196Y634971D02*
X207500Y632635D01*
X205025Y635110D01*
X207361Y635806D01*
X208196Y634971D01*
D02*
G37*
G36*
X64864Y596383D02*
X62419Y597225D01*
X62008Y598406D01*
X63751Y599701D01*
X64864Y596383D01*
D02*
G37*
G36*
X48808Y598406D02*
X48696Y597225D01*
X45580Y595538D01*
X46021Y600272D01*
X48808Y598406D01*
D02*
G37*
G36*
X63864Y590811D02*
X62000Y592087D01*
X62284Y593268D01*
X64658Y594219D01*
X63864Y590811D01*
D02*
G37*
G36*
X37586Y593268D02*
Y592087D01*
X34630Y590300D01*
Y595054D01*
X37586Y593268D01*
D02*
G37*
G36*
X22793Y651095D02*
X20455Y650011D01*
X19365Y650591D01*
X19719Y652769D01*
X22793Y651095D01*
D02*
G37*
G36*
X25591Y637071D02*
X24409D01*
X23250Y639215D01*
X26750D01*
X25591Y637071D01*
D02*
G37*
G36*
X25250Y578285D02*
X21750D01*
X22909Y580429D01*
X24091D01*
X25250Y578285D01*
D02*
G37*
G36*
X18750D02*
X15250D01*
X16409Y580429D01*
X17591D01*
X18750Y578285D01*
D02*
G37*
G36*
X78091Y633681D02*
X76910D01*
X75750Y635825D01*
X79250D01*
X78091Y633681D01*
D02*
G37*
G36*
X75693Y507417D02*
X74858Y505747D01*
X72991Y507220D01*
X74661Y508055D01*
X75693Y507417D01*
D02*
G37*
G36*
X71154Y504095D02*
X69961Y504685D01*
Y505866D01*
X71154Y506457D01*
Y504095D01*
D02*
G37*
G36*
X51211Y505866D02*
X51211Y504685D01*
X43792Y499397D01*
X43792Y511154D01*
X51211Y505866D01*
D02*
G37*
G36*
X46213Y434918D02*
X45378Y434082D01*
X41635Y434535D01*
X45761Y438660D01*
X46213Y434918D01*
D02*
G37*
G36*
X60154Y433319D02*
X58961Y433910D01*
Y435090D01*
X60154Y435681D01*
Y433319D01*
D02*
G37*
G36*
X55772Y433910D02*
X54590Y432728D01*
X53409D01*
X52228Y433910D01*
X54000Y435090D01*
X55772Y433910D01*
D02*
G37*
G36*
X48407Y354678D02*
X46771Y344601D01*
X37495Y353877D01*
X47572Y355513D01*
X48407Y354678D01*
D02*
G37*
G36*
X32795Y532768D02*
X31614D01*
X29828Y535725D01*
X34582D01*
X32795Y532768D01*
D02*
G37*
G36*
X39689Y369819D02*
X38496Y370409D01*
Y371590D01*
X39689Y372181D01*
Y369819D01*
D02*
G37*
G36*
X350893Y364830D02*
X343474Y370118D01*
X343474Y371299D01*
X350893Y376587D01*
X350893Y364830D01*
D02*
G37*
G36*
X290681Y264748D02*
X288319D01*
X288910Y265929D01*
X290090D01*
X290681Y264748D01*
D02*
G37*
G36*
X292539Y263677D02*
Y262496D01*
X291346Y261906D01*
Y264268D01*
X292539Y263677D01*
D02*
G37*
G36*
X301250Y241498D02*
X297750D01*
X298909Y243642D01*
X300091D01*
X301250Y241498D01*
D02*
G37*
G36*
X348874Y286383D02*
X345918Y288169D01*
Y289350D01*
X348874Y291137D01*
Y286383D01*
D02*
G37*
G36*
X350675Y117342D02*
X347382Y114049D01*
X346565Y117325D01*
X347400Y118160D01*
X350675Y117342D01*
D02*
G37*
G36*
X348874Y264572D02*
X345918Y266358D01*
Y267539D01*
X348874Y269326D01*
Y264572D01*
D02*
G37*
G36*
X332858Y190757D02*
X329428Y190057D01*
X330409Y192407D01*
X331591Y192656D01*
X332858Y190757D01*
D02*
G37*
G36*
X334696Y186297D02*
X333861Y185461D01*
X331525Y186158D01*
X334000Y188633D01*
X334696Y186297D01*
D02*
G37*
G36*
X351890Y160941D02*
X349528D01*
X350118Y162134D01*
X351299D01*
X351890Y160941D01*
D02*
G37*
G36*
X48407Y186661D02*
X47572Y185825D01*
X37495Y187461D01*
X46771Y196737D01*
X48407Y186661D01*
D02*
G37*
G36*
X57154Y182819D02*
X55961Y183409D01*
Y184590D01*
X57154Y185181D01*
Y182819D01*
D02*
G37*
G36*
X51658Y184590D02*
Y183409D01*
X49642Y182574D01*
X48562Y183165D01*
Y184835D01*
X49642Y185426D01*
X51658Y184590D01*
D02*
G37*
G36*
X35317Y107580D02*
X28227Y96543D01*
X25230Y106962D01*
X25883Y107979D01*
X35317Y107580D01*
D02*
G37*
G36*
X366990Y291319D02*
X366295Y290344D01*
X363066Y290868D01*
X365836Y294731D01*
X366990Y291319D01*
D02*
G37*
G36*
X366703Y269014D02*
X365868Y268179D01*
X362514Y269006D01*
X365876Y272368D01*
X366703Y269014D01*
D02*
G37*
G36*
X367160Y141870D02*
X367160Y140689D01*
X364266Y138951D01*
X364265Y143608D01*
X367160Y141870D01*
D02*
G37*
G36*
X352164Y129909D02*
X353482Y126759D01*
X349232Y127902D01*
X350982Y130020D01*
X352164Y129909D01*
D02*
G37*
G36*
X59075Y140828D02*
X56739Y140132D01*
X55904Y140967D01*
X56600Y143303D01*
X59075Y140828D01*
D02*
G37*
G36*
X48262Y137323D02*
X48262Y136142D01*
X45368Y134404D01*
X45368Y139061D01*
X48262Y137323D01*
D02*
G37*
G36*
X322083Y176674D02*
X319790Y176112D01*
X319045Y177038D01*
X319881Y179394D01*
X322083Y176674D01*
D02*
G37*
G36*
X260429Y137248D02*
Y136067D01*
X258285Y134907D01*
Y138408D01*
X260429Y137248D01*
D02*
G37*
G36*
X70591Y132728D02*
X69410D01*
X68250Y134872D01*
X71750D01*
X70591Y132728D01*
D02*
G37*
G36*
X47488Y126417D02*
Y125236D01*
X46295Y124646D01*
Y127008D01*
X47488Y126417D01*
D02*
G37*
G36*
X388858Y278058D02*
X387591Y276159D01*
X386409Y276408D01*
X385428Y278758D01*
X388858Y278058D01*
D02*
G37*
G36*
X367160Y120059D02*
X367160Y118878D01*
X364266Y117140D01*
X364265Y121797D01*
X367160Y120059D01*
D02*
G37*
G36*
X325975Y153528D02*
X323639Y152832D01*
X322804Y153667D01*
X323500Y156003D01*
X325975Y153528D01*
D02*
G37*
G36*
X295681Y96748D02*
X293319D01*
X293910Y97929D01*
X295091D01*
X295681Y96748D01*
D02*
G37*
G36*
X297539Y95677D02*
Y94496D01*
X296346Y93906D01*
Y96268D01*
X297539Y95677D01*
D02*
G37*
G36*
X349608Y80075D02*
X341326Y86043D01*
X341326Y87225D01*
X349608Y93193D01*
X349608Y80075D01*
D02*
G37*
D16*
X333150Y745787D02*
D03*
Y749803D02*
D03*
Y753819D02*
D03*
Y757835D02*
D03*
Y761850D02*
D03*
Y765866D02*
D03*
Y769882D02*
D03*
Y773898D02*
D03*
D17*
X232500Y721610D02*
D03*
Y756059D02*
D03*
X175500Y721886D02*
D03*
Y756335D02*
D03*
D18*
X294500Y89969D02*
D03*
Y95087D02*
D03*
X289500Y257968D02*
D03*
Y263087D02*
D03*
X59000Y178882D02*
D03*
Y184000D02*
D03*
X152500Y773051D02*
D03*
Y778169D02*
D03*
X161000Y778169D02*
D03*
Y773051D02*
D03*
X175000Y773551D02*
D03*
Y778669D02*
D03*
X73000Y500441D02*
D03*
Y505559D02*
D03*
X306500Y640209D02*
D03*
Y645327D02*
D03*
X294000Y408382D02*
D03*
Y413500D02*
D03*
X62000Y429441D02*
D03*
Y434559D02*
D03*
X292000Y811669D02*
D03*
Y806551D02*
D03*
X299000Y806551D02*
D03*
Y811669D02*
D03*
X72500Y723941D02*
D03*
Y729059D02*
D03*
D19*
X314382Y724110D02*
D03*
X319500D02*
D03*
X93441Y836500D02*
D03*
X98559D02*
D03*
X307941Y861610D02*
D03*
X313059D02*
D03*
D20*
X278376Y861811D02*
D03*
X235066Y885826D02*
D03*
Y861811D02*
D03*
X278376Y885826D02*
D03*
D40*
X372441Y793937D02*
D03*
Y725748D02*
D03*
D41*
X332996Y370709D02*
X358000D01*
X285500Y817500D02*
X293110Y825110D01*
X128000Y817500D02*
X285500D01*
X293110Y825110D02*
X307500D01*
X79880Y835380D02*
X92518D01*
X62000Y817500D02*
X79880Y835380D01*
X29500Y817500D02*
X62000D01*
X41380Y835380D02*
X79880D01*
X38000Y832000D02*
X41380Y835380D01*
X37795Y702063D02*
X45803D01*
X43386Y729059D02*
X72500D01*
X65847Y762264D02*
X71500Y756610D01*
X41930Y762264D02*
X65847D01*
X23500Y576500D02*
Y634438D01*
X25000Y635938D01*
Y641000D01*
X21000Y509500D02*
X32205Y520705D01*
X21000Y377000D02*
Y509500D01*
X32205Y520705D02*
Y538150D01*
X21000Y377000D02*
X27000Y371000D01*
X42102D02*
X42992Y371890D01*
X27000Y371000D02*
X42102D01*
X64171Y597815D02*
X64967Y598610D01*
X43071Y597815D02*
X64171D01*
X64967Y598610D02*
X66000D01*
X29421Y592677D02*
X65433D01*
X66000Y592110D01*
X45866Y505276D02*
X72717D01*
X73000Y505559D01*
X299000Y811669D02*
X313760D01*
X17000Y647391D02*
X22109Y652500D01*
Y653500D01*
X17000Y576500D02*
Y647391D01*
X37795Y702063D02*
X37795Y702063D01*
X15563Y702063D02*
X37795D01*
X15500Y702000D02*
X15563Y702063D01*
X11000Y735000D02*
X34263Y758263D01*
X11000Y573000D02*
Y735000D01*
Y573000D02*
X23729Y560271D01*
X7000Y596500D02*
Y753500D01*
X32383Y778883D01*
X132669Y811669D02*
X289059D01*
X33667Y778500D02*
X80110D01*
X136724Y721886D01*
X113110Y789500D02*
X165000Y737610D01*
X32557Y789500D02*
X113110D01*
X42680Y795000D02*
X116110D01*
X167500Y743610D01*
X22613Y577531D02*
X22899Y577199D01*
X22613Y577531D02*
Y578013D01*
X22899Y577199D02*
X23500Y576500D01*
X23729Y560271D02*
X31895D01*
X32205Y559961D01*
X351299Y583878D02*
X352500D01*
X326622D02*
X351299D01*
X43386Y565413D02*
X55303D01*
X370905Y616595D02*
X379000Y608500D01*
X342835Y616595D02*
X351299D01*
X379000Y465500D02*
Y608500D01*
X351299Y616595D02*
X370905D01*
X373500Y176500D02*
Y261382D01*
X361814Y273068D02*
X373500Y261382D01*
X331000Y255114D02*
X342835Y266949D01*
X351299D01*
X362480Y294213D02*
X363262D01*
X378000Y279474D01*
Y146028D02*
Y279474D01*
X273642Y628858D02*
X324642D01*
X336906Y616595D01*
X342835D01*
X325968Y630559D02*
X332781D01*
X71500Y643000D02*
X81555Y653055D01*
Y746555D01*
X71500Y756610D02*
X81555Y746555D01*
X210079Y618032D01*
X71500Y581610D02*
Y643000D01*
X55303Y565413D02*
X71500Y581610D01*
X77500Y510059D02*
Y637610D01*
X71500Y756610D02*
Y756610D01*
X210000Y617953D02*
X292547D01*
X74120Y506679D02*
X77500Y510059D01*
X373252Y141280D02*
X378000Y146028D01*
X357172Y160172D02*
X373500Y176500D01*
X357172Y135619D02*
Y160172D01*
X351573Y130020D02*
X357172Y135619D01*
X351573Y125786D02*
Y130020D01*
X350709Y124921D02*
X351573Y125786D01*
X170390Y823610D02*
X233500D01*
X122480Y871520D02*
Y889610D01*
Y871520D02*
X170390Y823610D01*
X45803Y702063D02*
X45866Y702126D01*
X9000Y786000D02*
Y797000D01*
X29500Y817500D01*
X330533Y672000D02*
X346171Y687638D01*
X306697Y645524D02*
Y649197D01*
X306500Y645327D02*
X306697Y645524D01*
X329500Y672000D02*
X330533D01*
X306697Y649197D02*
X329500Y672000D01*
X346171Y687638D02*
X356890D01*
X73197Y505559D02*
X74120Y506482D01*
Y506679D01*
X54000Y434500D02*
X61941D01*
X37402Y344508D02*
X54000Y361106D01*
Y434500D01*
X45795D02*
X54000D01*
X37402Y442894D02*
X45795Y434500D01*
X44232Y178000D02*
X50232Y184000D01*
X16500Y166028D02*
X28472Y178000D01*
X44232D01*
X37402Y196831D02*
X50232Y184000D01*
X59000D01*
X295280Y413012D02*
Y413976D01*
Y413012D02*
X334352D01*
X292547Y617953D02*
X315500Y595000D01*
Y518890D02*
X347638Y486752D01*
X315500Y595000D02*
X326622Y583878D01*
X315500Y518890D02*
Y595000D01*
X370252Y456752D02*
X379000Y465500D01*
X361890Y456752D02*
X370252D01*
X324000Y623406D02*
X341717Y605689D01*
X351299D01*
X343869Y622554D02*
X346332Y620092D01*
X340786Y622554D02*
X343869D01*
X266177Y623406D02*
X324000D01*
X248500Y655000D02*
Y729000D01*
Y654000D02*
Y655000D01*
X347972Y486752D02*
X350129Y484596D01*
Y484261D02*
Y484596D01*
X347638Y486752D02*
X347972D01*
X334352Y413012D02*
X356299Y434959D01*
Y511398D01*
X331500Y188657D02*
X350709Y169449D01*
X331000Y189157D02*
X331500Y188657D01*
X331000Y189157D02*
Y255114D01*
X350709Y157638D02*
Y169449D01*
X256500Y136658D02*
X279500D01*
X321291Y178449D01*
X340500Y124224D02*
Y171158D01*
X350709Y114016D02*
Y114016D01*
X340500Y124224D02*
X350709Y114016D01*
X325000Y186658D02*
X340500Y171158D01*
X325000Y186658D02*
Y271706D01*
X342054Y288760D02*
X351299D01*
X325000Y271706D02*
X342054Y288760D01*
X294500Y124528D02*
X326000Y156028D01*
X294500Y95087D02*
Y124528D01*
X387000Y130028D02*
Y281157D01*
X241082Y648500D02*
Y727918D01*
X231390Y737610D02*
X241082Y727918D01*
Y648500D02*
X266177Y623406D01*
X248500Y654000D02*
X273642Y628858D01*
X233890Y743610D02*
X248500Y729000D01*
X167500Y743610D02*
X233890D01*
X165000Y737610D02*
X231390D01*
X125989Y815489D02*
X128000Y817500D01*
X126000Y805000D02*
X129228Y801772D01*
X132839D02*
X133500Y801110D01*
X129228Y801772D02*
X132839D01*
X125989Y814511D02*
Y815489D01*
Y814511D02*
X126000Y814500D01*
Y805000D02*
Y814500D01*
X132500Y811500D02*
X132669Y811669D01*
X292000Y814610D02*
X296390Y819000D01*
X311091D02*
X343701Y851610D01*
X296390Y819000D02*
X311091D01*
X287500Y810110D02*
X289059Y811669D01*
X292000D01*
X232000Y774610D02*
X232500Y774110D01*
X228500Y778110D02*
X232000Y774610D01*
X70000Y132658D02*
Y136658D01*
X63169Y125827D02*
X70000Y132658D01*
X42992Y125827D02*
X63169D01*
X93441Y836303D02*
Y836500D01*
X92518Y835380D02*
X93441Y836303D01*
X299500Y239713D02*
Y257028D01*
Y239657D02*
Y239713D01*
X289500Y263587D02*
Y327213D01*
X334352Y413012D02*
X356299D01*
X361890Y119469D02*
X376441D01*
X361890Y141280D02*
X373252D01*
X317173Y95087D02*
X325625Y86634D01*
X294500Y95087D02*
X317173D01*
X289500Y263087D02*
X293441D01*
X299500Y257028D01*
X325625Y86634D02*
X356299D01*
X289500Y327213D02*
X332996Y370709D01*
X376441Y119469D02*
X387000Y130028D01*
X16500Y116528D02*
Y166028D01*
Y116528D02*
X34583Y98445D01*
X37402D01*
X37402Y344508D02*
Y347630D01*
Y441709D02*
Y442894D01*
X335000Y724110D02*
X365508D01*
X348440Y737550D02*
Y775231D01*
X335000Y724110D02*
X348440Y737550D01*
X319500Y724110D02*
X335000D01*
X348440Y775231D02*
X367146Y793937D01*
X372441D01*
X365508Y724110D02*
X367146Y725748D01*
X372441D01*
X313982Y861610D02*
X363701D01*
X313059Y861110D02*
Y861187D01*
Y860687D02*
X313982Y861610D01*
X321228Y769882D02*
X333150D01*
X271950Y862060D02*
X278127D01*
X233500Y823610D02*
X271950Y862060D01*
X278127D02*
X278376Y861811D01*
Y885826D01*
X122480Y889610D02*
Y899610D01*
X232500Y660110D02*
Y721610D01*
X205000Y632610D02*
X232500Y660110D01*
X136724Y721886D02*
X175500D01*
X292000Y811669D02*
Y814610D01*
X287500Y803610D02*
Y810110D01*
X176000Y778110D02*
X228500D01*
X287500Y803610D02*
X321228Y769882D01*
X325713Y773898D02*
X333150D01*
X299000Y800610D02*
X325713Y773898D01*
X299000Y800610D02*
Y806551D01*
X292000D02*
X299000D01*
X313760Y811669D02*
X343701Y841610D01*
X175000Y773551D02*
X175500Y773051D01*
Y756335D02*
Y773051D01*
X161000Y773051D02*
X174500D01*
X175000Y773551D01*
X152500Y778169D02*
X161000D01*
X42992Y136732D02*
X52505D01*
X59100Y143328D01*
X232500Y756059D02*
Y774110D01*
D42*
X356618Y556728D02*
X356890Y556457D01*
X320772Y556728D02*
X356618D01*
X320500Y557000D02*
X320772Y556728D01*
D43*
X362480Y589331D02*
D03*
Y600236D02*
D03*
Y611142D02*
D03*
Y622047D02*
D03*
Y632953D02*
D03*
Y643858D02*
D03*
Y654764D02*
D03*
X351299Y583878D02*
D03*
Y594783D02*
D03*
Y605689D02*
D03*
Y616595D02*
D03*
Y627500D02*
D03*
Y638406D02*
D03*
Y649311D02*
D03*
X32205Y800433D02*
D03*
Y789528D02*
D03*
Y778622D02*
D03*
Y767717D02*
D03*
Y756811D02*
D03*
Y745905D02*
D03*
Y735000D02*
D03*
X43386Y805886D02*
D03*
Y794980D02*
D03*
Y784075D02*
D03*
Y773169D02*
D03*
Y762264D02*
D03*
Y751358D02*
D03*
Y740453D02*
D03*
X362480Y272402D02*
D03*
Y283307D02*
D03*
Y294213D02*
D03*
Y305118D02*
D03*
Y316024D02*
D03*
Y326929D02*
D03*
Y337835D02*
D03*
X351299Y266949D02*
D03*
Y277854D02*
D03*
Y288760D02*
D03*
Y299665D02*
D03*
Y310571D02*
D03*
Y321476D02*
D03*
Y332382D02*
D03*
X32205Y603583D02*
D03*
Y592677D02*
D03*
Y581772D02*
D03*
Y570866D02*
D03*
Y559961D02*
D03*
Y549055D02*
D03*
Y538150D02*
D03*
X43386Y609035D02*
D03*
Y598130D02*
D03*
Y587224D02*
D03*
Y576319D02*
D03*
Y565413D02*
D03*
Y554508D02*
D03*
Y543602D02*
D03*
D44*
X351299Y660217D02*
D03*
X43386Y729547D02*
D03*
X351299Y343287D02*
D03*
X43386Y532697D02*
D03*
D45*
X356890Y556457D02*
D03*
Y687638D02*
D03*
X37795Y833307D02*
D03*
Y702126D02*
D03*
X356890Y239528D02*
D03*
Y370709D02*
D03*
X37795Y636457D02*
D03*
Y505276D02*
D03*
D46*
X372441Y734842D02*
D03*
Y784842D02*
D03*
D47*
X37402Y442894D02*
D03*
Y344508D02*
D03*
X356299Y185020D02*
D03*
Y86634D02*
D03*
X37402Y98445D02*
D03*
Y196831D02*
D03*
X356299Y511398D02*
D03*
Y413012D02*
D03*
D48*
X42992Y371890D02*
D03*
X350709Y157638D02*
D03*
X42992Y125827D02*
D03*
X350709Y484016D02*
D03*
D49*
X31811Y377343D02*
D03*
X42992Y382795D02*
D03*
X31811Y388248D02*
D03*
X42992Y393701D02*
D03*
X31811Y399153D02*
D03*
X42992Y404606D02*
D03*
X31811Y410059D02*
D03*
X42992Y415512D02*
D03*
X350709Y114016D02*
D03*
X361890Y119468D02*
D03*
X350709Y124921D02*
D03*
X361890Y130374D02*
D03*
X350709Y135827D02*
D03*
X361890Y141279D02*
D03*
X350709Y146732D02*
D03*
X361890Y152185D02*
D03*
X42992Y169449D02*
D03*
X31811Y163996D02*
D03*
X42992Y158543D02*
D03*
X31811Y153091D02*
D03*
X42992Y147638D02*
D03*
X31811Y142185D02*
D03*
X42992Y136732D02*
D03*
X31811Y131280D02*
D03*
X350709Y440394D02*
D03*
X361890Y445847D02*
D03*
X350709Y451299D02*
D03*
X361890Y456752D02*
D03*
X350709Y462205D02*
D03*
X361890Y467658D02*
D03*
X350709Y473110D02*
D03*
X361890Y478563D02*
D03*
D50*
X172480Y899610D02*
D03*
X162480D02*
D03*
X152480D02*
D03*
X142480D02*
D03*
X132480D02*
D03*
X122480D02*
D03*
X182480D02*
D03*
X192480D02*
D03*
X122480Y889610D02*
D03*
X132480D02*
D03*
X142480D02*
D03*
X152480D02*
D03*
X162480D02*
D03*
X172480D02*
D03*
X182480D02*
D03*
X192480D02*
D03*
D51*
X96000Y811110D02*
D03*
X113500D02*
D03*
D52*
X215000Y18183D02*
D03*
Y58183D02*
D03*
X175000D02*
D03*
Y18183D02*
D03*
D53*
X195000Y43222D02*
D03*
D54*
X363701Y821610D02*
D03*
Y861610D02*
D03*
D55*
X343701Y851610D02*
D03*
Y841610D02*
D03*
X256721Y885827D02*
D03*
D56*
Y868110D02*
D03*
D57*
X25000Y641000D02*
D03*
X58109Y531496D02*
D03*
X22109Y653500D02*
D03*
X15500Y702000D02*
D03*
X7000Y596500D02*
D03*
X23500Y576500D02*
D03*
X17000D02*
D03*
X118110Y177891D02*
D03*
X177165D02*
D03*
X77500Y637610D02*
D03*
X383858Y826772D02*
D03*
X354331Y767717D02*
D03*
X383858Y708661D02*
D03*
Y590551D02*
D03*
X354331Y531496D02*
D03*
X383858Y472441D02*
D03*
Y354331D02*
D03*
Y118110D02*
D03*
X354331Y59055D02*
D03*
X295276Y767717D02*
D03*
X324803Y708661D02*
D03*
X295276Y649606D02*
D03*
Y531496D02*
D03*
X324803Y472441D02*
D03*
Y354331D02*
D03*
X295276Y295276D02*
D03*
Y59055D02*
D03*
X265748Y826772D02*
D03*
Y708661D02*
D03*
Y590551D02*
D03*
X236221Y531496D02*
D03*
X265748Y472441D02*
D03*
X236221Y413386D02*
D03*
X265748Y354331D02*
D03*
X236221Y295276D02*
D03*
Y59055D02*
D03*
X206693Y708661D02*
D03*
Y590551D02*
D03*
X177165Y531496D02*
D03*
X206693Y472441D02*
D03*
X177165Y413386D02*
D03*
X206693Y354331D02*
D03*
X177165Y295276D02*
D03*
X206693Y236221D02*
D03*
X147638Y826772D02*
D03*
X118110Y767717D02*
D03*
X147638Y708661D02*
D03*
Y590551D02*
D03*
X118110Y531496D02*
D03*
X147638Y472441D02*
D03*
X118110Y413386D02*
D03*
X147638Y354331D02*
D03*
X118110Y295276D02*
D03*
X147638Y236221D02*
D03*
X118110Y59055D02*
D03*
X88583Y826772D02*
D03*
X59055Y649606D02*
D03*
X88583Y590551D02*
D03*
Y472441D02*
D03*
Y354331D02*
D03*
X59055Y295276D02*
D03*
X88583Y236221D02*
D03*
X59055Y59055D02*
D03*
X9000Y786000D02*
D03*
X329500Y672000D02*
D03*
X320500Y557000D02*
D03*
X331500Y188657D02*
D03*
X322370Y179157D02*
D03*
X326000Y156028D02*
D03*
X387500Y280157D02*
D03*
X241082Y648500D02*
D03*
X248500Y655000D02*
D03*
X133500Y801110D02*
D03*
X133000Y811610D02*
D03*
X307500Y825110D02*
D03*
Y811610D02*
D03*
X232000Y774610D02*
D03*
X231500Y823221D02*
D03*
X70000Y136658D02*
D03*
X256500D02*
D03*
X299500Y239713D02*
D03*
X205000Y632610D02*
D03*
X66000Y592110D02*
D03*
Y598610D02*
D03*
X59100Y143328D02*
D03*
M02*
