G04*
G04 #@! TF.GenerationSoftware,Altium Limited,Altium Designer,23.3.1 (30)*
G04*
G04 Layer_Physical_Order=2*
G04 Layer_Color=16711680*
%FSLAX25Y25*%
%MOIN*%
G70*
G04*
G04 #@! TF.SameCoordinates,3197FEDC-2055-4770-885C-EDA3D657A548*
G04*
G04*
G04 #@! TF.FilePolarity,Positive*
G04*
G01*
G75*
%ADD41C,0.01181*%
%ADD42C,0.01500*%
%ADD43C,0.06791*%
%ADD44R,0.06791X0.06791*%
%ADD45C,0.16795*%
%ADD46C,0.12598*%
%ADD47C,0.18740*%
%ADD48R,0.06653X0.06653*%
%ADD49C,0.06653*%
%ADD50C,0.06000*%
%ADD51R,0.06791X0.06791*%
%ADD52C,0.07650*%
%ADD53C,0.13287*%
%ADD54C,0.13780*%
%ADD55C,0.07087*%
%ADD56C,0.07874*%
%ADD57C,0.05000*%
%ADD58C,0.10000*%
G36*
X386422Y905238D02*
X386522Y905228D01*
X386620Y905205D01*
X387297Y905179D01*
X388619Y904887D01*
X389869Y904365D01*
X391006Y903630D01*
X391995Y902705D01*
X392804Y901618D01*
X393408Y900406D01*
X393701Y899401D01*
Y6650D01*
X393549Y5991D01*
X392982Y4692D01*
X392183Y3520D01*
X391180Y2518D01*
X390009Y1719D01*
X388710Y1151D01*
X387329Y834D01*
X386620Y807D01*
X386522Y783D01*
X386422Y774D01*
X386210Y711D01*
X8065Y808D01*
X7372Y834D01*
X5991Y1151D01*
X4692Y1719D01*
X3520Y2518D01*
X2518Y3520D01*
X1719Y4691D01*
X1151Y5991D01*
X834Y7372D01*
X807Y8081D01*
X783Y8179D01*
X774Y8279D01*
X711Y8491D01*
Y897997D01*
X800Y898243D01*
X814Y898339D01*
X843Y898432D01*
X914Y899105D01*
X1293Y900406D01*
X1896Y901618D01*
X2705Y902704D01*
X3694Y903630D01*
X4832Y904365D01*
X6081Y904887D01*
X7404Y905179D01*
X8081Y905205D01*
X8179Y905228D01*
X8279Y905238D01*
X8491Y905301D01*
X386210D01*
X386422Y905238D01*
D02*
G37*
%LPC*%
G36*
X133480Y903483D02*
Y900610D01*
X136354D01*
X136208Y901154D01*
X135681Y902066D01*
X134936Y902811D01*
X134024Y903338D01*
X133480Y903483D01*
D02*
G37*
G36*
X131480D02*
X130936Y903338D01*
X130024Y902811D01*
X129279Y902066D01*
X128753Y901154D01*
X128607Y900610D01*
X131480D01*
Y903483D01*
D02*
G37*
G36*
X192981Y903410D02*
X191980D01*
X191014Y903151D01*
X190147Y902651D01*
X189440Y901943D01*
X188939Y901077D01*
X188680Y900111D01*
Y899110D01*
X188939Y898143D01*
X189440Y897277D01*
X190147Y896570D01*
X191014Y896069D01*
X191980Y895810D01*
X192981D01*
X193947Y896069D01*
X194814Y896570D01*
X195521Y897277D01*
X196021Y898143D01*
X196280Y899110D01*
Y900111D01*
X196021Y901077D01*
X195521Y901943D01*
X194814Y902651D01*
X193947Y903151D01*
X192981Y903410D01*
D02*
G37*
G36*
X182981D02*
X181980D01*
X181014Y903151D01*
X180147Y902651D01*
X179440Y901943D01*
X178939Y901077D01*
X178680Y900111D01*
Y899110D01*
X178939Y898143D01*
X179440Y897277D01*
X180147Y896570D01*
X181014Y896069D01*
X181980Y895810D01*
X182981D01*
X183947Y896069D01*
X184814Y896570D01*
X185521Y897277D01*
X186021Y898143D01*
X186280Y899110D01*
Y900111D01*
X186021Y901077D01*
X185521Y901943D01*
X184814Y902651D01*
X183947Y903151D01*
X182981Y903410D01*
D02*
G37*
G36*
X172981D02*
X171980D01*
X171014Y903151D01*
X170147Y902651D01*
X169440Y901943D01*
X168939Y901077D01*
X168680Y900111D01*
Y899110D01*
X168939Y898143D01*
X169440Y897277D01*
X170147Y896570D01*
X171014Y896069D01*
X171980Y895810D01*
X172981D01*
X173947Y896069D01*
X174814Y896570D01*
X175521Y897277D01*
X176021Y898143D01*
X176280Y899110D01*
Y900111D01*
X176021Y901077D01*
X175521Y901943D01*
X174814Y902651D01*
X173947Y903151D01*
X172981Y903410D01*
D02*
G37*
G36*
X162981D02*
X161980D01*
X161014Y903151D01*
X160147Y902651D01*
X159440Y901943D01*
X158939Y901077D01*
X158680Y900111D01*
Y899110D01*
X158939Y898143D01*
X159440Y897277D01*
X160147Y896570D01*
X161014Y896069D01*
X161980Y895810D01*
X162981D01*
X163947Y896069D01*
X164814Y896570D01*
X165521Y897277D01*
X166021Y898143D01*
X166280Y899110D01*
Y900111D01*
X166021Y901077D01*
X165521Y901943D01*
X164814Y902651D01*
X163947Y903151D01*
X162981Y903410D01*
D02*
G37*
G36*
X152981D02*
X151980D01*
X151014Y903151D01*
X150147Y902651D01*
X149440Y901943D01*
X148939Y901077D01*
X148680Y900111D01*
Y899110D01*
X148939Y898143D01*
X149440Y897277D01*
X150147Y896570D01*
X151014Y896069D01*
X151980Y895810D01*
X152981D01*
X153947Y896069D01*
X154814Y896570D01*
X155521Y897277D01*
X156021Y898143D01*
X156280Y899110D01*
Y900111D01*
X156021Y901077D01*
X155521Y901943D01*
X154814Y902651D01*
X153947Y903151D01*
X152981Y903410D01*
D02*
G37*
G36*
X142981D02*
X141980D01*
X141014Y903151D01*
X140147Y902651D01*
X139440Y901943D01*
X138939Y901077D01*
X138680Y900111D01*
Y899110D01*
X138939Y898143D01*
X139440Y897277D01*
X140147Y896570D01*
X141014Y896069D01*
X141980Y895810D01*
X142981D01*
X143947Y896069D01*
X144814Y896570D01*
X145521Y897277D01*
X146021Y898143D01*
X146280Y899110D01*
Y900111D01*
X146021Y901077D01*
X145521Y901943D01*
X144814Y902651D01*
X143947Y903151D01*
X142981Y903410D01*
D02*
G37*
G36*
X122981D02*
X121980D01*
X121014Y903151D01*
X120147Y902651D01*
X119440Y901943D01*
X118939Y901077D01*
X118680Y900111D01*
Y899110D01*
X118939Y898143D01*
X119440Y897277D01*
X120147Y896570D01*
X121014Y896069D01*
X121980Y895810D01*
X122981D01*
X123947Y896069D01*
X124814Y896570D01*
X125521Y897277D01*
X126021Y898143D01*
X126280Y899110D01*
Y900111D01*
X126021Y901077D01*
X125521Y901943D01*
X124814Y902651D01*
X123947Y903151D01*
X122981Y903410D01*
D02*
G37*
G36*
X136354Y898610D02*
X133480D01*
Y895737D01*
X134024Y895883D01*
X134936Y896409D01*
X135681Y897154D01*
X136208Y898066D01*
X136354Y898610D01*
D02*
G37*
G36*
X131480D02*
X128607D01*
X128753Y898066D01*
X129279Y897154D01*
X130024Y896409D01*
X130936Y895883D01*
X131480Y895737D01*
Y898610D01*
D02*
G37*
G36*
X133480Y893483D02*
Y890610D01*
X136354D01*
X136208Y891154D01*
X135681Y892066D01*
X134936Y892811D01*
X134024Y893338D01*
X133480Y893483D01*
D02*
G37*
G36*
X131480D02*
X130936Y893338D01*
X130024Y892811D01*
X129279Y892066D01*
X128753Y891154D01*
X128607Y890610D01*
X131480D01*
Y893483D01*
D02*
G37*
G36*
X192981Y893410D02*
X191980D01*
X191014Y893151D01*
X190147Y892651D01*
X189440Y891943D01*
X188939Y891077D01*
X188680Y890110D01*
Y889110D01*
X188939Y888144D01*
X189440Y887277D01*
X190147Y886569D01*
X191014Y886069D01*
X191980Y885810D01*
X192981D01*
X193947Y886069D01*
X194814Y886569D01*
X195521Y887277D01*
X196021Y888144D01*
X196280Y889110D01*
Y890110D01*
X196021Y891077D01*
X195521Y891943D01*
X194814Y892651D01*
X193947Y893151D01*
X192981Y893410D01*
D02*
G37*
G36*
X182981D02*
X181980D01*
X181014Y893151D01*
X180147Y892651D01*
X179440Y891943D01*
X178939Y891077D01*
X178680Y890110D01*
Y889110D01*
X178939Y888144D01*
X179440Y887277D01*
X180147Y886569D01*
X181014Y886069D01*
X181980Y885810D01*
X182981D01*
X183947Y886069D01*
X184814Y886569D01*
X185521Y887277D01*
X186021Y888144D01*
X186280Y889110D01*
Y890110D01*
X186021Y891077D01*
X185521Y891943D01*
X184814Y892651D01*
X183947Y893151D01*
X182981Y893410D01*
D02*
G37*
G36*
X172981D02*
X171980D01*
X171014Y893151D01*
X170147Y892651D01*
X169440Y891943D01*
X168939Y891077D01*
X168680Y890110D01*
Y889110D01*
X168939Y888144D01*
X169440Y887277D01*
X170147Y886569D01*
X171014Y886069D01*
X171980Y885810D01*
X172981D01*
X173947Y886069D01*
X174814Y886569D01*
X175521Y887277D01*
X176021Y888144D01*
X176280Y889110D01*
Y890110D01*
X176021Y891077D01*
X175521Y891943D01*
X174814Y892651D01*
X173947Y893151D01*
X172981Y893410D01*
D02*
G37*
G36*
X162981D02*
X161980D01*
X161014Y893151D01*
X160147Y892651D01*
X159440Y891943D01*
X158939Y891077D01*
X158680Y890110D01*
Y889110D01*
X158939Y888144D01*
X159440Y887277D01*
X160147Y886569D01*
X161014Y886069D01*
X161980Y885810D01*
X162981D01*
X163947Y886069D01*
X164814Y886569D01*
X165521Y887277D01*
X166021Y888144D01*
X166280Y889110D01*
Y890110D01*
X166021Y891077D01*
X165521Y891943D01*
X164814Y892651D01*
X163947Y893151D01*
X162981Y893410D01*
D02*
G37*
G36*
X152981D02*
X151980D01*
X151014Y893151D01*
X150147Y892651D01*
X149440Y891943D01*
X148939Y891077D01*
X148680Y890110D01*
Y889110D01*
X148939Y888144D01*
X149440Y887277D01*
X150147Y886569D01*
X151014Y886069D01*
X151980Y885810D01*
X152981D01*
X153947Y886069D01*
X154814Y886569D01*
X155521Y887277D01*
X156021Y888144D01*
X156280Y889110D01*
Y890110D01*
X156021Y891077D01*
X155521Y891943D01*
X154814Y892651D01*
X153947Y893151D01*
X152981Y893410D01*
D02*
G37*
G36*
X142981D02*
X141980D01*
X141014Y893151D01*
X140147Y892651D01*
X139440Y891943D01*
X138939Y891077D01*
X138680Y890110D01*
Y889110D01*
X138939Y888144D01*
X139440Y887277D01*
X140147Y886569D01*
X141014Y886069D01*
X141980Y885810D01*
X142981D01*
X143947Y886069D01*
X144814Y886569D01*
X145521Y887277D01*
X146021Y888144D01*
X146280Y889110D01*
Y890110D01*
X146021Y891077D01*
X145521Y891943D01*
X144814Y892651D01*
X143947Y893151D01*
X142981Y893410D01*
D02*
G37*
G36*
X122981D02*
X121980D01*
X121014Y893151D01*
X120147Y892651D01*
X119440Y891943D01*
X118939Y891077D01*
X118680Y890110D01*
Y889110D01*
X118939Y888144D01*
X119440Y887277D01*
X120147Y886569D01*
X121014Y886069D01*
X121980Y885810D01*
X122981D01*
X123947Y886069D01*
X124814Y886569D01*
X125521Y887277D01*
X126021Y888144D01*
X126280Y889110D01*
Y890110D01*
X126021Y891077D01*
X125521Y891943D01*
X124814Y892651D01*
X123947Y893151D01*
X122981Y893410D01*
D02*
G37*
G36*
X136354Y888610D02*
X133480D01*
Y885737D01*
X134024Y885883D01*
X134936Y886409D01*
X135681Y887154D01*
X136208Y888066D01*
X136354Y888610D01*
D02*
G37*
G36*
X131480D02*
X128607D01*
X128753Y888066D01*
X129279Y887154D01*
X130024Y886409D01*
X130936Y885883D01*
X131480Y885737D01*
Y888610D01*
D02*
G37*
G36*
X257293Y890170D02*
X256150D01*
X255045Y889875D01*
X254055Y889303D01*
X253246Y888494D01*
X252674Y887504D01*
X252378Y886399D01*
Y885255D01*
X252674Y884151D01*
X253246Y883160D01*
X254055Y882352D01*
X255045Y881780D01*
X256150Y881484D01*
X257293D01*
X258398Y881780D01*
X259388Y882352D01*
X260197Y883160D01*
X260769Y884151D01*
X261065Y885255D01*
Y886399D01*
X260769Y887504D01*
X260197Y888494D01*
X259388Y889303D01*
X258398Y889875D01*
X257293Y890170D01*
D02*
G37*
G36*
X376779Y896682D02*
X375189D01*
X375111Y896666D01*
X375030D01*
X373471Y896356D01*
X373397Y896325D01*
X373318Y896310D01*
X371849Y895701D01*
X371782Y895657D01*
X371708Y895626D01*
X370386Y894742D01*
X370329Y894686D01*
X370263Y894641D01*
X369138Y893517D01*
X369094Y893450D01*
X369037Y893393D01*
X368154Y892071D01*
X368123Y891997D01*
X368078Y891930D01*
X367470Y890462D01*
X367454Y890383D01*
X367424Y890309D01*
X367113Y888749D01*
Y888669D01*
X367098Y888590D01*
Y887000D01*
X367113Y886922D01*
Y886841D01*
X367424Y885282D01*
X367454Y885208D01*
X367470Y885129D01*
X368078Y883660D01*
X368123Y883593D01*
X368154Y883519D01*
X369037Y882197D01*
X369094Y882141D01*
X369138Y882074D01*
X370263Y880949D01*
X370329Y880905D01*
X370386Y880848D01*
X371708Y879965D01*
X371782Y879934D01*
X371849Y879889D01*
X373318Y879281D01*
X373397Y879265D01*
X373471Y879235D01*
X375030Y878924D01*
X375111D01*
X375189Y878909D01*
X376779D01*
X376858Y878924D01*
X376938D01*
X378498Y879235D01*
X378572Y879265D01*
X378651Y879281D01*
X380119Y879889D01*
X380186Y879934D01*
X380260Y879965D01*
X381582Y880848D01*
X381639Y880905D01*
X381706Y880949D01*
X382830Y882074D01*
X382875Y882140D01*
X382931Y882197D01*
X383815Y883519D01*
X383845Y883593D01*
X383890Y883660D01*
X384499Y885129D01*
X384514Y885208D01*
X384545Y885282D01*
X384855Y886841D01*
Y886922D01*
X384871Y887000D01*
Y888590D01*
X384855Y888669D01*
Y888749D01*
X384545Y890309D01*
X384514Y890383D01*
X384499Y890462D01*
X383890Y891930D01*
X383845Y891997D01*
X383815Y892071D01*
X382931Y893393D01*
X382875Y893450D01*
X382830Y893517D01*
X381706Y894641D01*
X381639Y894686D01*
X381582Y894742D01*
X380260Y895626D01*
X380186Y895656D01*
X380119Y895701D01*
X378651Y896310D01*
X378572Y896325D01*
X378498Y896356D01*
X376938Y896666D01*
X376858D01*
X376779Y896682D01*
D02*
G37*
G36*
X18511D02*
X16922D01*
X16843Y896666D01*
X16762D01*
X15203Y896356D01*
X15129Y896325D01*
X15050Y896310D01*
X13581Y895701D01*
X13515Y895657D01*
X13440Y895626D01*
X12118Y894742D01*
X12062Y894686D01*
X11995Y894641D01*
X10871Y893517D01*
X10826Y893450D01*
X10769Y893393D01*
X9886Y892071D01*
X9855Y891997D01*
X9811Y891930D01*
X9202Y890462D01*
X9187Y890383D01*
X9156Y890309D01*
X8846Y888749D01*
Y888669D01*
X8830Y888590D01*
Y887000D01*
X8846Y886922D01*
Y886841D01*
X9156Y885282D01*
X9187Y885208D01*
X9202Y885129D01*
X9811Y883660D01*
X9855Y883593D01*
X9886Y883519D01*
X10769Y882197D01*
X10826Y882141D01*
X10871Y882074D01*
X11995Y880949D01*
X12062Y880905D01*
X12118Y880848D01*
X13440Y879965D01*
X13515Y879934D01*
X13581Y879889D01*
X15050Y879281D01*
X15129Y879265D01*
X15203Y879235D01*
X16762Y878924D01*
X16843D01*
X16922Y878909D01*
X18511D01*
X18590Y878924D01*
X18671D01*
X20230Y879235D01*
X20304Y879265D01*
X20383Y879281D01*
X21852Y879889D01*
X21918Y879934D01*
X21993Y879965D01*
X23315Y880848D01*
X23371Y880905D01*
X23438Y880949D01*
X24562Y882074D01*
X24607Y882140D01*
X24664Y882197D01*
X25547Y883519D01*
X25578Y883593D01*
X25622Y883660D01*
X26231Y885129D01*
X26247Y885208D01*
X26277Y885282D01*
X26587Y886841D01*
Y886922D01*
X26603Y887000D01*
Y888590D01*
X26587Y888669D01*
Y888749D01*
X26277Y890309D01*
X26247Y890383D01*
X26231Y890462D01*
X25622Y891930D01*
X25578Y891997D01*
X25547Y892071D01*
X24664Y893393D01*
X24607Y893450D01*
X24562Y893517D01*
X23438Y894641D01*
X23371Y894686D01*
X23315Y894742D01*
X21993Y895626D01*
X21918Y895656D01*
X21852Y895701D01*
X20383Y896310D01*
X20304Y896325D01*
X20230Y896356D01*
X18671Y896666D01*
X18590D01*
X18511Y896682D01*
D02*
G37*
G36*
X257345Y872847D02*
X256098D01*
X254893Y872524D01*
X253813Y871901D01*
X252931Y871019D01*
X252307Y869939D01*
X251985Y868734D01*
Y867487D01*
X252307Y866282D01*
X252931Y865202D01*
X253813Y864320D01*
X254893Y863696D01*
X256098Y863373D01*
X257345D01*
X258550Y863696D01*
X259630Y864320D01*
X260512Y865202D01*
X261136Y866282D01*
X261458Y867487D01*
Y868734D01*
X261136Y869939D01*
X260512Y871019D01*
X259630Y871901D01*
X258550Y872524D01*
X257345Y872847D01*
D02*
G37*
G36*
X344273Y855954D02*
X343129D01*
X342024Y855658D01*
X341034Y855086D01*
X340225Y854277D01*
X339653Y853287D01*
X339357Y852182D01*
Y851038D01*
X339653Y849934D01*
X340225Y848943D01*
X341034Y848135D01*
X342024Y847563D01*
X343129Y847267D01*
X344273D01*
X345377Y847563D01*
X346368Y848135D01*
X347176Y848943D01*
X347748Y849934D01*
X348044Y851038D01*
Y852182D01*
X347748Y853287D01*
X347176Y854277D01*
X346368Y855086D01*
X345377Y855658D01*
X344273Y855954D01*
D02*
G37*
G36*
Y845953D02*
X343129D01*
X342024Y845658D01*
X341034Y845086D01*
X340225Y844277D01*
X339653Y843287D01*
X339357Y842182D01*
Y841038D01*
X339653Y839934D01*
X340225Y838943D01*
X341034Y838135D01*
X342024Y837563D01*
X343129Y837267D01*
X344273D01*
X345377Y837563D01*
X346368Y838135D01*
X347176Y838943D01*
X347748Y839934D01*
X348044Y841038D01*
Y842182D01*
X347748Y843287D01*
X347176Y844277D01*
X346368Y845086D01*
X345377Y845658D01*
X344273Y845953D01*
D02*
G37*
G36*
X38701Y842505D02*
X36889D01*
X35112Y842151D01*
X33439Y841458D01*
X31932Y840451D01*
X30651Y839170D01*
X29644Y837664D01*
X28951Y835990D01*
X28598Y834213D01*
Y832401D01*
X28951Y830624D01*
X29644Y828950D01*
X30651Y827444D01*
X31932Y826163D01*
X33439Y825156D01*
X35112Y824463D01*
X36889Y824109D01*
X38701D01*
X40478Y824463D01*
X42152Y825156D01*
X43658Y826163D01*
X44940Y827444D01*
X45946Y828950D01*
X46639Y830624D01*
X46993Y832401D01*
Y834213D01*
X46639Y835990D01*
X45946Y837664D01*
X44940Y839170D01*
X43658Y840451D01*
X42152Y841458D01*
X40478Y842151D01*
X38701Y842505D01*
D02*
G37*
G36*
X364458Y869300D02*
X362943D01*
X361458Y869005D01*
X360058Y868425D01*
X358799Y867583D01*
X357728Y866512D01*
X356886Y865253D01*
X356307Y863853D01*
X356011Y862368D01*
Y860853D01*
X356307Y859367D01*
X356886Y857968D01*
X357728Y856708D01*
X357873Y856563D01*
Y826657D01*
X357728Y826512D01*
X356886Y825253D01*
X356307Y823853D01*
X356011Y822368D01*
Y820853D01*
X356307Y819367D01*
X356886Y817968D01*
X357728Y816708D01*
X358799Y815637D01*
X360058Y814796D01*
X361458Y814216D01*
X362943Y813920D01*
X364458D01*
X365944Y814216D01*
X367343Y814796D01*
X368603Y815637D01*
X369674Y816708D01*
X370515Y817968D01*
X371095Y819367D01*
X371391Y820853D01*
Y822368D01*
X371095Y823853D01*
X370515Y825253D01*
X369674Y826512D01*
X369529Y826657D01*
Y856563D01*
X369674Y856708D01*
X370515Y857968D01*
X371095Y859367D01*
X371391Y860853D01*
Y862368D01*
X371095Y863853D01*
X370515Y865253D01*
X369674Y866512D01*
X368603Y867583D01*
X367343Y868425D01*
X365944Y869005D01*
X364458Y869300D01*
D02*
G37*
G36*
X307934Y828410D02*
X307066D01*
X306226Y828185D01*
X305474Y827751D01*
X304859Y827137D01*
X304425Y826384D01*
X304200Y825545D01*
Y824676D01*
X304425Y823837D01*
X304859Y823084D01*
X305063Y822880D01*
X306082Y820996D01*
Y815724D01*
X305063Y813840D01*
X304859Y813636D01*
X304425Y812884D01*
X304200Y812045D01*
Y811176D01*
X304425Y810336D01*
X304859Y809584D01*
X305474Y808970D01*
X306226Y808535D01*
X307066Y808310D01*
X307934D01*
X308774Y808535D01*
X309526Y808970D01*
X310141Y809584D01*
X310575Y810336D01*
X310800Y811176D01*
Y812045D01*
X310575Y812884D01*
X310141Y813636D01*
X309937Y813840D01*
X308918Y815724D01*
Y820996D01*
X309937Y822880D01*
X310141Y823084D01*
X310575Y823837D01*
X310800Y824676D01*
Y825545D01*
X310575Y826384D01*
X310141Y827137D01*
X309526Y827751D01*
X308774Y828185D01*
X307934Y828410D01*
D02*
G37*
G36*
X31205Y799433D02*
X27922D01*
X28109Y798736D01*
X28687Y797734D01*
X29506Y796916D01*
X30508Y796337D01*
X31205Y796150D01*
Y799433D01*
D02*
G37*
G36*
X36487D02*
X33205D01*
Y796150D01*
X33901Y796337D01*
X34904Y796916D01*
X35722Y797734D01*
X36301Y798736D01*
X36487Y799433D01*
D02*
G37*
G36*
X43938Y799176D02*
X42834D01*
X41766Y798890D01*
X40810Y798338D01*
X40029Y797556D01*
X39476Y796600D01*
X39190Y795533D01*
Y794428D01*
X39476Y793361D01*
X40029Y792404D01*
X40810Y791623D01*
X41766Y791071D01*
X42834Y790785D01*
X43938D01*
X45005Y791071D01*
X45962Y791623D01*
X46743Y792404D01*
X47296Y793361D01*
X47581Y794428D01*
Y795533D01*
X47296Y796600D01*
X46743Y797556D01*
X45962Y798338D01*
X45005Y798890D01*
X43938Y799176D01*
D02*
G37*
G36*
X32757Y793723D02*
X31652D01*
X30585Y793437D01*
X29629Y792885D01*
X28847Y792104D01*
X28295Y791147D01*
X28009Y790080D01*
Y788975D01*
X28295Y787908D01*
X28847Y786951D01*
X29629Y786170D01*
X30585Y785618D01*
X31652Y785332D01*
X32757D01*
X33824Y785618D01*
X34781Y786170D01*
X35562Y786951D01*
X36114Y787908D01*
X36400Y788975D01*
Y790080D01*
X36114Y791147D01*
X35562Y792104D01*
X34781Y792885D01*
X33824Y793437D01*
X32757Y793723D01*
D02*
G37*
G36*
X43938Y788271D02*
X42834D01*
X41766Y787985D01*
X40810Y787432D01*
X40029Y786651D01*
X39476Y785694D01*
X39190Y784627D01*
Y783522D01*
X39476Y782455D01*
X40029Y781499D01*
X40810Y780717D01*
X41766Y780165D01*
X42834Y779879D01*
X43938D01*
X45005Y780165D01*
X45962Y780717D01*
X46743Y781499D01*
X47296Y782455D01*
X47581Y783522D01*
Y784627D01*
X47296Y785694D01*
X46743Y786651D01*
X45962Y787432D01*
X45005Y787985D01*
X43938Y788271D01*
D02*
G37*
G36*
X373140Y791942D02*
X371742D01*
X370370Y791669D01*
X369078Y791134D01*
X367916Y790357D01*
X366927Y789368D01*
X366150Y788205D01*
X365615Y786913D01*
X365342Y785542D01*
Y784143D01*
X365615Y782772D01*
X366150Y781480D01*
X366927Y780317D01*
X367916Y779328D01*
X369078Y778551D01*
X370370Y778016D01*
X371742Y777743D01*
X373140D01*
X374512Y778016D01*
X375804Y778551D01*
X376966Y779328D01*
X377955Y780317D01*
X378732Y781480D01*
X379267Y782772D01*
X379540Y784143D01*
Y785542D01*
X379267Y786913D01*
X378732Y788205D01*
X377955Y789368D01*
X376966Y790357D01*
X375804Y791134D01*
X374512Y791669D01*
X373140Y791942D01*
D02*
G37*
G36*
X231934Y826521D02*
X231066D01*
X230226Y826296D01*
X229474Y825861D01*
X228859Y825247D01*
X228425Y824494D01*
X228200Y823655D01*
Y822786D01*
X228425Y821947D01*
X228859Y821194D01*
X229063Y820990D01*
X230082Y819106D01*
Y778496D01*
X229176Y776324D01*
X229174Y776315D01*
X228925Y775884D01*
X228700Y775045D01*
Y774176D01*
X228925Y773337D01*
X229359Y772584D01*
X229974Y771970D01*
X230726Y771535D01*
X231565Y771310D01*
X232435D01*
X233274Y771535D01*
X234026Y771970D01*
X234641Y772584D01*
X235075Y773337D01*
X235300Y774176D01*
Y775045D01*
X235075Y775884D01*
X234641Y776637D01*
X234026Y777251D01*
X233946Y777297D01*
X232918Y778838D01*
Y819106D01*
X233937Y820990D01*
X234141Y821194D01*
X234575Y821947D01*
X234800Y822786D01*
Y823655D01*
X234575Y824494D01*
X234141Y825247D01*
X233526Y825861D01*
X232774Y826296D01*
X231934Y826521D01*
D02*
G37*
G36*
X117696Y815306D02*
X109304D01*
Y806915D01*
X111813D01*
X112082Y806376D01*
Y805198D01*
X75802Y768918D01*
X45413D01*
X45279Y769418D01*
X45962Y769812D01*
X46262Y770112D01*
X48975Y771751D01*
X62559D01*
X63102Y771859D01*
X63562Y772167D01*
X97003Y805608D01*
X97310Y806068D01*
X97363Y806337D01*
X97636Y806915D01*
X100196D01*
Y815306D01*
X91804D01*
Y806915D01*
X93646D01*
X93837Y806453D01*
X61972Y774587D01*
X48975D01*
X46262Y776227D01*
X45962Y776527D01*
X45005Y777079D01*
X43938Y777365D01*
X42834D01*
X41766Y777079D01*
X40810Y776527D01*
X40510Y776227D01*
X37796Y774587D01*
X34607D01*
X34473Y775087D01*
X34781Y775265D01*
X35562Y776046D01*
X36114Y777003D01*
X36400Y778070D01*
Y779174D01*
X36114Y780241D01*
X35562Y781198D01*
X34781Y781979D01*
X33824Y782532D01*
X32757Y782818D01*
X31652D01*
X30585Y782532D01*
X29629Y781979D01*
X28847Y781198D01*
X28295Y780241D01*
X28009Y779174D01*
Y778070D01*
X28295Y777003D01*
X28847Y776046D01*
X29629Y775265D01*
X29936Y775087D01*
X29802Y774587D01*
X27669D01*
X27127Y774479D01*
X26667Y774172D01*
X22498Y770003D01*
X22190Y769543D01*
X22082Y769000D01*
Y656800D01*
X21675D01*
X20836Y656575D01*
X20137Y656172D01*
X19703Y656298D01*
X19637Y656326D01*
Y665662D01*
X20393Y666418D01*
X20700Y666878D01*
X20808Y667421D01*
Y796803D01*
X28473Y804468D01*
X29436D01*
X29566Y803985D01*
X29506Y803951D01*
X28687Y803132D01*
X28109Y802130D01*
X27922Y801433D01*
X32205D01*
X36487D01*
X36301Y802130D01*
X35722Y803132D01*
X34904Y803951D01*
X34844Y803985D01*
X34973Y804468D01*
X37796D01*
X40510Y802829D01*
X40810Y802528D01*
X41766Y801976D01*
X42834Y801690D01*
X43938D01*
X45005Y801976D01*
X45962Y802528D01*
X46743Y803310D01*
X47296Y804266D01*
X47581Y805334D01*
Y806438D01*
X47296Y807505D01*
X46743Y808462D01*
X45962Y809243D01*
X45005Y809796D01*
X43938Y810081D01*
X42834D01*
X41766Y809796D01*
X40810Y809243D01*
X40510Y808943D01*
X37796Y807304D01*
X27886D01*
X27343Y807196D01*
X26883Y806888D01*
X18388Y798393D01*
X18081Y797933D01*
X17973Y797391D01*
Y704826D01*
X17907Y704798D01*
X17473Y704671D01*
X16774Y705075D01*
X15935Y705300D01*
X15659D01*
X13762Y705973D01*
X10580Y709155D01*
Y781962D01*
X11446Y783779D01*
X11641Y783974D01*
X12075Y784726D01*
X12300Y785566D01*
Y786435D01*
X12075Y787274D01*
X11641Y788026D01*
X11026Y788641D01*
X10274Y789075D01*
X9434Y789300D01*
X8566D01*
X7726Y789075D01*
X6974Y788641D01*
X6359Y788026D01*
X5925Y787274D01*
X5700Y786435D01*
Y785566D01*
X5925Y784726D01*
X6359Y783974D01*
X6554Y783779D01*
X7420Y781962D01*
Y708500D01*
X7540Y707895D01*
X7882Y707382D01*
X11527Y703738D01*
X12200Y701841D01*
Y701566D01*
X12425Y700726D01*
X12859Y699974D01*
X13474Y699359D01*
X14226Y698925D01*
X15066Y698700D01*
X15935D01*
X16774Y698925D01*
X17473Y699329D01*
X17907Y699202D01*
X17973Y699174D01*
Y668008D01*
X17216Y667251D01*
X16909Y666791D01*
X16801Y666249D01*
Y633281D01*
X16909Y632738D01*
X17216Y632279D01*
X38134Y611361D01*
X39278Y608144D01*
X39283Y608136D01*
X39476Y607416D01*
X40029Y606459D01*
X40810Y605678D01*
X41766Y605126D01*
X42834Y604840D01*
X43938D01*
X45005Y605126D01*
X45962Y605678D01*
X46743Y606459D01*
X47296Y607416D01*
X47581Y608483D01*
Y609588D01*
X47296Y610655D01*
X46743Y611612D01*
X45962Y612393D01*
X45005Y612945D01*
X43938Y613231D01*
X42834D01*
X42678Y613189D01*
X39907Y613598D01*
X19637Y633868D01*
Y650674D01*
X19703Y650702D01*
X20137Y650829D01*
X20836Y650425D01*
X21675Y650200D01*
X22544D01*
X23383Y650425D01*
X24082Y650829D01*
X24516Y650702D01*
X24582Y650674D01*
Y649471D01*
X23998Y648886D01*
X23690Y648426D01*
X23582Y647883D01*
Y645114D01*
X22563Y643230D01*
X22359Y643026D01*
X21925Y642274D01*
X21700Y641434D01*
Y640565D01*
X21925Y639726D01*
X22359Y638974D01*
X22974Y638359D01*
X23726Y637925D01*
X24566Y637700D01*
X25434D01*
X26274Y637925D01*
X27026Y638359D01*
X27641Y638974D01*
X28075Y639726D01*
X28300Y640565D01*
Y641434D01*
X28075Y642274D01*
X27641Y643026D01*
X27437Y643230D01*
X26418Y645114D01*
Y647296D01*
X27003Y647881D01*
X27310Y648341D01*
X27418Y648883D01*
Y733950D01*
X27918Y734016D01*
X28109Y733303D01*
X28687Y732301D01*
X29506Y731483D01*
X30508Y730904D01*
X31205Y730717D01*
Y735000D01*
Y739283D01*
X30508Y739096D01*
X29506Y738517D01*
X28687Y737699D01*
X28109Y736697D01*
X27918Y735985D01*
X27418Y736050D01*
Y744855D01*
X27918Y744921D01*
X28109Y744209D01*
X28687Y743207D01*
X29506Y742388D01*
X30508Y741809D01*
X31205Y741623D01*
Y745905D01*
Y750188D01*
X30508Y750002D01*
X29506Y749423D01*
X28687Y748604D01*
X28109Y747602D01*
X27918Y746890D01*
X27418Y746956D01*
Y763913D01*
X28407Y764902D01*
X28847Y765140D01*
X29629Y764359D01*
X30585Y763807D01*
X31652Y763521D01*
X32757D01*
X33824Y763807D01*
X34781Y764359D01*
X34936Y764514D01*
X37733Y766082D01*
X40686D01*
X40736Y765895D01*
X40771Y765582D01*
X40029Y764840D01*
X39476Y763883D01*
X39190Y762816D01*
Y761711D01*
X39476Y760644D01*
X40029Y759688D01*
X40798Y758918D01*
X40795Y758809D01*
X40690Y758418D01*
X37742D01*
X34953Y759997D01*
X34781Y760168D01*
X33824Y760721D01*
X32757Y761007D01*
X31652D01*
X30585Y760721D01*
X29629Y760168D01*
X28847Y759387D01*
X28295Y758430D01*
X28009Y757363D01*
Y756259D01*
X28295Y755192D01*
X28847Y754235D01*
X29629Y753454D01*
X30585Y752901D01*
X31652Y752615D01*
X32757D01*
X33824Y752901D01*
X34781Y753454D01*
X35240Y753913D01*
X37836Y755582D01*
X41311D01*
X41445Y755082D01*
X40810Y754716D01*
X40029Y753934D01*
X39476Y752978D01*
X39190Y751911D01*
Y750806D01*
X39476Y749739D01*
X40029Y748782D01*
X40810Y748001D01*
X41766Y747448D01*
X42834Y747163D01*
X43938D01*
X45005Y747448D01*
X45962Y748001D01*
X46262Y748301D01*
X48975Y749940D01*
X85650D01*
X86330Y749260D01*
Y632445D01*
X58498Y604613D01*
X58190Y604153D01*
X58082Y603610D01*
Y556198D01*
X57810Y555926D01*
X48975D01*
X46262Y557565D01*
X45962Y557865D01*
X45005Y558418D01*
X43938Y558704D01*
X42834D01*
X41766Y558418D01*
X40810Y557865D01*
X40029Y557084D01*
X39476Y556127D01*
X39190Y555060D01*
Y553956D01*
X39476Y552888D01*
X40029Y551932D01*
X40810Y551151D01*
X41766Y550598D01*
X42834Y550312D01*
X43938D01*
X45005Y550598D01*
X45962Y551151D01*
X46262Y551450D01*
X48975Y553090D01*
X58398D01*
X58940Y553198D01*
X59400Y553505D01*
X60502Y554608D01*
X60810Y555068D01*
X60918Y555610D01*
Y603023D01*
X88750Y630856D01*
X89058Y631316D01*
X89166Y631858D01*
Y749798D01*
X89854Y751459D01*
X134502Y796108D01*
X134810Y796568D01*
X134882Y796929D01*
X135937Y798880D01*
X136141Y799084D01*
X136575Y799836D01*
X136800Y800676D01*
Y801545D01*
X136575Y802384D01*
X136141Y803137D01*
X135526Y803751D01*
X134774Y804185D01*
X133934Y804410D01*
X133066D01*
X132226Y804185D01*
X131474Y803751D01*
X130859Y803137D01*
X130425Y802384D01*
X130200Y801545D01*
Y800676D01*
X130425Y799836D01*
X130859Y799084D01*
X131063Y798880D01*
X131836Y797451D01*
X87849Y753464D01*
X86188Y752776D01*
X48975D01*
X46262Y754416D01*
X45962Y754716D01*
X45327Y755082D01*
X45461Y755582D01*
X85890D01*
X86432Y755690D01*
X86892Y755998D01*
X107197Y776303D01*
X107505Y776763D01*
X107613Y777305D01*
Y784218D01*
X131093Y807699D01*
X133146Y808310D01*
X133434D01*
X134274Y808535D01*
X135026Y808970D01*
X135641Y809584D01*
X136075Y810336D01*
X136300Y811176D01*
Y812045D01*
X136075Y812884D01*
X135641Y813636D01*
X135026Y814251D01*
X134274Y814685D01*
X133434Y814910D01*
X132566D01*
X131726Y814685D01*
X130974Y814251D01*
X130359Y813636D01*
X129925Y812884D01*
X129700Y812045D01*
Y811756D01*
X129088Y809704D01*
X105192Y785808D01*
X104885Y785348D01*
X104777Y784805D01*
Y777892D01*
X85303Y758418D01*
X46082D01*
X45977Y758809D01*
X45973Y758918D01*
X46743Y759688D01*
X47296Y760644D01*
X47581Y761711D01*
Y762816D01*
X47296Y763883D01*
X46743Y764840D01*
X46001Y765582D01*
X46035Y765895D01*
X46086Y766082D01*
X76390D01*
X76932Y766190D01*
X77392Y766498D01*
X114503Y803608D01*
X114810Y804068D01*
X114918Y804610D01*
Y806376D01*
X115187Y806915D01*
X117696D01*
Y815306D01*
D02*
G37*
G36*
X33205Y750188D02*
Y746906D01*
X36487D01*
X36301Y747602D01*
X35722Y748604D01*
X34904Y749423D01*
X33901Y750002D01*
X33205Y750188D01*
D02*
G37*
G36*
X36487Y744906D02*
X33205D01*
Y741623D01*
X33901Y741809D01*
X34904Y742388D01*
X35722Y743207D01*
X36301Y744209D01*
X36487Y744906D01*
D02*
G37*
G36*
X44386Y744735D02*
Y741453D01*
X47669D01*
X47482Y742149D01*
X46903Y743152D01*
X46085Y743970D01*
X45083Y744549D01*
X44386Y744735D01*
D02*
G37*
G36*
X42386Y744735D02*
X41689Y744549D01*
X40687Y743970D01*
X39868Y743152D01*
X39290Y742149D01*
X39103Y741453D01*
X42386D01*
Y744735D01*
D02*
G37*
G36*
Y739453D02*
X39103D01*
X39290Y738756D01*
X39868Y737754D01*
X40687Y736935D01*
X41689Y736357D01*
X42386Y736170D01*
Y739453D01*
D02*
G37*
G36*
X47669D02*
X44386D01*
Y736170D01*
X45083Y736357D01*
X46085Y736935D01*
X46903Y737754D01*
X47482Y738756D01*
X47669Y739453D01*
D02*
G37*
G36*
X33205Y739283D02*
Y736000D01*
X36487D01*
X36301Y736697D01*
X35722Y737699D01*
X34904Y738517D01*
X33901Y739096D01*
X33205Y739283D01*
D02*
G37*
G36*
X36487Y734000D02*
X33205D01*
Y730717D01*
X33901Y730904D01*
X34904Y731483D01*
X35722Y732301D01*
X36301Y733303D01*
X36487Y734000D01*
D02*
G37*
G36*
X373140Y741942D02*
X371742D01*
X370370Y741669D01*
X369078Y741134D01*
X367916Y740357D01*
X366927Y739368D01*
X366150Y738205D01*
X365615Y736913D01*
X365342Y735542D01*
Y734143D01*
X365615Y732772D01*
X366150Y731480D01*
X366927Y730317D01*
X367916Y729328D01*
X369078Y728551D01*
X370370Y728016D01*
X371742Y727743D01*
X373140D01*
X374512Y728016D01*
X375804Y728551D01*
X376966Y729328D01*
X377955Y730317D01*
X378732Y731480D01*
X379267Y732772D01*
X379540Y734143D01*
Y735542D01*
X379267Y736913D01*
X378732Y738205D01*
X377955Y739368D01*
X376966Y740357D01*
X375804Y741134D01*
X374512Y741669D01*
X373140Y741942D01*
D02*
G37*
G36*
X47581Y733743D02*
X39190D01*
Y725352D01*
X47581D01*
Y733743D01*
D02*
G37*
G36*
X38701Y711324D02*
X36889D01*
X35112Y710970D01*
X33439Y710277D01*
X31932Y709270D01*
X30651Y707989D01*
X29644Y706483D01*
X28951Y704809D01*
X28598Y703032D01*
Y701220D01*
X28951Y699443D01*
X29644Y697769D01*
X30651Y696263D01*
X31932Y694982D01*
X33439Y693975D01*
X35112Y693282D01*
X36889Y692928D01*
X38701D01*
X40478Y693282D01*
X42152Y693975D01*
X43658Y694982D01*
X44940Y696263D01*
X45946Y697769D01*
X46639Y699443D01*
X46993Y701220D01*
Y703032D01*
X46639Y704809D01*
X45946Y706483D01*
X44940Y707989D01*
X43658Y709270D01*
X42152Y710277D01*
X40478Y710970D01*
X38701Y711324D01*
D02*
G37*
G36*
X357796Y696835D02*
X355984D01*
X354207Y696482D01*
X352533Y695789D01*
X351027Y694782D01*
X349745Y693501D01*
X348739Y691994D01*
X348046Y690321D01*
X347692Y688544D01*
Y686732D01*
X348046Y684955D01*
X348739Y683281D01*
X349745Y681775D01*
X351027Y680493D01*
X352533Y679487D01*
X354207Y678794D01*
X355984Y678440D01*
X357796D01*
X359573Y678794D01*
X361246Y679487D01*
X362753Y680493D01*
X364034Y681775D01*
X365041Y683281D01*
X365734Y684955D01*
X366087Y686732D01*
Y688544D01*
X365734Y690321D01*
X365041Y691994D01*
X364034Y693501D01*
X362753Y694782D01*
X361246Y695789D01*
X359573Y696482D01*
X357796Y696835D01*
D02*
G37*
G36*
X355495Y664412D02*
X347104D01*
Y656021D01*
X355495D01*
Y664412D01*
D02*
G37*
G36*
X248935Y658300D02*
X248065D01*
X247226Y658075D01*
X246474Y657641D01*
X246270Y657437D01*
X244386Y656418D01*
X122390D01*
X121847Y656310D01*
X121387Y656003D01*
X67907Y602522D01*
X65854Y601910D01*
X65566D01*
X64726Y601685D01*
X63974Y601251D01*
X63359Y600636D01*
X62925Y599884D01*
X62700Y599045D01*
Y598176D01*
X62925Y597336D01*
X63359Y596584D01*
X63974Y595970D01*
X64553Y595635D01*
X64562Y595611D01*
Y595109D01*
X64553Y595085D01*
X63974Y594751D01*
X63359Y594136D01*
X62925Y593384D01*
X62700Y592545D01*
Y591676D01*
X62925Y590836D01*
X63359Y590084D01*
X63974Y589470D01*
X64726Y589035D01*
X65566Y588810D01*
X66435D01*
X67274Y589035D01*
X68026Y589470D01*
X68641Y590084D01*
X69075Y590836D01*
X69300Y591676D01*
Y591964D01*
X69912Y594017D01*
X122977Y647082D01*
X236968D01*
X238852Y646063D01*
X239056Y645859D01*
X239809Y645425D01*
X240648Y645200D01*
X241517D01*
X242356Y645425D01*
X243109Y645859D01*
X243723Y646474D01*
X244157Y647226D01*
X244382Y648066D01*
Y648935D01*
X244157Y649774D01*
X243723Y650526D01*
X243109Y651141D01*
X242356Y651575D01*
X241517Y651800D01*
X240648D01*
X239809Y651575D01*
X239056Y651141D01*
X238852Y650937D01*
X236968Y649918D01*
X122390D01*
X121847Y649810D01*
X121387Y649503D01*
X69729Y597844D01*
X69280Y598103D01*
X69300Y598176D01*
Y598464D01*
X69912Y600517D01*
X122977Y653582D01*
X244386D01*
X246270Y652563D01*
X246474Y652359D01*
X247226Y651925D01*
X248065Y651700D01*
X248935D01*
X249774Y651925D01*
X250526Y652359D01*
X251141Y652974D01*
X251575Y653726D01*
X251800Y654565D01*
Y655435D01*
X251575Y656274D01*
X251141Y657026D01*
X250526Y657641D01*
X249774Y658075D01*
X248935Y658300D01*
D02*
G37*
G36*
X363033Y658959D02*
X361928D01*
X360861Y658673D01*
X359904Y658121D01*
X359123Y657340D01*
X358571Y656383D01*
X358285Y655316D01*
Y654211D01*
X358571Y653144D01*
X359123Y652188D01*
X359904Y651406D01*
X360861Y650854D01*
X361928Y650568D01*
X363033D01*
X364100Y650854D01*
X365056Y651406D01*
X365838Y652188D01*
X366390Y653144D01*
X366676Y654211D01*
Y655316D01*
X366390Y656383D01*
X365838Y657340D01*
X365056Y658121D01*
X364100Y658673D01*
X363033Y658959D01*
D02*
G37*
G36*
X351852Y653507D02*
X350747D01*
X349680Y653221D01*
X348723Y652668D01*
X347942Y651887D01*
X347390Y650931D01*
X347104Y649863D01*
Y648759D01*
X347390Y647692D01*
X347942Y646735D01*
X348723Y645954D01*
X349680Y645401D01*
X350747Y645115D01*
X351852D01*
X352919Y645401D01*
X353875Y645954D01*
X354657Y646735D01*
X355209Y647692D01*
X355495Y648759D01*
Y649863D01*
X355209Y650931D01*
X354657Y651887D01*
X353875Y652668D01*
X352919Y653221D01*
X351852Y653507D01*
D02*
G37*
G36*
X363033Y648054D02*
X361928D01*
X360861Y647768D01*
X359904Y647216D01*
X359123Y646434D01*
X358571Y645478D01*
X358285Y644411D01*
Y643306D01*
X358571Y642239D01*
X359123Y641282D01*
X359904Y640501D01*
X360861Y639949D01*
X361928Y639663D01*
X363033D01*
X364100Y639949D01*
X365056Y640501D01*
X365838Y641282D01*
X366390Y642239D01*
X366676Y643306D01*
Y644411D01*
X366390Y645478D01*
X365838Y646434D01*
X365056Y647216D01*
X364100Y647768D01*
X363033Y648054D01*
D02*
G37*
G36*
X38701Y645654D02*
X36889D01*
X35112Y645301D01*
X33439Y644607D01*
X31932Y643601D01*
X30651Y642320D01*
X29644Y640813D01*
X28951Y639140D01*
X28598Y637363D01*
Y635551D01*
X28951Y633774D01*
X29644Y632100D01*
X30651Y630593D01*
X31932Y629312D01*
X33439Y628306D01*
X35112Y627612D01*
X36889Y627259D01*
X38701D01*
X40478Y627612D01*
X42152Y628306D01*
X43658Y629312D01*
X44940Y630593D01*
X45140Y630894D01*
X51494Y636193D01*
X73386D01*
X75270Y635174D01*
X75474Y634970D01*
X76226Y634535D01*
X77065Y634310D01*
X77934D01*
X78774Y634535D01*
X79526Y634970D01*
X80141Y635584D01*
X80575Y636337D01*
X80800Y637176D01*
Y638045D01*
X80575Y638884D01*
X80141Y639637D01*
X79526Y640251D01*
X78774Y640685D01*
X77934Y640910D01*
X77065D01*
X76226Y640685D01*
X75474Y640251D01*
X75270Y640047D01*
X73386Y639028D01*
X51256D01*
X43441Y643746D01*
X42152Y644607D01*
X40478Y645301D01*
X38701Y645654D01*
D02*
G37*
G36*
X351852Y642601D02*
X350747D01*
X349680Y642315D01*
X348723Y641763D01*
X347942Y640982D01*
X347390Y640025D01*
X347104Y638958D01*
Y637853D01*
X347390Y636786D01*
X347942Y635829D01*
X348723Y635048D01*
X349680Y634496D01*
X350747Y634210D01*
X351852D01*
X352919Y634496D01*
X353875Y635048D01*
X354657Y635829D01*
X355209Y636786D01*
X355495Y637853D01*
Y638958D01*
X355209Y640025D01*
X354657Y640982D01*
X353875Y641763D01*
X352919Y642315D01*
X351852Y642601D01*
D02*
G37*
G36*
X205434Y635910D02*
X204566D01*
X203726Y635685D01*
X202974Y635251D01*
X202770Y635047D01*
X200886Y634028D01*
X155000D01*
X154457Y633920D01*
X153998Y633613D01*
X60997Y540613D01*
X60690Y540153D01*
X60582Y539610D01*
Y391485D01*
X45789Y376692D01*
X44458Y376016D01*
X38865D01*
Y367763D01*
X47119D01*
Y373356D01*
X47794Y374687D01*
X63003Y389895D01*
X63310Y390355D01*
X63418Y390898D01*
Y539023D01*
X155587Y631192D01*
X200886D01*
X202770Y630173D01*
X202974Y629970D01*
X203726Y629535D01*
X204566Y629310D01*
X205434D01*
X206274Y629535D01*
X207026Y629970D01*
X207641Y630584D01*
X208075Y631336D01*
X208300Y632176D01*
Y633045D01*
X208075Y633884D01*
X207641Y634636D01*
X207026Y635251D01*
X206274Y635685D01*
X205434Y635910D01*
D02*
G37*
G36*
X363033Y637148D02*
X361928D01*
X360861Y636863D01*
X359904Y636310D01*
X359123Y635529D01*
X358571Y634572D01*
X358285Y633505D01*
Y632400D01*
X358571Y631333D01*
X359123Y630377D01*
X359904Y629595D01*
X360861Y629043D01*
X361928Y628757D01*
X363033D01*
X364100Y629043D01*
X365056Y629595D01*
X365838Y630377D01*
X366390Y631333D01*
X366676Y632400D01*
Y633505D01*
X366390Y634572D01*
X365838Y635529D01*
X365056Y636310D01*
X364100Y636863D01*
X363033Y637148D01*
D02*
G37*
G36*
X351852Y631696D02*
X350747D01*
X349680Y631410D01*
X348723Y630857D01*
X347942Y630076D01*
X347390Y629119D01*
X347104Y628052D01*
Y626948D01*
X347390Y625880D01*
X347942Y624924D01*
X348723Y624143D01*
X349680Y623590D01*
X350747Y623304D01*
X351852D01*
X352919Y623590D01*
X353875Y624143D01*
X354657Y624924D01*
X355209Y625880D01*
X355495Y626948D01*
Y628052D01*
X355209Y629119D01*
X354657Y630076D01*
X353875Y630857D01*
X352919Y631410D01*
X351852Y631696D01*
D02*
G37*
G36*
X363033Y626243D02*
X361928D01*
X360861Y625957D01*
X359904Y625405D01*
X359123Y624623D01*
X358571Y623667D01*
X358285Y622600D01*
Y621495D01*
X358571Y620428D01*
X359123Y619471D01*
X359904Y618690D01*
X360861Y618138D01*
X361928Y617852D01*
X363033D01*
X364100Y618138D01*
X365056Y618690D01*
X365838Y619471D01*
X366390Y620428D01*
X366676Y621495D01*
Y622600D01*
X366390Y623667D01*
X365838Y624623D01*
X365056Y625405D01*
X364100Y625957D01*
X363033Y626243D01*
D02*
G37*
G36*
X351852Y620790D02*
X350747D01*
X349680Y620504D01*
X348723Y619952D01*
X347942Y619171D01*
X347390Y618214D01*
X347104Y617147D01*
Y616042D01*
X347390Y614975D01*
X347942Y614018D01*
X348723Y613237D01*
X349680Y612685D01*
X350747Y612399D01*
X351852D01*
X352919Y612685D01*
X353875Y613237D01*
X354657Y614018D01*
X355209Y614975D01*
X355495Y616042D01*
Y617147D01*
X355209Y618214D01*
X354657Y619171D01*
X353875Y619952D01*
X352919Y620504D01*
X351852Y620790D01*
D02*
G37*
G36*
X363033Y615337D02*
X361928D01*
X360861Y615052D01*
X359904Y614499D01*
X359123Y613718D01*
X358571Y612761D01*
X358285Y611694D01*
Y610589D01*
X358571Y609522D01*
X359123Y608566D01*
X359904Y607784D01*
X360861Y607232D01*
X361928Y606946D01*
X363033D01*
X364100Y607232D01*
X365056Y607784D01*
X365838Y608566D01*
X366390Y609522D01*
X366676Y610589D01*
Y611694D01*
X366390Y612761D01*
X365838Y613718D01*
X365056Y614499D01*
X364100Y615052D01*
X363033Y615337D01*
D02*
G37*
G36*
X33205Y607865D02*
Y604583D01*
X36487D01*
X36301Y605279D01*
X35722Y606282D01*
X34904Y607100D01*
X33901Y607679D01*
X33205Y607865D01*
D02*
G37*
G36*
X31205Y607865D02*
X30508Y607679D01*
X29506Y607100D01*
X28687Y606282D01*
X28109Y605279D01*
X27922Y604583D01*
X31205D01*
Y607865D01*
D02*
G37*
G36*
X351852Y609885D02*
X350747D01*
X349680Y609599D01*
X348723Y609046D01*
X348423Y608746D01*
X345710Y607107D01*
X336189D01*
X335646Y606999D01*
X335186Y606692D01*
X331997Y603503D01*
X331690Y603043D01*
X331582Y602500D01*
Y458102D01*
X331690Y457560D01*
X331997Y457100D01*
X345833Y443264D01*
X346582Y440265D01*
Y439850D01*
X346863Y438801D01*
X347406Y437860D01*
X348175Y437091D01*
X349116Y436548D01*
X350165Y436267D01*
X351252D01*
X352302Y436548D01*
X353243Y437091D01*
X354011Y437860D01*
X354554Y438801D01*
X354835Y439850D01*
Y440937D01*
X354554Y441987D01*
X354011Y442928D01*
X353243Y443696D01*
X352302Y444239D01*
X351252Y444521D01*
X350838D01*
X347838Y445269D01*
X334418Y458690D01*
Y601913D01*
X336776Y604271D01*
X345710D01*
X348423Y602632D01*
X348723Y602332D01*
X349680Y601779D01*
X350747Y601493D01*
X351852D01*
X352919Y601779D01*
X353875Y602332D01*
X354657Y603113D01*
X355209Y604070D01*
X355495Y605137D01*
Y606241D01*
X355209Y607308D01*
X354657Y608265D01*
X353875Y609046D01*
X352919Y609599D01*
X351852Y609885D01*
D02*
G37*
G36*
X36487Y602583D02*
X33205D01*
Y599300D01*
X33901Y599487D01*
X34904Y600065D01*
X35722Y600884D01*
X36301Y601886D01*
X36487Y602583D01*
D02*
G37*
G36*
X31205D02*
X27922D01*
X28109Y601886D01*
X28687Y600884D01*
X29506Y600065D01*
X30508Y599487D01*
X31205Y599300D01*
Y602583D01*
D02*
G37*
G36*
X363033Y604432D02*
X361928D01*
X360861Y604146D01*
X359904Y603594D01*
X359123Y602812D01*
X358571Y601856D01*
X358285Y600789D01*
Y599684D01*
X358571Y598617D01*
X359123Y597660D01*
X359904Y596879D01*
X360861Y596326D01*
X361928Y596040D01*
X363033D01*
X364100Y596326D01*
X365056Y596879D01*
X365838Y597660D01*
X366390Y598617D01*
X366676Y599684D01*
Y600789D01*
X366390Y601856D01*
X365838Y602812D01*
X365056Y603594D01*
X364100Y604146D01*
X363033Y604432D01*
D02*
G37*
G36*
X43938Y602326D02*
X42834D01*
X41766Y602040D01*
X40810Y601487D01*
X40029Y600706D01*
X39476Y599749D01*
X39190Y598682D01*
Y597578D01*
X39476Y596511D01*
X40029Y595554D01*
X40810Y594773D01*
X41766Y594220D01*
X42834Y593934D01*
X43938D01*
X45005Y594220D01*
X45962Y594773D01*
X46743Y595554D01*
X47296Y596511D01*
X47581Y597578D01*
Y598682D01*
X47296Y599749D01*
X46743Y600706D01*
X45962Y601487D01*
X45005Y602040D01*
X43938Y602326D01*
D02*
G37*
G36*
X351852Y598979D02*
X350747D01*
X349680Y598693D01*
X348723Y598141D01*
X347942Y597360D01*
X347390Y596403D01*
X347104Y595336D01*
Y594231D01*
X347390Y593164D01*
X347942Y592207D01*
X348723Y591426D01*
X349680Y590874D01*
X350747Y590588D01*
X351852D01*
X352919Y590874D01*
X353875Y591426D01*
X354657Y592207D01*
X355209Y593164D01*
X355495Y594231D01*
Y595336D01*
X355209Y596403D01*
X354657Y597360D01*
X353875Y598141D01*
X352919Y598693D01*
X351852Y598979D01*
D02*
G37*
G36*
X32757Y596873D02*
X31652D01*
X30585Y596587D01*
X29629Y596034D01*
X28847Y595253D01*
X28295Y594297D01*
X28009Y593229D01*
Y592125D01*
X28295Y591058D01*
X28847Y590101D01*
X29629Y589320D01*
X30585Y588767D01*
X31652Y588482D01*
X32757D01*
X33824Y588767D01*
X34781Y589320D01*
X35562Y590101D01*
X36114Y591058D01*
X36400Y592125D01*
Y593229D01*
X36114Y594297D01*
X35562Y595253D01*
X34781Y596034D01*
X33824Y596587D01*
X32757Y596873D01*
D02*
G37*
G36*
X363033Y593526D02*
X361928D01*
X360861Y593240D01*
X359904Y592688D01*
X359123Y591907D01*
X358571Y590950D01*
X358285Y589883D01*
Y588778D01*
X358571Y587711D01*
X359123Y586755D01*
X359904Y585973D01*
X360861Y585421D01*
X361928Y585135D01*
X363033D01*
X364100Y585421D01*
X365056Y585973D01*
X365838Y586755D01*
X366390Y587711D01*
X366676Y588778D01*
Y589883D01*
X366390Y590950D01*
X365838Y591907D01*
X365056Y592688D01*
X364100Y593240D01*
X363033Y593526D01*
D02*
G37*
G36*
X43938Y591420D02*
X42834D01*
X41766Y591134D01*
X40810Y590582D01*
X40029Y589801D01*
X39476Y588844D01*
X39190Y587777D01*
Y586672D01*
X39476Y585605D01*
X40029Y584648D01*
X40810Y583867D01*
X41766Y583315D01*
X42834Y583029D01*
X43938D01*
X45005Y583315D01*
X45962Y583867D01*
X46743Y584648D01*
X47296Y585605D01*
X47581Y586672D01*
Y587777D01*
X47296Y588844D01*
X46743Y589801D01*
X45962Y590582D01*
X45005Y591134D01*
X43938Y591420D01*
D02*
G37*
G36*
X351852Y588074D02*
X350747D01*
X349680Y587788D01*
X348723Y587235D01*
X347942Y586454D01*
X347390Y585497D01*
X347104Y584430D01*
Y583326D01*
X347390Y582259D01*
X347942Y581302D01*
X348723Y580521D01*
X349680Y579968D01*
X350747Y579682D01*
X351852D01*
X352919Y579968D01*
X353875Y580521D01*
X354657Y581302D01*
X355209Y582259D01*
X355495Y583326D01*
Y584430D01*
X355209Y585497D01*
X354657Y586454D01*
X353875Y587235D01*
X352919Y587788D01*
X351852Y588074D01*
D02*
G37*
G36*
X23934Y579800D02*
X23065D01*
X22226Y579575D01*
X21474Y579141D01*
X20859Y578526D01*
X20525Y577947D01*
X20501Y577938D01*
X19999D01*
X19975Y577947D01*
X19641Y578526D01*
X19026Y579141D01*
X18274Y579575D01*
X17435Y579800D01*
X16566D01*
X15726Y579575D01*
X14974Y579141D01*
X14359Y578526D01*
X13925Y577774D01*
X13700Y576934D01*
Y576065D01*
X13925Y575226D01*
X14359Y574474D01*
X14563Y574270D01*
X15582Y572386D01*
Y425000D01*
X15690Y424457D01*
X15998Y423997D01*
X26985Y413010D01*
X27684Y410033D01*
Y409516D01*
X27966Y408466D01*
X28509Y407525D01*
X29277Y406757D01*
X30218Y406214D01*
X31268Y405932D01*
X32354D01*
X33404Y406214D01*
X34345Y406757D01*
X35113Y407525D01*
X35657Y408466D01*
X35938Y409516D01*
Y410602D01*
X35657Y411652D01*
X35113Y412593D01*
X34345Y413361D01*
X33404Y413905D01*
X32354Y414186D01*
X32033D01*
X29023Y414982D01*
X18418Y425587D01*
Y572386D01*
X19437Y574270D01*
X19641Y574474D01*
X19975Y575053D01*
X19999Y575062D01*
X20501D01*
X20525Y575053D01*
X20859Y574474D01*
X21063Y574270D01*
X22082Y572386D01*
Y484500D01*
X22190Y483957D01*
X22498Y483497D01*
X51082Y454913D01*
Y425607D01*
X45862Y420387D01*
X42863Y419639D01*
X42449D01*
X41399Y419357D01*
X40458Y418814D01*
X39690Y418046D01*
X39147Y417105D01*
X38865Y416055D01*
Y414968D01*
X39147Y413919D01*
X39690Y412978D01*
X40458Y412210D01*
X41399Y411666D01*
X42449Y411385D01*
X43535D01*
X44585Y411666D01*
X45526Y412210D01*
X46294Y412978D01*
X46838Y413919D01*
X47119Y414968D01*
Y415383D01*
X47867Y418382D01*
X53503Y424017D01*
X53810Y424477D01*
X53918Y425020D01*
Y455500D01*
X53810Y456043D01*
X53503Y456502D01*
X24918Y485087D01*
Y572386D01*
X25937Y574270D01*
X26141Y574474D01*
X26575Y575226D01*
X26800Y576065D01*
Y576934D01*
X26575Y577774D01*
X26141Y578526D01*
X25526Y579141D01*
X24774Y579575D01*
X23934Y579800D01*
D02*
G37*
G36*
X43938Y580515D02*
X42834D01*
X41766Y580229D01*
X40810Y579676D01*
X40029Y578895D01*
X39476Y577938D01*
X39190Y576871D01*
Y575767D01*
X39476Y574699D01*
X40029Y573743D01*
X40810Y572962D01*
X41766Y572409D01*
X42834Y572123D01*
X43938D01*
X45005Y572409D01*
X45962Y572962D01*
X46743Y573743D01*
X47296Y574699D01*
X47581Y575767D01*
Y576871D01*
X47296Y577938D01*
X46743Y578895D01*
X45962Y579676D01*
X45005Y580229D01*
X43938Y580515D01*
D02*
G37*
G36*
X7434Y599800D02*
X6566D01*
X5726Y599575D01*
X4974Y599141D01*
X4359Y598526D01*
X3925Y597774D01*
X3700Y596935D01*
Y596066D01*
X3925Y595226D01*
X4359Y594474D01*
X4563Y594270D01*
X5582Y592386D01*
Y583418D01*
X5690Y582876D01*
X5997Y582416D01*
X6689Y581724D01*
X7149Y581416D01*
X7692Y581309D01*
X26516D01*
X28608Y579610D01*
X28847Y579195D01*
X29629Y578414D01*
X30312Y578020D01*
X31893Y576224D01*
X31925Y576062D01*
X32233Y575602D01*
X32273Y575562D01*
X32066Y575062D01*
X31652D01*
X30585Y574776D01*
X29629Y574224D01*
X28847Y573442D01*
X28295Y572486D01*
X28009Y571419D01*
Y570314D01*
X28295Y569247D01*
X28847Y568290D01*
X29629Y567509D01*
X30585Y566956D01*
X31652Y566671D01*
X32757D01*
X33824Y566956D01*
X34781Y567509D01*
X35073Y567801D01*
X35573Y567594D01*
Y563233D01*
X35073Y563026D01*
X34781Y563318D01*
X33824Y563870D01*
X32757Y564156D01*
X31652D01*
X30585Y563870D01*
X29629Y563318D01*
X28847Y562537D01*
X28295Y561580D01*
X28009Y560513D01*
Y559408D01*
X28295Y558341D01*
X28847Y557384D01*
X29629Y556603D01*
X30585Y556051D01*
X31652Y555765D01*
X32757D01*
X33824Y556051D01*
X34781Y556603D01*
X35073Y556895D01*
X35573Y556688D01*
Y552327D01*
X35073Y552120D01*
X34781Y552413D01*
X33824Y552965D01*
X32757Y553251D01*
X31652D01*
X30585Y552965D01*
X29629Y552413D01*
X28847Y551631D01*
X28295Y550675D01*
X28009Y549608D01*
Y548503D01*
X28295Y547436D01*
X28847Y546479D01*
X29629Y545698D01*
X30585Y545145D01*
X31652Y544860D01*
X32757D01*
X33824Y545145D01*
X34781Y545698D01*
X35073Y545990D01*
X35573Y545783D01*
Y541422D01*
X35073Y541215D01*
X34781Y541507D01*
X33824Y542059D01*
X32757Y542345D01*
X31652D01*
X30585Y542059D01*
X29629Y541507D01*
X28847Y540726D01*
X28295Y539769D01*
X28009Y538702D01*
Y537597D01*
X28295Y536530D01*
X28847Y535573D01*
X29629Y534792D01*
X30585Y534240D01*
X31652Y533954D01*
X32757D01*
X33824Y534240D01*
X34781Y534792D01*
X35086Y535098D01*
X35548Y534906D01*
Y527534D01*
X35656Y526991D01*
X35963Y526531D01*
X55875Y506620D01*
Y397684D01*
X45862Y387670D01*
X42863Y386922D01*
X42449D01*
X41399Y386641D01*
X40458Y386098D01*
X39690Y385329D01*
X39147Y384388D01*
X38865Y383339D01*
Y382252D01*
X39147Y381202D01*
X39690Y380261D01*
X40458Y379493D01*
X41399Y378950D01*
X42449Y378668D01*
X43535D01*
X44585Y378950D01*
X45526Y379493D01*
X46294Y380261D01*
X46838Y381202D01*
X47119Y382252D01*
Y382666D01*
X47867Y385665D01*
X58296Y396094D01*
X58603Y396554D01*
X58711Y397096D01*
Y507207D01*
X58603Y507749D01*
X58296Y508209D01*
X38384Y528121D01*
Y536042D01*
X38409Y536167D01*
Y572849D01*
X38301Y573391D01*
X37993Y573851D01*
X34814Y577031D01*
X35882Y579736D01*
X35885Y579755D01*
X36114Y580152D01*
X36400Y581219D01*
Y582324D01*
X36114Y583391D01*
X35562Y584348D01*
X34781Y585129D01*
X33824Y585681D01*
X32757Y585967D01*
X31652D01*
X30585Y585681D01*
X30259Y585493D01*
X30232Y585487D01*
X27008Y584144D01*
X8418D01*
Y592386D01*
X9437Y594270D01*
X9641Y594474D01*
X10075Y595226D01*
X10300Y596066D01*
Y596935D01*
X10075Y597774D01*
X9641Y598526D01*
X9026Y599141D01*
X8274Y599575D01*
X7434Y599800D01*
D02*
G37*
G36*
X43938Y569609D02*
X42834D01*
X41766Y569323D01*
X40810Y568771D01*
X40029Y567990D01*
X39476Y567033D01*
X39190Y565966D01*
Y564861D01*
X39476Y563794D01*
X40029Y562837D01*
X40810Y562056D01*
X41766Y561504D01*
X42834Y561218D01*
X43938D01*
X45005Y561504D01*
X45962Y562056D01*
X46743Y562837D01*
X47296Y563794D01*
X47581Y564861D01*
Y565966D01*
X47296Y567033D01*
X46743Y567990D01*
X45962Y568771D01*
X45005Y569323D01*
X43938Y569609D01*
D02*
G37*
G36*
X329935Y675300D02*
X329065D01*
X328226Y675075D01*
X327474Y674641D01*
X326859Y674026D01*
X326425Y673274D01*
X326200Y672435D01*
Y671565D01*
X326425Y670726D01*
X326466Y670655D01*
X326267Y670316D01*
X326040Y669976D01*
X325920Y669371D01*
Y564655D01*
X322238Y560973D01*
X320341Y560300D01*
X320065D01*
X319226Y560075D01*
X318474Y559641D01*
X317859Y559026D01*
X317425Y558274D01*
X317200Y557435D01*
Y556566D01*
X317425Y555726D01*
X317859Y554974D01*
X318474Y554359D01*
X319226Y553925D01*
X320065Y553700D01*
X320935D01*
X321774Y553925D01*
X322526Y554359D01*
X323141Y554974D01*
X323575Y555726D01*
X323800Y556566D01*
Y556841D01*
X324473Y558738D01*
X328618Y562883D01*
X328960Y563395D01*
X329080Y564000D01*
Y668621D01*
X329183Y668700D01*
X329935D01*
X330774Y668925D01*
X331526Y669359D01*
X332141Y669974D01*
X332575Y670726D01*
X332800Y671565D01*
Y672435D01*
X332575Y673274D01*
X332141Y674026D01*
X331526Y674641D01*
X330774Y675075D01*
X329935Y675300D01*
D02*
G37*
G36*
X357796Y565654D02*
X355984D01*
X354207Y565301D01*
X352533Y564607D01*
X351027Y563601D01*
X349745Y562320D01*
X348739Y560813D01*
X348046Y559139D01*
X347692Y557363D01*
Y555551D01*
X348046Y553774D01*
X348739Y552100D01*
X349745Y550594D01*
X351027Y549312D01*
X352533Y548306D01*
X354207Y547612D01*
X355984Y547259D01*
X357796D01*
X359573Y547612D01*
X361246Y548306D01*
X362753Y549312D01*
X364034Y550594D01*
X365041Y552100D01*
X365734Y553774D01*
X366087Y555551D01*
Y557363D01*
X365734Y559139D01*
X365041Y560813D01*
X364034Y562320D01*
X362753Y563601D01*
X361246Y564607D01*
X359573Y565301D01*
X357796Y565654D01*
D02*
G37*
G36*
X43938Y547798D02*
X42834D01*
X41766Y547512D01*
X40810Y546960D01*
X40029Y546179D01*
X39476Y545222D01*
X39190Y544155D01*
Y543050D01*
X39476Y541983D01*
X40029Y541026D01*
X40810Y540245D01*
X41766Y539693D01*
X42834Y539407D01*
X43938D01*
X45005Y539693D01*
X45962Y540245D01*
X46743Y541026D01*
X47296Y541983D01*
X47581Y543050D01*
Y544155D01*
X47296Y545222D01*
X46743Y546179D01*
X45962Y546960D01*
X45005Y547512D01*
X43938Y547798D01*
D02*
G37*
G36*
X47581Y536893D02*
X39190D01*
Y528501D01*
X47581D01*
Y536893D01*
D02*
G37*
G36*
X357301Y521568D02*
X355298D01*
X353333Y521177D01*
X351482Y520410D01*
X349816Y519297D01*
X348400Y517881D01*
X347287Y516215D01*
X346520Y514364D01*
X346129Y512399D01*
Y510396D01*
X346520Y508431D01*
X347287Y506580D01*
X348400Y504915D01*
X349816Y503498D01*
X351482Y502385D01*
X353333Y501618D01*
X355298Y501228D01*
X357301D01*
X359266Y501618D01*
X361117Y502385D01*
X362782Y503498D01*
X364199Y504915D01*
X365312Y506580D01*
X366078Y508431D01*
X366469Y510396D01*
Y512399D01*
X366078Y514364D01*
X365312Y516215D01*
X364199Y517881D01*
X362782Y519297D01*
X361117Y520410D01*
X359266Y521177D01*
X357301Y521568D01*
D02*
G37*
G36*
X38701Y514473D02*
X36889D01*
X35112Y514120D01*
X33439Y513426D01*
X31932Y512420D01*
X30651Y511139D01*
X29644Y509632D01*
X28951Y507958D01*
X28598Y506181D01*
Y504370D01*
X28951Y502593D01*
X29644Y500919D01*
X30651Y499412D01*
X31932Y498131D01*
X33439Y497125D01*
X35112Y496431D01*
X36889Y496078D01*
X38701D01*
X40478Y496431D01*
X42152Y497125D01*
X43658Y498131D01*
X44940Y499412D01*
X45946Y500919D01*
X46639Y502593D01*
X46993Y504370D01*
Y506181D01*
X46639Y507958D01*
X45946Y509632D01*
X44940Y511139D01*
X43658Y512420D01*
X42152Y513426D01*
X40478Y514120D01*
X38701Y514473D01*
D02*
G37*
G36*
X354835Y488142D02*
X346582D01*
Y479889D01*
X354835D01*
Y488142D01*
D02*
G37*
G36*
X362433Y482690D02*
X361347D01*
X360297Y482409D01*
X359356Y481865D01*
X358588Y481097D01*
X358044Y480156D01*
X357763Y479106D01*
Y478020D01*
X358044Y476970D01*
X358588Y476029D01*
X359356Y475261D01*
X360297Y474718D01*
X361347Y474436D01*
X362433D01*
X363483Y474718D01*
X364424Y475261D01*
X365192Y476029D01*
X365735Y476970D01*
X366017Y478020D01*
Y479106D01*
X365735Y480156D01*
X365192Y481097D01*
X364424Y481865D01*
X363483Y482409D01*
X362433Y482690D01*
D02*
G37*
G36*
X351252Y477237D02*
X350165D01*
X349116Y476956D01*
X348175Y476412D01*
X347406Y475644D01*
X346863Y474703D01*
X346582Y473654D01*
Y472567D01*
X346863Y471517D01*
X347406Y470576D01*
X348175Y469808D01*
X349116Y469265D01*
X350165Y468984D01*
X351252D01*
X352302Y469265D01*
X353243Y469808D01*
X354011Y470576D01*
X354554Y471517D01*
X354835Y472567D01*
Y473654D01*
X354554Y474703D01*
X354011Y475644D01*
X353243Y476412D01*
X352302Y476956D01*
X351252Y477237D01*
D02*
G37*
G36*
X362433Y471784D02*
X361347D01*
X360297Y471503D01*
X359356Y470960D01*
X358588Y470191D01*
X358044Y469250D01*
X357763Y468201D01*
Y467114D01*
X358044Y466065D01*
X358588Y465124D01*
X359356Y464355D01*
X360297Y463812D01*
X361347Y463531D01*
X362433D01*
X363483Y463812D01*
X364424Y464355D01*
X365192Y465124D01*
X365735Y466065D01*
X366017Y467114D01*
Y468201D01*
X365735Y469250D01*
X365192Y470191D01*
X364424Y470960D01*
X363483Y471503D01*
X362433Y471784D01*
D02*
G37*
G36*
X351252Y466331D02*
X350165D01*
X349116Y466050D01*
X348175Y465507D01*
X347406Y464739D01*
X346863Y463798D01*
X346582Y462748D01*
Y461661D01*
X346863Y460612D01*
X347406Y459671D01*
X348175Y458903D01*
X349116Y458359D01*
X350165Y458078D01*
X351252D01*
X352302Y458359D01*
X353243Y458903D01*
X354011Y459671D01*
X354554Y460612D01*
X354835Y461661D01*
Y462748D01*
X354554Y463798D01*
X354011Y464739D01*
X353243Y465507D01*
X352302Y466050D01*
X351252Y466331D01*
D02*
G37*
G36*
X362433Y460879D02*
X361347D01*
X360297Y460598D01*
X359356Y460054D01*
X358588Y459286D01*
X358044Y458345D01*
X357763Y457295D01*
Y456209D01*
X358044Y455159D01*
X358588Y454218D01*
X359356Y453450D01*
X360297Y452906D01*
X361347Y452625D01*
X362433D01*
X363483Y452906D01*
X364424Y453450D01*
X365192Y454218D01*
X365735Y455159D01*
X366017Y456209D01*
Y457295D01*
X365735Y458345D01*
X365192Y459286D01*
X364424Y460054D01*
X363483Y460598D01*
X362433Y460879D01*
D02*
G37*
G36*
X351252Y455426D02*
X350165D01*
X349116Y455145D01*
X348175Y454601D01*
X347406Y453833D01*
X346863Y452892D01*
X346582Y451842D01*
Y450756D01*
X346863Y449706D01*
X347406Y448765D01*
X348175Y447997D01*
X349116Y447454D01*
X350165Y447172D01*
X351252D01*
X352302Y447454D01*
X353243Y447997D01*
X354011Y448765D01*
X354554Y449706D01*
X354835Y450756D01*
Y451842D01*
X354554Y452892D01*
X354011Y453833D01*
X353243Y454601D01*
X352302Y455145D01*
X351252Y455426D01*
D02*
G37*
G36*
X362433Y449973D02*
X361347D01*
X360297Y449692D01*
X359356Y449149D01*
X358588Y448380D01*
X358044Y447439D01*
X357763Y446390D01*
Y445303D01*
X358044Y444254D01*
X358588Y443313D01*
X359356Y442544D01*
X360297Y442001D01*
X361347Y441720D01*
X362433D01*
X363483Y442001D01*
X364424Y442544D01*
X365192Y443313D01*
X365735Y444254D01*
X366017Y445303D01*
Y446390D01*
X365735Y447439D01*
X365192Y448380D01*
X364424Y449149D01*
X363483Y449692D01*
X362433Y449973D01*
D02*
G37*
G36*
X38403Y453064D02*
X36400D01*
X34435Y452673D01*
X32584Y451906D01*
X30918Y450793D01*
X29502Y449377D01*
X28389Y447711D01*
X27622Y445860D01*
X27231Y443895D01*
Y441892D01*
X27622Y439927D01*
X28389Y438076D01*
X29502Y436411D01*
X30918Y434994D01*
X32584Y433881D01*
X34435Y433114D01*
X36400Y432724D01*
X38403D01*
X40368Y433114D01*
X42219Y433881D01*
X43885Y434994D01*
X45301Y436411D01*
X46414Y438076D01*
X47181Y439927D01*
X47572Y441892D01*
Y443895D01*
X47181Y445860D01*
X46414Y447711D01*
X45301Y449377D01*
X43885Y450793D01*
X42219Y451906D01*
X40368Y452673D01*
X38403Y453064D01*
D02*
G37*
G36*
X357301Y423182D02*
X355298D01*
X353333Y422791D01*
X351482Y422024D01*
X349816Y420911D01*
X348400Y419495D01*
X347287Y417829D01*
X346520Y415978D01*
X346129Y414013D01*
Y412010D01*
X346520Y410045D01*
X347287Y408194D01*
X348400Y406529D01*
X349816Y405112D01*
X351482Y403999D01*
X353333Y403233D01*
X355298Y402842D01*
X357301D01*
X359266Y403233D01*
X361117Y403999D01*
X362782Y405112D01*
X364199Y406529D01*
X365312Y408194D01*
X366078Y410045D01*
X366469Y412010D01*
Y414013D01*
X366078Y415978D01*
X365312Y417829D01*
X364199Y419495D01*
X362782Y420911D01*
X361117Y422024D01*
X359266Y422791D01*
X357301Y423182D01*
D02*
G37*
G36*
X43535Y408733D02*
X42449D01*
X41399Y408452D01*
X40458Y407908D01*
X39690Y407140D01*
X39147Y406199D01*
X38865Y405150D01*
Y404063D01*
X39147Y403013D01*
X39690Y402072D01*
X40458Y401304D01*
X41399Y400761D01*
X42449Y400480D01*
X43535D01*
X44585Y400761D01*
X45526Y401304D01*
X46294Y402072D01*
X46838Y403013D01*
X47119Y404063D01*
Y405150D01*
X46838Y406199D01*
X46294Y407140D01*
X45526Y407908D01*
X44585Y408452D01*
X43535Y408733D01*
D02*
G37*
G36*
X32354Y403280D02*
X31268D01*
X30218Y402999D01*
X29277Y402456D01*
X28509Y401687D01*
X27966Y400746D01*
X27684Y399697D01*
Y398610D01*
X27966Y397561D01*
X28509Y396620D01*
X29277Y395851D01*
X30218Y395308D01*
X31268Y395027D01*
X32354D01*
X33404Y395308D01*
X34345Y395851D01*
X35113Y396620D01*
X35657Y397561D01*
X35938Y398610D01*
Y399697D01*
X35657Y400746D01*
X35113Y401687D01*
X34345Y402456D01*
X33404Y402999D01*
X32354Y403280D01*
D02*
G37*
G36*
X43535Y397828D02*
X42449D01*
X41399Y397546D01*
X40458Y397003D01*
X39690Y396235D01*
X39147Y395294D01*
X38865Y394244D01*
Y393158D01*
X39147Y392108D01*
X39690Y391167D01*
X40458Y390399D01*
X41399Y389855D01*
X42449Y389574D01*
X43535D01*
X44585Y389855D01*
X45526Y390399D01*
X46294Y391167D01*
X46838Y392108D01*
X47119Y393158D01*
Y394244D01*
X46838Y395294D01*
X46294Y396235D01*
X45526Y397003D01*
X44585Y397546D01*
X43535Y397828D01*
D02*
G37*
G36*
X32811Y392460D02*
Y389248D01*
X36022D01*
X35843Y389918D01*
X35273Y390905D01*
X34468Y391710D01*
X33481Y392280D01*
X32811Y392460D01*
D02*
G37*
G36*
X30811D02*
X30141Y392280D01*
X29154Y391710D01*
X28349Y390905D01*
X27779Y389918D01*
X27600Y389248D01*
X30811D01*
Y392460D01*
D02*
G37*
G36*
X36022Y387248D02*
X32811D01*
Y384037D01*
X33481Y384216D01*
X34468Y384786D01*
X35273Y385591D01*
X35843Y386578D01*
X36022Y387248D01*
D02*
G37*
G36*
X30811D02*
X27600D01*
X27779Y386578D01*
X28349Y385591D01*
X29154Y384786D01*
X30141Y384216D01*
X30811Y384037D01*
Y387248D01*
D02*
G37*
G36*
X32354Y381469D02*
X31268D01*
X30218Y381188D01*
X29277Y380645D01*
X28509Y379876D01*
X27966Y378935D01*
X27684Y377886D01*
Y376799D01*
X27966Y375750D01*
X28509Y374809D01*
X29277Y374040D01*
X30218Y373497D01*
X31268Y373216D01*
X32354D01*
X33404Y373497D01*
X34345Y374040D01*
X35113Y374809D01*
X35657Y375750D01*
X35938Y376799D01*
Y377886D01*
X35657Y378935D01*
X35113Y379876D01*
X34345Y380645D01*
X33404Y381188D01*
X32354Y381469D01*
D02*
G37*
G36*
X357796Y379906D02*
X355984D01*
X354207Y379553D01*
X352533Y378859D01*
X351027Y377853D01*
X349745Y376572D01*
X348739Y375065D01*
X348046Y373392D01*
X347692Y371615D01*
Y369803D01*
X348046Y368026D01*
X348739Y366352D01*
X349745Y364845D01*
X351027Y363564D01*
X352533Y362558D01*
X354207Y361864D01*
X355984Y361511D01*
X357796D01*
X359573Y361864D01*
X361246Y362558D01*
X362753Y363564D01*
X364034Y364845D01*
X365041Y366352D01*
X365734Y368026D01*
X366087Y369803D01*
Y371615D01*
X365734Y373392D01*
X365041Y375065D01*
X364034Y376572D01*
X362753Y377853D01*
X361246Y378859D01*
X359573Y379553D01*
X357796Y379906D01*
D02*
G37*
G36*
X355495Y347483D02*
X347104D01*
Y339092D01*
X355495D01*
Y347483D01*
D02*
G37*
G36*
X38403Y354678D02*
X36400D01*
X34435Y354287D01*
X32584Y353520D01*
X30918Y352408D01*
X29502Y350991D01*
X28389Y349325D01*
X27622Y347474D01*
X27231Y345510D01*
Y343506D01*
X27622Y341541D01*
X28389Y339690D01*
X29502Y338025D01*
X30918Y336608D01*
X32584Y335495D01*
X34435Y334729D01*
X36400Y334338D01*
X38403D01*
X40368Y334729D01*
X42219Y335495D01*
X43885Y336608D01*
X45301Y338025D01*
X46414Y339690D01*
X47181Y341541D01*
X47572Y343506D01*
Y345510D01*
X47181Y347474D01*
X46414Y349325D01*
X45301Y350991D01*
X43885Y352408D01*
X42219Y353520D01*
X40368Y354287D01*
X38403Y354678D01*
D02*
G37*
G36*
X363033Y342030D02*
X361928D01*
X360861Y341744D01*
X359904Y341192D01*
X359123Y340411D01*
X358571Y339454D01*
X358285Y338387D01*
Y337282D01*
X358571Y336215D01*
X359123Y335258D01*
X359904Y334477D01*
X360861Y333925D01*
X361928Y333639D01*
X363033D01*
X364100Y333925D01*
X365056Y334477D01*
X365838Y335258D01*
X366390Y336215D01*
X366676Y337282D01*
Y338387D01*
X366390Y339454D01*
X365838Y340411D01*
X365056Y341192D01*
X364100Y341744D01*
X363033Y342030D01*
D02*
G37*
G36*
X351852Y336578D02*
X350747D01*
X349680Y336292D01*
X348723Y335739D01*
X347942Y334958D01*
X347390Y334001D01*
X347104Y332934D01*
Y331830D01*
X347390Y330762D01*
X347942Y329806D01*
X348723Y329025D01*
X349680Y328472D01*
X350747Y328186D01*
X351852D01*
X352919Y328472D01*
X353875Y329025D01*
X354657Y329806D01*
X355209Y330762D01*
X355495Y331830D01*
Y332934D01*
X355209Y334001D01*
X354657Y334958D01*
X353875Y335739D01*
X352919Y336292D01*
X351852Y336578D01*
D02*
G37*
G36*
X363033Y331125D02*
X361928D01*
X360861Y330839D01*
X359904Y330287D01*
X359123Y329505D01*
X358571Y328549D01*
X358285Y327482D01*
Y326377D01*
X358571Y325310D01*
X359123Y324353D01*
X359904Y323572D01*
X360861Y323019D01*
X361928Y322733D01*
X363033D01*
X364100Y323019D01*
X365056Y323572D01*
X365838Y324353D01*
X366390Y325310D01*
X366676Y326377D01*
Y327482D01*
X366390Y328549D01*
X365838Y329505D01*
X365056Y330287D01*
X364100Y330839D01*
X363033Y331125D01*
D02*
G37*
G36*
X351852Y325672D02*
X350747D01*
X349680Y325386D01*
X348723Y324834D01*
X347942Y324053D01*
X347390Y323096D01*
X347104Y322029D01*
Y320924D01*
X347390Y319857D01*
X347942Y318900D01*
X348723Y318119D01*
X349680Y317567D01*
X350747Y317281D01*
X351852D01*
X352919Y317567D01*
X353875Y318119D01*
X354657Y318900D01*
X355209Y319857D01*
X355495Y320924D01*
Y322029D01*
X355209Y323096D01*
X354657Y324053D01*
X353875Y324834D01*
X352919Y325386D01*
X351852Y325672D01*
D02*
G37*
G36*
X363033Y320219D02*
X361928D01*
X360861Y319933D01*
X359904Y319381D01*
X359123Y318600D01*
X358571Y317643D01*
X358285Y316576D01*
Y315471D01*
X358571Y314404D01*
X359123Y313447D01*
X359904Y312666D01*
X360861Y312114D01*
X361928Y311828D01*
X363033D01*
X364100Y312114D01*
X365056Y312666D01*
X365838Y313447D01*
X366390Y314404D01*
X366676Y315471D01*
Y316576D01*
X366390Y317643D01*
X365838Y318600D01*
X365056Y319381D01*
X364100Y319933D01*
X363033Y320219D01*
D02*
G37*
G36*
X351852Y314767D02*
X350747D01*
X349680Y314481D01*
X348723Y313928D01*
X347942Y313147D01*
X347390Y312190D01*
X347104Y311123D01*
Y310018D01*
X347390Y308951D01*
X347942Y307995D01*
X348723Y307213D01*
X349680Y306661D01*
X350747Y306375D01*
X351852D01*
X352919Y306661D01*
X353875Y307213D01*
X354657Y307995D01*
X355209Y308951D01*
X355495Y310018D01*
Y311123D01*
X355209Y312190D01*
X354657Y313147D01*
X353875Y313928D01*
X352919Y314481D01*
X351852Y314767D01*
D02*
G37*
G36*
X363033Y309314D02*
X361928D01*
X360861Y309028D01*
X359904Y308475D01*
X359123Y307694D01*
X358571Y306738D01*
X358285Y305670D01*
Y304566D01*
X358571Y303499D01*
X359123Y302542D01*
X359904Y301761D01*
X360861Y301208D01*
X361928Y300922D01*
X363033D01*
X364100Y301208D01*
X365056Y301761D01*
X365838Y302542D01*
X366390Y303499D01*
X366676Y304566D01*
Y305670D01*
X366390Y306738D01*
X365838Y307694D01*
X365056Y308475D01*
X364100Y309028D01*
X363033Y309314D01*
D02*
G37*
G36*
X351852Y303861D02*
X350747D01*
X349680Y303575D01*
X348723Y303023D01*
X348423Y302723D01*
X345710Y301083D01*
X316665D01*
X316123Y300975D01*
X315663Y300668D01*
X190413Y175418D01*
X110087D01*
X109502Y176003D01*
X109043Y176310D01*
X108500Y176418D01*
X38192D01*
X37649Y176310D01*
X37189Y176003D01*
X36498Y175311D01*
X36190Y174851D01*
X36082Y174308D01*
Y165852D01*
X35582Y165718D01*
X35113Y166530D01*
X34345Y167298D01*
X33404Y167842D01*
X32354Y168123D01*
X31268D01*
X30218Y167842D01*
X29277Y167298D01*
X28509Y166530D01*
X27966Y165589D01*
X27684Y164539D01*
Y163453D01*
X27966Y162403D01*
X28509Y161462D01*
X29277Y160694D01*
X30218Y160151D01*
X31268Y159869D01*
X32354D01*
X33404Y160151D01*
X34345Y160694D01*
X35113Y161462D01*
X35582Y162274D01*
X36082Y162140D01*
Y155500D01*
X36190Y154957D01*
X36498Y154498D01*
X40257Y150738D01*
X39690Y150172D01*
X39147Y149231D01*
X38967Y148560D01*
X38425Y148470D01*
X38403Y148504D01*
X36686Y150220D01*
X35938Y153220D01*
Y153634D01*
X35657Y154683D01*
X35113Y155624D01*
X34345Y156393D01*
X33404Y156936D01*
X32354Y157217D01*
X31268D01*
X30218Y156936D01*
X29277Y156393D01*
X28509Y155624D01*
X27966Y154683D01*
X27684Y153634D01*
Y152547D01*
X27966Y151498D01*
X28509Y150557D01*
X29277Y149788D01*
X30218Y149245D01*
X31268Y148964D01*
X31682D01*
X34681Y148215D01*
X35982Y146914D01*
Y144214D01*
X35482Y144080D01*
X35113Y144719D01*
X34345Y145487D01*
X33404Y146031D01*
X32354Y146312D01*
X31268D01*
X30218Y146031D01*
X29277Y145487D01*
X28509Y144719D01*
X27966Y143778D01*
X27684Y142728D01*
Y142314D01*
X26936Y139315D01*
X25897Y138277D01*
X25590Y137817D01*
X25482Y137274D01*
Y117128D01*
X25590Y116585D01*
X25897Y116125D01*
X30997Y111025D01*
X31457Y110718D01*
X32000Y110610D01*
X330413D01*
X333698Y107325D01*
X334157Y107018D01*
X334700Y106910D01*
X361600D01*
X362143Y107018D01*
X362602Y107325D01*
X373003Y117725D01*
X373310Y118185D01*
X373418Y118728D01*
Y132836D01*
Y273532D01*
X373310Y274075D01*
X373003Y274535D01*
X368680Y278857D01*
X368220Y279164D01*
X367678Y279272D01*
X364883D01*
X364749Y279772D01*
X365056Y279950D01*
X365356Y280250D01*
X368070Y281889D01*
X383640D01*
X384200Y280011D01*
Y279723D01*
X384425Y278884D01*
X384859Y278131D01*
X385474Y277517D01*
X386226Y277082D01*
X387066Y276857D01*
X387934D01*
X388774Y277082D01*
X389526Y277517D01*
X390141Y278131D01*
X390575Y278884D01*
X390800Y279723D01*
Y280592D01*
X390575Y281431D01*
X390141Y282184D01*
X389526Y282798D01*
X388774Y283233D01*
X387934Y283457D01*
X387646D01*
X385593Y284069D01*
X385353Y284310D01*
X384893Y284617D01*
X384350Y284725D01*
X368070D01*
X365357Y286364D01*
X365056Y286665D01*
X364100Y287217D01*
X363033Y287503D01*
X361928D01*
X360861Y287217D01*
X359904Y286665D01*
X359123Y285883D01*
X358571Y284927D01*
X358285Y283859D01*
Y282755D01*
X358571Y281688D01*
X359123Y280731D01*
X359904Y279950D01*
X360212Y279772D01*
X360078Y279272D01*
X356889D01*
X354175Y280912D01*
X353875Y281212D01*
X352919Y281764D01*
X351852Y282050D01*
X350747D01*
X349680Y281764D01*
X348723Y281212D01*
X347942Y280431D01*
X347390Y279474D01*
X347104Y278407D01*
Y277302D01*
X347390Y276235D01*
X347942Y275278D01*
X348723Y274497D01*
X349680Y273945D01*
X350747Y273659D01*
X351852D01*
X352919Y273945D01*
X353875Y274497D01*
X354175Y274797D01*
X356889Y276436D01*
X360078D01*
X360212Y275937D01*
X359904Y275759D01*
X359123Y274978D01*
X358571Y274021D01*
X358285Y272954D01*
Y271849D01*
X358571Y270782D01*
X359123Y269825D01*
X359904Y269044D01*
X360861Y268492D01*
X361928Y268206D01*
X363033D01*
X364100Y268492D01*
X365056Y269044D01*
X365838Y269825D01*
X366390Y270782D01*
X366676Y271849D01*
Y272954D01*
X366390Y274021D01*
X365838Y274978D01*
X365056Y275759D01*
X364749Y275937D01*
X364883Y276436D01*
X367090D01*
X370582Y272945D01*
Y134945D01*
X367387D01*
X365503Y136829D01*
X365043Y137137D01*
X364501Y137245D01*
X364155D01*
X364020Y137745D01*
X364424Y137977D01*
X365192Y138746D01*
X365735Y139687D01*
X366017Y140736D01*
Y141823D01*
X365735Y142872D01*
X365192Y143813D01*
X364424Y144582D01*
X363483Y145125D01*
X362433Y145406D01*
X362019D01*
X359020Y146155D01*
X358483Y146692D01*
Y149049D01*
X358983Y149256D01*
X359356Y148883D01*
X360297Y148339D01*
X361347Y148058D01*
X362433D01*
X363483Y148339D01*
X364424Y148883D01*
X365192Y149651D01*
X365735Y150592D01*
X366017Y151642D01*
Y152728D01*
X365735Y153778D01*
X365192Y154719D01*
X364424Y155487D01*
X363483Y156031D01*
X362433Y156312D01*
X361347D01*
X360297Y156031D01*
X359356Y155487D01*
X358588Y154719D01*
X358044Y153778D01*
X357763Y152728D01*
Y151642D01*
X357823Y151416D01*
X357375Y151157D01*
X355971Y152562D01*
X355511Y152869D01*
X354968Y152977D01*
X344391D01*
X343848Y152869D01*
X343389Y152562D01*
X340948Y150121D01*
X53419D01*
X47867Y155673D01*
X47119Y158672D01*
Y159087D01*
X46838Y160136D01*
X46294Y161077D01*
X45526Y161846D01*
X44585Y162389D01*
X43535Y162670D01*
X42449D01*
X41399Y162389D01*
X40458Y161846D01*
X39690Y161077D01*
X39418Y160606D01*
X38918Y160740D01*
Y167252D01*
X39418Y167386D01*
X39690Y166915D01*
X40458Y166147D01*
X41399Y165603D01*
X42449Y165322D01*
X43535D01*
X44585Y165603D01*
X45526Y166147D01*
X45819Y166439D01*
X48469Y168031D01*
X195750D01*
X196293Y168139D01*
X196753Y168446D01*
X315649Y287342D01*
X345710D01*
X348423Y285703D01*
X348723Y285402D01*
X349680Y284850D01*
X350747Y284564D01*
X351852D01*
X352919Y284850D01*
X353875Y285402D01*
X354657Y286184D01*
X355209Y287140D01*
X355495Y288208D01*
Y289312D01*
X355209Y290379D01*
X354657Y291336D01*
X353875Y292117D01*
X352919Y292670D01*
X351852Y292955D01*
X350747D01*
X349680Y292670D01*
X348723Y292117D01*
X348423Y291817D01*
X345710Y290178D01*
X315061D01*
X314519Y290070D01*
X314059Y289762D01*
X195163Y170867D01*
X48469D01*
X45819Y172458D01*
X45526Y172751D01*
X44952Y173082D01*
X45086Y173582D01*
X107913D01*
X108498Y172997D01*
X108957Y172690D01*
X109500Y172582D01*
X191000D01*
X191543Y172690D01*
X192002Y172997D01*
X317253Y298248D01*
X345710D01*
X348423Y296608D01*
X348723Y296308D01*
X349680Y295756D01*
X350747Y295470D01*
X351852D01*
X352919Y295756D01*
X353875Y296308D01*
X354657Y297089D01*
X355209Y298046D01*
X355495Y299113D01*
Y300218D01*
X355209Y301285D01*
X354657Y302242D01*
X353875Y303023D01*
X352919Y303575D01*
X351852Y303861D01*
D02*
G37*
G36*
X363033Y298408D02*
X361928D01*
X360861Y298122D01*
X359904Y297570D01*
X359123Y296789D01*
X358571Y295832D01*
X358285Y294765D01*
Y293660D01*
X358571Y292593D01*
X359123Y291636D01*
X359904Y290855D01*
X360861Y290303D01*
X361928Y290017D01*
X363033D01*
X364100Y290303D01*
X365056Y290855D01*
X365838Y291636D01*
X366390Y292593D01*
X366676Y293660D01*
Y294765D01*
X366390Y295832D01*
X365838Y296789D01*
X365056Y297570D01*
X364100Y298122D01*
X363033Y298408D01*
D02*
G37*
G36*
X351852Y271145D02*
X350747D01*
X349680Y270859D01*
X348723Y270306D01*
X347942Y269525D01*
X347390Y268568D01*
X347104Y267501D01*
Y266396D01*
X347390Y265329D01*
X347942Y264373D01*
X348723Y263591D01*
X349680Y263039D01*
X350747Y262753D01*
X351852D01*
X352919Y263039D01*
X353875Y263591D01*
X354657Y264373D01*
X355209Y265329D01*
X355495Y266396D01*
Y267501D01*
X355209Y268568D01*
X354657Y269525D01*
X353875Y270306D01*
X352919Y270859D01*
X351852Y271145D01*
D02*
G37*
G36*
X357796Y248725D02*
X355984D01*
X354207Y248372D01*
X352533Y247678D01*
X351027Y246672D01*
X350501Y246147D01*
X350497Y246145D01*
X343265Y241200D01*
X303574D01*
X301795Y242085D01*
X301526Y242353D01*
X300774Y242788D01*
X299935Y243013D01*
X299065D01*
X298226Y242788D01*
X297474Y242353D01*
X296859Y241739D01*
X296425Y240986D01*
X296200Y240147D01*
Y239278D01*
X296425Y238439D01*
X296859Y237686D01*
X297474Y237072D01*
X298226Y236637D01*
X299065Y236413D01*
X299935D01*
X300774Y236637D01*
X301526Y237072D01*
X301654Y237199D01*
X303499Y238040D01*
X343243D01*
X350360Y233048D01*
X350364Y233046D01*
X351027Y232383D01*
X352533Y231377D01*
X354207Y230683D01*
X355984Y230330D01*
X357796D01*
X359573Y230683D01*
X361246Y231377D01*
X362753Y232383D01*
X364034Y233664D01*
X365041Y235171D01*
X365734Y236845D01*
X366087Y238622D01*
Y240433D01*
X365734Y242210D01*
X365041Y243884D01*
X364034Y245391D01*
X362753Y246672D01*
X361246Y247678D01*
X359573Y248372D01*
X357796Y248725D01*
D02*
G37*
G36*
X38403Y207001D02*
X36400D01*
X34435Y206610D01*
X32584Y205843D01*
X30918Y204730D01*
X29502Y203314D01*
X28389Y201648D01*
X27622Y199797D01*
X27231Y197832D01*
Y195829D01*
X27622Y193864D01*
X28389Y192013D01*
X29502Y190348D01*
X30918Y188931D01*
X32584Y187818D01*
X34435Y187051D01*
X36400Y186661D01*
X38403D01*
X40368Y187051D01*
X42219Y187818D01*
X43885Y188931D01*
X45301Y190348D01*
X46414Y192013D01*
X47181Y193864D01*
X47572Y195829D01*
Y197832D01*
X47181Y199797D01*
X46414Y201648D01*
X45301Y203314D01*
X43885Y204730D01*
X42219Y205843D01*
X40368Y206610D01*
X38403Y207001D01*
D02*
G37*
G36*
X331934Y191957D02*
X331066D01*
X330226Y191733D01*
X329474Y191298D01*
X328859Y190684D01*
X328425Y189931D01*
X328200Y189092D01*
Y188466D01*
X327722Y186514D01*
X324277Y183069D01*
X322224Y182457D01*
X321936D01*
X321096Y182233D01*
X320344Y181798D01*
X319729Y181184D01*
X319295Y180431D01*
X319070Y179592D01*
Y178723D01*
X319295Y177884D01*
X319729Y177131D01*
X320344Y176517D01*
X321096Y176082D01*
X321936Y175857D01*
X322804D01*
X323644Y176082D01*
X324396Y176517D01*
X325011Y177131D01*
X325445Y177884D01*
X325670Y178723D01*
Y179011D01*
X326282Y181064D01*
X329852Y184634D01*
X331890Y185357D01*
X331934D01*
X332774Y185582D01*
X333526Y186017D01*
X334141Y186631D01*
X334575Y187384D01*
X334800Y188223D01*
Y189092D01*
X334575Y189931D01*
X334141Y190684D01*
X333526Y191298D01*
X332774Y191733D01*
X331934Y191957D01*
D02*
G37*
G36*
X357301Y195190D02*
X355298D01*
X353333Y194799D01*
X351482Y194032D01*
X349816Y192919D01*
X348400Y191503D01*
X347287Y189837D01*
X346520Y187986D01*
X346129Y186021D01*
Y185512D01*
X344151Y175760D01*
X328163Y159772D01*
X326467Y159319D01*
X326434Y159328D01*
X325566D01*
X324726Y159103D01*
X323974Y158668D01*
X323359Y158054D01*
X322925Y157301D01*
X322700Y156462D01*
Y155593D01*
X322925Y154754D01*
X323359Y154001D01*
X323974Y153387D01*
X324726Y152952D01*
X325566Y152728D01*
X326434D01*
X327274Y152952D01*
X328026Y153387D01*
X328641Y154001D01*
X329075Y154754D01*
X329215Y155278D01*
X330127Y157266D01*
X346315Y173454D01*
X355798Y174850D01*
X357301D01*
X359266Y175240D01*
X361117Y176007D01*
X362782Y177120D01*
X364199Y178537D01*
X365312Y180202D01*
X366078Y182053D01*
X366469Y184018D01*
Y186021D01*
X366078Y187986D01*
X365312Y189837D01*
X364199Y191503D01*
X362782Y192919D01*
X361117Y194032D01*
X359266Y194799D01*
X357301Y195190D01*
D02*
G37*
G36*
X354835Y161765D02*
X346582D01*
Y153511D01*
X354835D01*
Y161765D01*
D02*
G37*
G36*
X38403Y108615D02*
X36400D01*
X34435Y108224D01*
X32584Y107457D01*
X30918Y106344D01*
X29502Y104928D01*
X28389Y103262D01*
X27622Y101411D01*
X27231Y99447D01*
Y97443D01*
X27622Y95478D01*
X28389Y93628D01*
X29502Y91962D01*
X30918Y90545D01*
X32584Y89432D01*
X34435Y88666D01*
X36400Y88275D01*
X38403D01*
X40368Y88666D01*
X42219Y89432D01*
X43885Y90545D01*
X45301Y91962D01*
X46414Y93628D01*
X47181Y95478D01*
X47572Y97443D01*
Y99447D01*
X47181Y101411D01*
X46414Y103262D01*
X45301Y104928D01*
X43885Y106344D01*
X42219Y107457D01*
X40368Y108224D01*
X38403Y108615D01*
D02*
G37*
G36*
X357301Y96804D02*
X355298D01*
X353333Y96413D01*
X351482Y95647D01*
X349816Y94533D01*
X348400Y93117D01*
X347287Y91451D01*
X346520Y89600D01*
X346129Y87635D01*
Y85632D01*
X346520Y83667D01*
X347287Y81817D01*
X348400Y80151D01*
X349816Y78734D01*
X351482Y77621D01*
X353333Y76855D01*
X355298Y76464D01*
X357301D01*
X359266Y76855D01*
X361117Y77621D01*
X362782Y78734D01*
X364199Y80151D01*
X365312Y81817D01*
X366078Y83667D01*
X366469Y85632D01*
Y87635D01*
X366078Y89600D01*
X365312Y91451D01*
X364199Y93117D01*
X362782Y94533D01*
X361117Y95647D01*
X359266Y96413D01*
X357301Y96804D01*
D02*
G37*
G36*
X215609Y62808D02*
X214391D01*
X213215Y62493D01*
X212160Y61884D01*
X211299Y61023D01*
X210690Y59968D01*
X210375Y58792D01*
Y57574D01*
X210690Y56398D01*
X211299Y55343D01*
X212160Y54482D01*
X213215Y53873D01*
X214391Y53558D01*
X215609D01*
X216785Y53873D01*
X217840Y54482D01*
X218701Y55343D01*
X219310Y56398D01*
X219625Y57574D01*
Y58792D01*
X219310Y59968D01*
X218701Y61023D01*
X217840Y61884D01*
X216785Y62493D01*
X215609Y62808D01*
D02*
G37*
G36*
X175609D02*
X174391D01*
X173215Y62493D01*
X172160Y61884D01*
X171299Y61023D01*
X170690Y59968D01*
X170375Y58792D01*
Y57574D01*
X170690Y56398D01*
X171299Y55343D01*
X172160Y54482D01*
X173215Y53873D01*
X174391Y53558D01*
X175609D01*
X176785Y53873D01*
X177840Y54482D01*
X178701Y55343D01*
X179310Y56398D01*
X179625Y57574D01*
Y58792D01*
X179310Y59968D01*
X178701Y61023D01*
X177840Y61884D01*
X176785Y62493D01*
X175609Y62808D01*
D02*
G37*
G36*
X196000Y50817D02*
Y44222D01*
X202594D01*
X202350Y45452D01*
X201774Y46843D01*
X200937Y48095D01*
X199873Y49160D01*
X198621Y49996D01*
X197230Y50572D01*
X196000Y50817D01*
D02*
G37*
G36*
X194000D02*
X192770Y50572D01*
X191379Y49996D01*
X190127Y49160D01*
X189063Y48095D01*
X188226Y46843D01*
X187650Y45452D01*
X187406Y44222D01*
X194000D01*
Y50817D01*
D02*
G37*
G36*
X202594Y42222D02*
X196000D01*
Y35628D01*
X197230Y35872D01*
X198621Y36449D01*
X199873Y37285D01*
X200937Y38350D01*
X201774Y39602D01*
X202350Y40993D01*
X202594Y42222D01*
D02*
G37*
G36*
X194000D02*
X187406D01*
X187650Y40993D01*
X188226Y39602D01*
X189063Y38350D01*
X190127Y37285D01*
X191379Y36449D01*
X192770Y35872D01*
X194000Y35628D01*
Y42222D01*
D02*
G37*
G36*
X215609Y22808D02*
X214391D01*
X213215Y22493D01*
X212160Y21884D01*
X211299Y21023D01*
X210690Y19968D01*
X210375Y18792D01*
Y17574D01*
X210690Y16398D01*
X211299Y15343D01*
X212160Y14482D01*
X213215Y13873D01*
X214391Y13558D01*
X215609D01*
X216785Y13873D01*
X217840Y14482D01*
X218701Y15343D01*
X219310Y16398D01*
X219625Y17574D01*
Y18792D01*
X219310Y19968D01*
X218701Y21023D01*
X217840Y21884D01*
X216785Y22493D01*
X215609Y22808D01*
D02*
G37*
G36*
X175609D02*
X174391D01*
X173215Y22493D01*
X172160Y21884D01*
X171299Y21023D01*
X170690Y19968D01*
X170375Y18792D01*
Y17574D01*
X170690Y16398D01*
X171299Y15343D01*
X172160Y14482D01*
X173215Y13873D01*
X174391Y13558D01*
X175609D01*
X176785Y13873D01*
X177840Y14482D01*
X178701Y15343D01*
X179310Y16398D01*
X179625Y17574D01*
Y18792D01*
X179310Y19968D01*
X178701Y21023D01*
X177840Y21884D01*
X176785Y22493D01*
X175609Y22808D01*
D02*
G37*
G36*
X376779Y26603D02*
X375189D01*
X375111Y26587D01*
X375030D01*
X373471Y26277D01*
X373397Y26247D01*
X373318Y26231D01*
X371849Y25622D01*
X371782Y25578D01*
X371708Y25547D01*
X370386Y24664D01*
X370329Y24607D01*
X370263Y24562D01*
X369138Y23438D01*
X369094Y23371D01*
X369037Y23315D01*
X368154Y21993D01*
X368123Y21918D01*
X368078Y21852D01*
X367470Y20383D01*
X367454Y20304D01*
X367424Y20230D01*
X367113Y18671D01*
Y18590D01*
X367098Y18511D01*
Y16922D01*
X367113Y16843D01*
Y16762D01*
X367424Y15203D01*
X367454Y15129D01*
X367470Y15050D01*
X368078Y13581D01*
X368123Y13515D01*
X368154Y13440D01*
X369037Y12118D01*
X369094Y12062D01*
X369138Y11995D01*
X370263Y10871D01*
X370329Y10826D01*
X370386Y10769D01*
X371708Y9886D01*
X371782Y9855D01*
X371849Y9811D01*
X373318Y9202D01*
X373397Y9187D01*
X373471Y9156D01*
X375030Y8846D01*
X375111D01*
X375189Y8830D01*
X376779D01*
X376858Y8846D01*
X376938D01*
X378498Y9156D01*
X378572Y9187D01*
X378651Y9202D01*
X380119Y9811D01*
X380186Y9855D01*
X380260Y9886D01*
X381582Y10769D01*
X381639Y10826D01*
X381706Y10871D01*
X382830Y11995D01*
X382875Y12062D01*
X382931Y12118D01*
X383815Y13440D01*
X383845Y13515D01*
X383890Y13581D01*
X384499Y15050D01*
X384514Y15129D01*
X384545Y15203D01*
X384855Y16762D01*
Y16843D01*
X384871Y16922D01*
Y18511D01*
X384855Y18590D01*
Y18671D01*
X384545Y20230D01*
X384514Y20304D01*
X384499Y20383D01*
X383890Y21852D01*
X383845Y21918D01*
X383815Y21993D01*
X382931Y23315D01*
X382875Y23371D01*
X382830Y23438D01*
X381706Y24562D01*
X381639Y24607D01*
X381582Y24664D01*
X380260Y25547D01*
X380186Y25578D01*
X380119Y25622D01*
X378651Y26231D01*
X378572Y26247D01*
X378498Y26277D01*
X376938Y26587D01*
X376858D01*
X376779Y26603D01*
D02*
G37*
G36*
X18511D02*
X16922D01*
X16843Y26587D01*
X16762D01*
X15203Y26277D01*
X15129Y26247D01*
X15050Y26231D01*
X13581Y25622D01*
X13515Y25578D01*
X13440Y25547D01*
X12118Y24664D01*
X12062Y24607D01*
X11995Y24562D01*
X10871Y23438D01*
X10826Y23371D01*
X10769Y23315D01*
X9886Y21993D01*
X9855Y21918D01*
X9811Y21852D01*
X9202Y20383D01*
X9187Y20304D01*
X9156Y20230D01*
X8846Y18671D01*
Y18590D01*
X8830Y18511D01*
Y16922D01*
X8846Y16843D01*
Y16762D01*
X9156Y15203D01*
X9187Y15129D01*
X9202Y15050D01*
X9811Y13581D01*
X9855Y13515D01*
X9886Y13440D01*
X10769Y12118D01*
X10826Y12062D01*
X10871Y11995D01*
X11995Y10871D01*
X12062Y10826D01*
X12118Y10769D01*
X13440Y9886D01*
X13515Y9855D01*
X13581Y9811D01*
X15050Y9202D01*
X15129Y9187D01*
X15203Y9156D01*
X16762Y8846D01*
X16843D01*
X16922Y8830D01*
X18511D01*
X18590Y8846D01*
X18671D01*
X20230Y9156D01*
X20304Y9187D01*
X20383Y9202D01*
X21852Y9811D01*
X21918Y9855D01*
X21993Y9886D01*
X23315Y10769D01*
X23371Y10826D01*
X23438Y10871D01*
X24562Y11995D01*
X24607Y12062D01*
X24664Y12118D01*
X25547Y13440D01*
X25578Y13515D01*
X25622Y13581D01*
X26231Y15050D01*
X26247Y15129D01*
X26277Y15203D01*
X26587Y16762D01*
Y16843D01*
X26603Y16922D01*
Y18511D01*
X26587Y18590D01*
Y18671D01*
X26277Y20230D01*
X26247Y20304D01*
X26231Y20383D01*
X25622Y21852D01*
X25578Y21918D01*
X25547Y21993D01*
X24664Y23315D01*
X24607Y23371D01*
X24562Y23438D01*
X23438Y24562D01*
X23371Y24607D01*
X23315Y24664D01*
X21993Y25547D01*
X21918Y25578D01*
X21852Y25622D01*
X20383Y26231D01*
X20304Y26247D01*
X20230Y26277D01*
X18671Y26587D01*
X18590D01*
X18511Y26603D01*
D02*
G37*
%LPD*%
G36*
X308090Y821181D02*
X306909D01*
X305750Y823325D01*
X309250D01*
X308090Y821181D01*
D02*
G37*
G36*
X309250Y813396D02*
X305750D01*
X306909Y815539D01*
X308090D01*
X309250Y813396D01*
D02*
G37*
G36*
X232090Y819291D02*
X230909D01*
X229750Y821435D01*
X233250D01*
X232090Y819291D01*
D02*
G37*
G36*
X233358Y776710D02*
X229928Y776010D01*
X230909Y778360D01*
X232090Y778609D01*
X233358Y776710D01*
D02*
G37*
G36*
X132975Y809110D02*
X130639Y808414D01*
X129804Y809249D01*
X130500Y811585D01*
X132975Y809110D01*
D02*
G37*
G36*
X96591Y806610D02*
X95410D01*
X94884Y807727D01*
X97116D01*
X96591Y806610D01*
D02*
G37*
G36*
X114091Y806546D02*
X112909D01*
X112319Y807727D01*
X114681D01*
X114091Y806546D01*
D02*
G37*
G36*
X40961Y803509D02*
X38004Y805295D01*
X38004Y806476D01*
X40961Y808263D01*
X40961Y803509D01*
D02*
G37*
G36*
X134091Y797181D02*
X132909D01*
X131750Y799325D01*
X135250D01*
X134091Y797181D01*
D02*
G37*
G36*
X9750Y782115D02*
X8250D01*
X7250Y784215D01*
X10750D01*
X9750Y782115D01*
D02*
G37*
G36*
X48767Y773760D02*
Y772579D01*
X45811Y770792D01*
Y775546D01*
X48767Y773760D01*
D02*
G37*
G36*
X40961Y770792D02*
X38004Y772579D01*
X38004Y773760D01*
X40961Y775546D01*
X40961Y770792D01*
D02*
G37*
G36*
X29293Y765969D02*
X28238Y766147D01*
Y767328D01*
X28812Y767567D01*
X29293Y765969D01*
D02*
G37*
G36*
X37617Y768090D02*
X37541Y766910D01*
X34473Y765190D01*
X34776Y769934D01*
X37617Y768090D01*
D02*
G37*
G36*
X37547Y757590D02*
X37614Y756410D01*
X34758Y754573D01*
X34494Y759319D01*
X37547Y757590D01*
D02*
G37*
G36*
X89174Y751949D02*
X88339Y749933D01*
X87157Y749587D01*
X85976Y750768D01*
X86322Y751949D01*
X88339Y752784D01*
X89174Y751949D01*
D02*
G37*
G36*
X48767D02*
Y750768D01*
X45811Y748981D01*
Y753735D01*
X48767Y751949D01*
D02*
G37*
G36*
X15475Y704500D02*
X13000Y702025D01*
X12223Y704217D01*
X13283Y705277D01*
X15475Y704500D01*
D02*
G37*
G36*
X26750Y642785D02*
X23250D01*
X24409Y644929D01*
X25591D01*
X26750Y642785D01*
D02*
G37*
G36*
X42701Y612361D02*
X40047Y608417D01*
X38832Y611833D01*
X39501Y612834D01*
X42701Y612361D01*
D02*
G37*
G36*
X48767Y555098D02*
X48767Y553917D01*
X45811Y552131D01*
X45811Y556885D01*
X48767Y555098D01*
D02*
G37*
G36*
X246715Y653250D02*
X244571Y654410D01*
Y655590D01*
X246715Y656750D01*
Y653250D01*
D02*
G37*
G36*
X239297Y646750D02*
X237153Y647909D01*
Y649090D01*
X239297Y650250D01*
Y646750D01*
D02*
G37*
G36*
X69196Y600971D02*
X68500Y598635D01*
X66025Y601110D01*
X68361Y601806D01*
X69196Y600971D01*
D02*
G37*
G36*
Y594471D02*
X68500Y592135D01*
X66025Y594610D01*
X68361Y595306D01*
X69196Y594471D01*
D02*
G37*
G36*
X75715Y635860D02*
X73571Y637020D01*
Y638201D01*
X75715Y639360D01*
Y635860D01*
D02*
G37*
G36*
X51048Y638201D02*
X51213Y637020D01*
X44543Y631458D01*
X42928Y643103D01*
X51048Y638201D01*
D02*
G37*
G36*
X203215Y630860D02*
X201071Y632020D01*
Y633201D01*
X203215Y634360D01*
Y630860D01*
D02*
G37*
G36*
X47142Y375204D02*
X46295Y373534D01*
X44637Y375192D01*
X46307Y376040D01*
X47142Y375204D01*
D02*
G37*
G36*
X348874Y603312D02*
X345918Y605098D01*
Y606280D01*
X348874Y608066D01*
Y603312D01*
D02*
G37*
G36*
X350675Y443720D02*
X347382Y440427D01*
X346565Y443703D01*
X347400Y444538D01*
X350675Y443720D01*
D02*
G37*
G36*
X24091Y572571D02*
X22909D01*
X21750Y574715D01*
X25250D01*
X24091Y572571D01*
D02*
G37*
G36*
X17591D02*
X16409D01*
X15250Y574715D01*
X18750D01*
X17591Y572571D01*
D02*
G37*
G36*
X47136Y418821D02*
X46319Y415545D01*
X43025Y418838D01*
X46301Y419656D01*
X47136Y418821D01*
D02*
G37*
G36*
X31870Y413385D02*
X28487Y410184D01*
X27721Y413444D01*
X28580Y414255D01*
X31870Y413385D01*
D02*
G37*
G36*
X7591Y592571D02*
X6409D01*
X5250Y594715D01*
X8750D01*
X7591Y592571D01*
D02*
G37*
G36*
X29209Y580172D02*
X26791Y582136D01*
X27144Y583317D01*
X30546Y584734D01*
X29209Y580172D01*
D02*
G37*
G36*
X33826Y576751D02*
X32645Y576604D01*
X30828Y578668D01*
X35123Y580035D01*
X33826Y576751D01*
D02*
G37*
G36*
X47136Y386104D02*
X46319Y382828D01*
X43025Y386122D01*
X46301Y386939D01*
X47136Y386104D01*
D02*
G37*
G36*
X328960Y669559D02*
X328030Y668841D01*
X326970Y669902D01*
X327402Y670640D01*
X328960Y669559D01*
D02*
G37*
G36*
X323777Y559217D02*
X323000Y557025D01*
X320525Y559500D01*
X322717Y560277D01*
X323777Y559217D01*
D02*
G37*
G36*
X348874Y297288D02*
X345918Y299075D01*
Y300256D01*
X348874Y302042D01*
Y297288D01*
D02*
G37*
G36*
Y286383D02*
X345918Y288169D01*
Y289350D01*
X348874Y291137D01*
Y286383D01*
D02*
G37*
G36*
X367862Y283898D02*
X367862Y282716D01*
X364905Y280930D01*
X364905Y285684D01*
X367862Y283898D01*
D02*
G37*
G36*
X387475Y282657D02*
X385000Y280183D01*
X384304Y282518D01*
X385139Y283353D01*
X387475Y282657D01*
D02*
G37*
G36*
X356680Y278445D02*
Y277264D01*
X353724Y275477D01*
Y280231D01*
X356680Y278445D01*
D02*
G37*
G36*
X48262Y170039D02*
Y168858D01*
X45368Y167120D01*
Y171777D01*
X48262Y170039D01*
D02*
G37*
G36*
X47136Y155235D02*
X46301Y154399D01*
X43025Y155217D01*
X46319Y158510D01*
X47136Y155235D01*
D02*
G37*
G36*
X35955Y149782D02*
X35120Y148946D01*
X31844Y149764D01*
X35138Y153057D01*
X35955Y149782D01*
D02*
G37*
G36*
X47136Y144329D02*
X46301Y143494D01*
X43025Y144311D01*
X46319Y147605D01*
X47136Y144329D01*
D02*
G37*
G36*
X349930Y143498D02*
X347721Y142910D01*
X346886Y143745D01*
X347474Y145954D01*
X349930Y143498D01*
D02*
G37*
G36*
X63029Y143918D02*
Y142737D01*
X60885Y141578D01*
Y145078D01*
X63029Y143918D01*
D02*
G37*
G36*
X361857Y144606D02*
X358563Y141313D01*
X357746Y144588D01*
X358581Y145424D01*
X361857Y144606D01*
D02*
G37*
G36*
X31778Y138858D02*
X28502Y138041D01*
X27667Y138876D01*
X28484Y142152D01*
X31778Y138858D01*
D02*
G37*
G36*
X254715Y134907D02*
X252571Y136067D01*
Y137248D01*
X254715Y138408D01*
Y134907D01*
D02*
G37*
G36*
X73929Y137248D02*
Y136067D01*
X71785Y134907D01*
Y138408D01*
X73929Y137248D01*
D02*
G37*
G36*
X355979Y136417D02*
X355979Y135236D01*
X353084Y133498D01*
X353084Y138155D01*
X355979Y136417D01*
D02*
G37*
G36*
X359514Y128045D02*
X356620Y129783D01*
X356620Y130965D01*
X359514Y132703D01*
X359514Y128045D01*
D02*
G37*
G36*
X33483Y127151D02*
X32302D01*
X31743Y127953D01*
X33910Y128699D01*
X33483Y127151D01*
D02*
G37*
G36*
X348333Y122593D02*
X345439Y124331D01*
X345439Y125512D01*
X348333Y127250D01*
X348333Y122593D01*
D02*
G37*
G36*
X359514Y117140D02*
X356620Y118878D01*
X356620Y120059D01*
X359514Y121797D01*
X359514Y117140D01*
D02*
G37*
G36*
X303412Y240370D02*
X303354Y238870D01*
X301219Y237898D01*
X301349Y241395D01*
X303412Y240370D01*
D02*
G37*
G36*
X350828Y233716D02*
X343479Y238870D01*
X343496Y240370D01*
X350958Y245472D01*
X350828Y233716D01*
D02*
G37*
G36*
X331737Y186169D02*
X329380Y185332D01*
X328454Y186077D01*
X329016Y188371D01*
X331737Y186169D01*
D02*
G37*
G36*
X325566Y181518D02*
X324870Y179183D01*
X322395Y181657D01*
X324731Y182353D01*
X325566Y181518D01*
D02*
G37*
G36*
X355744Y175666D02*
X345905Y174218D01*
X344897Y175331D01*
X346936Y185388D01*
X355744Y175666D01*
D02*
G37*
G36*
X329464Y157777D02*
X328461Y155590D01*
X326487Y158480D01*
X328613Y159048D01*
X329464Y157777D01*
D02*
G37*
D41*
X17000Y425000D02*
X31876Y410124D01*
X25000Y647883D02*
X26000Y648883D01*
X18219Y633281D02*
Y666249D01*
X25000Y641000D02*
Y647883D01*
X18219Y666249D02*
X19390Y667421D01*
X18219Y633281D02*
X42390Y609110D01*
X62000Y539610D02*
X155000Y632610D01*
X62000Y390898D02*
Y539610D01*
X23500Y484500D02*
X52500Y455500D01*
X23500Y484500D02*
Y576500D01*
X17000Y425000D02*
Y576500D01*
X57293Y397096D02*
Y507207D01*
X36966Y527534D02*
Y536142D01*
Y527534D02*
X57293Y507207D01*
X7692Y582726D02*
X32205D01*
X36966Y536142D02*
X36991Y536167D01*
Y572849D01*
X33235Y576604D02*
X36991Y572849D01*
X33235Y576604D02*
Y580741D01*
X32205Y581772D02*
X33235Y580741D01*
X43386Y751358D02*
X87748D01*
X42528D02*
X43386D01*
X22109Y654533D02*
X23500Y655924D01*
X22109Y653500D02*
Y654533D01*
X23500Y655924D02*
Y769000D01*
X27669Y773169D01*
X26000Y764500D02*
X28238Y766738D01*
X26000Y648883D02*
Y764500D01*
X19390Y667421D02*
Y797391D01*
X31226Y766738D02*
X32205Y767717D01*
X28238Y766738D02*
X31226D01*
X32205Y767500D02*
X76390D01*
X19390Y797391D02*
X27886Y805886D01*
X7000Y583418D02*
X7692Y582726D01*
X7000Y583418D02*
Y596500D01*
X41981Y414501D02*
X52500Y425020D01*
X76390Y767500D02*
X113500Y804610D01*
X32205Y757000D02*
X85890D01*
X27886Y805886D02*
X43386D01*
X87748Y631858D02*
Y751358D01*
X59500Y603610D02*
X87748Y631858D01*
Y751358D02*
X133500Y797110D01*
X85890Y757000D02*
X106195Y777305D01*
X62559Y773169D02*
X96000Y806610D01*
X43386Y773169D02*
X62559D01*
X27669Y773169D02*
X43386D01*
X38949Y637610D02*
X77500D01*
X37795Y636457D02*
X38949Y637610D01*
X52500Y425020D02*
Y455500D01*
X38192Y175000D02*
X108500D01*
X37500Y174308D02*
X38192Y175000D01*
X37500Y155500D02*
Y174308D01*
Y155500D02*
X41945Y151055D01*
Y148685D02*
X42992Y147638D01*
X41945Y148685D02*
Y151055D01*
X108500Y175000D02*
X109500Y174000D01*
X191000D02*
X316665Y299665D01*
X109500Y174000D02*
X191000D01*
X316665Y299665D02*
X351299D01*
X315061Y288760D02*
X351299D01*
X42992Y169449D02*
X42992Y169449D01*
X195750D01*
X315061Y288760D01*
X42992Y147638D02*
X60256Y130374D01*
X361890D01*
X351299Y277854D02*
X367678D01*
X372000Y273532D01*
Y132836D02*
Y273532D01*
X366800Y133528D02*
X371308D01*
X361600Y108328D02*
X372000Y118728D01*
X371308Y133528D02*
X372000Y132836D01*
Y118728D02*
Y132836D01*
X384350Y283307D02*
X387500Y280157D01*
X363149Y283307D02*
X384350D01*
X333000Y602500D02*
X336189Y605689D01*
X333000Y458102D02*
X350709Y440394D01*
X333000Y458102D02*
Y602500D01*
X336189Y605689D02*
X351299D01*
X322370Y179157D02*
X331500Y188287D01*
Y188657D01*
X122390Y648500D02*
X241082D01*
X66000Y592110D02*
X122390Y648500D01*
X66000Y598610D02*
X122390Y655000D01*
X248500D01*
X133500Y797110D02*
Y801110D01*
X106195Y777305D02*
Y784805D01*
X133000Y811610D01*
X307500D02*
Y825110D01*
X231500Y775110D02*
Y823221D01*
Y775110D02*
X232000Y774610D01*
X70000Y136658D02*
X256500D01*
X46400Y131328D02*
X52806Y124921D01*
X350709D01*
X58398Y554508D02*
X59500Y555610D01*
Y603610D01*
X43386Y554508D02*
X58398D01*
X113500Y804610D02*
Y811110D01*
X96000Y806610D02*
Y811110D01*
X155000Y632610D02*
X205000D01*
X344391Y151559D02*
X354968D01*
X357065Y146105D02*
Y149463D01*
X354968Y151559D02*
X357065Y149463D01*
Y146105D02*
X361890Y141280D01*
X42992Y382795D02*
X57293Y397096D01*
X42992Y371890D02*
X62000Y390898D01*
X59100Y143328D02*
X347304D01*
X350709Y146732D01*
X42992Y158543D02*
X52832Y148704D01*
X341535D01*
X344391Y151559D01*
X31811Y131280D02*
X32893Y130198D01*
Y127151D02*
Y130198D01*
Y127151D02*
X40576Y119469D01*
X361890D01*
X26900Y137274D02*
X31811Y142185D01*
X26900Y117128D02*
Y137274D01*
Y117128D02*
X32000Y112028D01*
X331000D01*
X334700Y108328D01*
X361600D01*
X350709Y135827D02*
X364501D01*
X366800Y133528D01*
X39600Y131328D02*
X46400D01*
X37400Y133528D02*
X39600Y131328D01*
X37400Y133528D02*
Y147502D01*
X31811Y153091D02*
X37400Y147502D01*
D42*
X299592Y239620D02*
X356890D01*
X9000Y708500D02*
X15500Y702000D01*
X9000Y708500D02*
Y786000D01*
X327500Y669371D02*
X329500Y671371D01*
X320500Y557000D02*
X327500Y564000D01*
X329500Y671371D02*
Y672000D01*
X327500Y564000D02*
Y669371D01*
X326654Y156028D02*
X355646Y185020D01*
D43*
X362480Y589331D02*
D03*
Y600236D02*
D03*
Y611142D02*
D03*
Y622047D02*
D03*
Y632953D02*
D03*
Y643858D02*
D03*
Y654764D02*
D03*
X351299Y583878D02*
D03*
Y594783D02*
D03*
Y605689D02*
D03*
Y616595D02*
D03*
Y627500D02*
D03*
Y638406D02*
D03*
Y649311D02*
D03*
X32205Y800433D02*
D03*
Y789528D02*
D03*
Y778622D02*
D03*
Y767717D02*
D03*
Y756811D02*
D03*
Y745905D02*
D03*
Y735000D02*
D03*
X43386Y805886D02*
D03*
Y794980D02*
D03*
Y784075D02*
D03*
Y773169D02*
D03*
Y762264D02*
D03*
Y751358D02*
D03*
Y740453D02*
D03*
X362480Y272402D02*
D03*
Y283307D02*
D03*
Y294213D02*
D03*
Y305118D02*
D03*
Y316024D02*
D03*
Y326929D02*
D03*
Y337835D02*
D03*
X351299Y266949D02*
D03*
Y277854D02*
D03*
Y288760D02*
D03*
Y299665D02*
D03*
Y310571D02*
D03*
Y321476D02*
D03*
Y332382D02*
D03*
X32205Y603583D02*
D03*
Y592677D02*
D03*
Y581772D02*
D03*
Y570866D02*
D03*
Y559961D02*
D03*
Y549055D02*
D03*
Y538150D02*
D03*
X43386Y609035D02*
D03*
Y598130D02*
D03*
Y587224D02*
D03*
Y576319D02*
D03*
Y565413D02*
D03*
Y554508D02*
D03*
Y543602D02*
D03*
D44*
X351299Y660217D02*
D03*
X43386Y729547D02*
D03*
X351299Y343287D02*
D03*
X43386Y532697D02*
D03*
D45*
X356890Y556457D02*
D03*
Y687638D02*
D03*
X37795Y833307D02*
D03*
Y702126D02*
D03*
X356890Y239528D02*
D03*
Y370709D02*
D03*
X37795Y636457D02*
D03*
Y505276D02*
D03*
D46*
X372441Y734842D02*
D03*
Y784842D02*
D03*
D47*
X37402Y442894D02*
D03*
Y344508D02*
D03*
X356299Y185020D02*
D03*
Y86634D02*
D03*
X37402Y98445D02*
D03*
Y196831D02*
D03*
X356299Y511398D02*
D03*
Y413012D02*
D03*
D48*
X42992Y371890D02*
D03*
X350709Y157638D02*
D03*
X42992Y125827D02*
D03*
X350709Y484016D02*
D03*
D49*
X31811Y377343D02*
D03*
X42992Y382795D02*
D03*
X31811Y388248D02*
D03*
X42992Y393701D02*
D03*
X31811Y399153D02*
D03*
X42992Y404606D02*
D03*
X31811Y410059D02*
D03*
X42992Y415512D02*
D03*
X350709Y114016D02*
D03*
X361890Y119468D02*
D03*
X350709Y124921D02*
D03*
X361890Y130374D02*
D03*
X350709Y135827D02*
D03*
X361890Y141279D02*
D03*
X350709Y146732D02*
D03*
X361890Y152185D02*
D03*
X42992Y169449D02*
D03*
X31811Y163996D02*
D03*
X42992Y158543D02*
D03*
X31811Y153091D02*
D03*
X42992Y147638D02*
D03*
X31811Y142185D02*
D03*
X42992Y136732D02*
D03*
X31811Y131280D02*
D03*
X350709Y440394D02*
D03*
X361890Y445847D02*
D03*
X350709Y451299D02*
D03*
X361890Y456752D02*
D03*
X350709Y462205D02*
D03*
X361890Y467658D02*
D03*
X350709Y473110D02*
D03*
X361890Y478563D02*
D03*
D50*
X172480Y899610D02*
D03*
X162480D02*
D03*
X152480D02*
D03*
X142480D02*
D03*
X132480D02*
D03*
X122480D02*
D03*
X182480D02*
D03*
X192480D02*
D03*
X122480Y889610D02*
D03*
X132480D02*
D03*
X142480D02*
D03*
X152480D02*
D03*
X162480D02*
D03*
X172480D02*
D03*
X182480D02*
D03*
X192480D02*
D03*
D51*
X96000Y811110D02*
D03*
X113500D02*
D03*
D52*
X215000Y18183D02*
D03*
Y58183D02*
D03*
X175000D02*
D03*
Y18183D02*
D03*
D53*
X195000Y43222D02*
D03*
D54*
X363701Y821610D02*
D03*
Y861610D02*
D03*
D55*
X343701Y851610D02*
D03*
Y841610D02*
D03*
X256721Y885827D02*
D03*
D56*
Y868110D02*
D03*
D57*
X25000Y641000D02*
D03*
X58109Y531496D02*
D03*
X22109Y653500D02*
D03*
X15500Y702000D02*
D03*
X7000Y596500D02*
D03*
X23500Y576500D02*
D03*
X17000D02*
D03*
X118110Y177891D02*
D03*
X177165D02*
D03*
X77500Y637610D02*
D03*
X383858Y826772D02*
D03*
X354331Y767717D02*
D03*
X383858Y708661D02*
D03*
Y590551D02*
D03*
X354331Y531496D02*
D03*
X383858Y472441D02*
D03*
Y354331D02*
D03*
Y118110D02*
D03*
X354331Y59055D02*
D03*
X295276Y767717D02*
D03*
X324803Y708661D02*
D03*
X295276Y649606D02*
D03*
Y531496D02*
D03*
X324803Y472441D02*
D03*
Y354331D02*
D03*
X295276Y295276D02*
D03*
Y59055D02*
D03*
X265748Y826772D02*
D03*
Y708661D02*
D03*
Y590551D02*
D03*
X236221Y531496D02*
D03*
X265748Y472441D02*
D03*
X236221Y413386D02*
D03*
X265748Y354331D02*
D03*
X236221Y295276D02*
D03*
Y59055D02*
D03*
X206693Y708661D02*
D03*
Y590551D02*
D03*
X177165Y531496D02*
D03*
X206693Y472441D02*
D03*
X177165Y413386D02*
D03*
X206693Y354331D02*
D03*
X177165Y295276D02*
D03*
X206693Y236221D02*
D03*
X147638Y826772D02*
D03*
X118110Y767717D02*
D03*
X147638Y708661D02*
D03*
Y590551D02*
D03*
X118110Y531496D02*
D03*
X147638Y472441D02*
D03*
X118110Y413386D02*
D03*
X147638Y354331D02*
D03*
X118110Y295276D02*
D03*
X147638Y236221D02*
D03*
X118110Y59055D02*
D03*
X88583Y826772D02*
D03*
X59055Y649606D02*
D03*
X88583Y590551D02*
D03*
Y472441D02*
D03*
Y354331D02*
D03*
X59055Y295276D02*
D03*
X88583Y236221D02*
D03*
X59055Y59055D02*
D03*
X9000Y786000D02*
D03*
X329500Y672000D02*
D03*
X320500Y557000D02*
D03*
X331500Y188657D02*
D03*
X322370Y179157D02*
D03*
X326000Y156028D02*
D03*
X387500Y280157D02*
D03*
X241082Y648500D02*
D03*
X248500Y655000D02*
D03*
X133500Y801110D02*
D03*
X133000Y811610D02*
D03*
X307500Y825110D02*
D03*
Y811610D02*
D03*
X232000Y774610D02*
D03*
X231500Y823221D02*
D03*
X70000Y136658D02*
D03*
X256500D02*
D03*
X299500Y239713D02*
D03*
X205000Y632610D02*
D03*
X66000Y592110D02*
D03*
Y598610D02*
D03*
X59100Y143328D02*
D03*
D58*
X363701Y821610D02*
Y861610D01*
M02*
