G04*
G04 #@! TF.GenerationSoftware,Altium Limited,Altium Designer,23.3.1 (30)*
G04*
G04 Layer_Color=16711935*
%FSLAX25Y25*%
%MOIN*%
G70*
G04*
G04 #@! TF.SameCoordinates,F033A793-50B7-4F20-A00A-8D76AD39941E*
G04*
G04*
G04 #@! TF.FilePolarity,Positive*
G04*
G01*
G75*
%ADD12C,0.01000*%
%ADD41C,0.01181*%
D12*
X384055Y17717D02*
X383994Y18708D01*
X383811Y19685D01*
X383510Y20632D01*
X383095Y21535D01*
X382572Y22380D01*
X381949Y23154D01*
X381235Y23846D01*
X380442Y24444D01*
X379582Y24941D01*
X378667Y25329D01*
X377711Y25601D01*
X376729Y25753D01*
X375736Y25784D01*
X374746Y25692D01*
X373776Y25479D01*
X372838Y25149D01*
X371949Y24706D01*
X371121Y24157D01*
X370366Y23511D01*
X369696Y22776D01*
X369122Y21965D01*
X368652Y21090D01*
X368293Y20163D01*
X368051Y19200D01*
X367929Y18213D01*
Y17220D01*
X368051Y16233D01*
X368293Y15270D01*
X368652Y14343D01*
X369122Y13468D01*
X369696Y12657D01*
X370366Y11922D01*
X371121Y11276D01*
X371949Y10727D01*
X372838Y10284D01*
X373776Y9954D01*
X374746Y9741D01*
X375736Y9650D01*
X376729Y9680D01*
X377711Y9832D01*
X378667Y10104D01*
X379582Y10492D01*
X380442Y10989D01*
X381235Y11587D01*
X381949Y12279D01*
X382572Y13053D01*
X383095Y13898D01*
X383510Y14801D01*
X383811Y15748D01*
X383994Y16725D01*
X384055Y17717D01*
X25787Y887795D02*
X25726Y888787D01*
X25544Y889764D01*
X25242Y890711D01*
X24827Y891614D01*
X24304Y892458D01*
X23681Y893233D01*
X22968Y893924D01*
X22175Y894523D01*
X21314Y895020D01*
X20399Y895407D01*
X19443Y895679D01*
X18461Y895832D01*
X17468Y895862D01*
X16478Y895771D01*
X15508Y895558D01*
X14571Y895228D01*
X13681Y894785D01*
X12853Y894236D01*
X12098Y893589D01*
X11429Y892855D01*
X10855Y892044D01*
X10384Y891169D01*
X10025Y890242D01*
X9783Y889278D01*
X9661Y888292D01*
Y887298D01*
X9783Y886312D01*
X10025Y885349D01*
X10384Y884422D01*
X10855Y883547D01*
X11429Y882736D01*
X12098Y882001D01*
X12853Y881355D01*
X13681Y880806D01*
X14571Y880363D01*
X15508Y880033D01*
X16478Y879820D01*
X17468Y879728D01*
X18461Y879759D01*
X19443Y879911D01*
X20399Y880183D01*
X21314Y880571D01*
X22175Y881067D01*
X22968Y881666D01*
X23681Y882358D01*
X24304Y883132D01*
X24827Y883977D01*
X25242Y884880D01*
X25544Y885827D01*
X25726Y886804D01*
X25787Y887795D01*
X384055D02*
X383994Y888787D01*
X383811Y889764D01*
X383510Y890711D01*
X383095Y891614D01*
X382572Y892458D01*
X381949Y893233D01*
X381235Y893924D01*
X380442Y894523D01*
X379582Y895020D01*
X378667Y895407D01*
X377711Y895679D01*
X376729Y895832D01*
X375736Y895862D01*
X374746Y895771D01*
X373776Y895558D01*
X372838Y895228D01*
X371949Y894785D01*
X371121Y894236D01*
X370366Y893589D01*
X369696Y892855D01*
X369122Y892044D01*
X368652Y891169D01*
X368293Y890242D01*
X368051Y889278D01*
X367929Y888292D01*
Y887298D01*
X368051Y886312D01*
X368293Y885349D01*
X368652Y884422D01*
X369122Y883547D01*
X369696Y882736D01*
X370366Y882001D01*
X371121Y881355D01*
X371949Y880806D01*
X372838Y880363D01*
X373776Y880033D01*
X374746Y879820D01*
X375736Y879728D01*
X376729Y879759D01*
X377711Y879911D01*
X378667Y880183D01*
X379582Y880571D01*
X380442Y881067D01*
X381235Y881666D01*
X381949Y882358D01*
X382572Y883132D01*
X383095Y883977D01*
X383510Y884880D01*
X383811Y885827D01*
X383994Y886804D01*
X384055Y887795D01*
X25787Y17717D02*
X25726Y18708D01*
X25544Y19685D01*
X25242Y20632D01*
X24827Y21535D01*
X24304Y22380D01*
X23681Y23154D01*
X22968Y23846D01*
X22175Y24444D01*
X21314Y24941D01*
X20399Y25329D01*
X19443Y25601D01*
X18461Y25753D01*
X17468Y25784D01*
X16478Y25692D01*
X15508Y25479D01*
X14571Y25149D01*
X13681Y24706D01*
X12853Y24157D01*
X12098Y23511D01*
X11429Y22776D01*
X10855Y21965D01*
X10384Y21090D01*
X10025Y20163D01*
X9783Y19200D01*
X9661Y18213D01*
Y17220D01*
X9783Y16233D01*
X10025Y15270D01*
X10384Y14343D01*
X10855Y13468D01*
X11429Y12657D01*
X12098Y11922D01*
X12853Y11276D01*
X13681Y10727D01*
X14571Y10284D01*
X15508Y9954D01*
X16478Y9741D01*
X17468Y9650D01*
X18461Y9680D01*
X19443Y9832D01*
X20399Y10104D01*
X21314Y10492D01*
X22175Y10989D01*
X22968Y11587D01*
X23681Y12279D01*
X24304Y13053D01*
X24827Y13898D01*
X25242Y14801D01*
X25544Y15748D01*
X25726Y16725D01*
X25787Y17717D01*
D41*
X8374Y905512D02*
X7346Y905445D01*
X6336Y905243D01*
X5361Y904912D01*
X4437Y904457D01*
X3581Y903885D01*
X2806Y903206D01*
X2127Y902431D01*
X1555Y901575D01*
X1099Y900651D01*
X768Y899676D01*
X567Y898666D01*
X500Y897638D01*
X394201D02*
X394133Y898666D01*
X393933Y899676D01*
X393601Y900651D01*
X393146Y901575D01*
X392574Y902431D01*
X391895Y903206D01*
X391120Y903885D01*
X390264Y904457D01*
X389340Y904912D01*
X388365Y905243D01*
X387354Y905445D01*
X386327Y905512D01*
Y500D02*
X387354Y567D01*
X388365Y768D01*
X389340Y1099D01*
X390264Y1555D01*
X391120Y2127D01*
X391895Y2806D01*
X392574Y3581D01*
X393146Y4437D01*
X393601Y5361D01*
X393933Y6336D01*
X394133Y7346D01*
X394201Y8374D01*
X500D02*
X567Y7346D01*
X768Y6336D01*
X1099Y5361D01*
X1555Y4437D01*
X2127Y3581D01*
X2806Y2806D01*
X3581Y2127D01*
X4437Y1555D01*
X5361Y1099D01*
X6336Y768D01*
X7346Y567D01*
X8374Y500D01*
X8374Y905512D02*
X386327D01*
X500Y8374D02*
Y898138D01*
X8374Y500D02*
X386327D01*
X394201Y8374D02*
X394201Y898138D01*
M02*
