G04*
G04 #@! TF.GenerationSoftware,Altium Limited,Altium Designer,23.3.1 (30)*
G04*
G04 Layer_Color=8388736*
%FSLAX25Y25*%
%MOIN*%
G70*
G04*
G04 #@! TF.SameCoordinates,3197FEDC-2055-4770-885C-EDA3D657A548*
G04*
G04*
G04 #@! TF.FilePolarity,Negative*
G04*
G01*
G75*
%ADD21R,0.12808X0.03202*%
%ADD22R,0.05918X0.09855*%
%ADD23R,0.04540X0.04147*%
%ADD24R,0.04147X0.04540*%
%ADD25R,0.11824X0.11824*%
%ADD26C,0.07591*%
%ADD27R,0.07591X0.07591*%
%ADD28C,0.17595*%
%ADD29C,0.13398*%
%ADD30C,0.19540*%
%ADD31R,0.07453X0.07453*%
%ADD32C,0.07453*%
%ADD33C,0.06600*%
%ADD34R,0.07591X0.07591*%
%ADD35C,0.08450*%
%ADD36C,0.14087*%
%ADD37C,0.14580*%
%ADD38C,0.07887*%
%ADD39C,0.08674*%
G36*
X380151Y731067D02*
X380202Y731056D01*
X380252Y731040D01*
X380299Y731016D01*
X380343Y730987D01*
X380382Y730953D01*
X380416Y730913D01*
X380446Y730870D01*
X380469Y730823D01*
X380486Y730773D01*
X380496Y730722D01*
X380499Y730669D01*
Y720827D01*
X380496Y720775D01*
X380486Y720723D01*
X380469Y720673D01*
X380446Y720626D01*
X380416Y720583D01*
X380382Y720543D01*
X380343Y720509D01*
X380299Y720480D01*
X380252Y720456D01*
X380202Y720440D01*
X380151Y720429D01*
X380098Y720426D01*
X364784D01*
X364731Y720429D01*
X364680Y720440D01*
X364630Y720456D01*
X364583Y720480D01*
X364539Y720509D01*
X364500Y720543D01*
X364465Y720583D01*
X364436Y720626D01*
X364413Y720673D01*
X364396Y720723D01*
X364386Y720775D01*
X364383Y720827D01*
Y730669D01*
X364386Y730722D01*
X364396Y730773D01*
X364413Y730823D01*
X364436Y730870D01*
X364465Y730913D01*
X364500Y730953D01*
X364539Y730987D01*
X364583Y731016D01*
X364630Y731040D01*
X364680Y731056D01*
X364731Y731067D01*
X364784Y731070D01*
X367198D01*
X367210Y731069D01*
X367221Y731070D01*
X367236Y731068D01*
X367251Y731067D01*
X367262Y731065D01*
X367273Y731063D01*
X367287Y731059D01*
X367302Y731056D01*
X367313Y731053D01*
X367324Y731050D01*
X367337Y731044D01*
X367352Y731040D01*
X367362Y731035D01*
X367373Y731030D01*
X367386Y731023D01*
X367399Y731016D01*
X367408Y731010D01*
X367418Y731004D01*
X367430Y730996D01*
X367442Y730987D01*
X367451Y730980D01*
X367460Y730973D01*
X367471Y730963D01*
X367482Y730953D01*
X367482Y730953D01*
X367489Y730944D01*
X367497Y730936D01*
X367976Y730400D01*
X369088Y729512D01*
X370359Y728899D01*
X371735Y728585D01*
X373147D01*
X374522Y728899D01*
X375794Y729512D01*
X376906Y730400D01*
X377384Y730936D01*
X377392Y730944D01*
X377400Y730953D01*
X377411Y730963D01*
X377421Y730973D01*
X377431Y730980D01*
X377439Y730987D01*
X377451Y730996D01*
X377463Y731004D01*
X377473Y731010D01*
X377483Y731016D01*
X377496Y731023D01*
X377509Y731030D01*
X377519Y731035D01*
X377530Y731040D01*
X377544Y731044D01*
X377557Y731050D01*
X377569Y731053D01*
X377579Y731056D01*
X377594Y731059D01*
X377608Y731063D01*
X377620Y731065D01*
X377631Y731067D01*
X377646Y731068D01*
X377660Y731070D01*
X377672Y731069D01*
X377683Y731070D01*
X380098Y731070D01*
X380151Y731067D01*
D02*
G37*
G36*
Y799256D02*
X380202Y799246D01*
X380252Y799229D01*
X380299Y799205D01*
X380343Y799176D01*
X380382Y799142D01*
X380416Y799102D01*
X380446Y799059D01*
X380469Y799012D01*
X380486Y798962D01*
X380496Y798911D01*
X380499Y798858D01*
Y789016D01*
X380496Y788963D01*
X380486Y788912D01*
X380469Y788862D01*
X380446Y788815D01*
X380416Y788772D01*
X380382Y788732D01*
X380343Y788698D01*
X380299Y788669D01*
X380252Y788645D01*
X380202Y788629D01*
X380151Y788618D01*
X380098Y788615D01*
X377683D01*
X377672Y788616D01*
X377660Y788616D01*
X377646Y788617D01*
X377631Y788618D01*
X377620Y788621D01*
X377608Y788622D01*
X377594Y788626D01*
X377579Y788629D01*
X377569Y788632D01*
X377557Y788635D01*
X377544Y788641D01*
X377530Y788645D01*
X377519Y788651D01*
X377509Y788655D01*
X377496Y788662D01*
X377483Y788669D01*
X377473Y788675D01*
X377463Y788681D01*
X377451Y788690D01*
X377439Y788698D01*
X377431Y788705D01*
X377421Y788712D01*
X377411Y788723D01*
X377400Y788732D01*
X377392Y788741D01*
X377384Y788749D01*
X376906Y789285D01*
X375794Y790173D01*
X374522Y790786D01*
X373147Y791100D01*
X371735D01*
X370359Y790786D01*
X369088Y790173D01*
X367976Y789285D01*
X367497Y788749D01*
X367489Y788741D01*
X367482Y788732D01*
X367471Y788723D01*
X367460Y788712D01*
X367451Y788705D01*
X367442Y788698D01*
X367430Y788690D01*
X367418Y788681D01*
X367408Y788675D01*
X367399Y788669D01*
X367386Y788662D01*
X367373Y788655D01*
X367362Y788651D01*
X367352Y788645D01*
X367338Y788641D01*
X367324Y788635D01*
X367313Y788632D01*
X367302Y788629D01*
X367287Y788626D01*
X367273Y788622D01*
X367262Y788621D01*
X367251Y788618D01*
X367236Y788617D01*
X367221Y788616D01*
X367210Y788616D01*
X367198Y788615D01*
X364784D01*
X364731Y788618D01*
X364680Y788629D01*
X364630Y788645D01*
X364583Y788669D01*
X364539Y788698D01*
X364500Y788732D01*
X364465Y788772D01*
X364436Y788815D01*
X364413Y788862D01*
X364396Y788912D01*
X364386Y788963D01*
X364383Y789016D01*
Y798858D01*
X364386Y798911D01*
X364396Y798962D01*
X364413Y799012D01*
X364436Y799059D01*
X364465Y799102D01*
X364500Y799142D01*
X364539Y799176D01*
X364583Y799205D01*
X364630Y799229D01*
X364680Y799246D01*
X364731Y799256D01*
X364784Y799259D01*
X380098D01*
X380151Y799256D01*
D02*
G37*
D21*
X333150Y745787D02*
D03*
Y749803D02*
D03*
Y753819D02*
D03*
Y757835D02*
D03*
Y761850D02*
D03*
Y765866D02*
D03*
Y769882D02*
D03*
Y773898D02*
D03*
D22*
X232500Y721610D02*
D03*
Y756059D02*
D03*
X175500Y721886D02*
D03*
Y756335D02*
D03*
D23*
X294500Y89969D02*
D03*
Y95087D02*
D03*
X289500Y257968D02*
D03*
Y263087D02*
D03*
X59000Y178882D02*
D03*
Y184000D02*
D03*
X152500Y773051D02*
D03*
Y778169D02*
D03*
X161000Y778169D02*
D03*
Y773051D02*
D03*
X175000Y773551D02*
D03*
Y778669D02*
D03*
X73000Y500441D02*
D03*
Y505559D02*
D03*
X306500Y640209D02*
D03*
Y645327D02*
D03*
X294000Y408382D02*
D03*
Y413500D02*
D03*
X62000Y429441D02*
D03*
Y434559D02*
D03*
X292000Y811669D02*
D03*
Y806551D02*
D03*
X299000Y806551D02*
D03*
Y811669D02*
D03*
X72500Y723941D02*
D03*
Y729059D02*
D03*
D24*
X314382Y724110D02*
D03*
X319500D02*
D03*
X93441Y836500D02*
D03*
X98559D02*
D03*
X307941Y861610D02*
D03*
X313059D02*
D03*
D25*
X278376Y861811D02*
D03*
X235066Y885826D02*
D03*
Y861811D02*
D03*
X278376Y885826D02*
D03*
D26*
X362480Y589331D02*
D03*
Y600236D02*
D03*
Y611142D02*
D03*
Y622047D02*
D03*
Y632953D02*
D03*
Y643858D02*
D03*
Y654764D02*
D03*
X351299Y583878D02*
D03*
Y594783D02*
D03*
Y605689D02*
D03*
Y616595D02*
D03*
Y627500D02*
D03*
Y638406D02*
D03*
Y649311D02*
D03*
X32205Y800433D02*
D03*
Y789528D02*
D03*
Y778622D02*
D03*
Y767717D02*
D03*
Y756811D02*
D03*
Y745905D02*
D03*
Y735000D02*
D03*
X43386Y805886D02*
D03*
Y794980D02*
D03*
Y784075D02*
D03*
Y773169D02*
D03*
Y762264D02*
D03*
Y751358D02*
D03*
Y740453D02*
D03*
X362480Y272402D02*
D03*
Y283307D02*
D03*
Y294213D02*
D03*
Y305118D02*
D03*
Y316024D02*
D03*
Y326929D02*
D03*
Y337835D02*
D03*
X351299Y266949D02*
D03*
Y277854D02*
D03*
Y288760D02*
D03*
Y299665D02*
D03*
Y310571D02*
D03*
Y321476D02*
D03*
Y332382D02*
D03*
X32205Y603583D02*
D03*
Y592677D02*
D03*
Y581772D02*
D03*
Y570866D02*
D03*
Y559961D02*
D03*
Y549055D02*
D03*
Y538150D02*
D03*
X43386Y609035D02*
D03*
Y598130D02*
D03*
Y587224D02*
D03*
Y576319D02*
D03*
Y565413D02*
D03*
Y554508D02*
D03*
Y543602D02*
D03*
D27*
X351299Y660217D02*
D03*
X43386Y729547D02*
D03*
X351299Y343287D02*
D03*
X43386Y532697D02*
D03*
D28*
X356890Y556457D02*
D03*
Y687638D02*
D03*
X37795Y833307D02*
D03*
Y702126D02*
D03*
X356890Y239528D02*
D03*
Y370709D02*
D03*
X37795Y636457D02*
D03*
Y505276D02*
D03*
D29*
X372441Y734842D02*
D03*
Y784842D02*
D03*
D30*
X37402Y442894D02*
D03*
Y344508D02*
D03*
X356299Y185020D02*
D03*
Y86634D02*
D03*
X37402Y98445D02*
D03*
Y196831D02*
D03*
X356299Y511398D02*
D03*
Y413012D02*
D03*
D31*
X42992Y371890D02*
D03*
X350709Y157638D02*
D03*
X42992Y125827D02*
D03*
X350709Y484016D02*
D03*
D32*
X31811Y377343D02*
D03*
X42992Y382795D02*
D03*
X31811Y388248D02*
D03*
X42992Y393701D02*
D03*
X31811Y399153D02*
D03*
X42992Y404606D02*
D03*
X31811Y410059D02*
D03*
X42992Y415512D02*
D03*
X350709Y114016D02*
D03*
X361890Y119468D02*
D03*
X350709Y124921D02*
D03*
X361890Y130374D02*
D03*
X350709Y135827D02*
D03*
X361890Y141279D02*
D03*
X350709Y146732D02*
D03*
X361890Y152185D02*
D03*
X42992Y169449D02*
D03*
X31811Y163996D02*
D03*
X42992Y158543D02*
D03*
X31811Y153091D02*
D03*
X42992Y147638D02*
D03*
X31811Y142185D02*
D03*
X42992Y136732D02*
D03*
X31811Y131280D02*
D03*
X350709Y440394D02*
D03*
X361890Y445847D02*
D03*
X350709Y451299D02*
D03*
X361890Y456752D02*
D03*
X350709Y462205D02*
D03*
X361890Y467658D02*
D03*
X350709Y473110D02*
D03*
X361890Y478563D02*
D03*
D33*
X172480Y899610D02*
D03*
X162480D02*
D03*
X152480D02*
D03*
X142480D02*
D03*
X132480D02*
D03*
X122480D02*
D03*
X182480D02*
D03*
X192480D02*
D03*
X122480Y889610D02*
D03*
X132480D02*
D03*
X142480D02*
D03*
X152480D02*
D03*
X162480D02*
D03*
X172480D02*
D03*
X182480D02*
D03*
X192480D02*
D03*
D34*
X96000Y811110D02*
D03*
X113500D02*
D03*
D35*
X215000Y18183D02*
D03*
Y58183D02*
D03*
X175000D02*
D03*
Y18183D02*
D03*
D36*
X195000Y43222D02*
D03*
D37*
X363701Y821610D02*
D03*
Y861610D02*
D03*
D38*
X343701Y851610D02*
D03*
Y841610D02*
D03*
X256721Y885827D02*
D03*
D39*
Y868110D02*
D03*
M02*
