G04*
G04 #@! TF.GenerationSoftware,Altium Limited,Altium Designer,23.3.1 (30)*
G04*
G04 Layer_Physical_Order=2*
G04 Layer_Color=16711680*
%FSLAX25Y25*%
%MOIN*%
G70*
G04*
G04 #@! TF.SameCoordinates,0E6FF7DC-0273-4275-BA36-AC07C98EDA83*
G04*
G04*
G04 #@! TF.FilePolarity,Positive*
G04*
G01*
G75*
%ADD15C,0.01181*%
%ADD42C,0.01500*%
%ADD43C,0.16795*%
%ADD44R,0.06791X0.06791*%
%ADD45C,0.06791*%
%ADD46C,0.06653*%
%ADD47R,0.06653X0.06653*%
%ADD48C,0.18740*%
%ADD49C,0.07650*%
%ADD50C,0.13287*%
%ADD51C,0.12598*%
%ADD52C,0.07087*%
%ADD53C,0.13780*%
%ADD54C,0.07874*%
%ADD55C,0.06000*%
%ADD56R,0.06791X0.06791*%
%ADD57C,0.05000*%
%ADD58C,0.10000*%
G36*
X386422Y905238D02*
X386522Y905228D01*
X386620Y905205D01*
X387297Y905179D01*
X388619Y904887D01*
X389869Y904365D01*
X391006Y903630D01*
X391995Y902705D01*
X392804Y901618D01*
X393408Y900406D01*
X393701Y899401D01*
Y6650D01*
X393549Y5991D01*
X392982Y4692D01*
X392183Y3520D01*
X391180Y2518D01*
X390009Y1719D01*
X388710Y1151D01*
X387329Y834D01*
X386620Y807D01*
X386522Y783D01*
X386422Y774D01*
X386210Y711D01*
X8065Y808D01*
X7372Y834D01*
X5991Y1151D01*
X4692Y1719D01*
X3520Y2518D01*
X2518Y3520D01*
X1719Y4691D01*
X1151Y5991D01*
X834Y7372D01*
X807Y8081D01*
X783Y8179D01*
X774Y8279D01*
X711Y8491D01*
Y897997D01*
X800Y898243D01*
X814Y898339D01*
X843Y898432D01*
X914Y899105D01*
X1293Y900406D01*
X1896Y901618D01*
X2705Y902704D01*
X3694Y903630D01*
X4832Y904365D01*
X6081Y904887D01*
X7404Y905179D01*
X8081Y905205D01*
X8179Y905228D01*
X8279Y905238D01*
X8491Y905301D01*
X386210D01*
X386422Y905238D01*
D02*
G37*
%LPC*%
G36*
X133480Y903483D02*
Y900610D01*
X136354D01*
X136208Y901154D01*
X135681Y902066D01*
X134936Y902811D01*
X134024Y903338D01*
X133480Y903483D01*
D02*
G37*
G36*
X131480D02*
X130936Y903338D01*
X130024Y902811D01*
X129279Y902066D01*
X128753Y901154D01*
X128607Y900610D01*
X131480D01*
Y903483D01*
D02*
G37*
G36*
X192981Y903410D02*
X191980D01*
X191014Y903151D01*
X190147Y902651D01*
X189440Y901943D01*
X188939Y901077D01*
X188680Y900111D01*
Y899110D01*
X188939Y898143D01*
X189440Y897277D01*
X190147Y896570D01*
X191014Y896069D01*
X191980Y895810D01*
X192981D01*
X193947Y896069D01*
X194814Y896570D01*
X195521Y897277D01*
X196021Y898143D01*
X196280Y899110D01*
Y900111D01*
X196021Y901077D01*
X195521Y901943D01*
X194814Y902651D01*
X193947Y903151D01*
X192981Y903410D01*
D02*
G37*
G36*
X182981D02*
X181980D01*
X181014Y903151D01*
X180147Y902651D01*
X179440Y901943D01*
X178939Y901077D01*
X178680Y900111D01*
Y899110D01*
X178939Y898143D01*
X179440Y897277D01*
X180147Y896570D01*
X181014Y896069D01*
X181980Y895810D01*
X182981D01*
X183947Y896069D01*
X184814Y896570D01*
X185521Y897277D01*
X186021Y898143D01*
X186280Y899110D01*
Y900111D01*
X186021Y901077D01*
X185521Y901943D01*
X184814Y902651D01*
X183947Y903151D01*
X182981Y903410D01*
D02*
G37*
G36*
X172981D02*
X171980D01*
X171014Y903151D01*
X170147Y902651D01*
X169440Y901943D01*
X168939Y901077D01*
X168680Y900111D01*
Y899110D01*
X168939Y898143D01*
X169440Y897277D01*
X170147Y896570D01*
X171014Y896069D01*
X171980Y895810D01*
X172981D01*
X173947Y896069D01*
X174814Y896570D01*
X175521Y897277D01*
X176021Y898143D01*
X176280Y899110D01*
Y900111D01*
X176021Y901077D01*
X175521Y901943D01*
X174814Y902651D01*
X173947Y903151D01*
X172981Y903410D01*
D02*
G37*
G36*
X162981D02*
X161980D01*
X161014Y903151D01*
X160147Y902651D01*
X159440Y901943D01*
X158939Y901077D01*
X158680Y900111D01*
Y899110D01*
X158939Y898143D01*
X159440Y897277D01*
X160147Y896570D01*
X161014Y896069D01*
X161980Y895810D01*
X162981D01*
X163947Y896069D01*
X164814Y896570D01*
X165521Y897277D01*
X166021Y898143D01*
X166280Y899110D01*
Y900111D01*
X166021Y901077D01*
X165521Y901943D01*
X164814Y902651D01*
X163947Y903151D01*
X162981Y903410D01*
D02*
G37*
G36*
X152981D02*
X151980D01*
X151014Y903151D01*
X150147Y902651D01*
X149440Y901943D01*
X148939Y901077D01*
X148680Y900111D01*
Y899110D01*
X148939Y898143D01*
X149440Y897277D01*
X150147Y896570D01*
X151014Y896069D01*
X151980Y895810D01*
X152981D01*
X153947Y896069D01*
X154814Y896570D01*
X155521Y897277D01*
X156021Y898143D01*
X156280Y899110D01*
Y900111D01*
X156021Y901077D01*
X155521Y901943D01*
X154814Y902651D01*
X153947Y903151D01*
X152981Y903410D01*
D02*
G37*
G36*
X142981D02*
X141980D01*
X141014Y903151D01*
X140147Y902651D01*
X139440Y901943D01*
X138939Y901077D01*
X138680Y900111D01*
Y899110D01*
X138939Y898143D01*
X139440Y897277D01*
X140147Y896570D01*
X141014Y896069D01*
X141980Y895810D01*
X142981D01*
X143947Y896069D01*
X144814Y896570D01*
X145521Y897277D01*
X146021Y898143D01*
X146280Y899110D01*
Y900111D01*
X146021Y901077D01*
X145521Y901943D01*
X144814Y902651D01*
X143947Y903151D01*
X142981Y903410D01*
D02*
G37*
G36*
X122981D02*
X121980D01*
X121014Y903151D01*
X120147Y902651D01*
X119440Y901943D01*
X118939Y901077D01*
X118680Y900111D01*
Y899110D01*
X118939Y898143D01*
X119440Y897277D01*
X120147Y896570D01*
X121014Y896069D01*
X121980Y895810D01*
X122981D01*
X123947Y896069D01*
X124814Y896570D01*
X125521Y897277D01*
X126021Y898143D01*
X126280Y899110D01*
Y900111D01*
X126021Y901077D01*
X125521Y901943D01*
X124814Y902651D01*
X123947Y903151D01*
X122981Y903410D01*
D02*
G37*
G36*
X136354Y898610D02*
X133480D01*
Y895737D01*
X134024Y895883D01*
X134936Y896409D01*
X135681Y897154D01*
X136208Y898066D01*
X136354Y898610D01*
D02*
G37*
G36*
X131480D02*
X128607D01*
X128753Y898066D01*
X129279Y897154D01*
X130024Y896409D01*
X130936Y895883D01*
X131480Y895737D01*
Y898610D01*
D02*
G37*
G36*
X133480Y893483D02*
Y890610D01*
X136354D01*
X136208Y891154D01*
X135681Y892066D01*
X134936Y892811D01*
X134024Y893338D01*
X133480Y893483D01*
D02*
G37*
G36*
X131480D02*
X130936Y893338D01*
X130024Y892811D01*
X129279Y892066D01*
X128753Y891154D01*
X128607Y890610D01*
X131480D01*
Y893483D01*
D02*
G37*
G36*
X192981Y893410D02*
X191980D01*
X191014Y893151D01*
X190147Y892651D01*
X189440Y891943D01*
X188939Y891077D01*
X188680Y890110D01*
Y889110D01*
X188939Y888144D01*
X189440Y887277D01*
X190147Y886569D01*
X191014Y886069D01*
X191980Y885810D01*
X192981D01*
X193947Y886069D01*
X194814Y886569D01*
X195521Y887277D01*
X196021Y888144D01*
X196280Y889110D01*
Y890110D01*
X196021Y891077D01*
X195521Y891943D01*
X194814Y892651D01*
X193947Y893151D01*
X192981Y893410D01*
D02*
G37*
G36*
X182981D02*
X181980D01*
X181014Y893151D01*
X180147Y892651D01*
X179440Y891943D01*
X178939Y891077D01*
X178680Y890110D01*
Y889110D01*
X178939Y888144D01*
X179440Y887277D01*
X180147Y886569D01*
X181014Y886069D01*
X181980Y885810D01*
X182981D01*
X183947Y886069D01*
X184814Y886569D01*
X185521Y887277D01*
X186021Y888144D01*
X186280Y889110D01*
Y890110D01*
X186021Y891077D01*
X185521Y891943D01*
X184814Y892651D01*
X183947Y893151D01*
X182981Y893410D01*
D02*
G37*
G36*
X172981D02*
X171980D01*
X171014Y893151D01*
X170147Y892651D01*
X169440Y891943D01*
X168939Y891077D01*
X168680Y890110D01*
Y889110D01*
X168939Y888144D01*
X169440Y887277D01*
X170147Y886569D01*
X171014Y886069D01*
X171980Y885810D01*
X172981D01*
X173947Y886069D01*
X174814Y886569D01*
X175521Y887277D01*
X176021Y888144D01*
X176280Y889110D01*
Y890110D01*
X176021Y891077D01*
X175521Y891943D01*
X174814Y892651D01*
X173947Y893151D01*
X172981Y893410D01*
D02*
G37*
G36*
X162981D02*
X161980D01*
X161014Y893151D01*
X160147Y892651D01*
X159440Y891943D01*
X158939Y891077D01*
X158680Y890110D01*
Y889110D01*
X158939Y888144D01*
X159440Y887277D01*
X160147Y886569D01*
X161014Y886069D01*
X161980Y885810D01*
X162981D01*
X163947Y886069D01*
X164814Y886569D01*
X165521Y887277D01*
X166021Y888144D01*
X166280Y889110D01*
Y890110D01*
X166021Y891077D01*
X165521Y891943D01*
X164814Y892651D01*
X163947Y893151D01*
X162981Y893410D01*
D02*
G37*
G36*
X152981D02*
X151980D01*
X151014Y893151D01*
X150147Y892651D01*
X149440Y891943D01*
X148939Y891077D01*
X148680Y890110D01*
Y889110D01*
X148939Y888144D01*
X149440Y887277D01*
X150147Y886569D01*
X151014Y886069D01*
X151980Y885810D01*
X152981D01*
X153947Y886069D01*
X154814Y886569D01*
X155521Y887277D01*
X156021Y888144D01*
X156280Y889110D01*
Y890110D01*
X156021Y891077D01*
X155521Y891943D01*
X154814Y892651D01*
X153947Y893151D01*
X152981Y893410D01*
D02*
G37*
G36*
X142981D02*
X141980D01*
X141014Y893151D01*
X140147Y892651D01*
X139440Y891943D01*
X138939Y891077D01*
X138680Y890110D01*
Y889110D01*
X138939Y888144D01*
X139440Y887277D01*
X140147Y886569D01*
X141014Y886069D01*
X141980Y885810D01*
X142981D01*
X143947Y886069D01*
X144814Y886569D01*
X145521Y887277D01*
X146021Y888144D01*
X146280Y889110D01*
Y890110D01*
X146021Y891077D01*
X145521Y891943D01*
X144814Y892651D01*
X143947Y893151D01*
X142981Y893410D01*
D02*
G37*
G36*
X122981D02*
X121980D01*
X121014Y893151D01*
X120147Y892651D01*
X119440Y891943D01*
X118939Y891077D01*
X118680Y890110D01*
Y889110D01*
X118939Y888144D01*
X119440Y887277D01*
X120147Y886569D01*
X121014Y886069D01*
X121980Y885810D01*
X122981D01*
X123947Y886069D01*
X124814Y886569D01*
X125521Y887277D01*
X126021Y888144D01*
X126280Y889110D01*
Y890110D01*
X126021Y891077D01*
X125521Y891943D01*
X124814Y892651D01*
X123947Y893151D01*
X122981Y893410D01*
D02*
G37*
G36*
X136354Y888610D02*
X133480D01*
Y885737D01*
X134024Y885883D01*
X134936Y886409D01*
X135681Y887154D01*
X136208Y888066D01*
X136354Y888610D01*
D02*
G37*
G36*
X131480D02*
X128607D01*
X128753Y888066D01*
X129279Y887154D01*
X130024Y886409D01*
X130936Y885883D01*
X131480Y885737D01*
Y888610D01*
D02*
G37*
G36*
X257293Y890170D02*
X256150D01*
X255045Y889875D01*
X254055Y889303D01*
X253246Y888494D01*
X252674Y887504D01*
X252378Y886399D01*
Y885255D01*
X252674Y884151D01*
X253246Y883160D01*
X254055Y882352D01*
X255045Y881780D01*
X256150Y881484D01*
X257293D01*
X258398Y881780D01*
X259388Y882352D01*
X260197Y883160D01*
X260769Y884151D01*
X261065Y885255D01*
Y886399D01*
X260769Y887504D01*
X260197Y888494D01*
X259388Y889303D01*
X258398Y889875D01*
X257293Y890170D01*
D02*
G37*
G36*
X376779Y896682D02*
X375189D01*
X375111Y896666D01*
X375030D01*
X373471Y896356D01*
X373397Y896325D01*
X373318Y896310D01*
X371849Y895701D01*
X371782Y895657D01*
X371708Y895626D01*
X370386Y894742D01*
X370329Y894686D01*
X370263Y894641D01*
X369138Y893517D01*
X369094Y893450D01*
X369037Y893393D01*
X368154Y892071D01*
X368123Y891997D01*
X368078Y891930D01*
X367470Y890462D01*
X367454Y890383D01*
X367424Y890309D01*
X367113Y888749D01*
Y888669D01*
X367098Y888590D01*
Y887000D01*
X367113Y886922D01*
Y886841D01*
X367424Y885282D01*
X367454Y885208D01*
X367470Y885129D01*
X368078Y883660D01*
X368123Y883593D01*
X368154Y883519D01*
X369037Y882197D01*
X369094Y882141D01*
X369138Y882074D01*
X370263Y880949D01*
X370329Y880905D01*
X370386Y880848D01*
X371708Y879965D01*
X371782Y879934D01*
X371849Y879889D01*
X373318Y879281D01*
X373397Y879265D01*
X373471Y879235D01*
X375030Y878924D01*
X375111D01*
X375189Y878909D01*
X376779D01*
X376858Y878924D01*
X376938D01*
X378498Y879235D01*
X378572Y879265D01*
X378651Y879281D01*
X380119Y879889D01*
X380186Y879934D01*
X380260Y879965D01*
X381582Y880848D01*
X381639Y880905D01*
X381706Y880949D01*
X382830Y882074D01*
X382875Y882140D01*
X382931Y882197D01*
X383815Y883519D01*
X383845Y883593D01*
X383890Y883660D01*
X384499Y885129D01*
X384514Y885208D01*
X384545Y885282D01*
X384855Y886841D01*
Y886922D01*
X384871Y887000D01*
Y888590D01*
X384855Y888669D01*
Y888749D01*
X384545Y890309D01*
X384514Y890383D01*
X384499Y890462D01*
X383890Y891930D01*
X383845Y891997D01*
X383815Y892071D01*
X382931Y893393D01*
X382875Y893450D01*
X382830Y893517D01*
X381706Y894641D01*
X381639Y894686D01*
X381582Y894742D01*
X380260Y895626D01*
X380186Y895656D01*
X380119Y895701D01*
X378651Y896310D01*
X378572Y896325D01*
X378498Y896356D01*
X376938Y896666D01*
X376858D01*
X376779Y896682D01*
D02*
G37*
G36*
X18511D02*
X16922D01*
X16843Y896666D01*
X16762D01*
X15203Y896356D01*
X15129Y896325D01*
X15050Y896310D01*
X13581Y895701D01*
X13515Y895657D01*
X13440Y895626D01*
X12118Y894742D01*
X12062Y894686D01*
X11995Y894641D01*
X10871Y893517D01*
X10826Y893450D01*
X10769Y893393D01*
X9886Y892071D01*
X9855Y891997D01*
X9811Y891930D01*
X9202Y890462D01*
X9187Y890383D01*
X9156Y890309D01*
X8846Y888749D01*
Y888669D01*
X8830Y888590D01*
Y887000D01*
X8846Y886922D01*
Y886841D01*
X9156Y885282D01*
X9187Y885208D01*
X9202Y885129D01*
X9811Y883660D01*
X9855Y883593D01*
X9886Y883519D01*
X10769Y882197D01*
X10826Y882141D01*
X10871Y882074D01*
X11995Y880949D01*
X12062Y880905D01*
X12118Y880848D01*
X13440Y879965D01*
X13515Y879934D01*
X13581Y879889D01*
X15050Y879281D01*
X15129Y879265D01*
X15203Y879235D01*
X16762Y878924D01*
X16843D01*
X16922Y878909D01*
X18511D01*
X18590Y878924D01*
X18671D01*
X20230Y879235D01*
X20304Y879265D01*
X20383Y879281D01*
X21852Y879889D01*
X21918Y879934D01*
X21993Y879965D01*
X23315Y880848D01*
X23371Y880905D01*
X23438Y880949D01*
X24562Y882074D01*
X24607Y882140D01*
X24664Y882197D01*
X25547Y883519D01*
X25578Y883593D01*
X25622Y883660D01*
X26231Y885129D01*
X26247Y885208D01*
X26277Y885282D01*
X26587Y886841D01*
Y886922D01*
X26603Y887000D01*
Y888590D01*
X26587Y888669D01*
Y888749D01*
X26277Y890309D01*
X26247Y890383D01*
X26231Y890462D01*
X25622Y891930D01*
X25578Y891997D01*
X25547Y892071D01*
X24664Y893393D01*
X24607Y893450D01*
X24562Y893517D01*
X23438Y894641D01*
X23371Y894686D01*
X23315Y894742D01*
X21993Y895626D01*
X21918Y895656D01*
X21852Y895701D01*
X20383Y896310D01*
X20304Y896325D01*
X20230Y896356D01*
X18671Y896666D01*
X18590D01*
X18511Y896682D01*
D02*
G37*
G36*
X257345Y872847D02*
X256098D01*
X254893Y872524D01*
X253813Y871901D01*
X252931Y871019D01*
X252307Y869939D01*
X251985Y868734D01*
Y867487D01*
X252307Y866282D01*
X252931Y865202D01*
X253813Y864320D01*
X254893Y863696D01*
X256098Y863373D01*
X257345D01*
X258550Y863696D01*
X259630Y864320D01*
X260512Y865202D01*
X261136Y866282D01*
X261458Y867487D01*
Y868734D01*
X261136Y869939D01*
X260512Y871019D01*
X259630Y871901D01*
X258550Y872524D01*
X257345Y872847D01*
D02*
G37*
G36*
X344273Y855954D02*
X343129D01*
X342024Y855658D01*
X341034Y855086D01*
X340225Y854277D01*
X339653Y853287D01*
X339357Y852182D01*
Y851038D01*
X339653Y849934D01*
X340225Y848943D01*
X341034Y848135D01*
X342024Y847563D01*
X343129Y847267D01*
X344273D01*
X345377Y847563D01*
X346368Y848135D01*
X347176Y848943D01*
X347748Y849934D01*
X348044Y851038D01*
Y852182D01*
X347748Y853287D01*
X347176Y854277D01*
X346368Y855086D01*
X345377Y855658D01*
X344273Y855954D01*
D02*
G37*
G36*
Y845953D02*
X343129D01*
X342024Y845658D01*
X341034Y845086D01*
X340225Y844277D01*
X339653Y843287D01*
X339357Y842182D01*
Y841038D01*
X339653Y839934D01*
X340225Y838943D01*
X341034Y838135D01*
X342024Y837563D01*
X343129Y837267D01*
X344273D01*
X345377Y837563D01*
X346368Y838135D01*
X347176Y838943D01*
X347748Y839934D01*
X348044Y841038D01*
Y842182D01*
X347748Y843287D01*
X347176Y844277D01*
X346368Y845086D01*
X345377Y845658D01*
X344273Y845953D01*
D02*
G37*
G36*
X46772Y842505D02*
X44960D01*
X43183Y842151D01*
X41510Y841458D01*
X40003Y840451D01*
X38722Y839170D01*
X37715Y837664D01*
X37022Y835990D01*
X36669Y834213D01*
Y832401D01*
X37022Y830624D01*
X37715Y828950D01*
X38722Y827444D01*
X40003Y826163D01*
X41510Y825156D01*
X43183Y824463D01*
X44960Y824109D01*
X46772D01*
X48549Y824463D01*
X50223Y825156D01*
X51729Y826163D01*
X53010Y827444D01*
X54017Y828950D01*
X54710Y830624D01*
X55064Y832401D01*
Y834213D01*
X54710Y835990D01*
X54017Y837664D01*
X53010Y839170D01*
X51729Y840451D01*
X50223Y841458D01*
X48549Y842151D01*
X46772Y842505D01*
D02*
G37*
G36*
X364458Y869300D02*
X362943D01*
X361458Y869005D01*
X360058Y868425D01*
X358799Y867583D01*
X357728Y866512D01*
X356886Y865253D01*
X356307Y863853D01*
X356011Y862368D01*
Y860853D01*
X356307Y859367D01*
X356886Y857968D01*
X357728Y856708D01*
X357873Y856563D01*
Y826657D01*
X357728Y826512D01*
X356886Y825253D01*
X356307Y823853D01*
X356011Y822368D01*
Y820853D01*
X356307Y819367D01*
X356886Y817968D01*
X357728Y816708D01*
X358799Y815637D01*
X360058Y814796D01*
X361458Y814216D01*
X362943Y813920D01*
X364458D01*
X365944Y814216D01*
X367343Y814796D01*
X368603Y815637D01*
X369674Y816708D01*
X370515Y817968D01*
X371095Y819367D01*
X371391Y820853D01*
Y822368D01*
X371095Y823853D01*
X370515Y825253D01*
X369674Y826512D01*
X369529Y826657D01*
Y856563D01*
X369674Y856708D01*
X370515Y857968D01*
X371095Y859367D01*
X371391Y860853D01*
Y862368D01*
X371095Y863853D01*
X370515Y865253D01*
X369674Y866512D01*
X368603Y867583D01*
X367343Y868425D01*
X365944Y869005D01*
X364458Y869300D01*
D02*
G37*
G36*
X307934Y828410D02*
X307066D01*
X306226Y828185D01*
X305474Y827751D01*
X304859Y827137D01*
X304425Y826384D01*
X304200Y825545D01*
Y824676D01*
X304425Y823837D01*
X304859Y823084D01*
X305125Y822818D01*
X305166Y822756D01*
X305372Y822544D01*
X305541Y822353D01*
X305685Y822170D01*
X305804Y821996D01*
X305901Y821833D01*
X305976Y821681D01*
X306030Y821540D01*
X306066Y821411D01*
X306082Y821315D01*
Y815405D01*
X306066Y815310D01*
X306030Y815180D01*
X305976Y815040D01*
X305901Y814887D01*
X305804Y814724D01*
X305691Y814560D01*
X305364Y814168D01*
X305166Y813965D01*
X305125Y813902D01*
X304859Y813636D01*
X304425Y812884D01*
X304200Y812045D01*
Y811176D01*
X304425Y810336D01*
X304859Y809584D01*
X305474Y808970D01*
X306226Y808535D01*
X307066Y808310D01*
X307934D01*
X308774Y808535D01*
X309526Y808970D01*
X310141Y809584D01*
X310575Y810336D01*
X310800Y811176D01*
Y812045D01*
X310575Y812884D01*
X310141Y813636D01*
X309875Y813902D01*
X309834Y813965D01*
X309628Y814176D01*
X309459Y814368D01*
X309315Y814550D01*
X309195Y814724D01*
X309099Y814887D01*
X309024Y815040D01*
X308970Y815180D01*
X308934Y815310D01*
X308918Y815405D01*
Y821315D01*
X308934Y821411D01*
X308970Y821540D01*
X309024Y821681D01*
X309099Y821833D01*
X309195Y821996D01*
X309309Y822160D01*
X309636Y822552D01*
X309834Y822756D01*
X309875Y822818D01*
X310141Y823084D01*
X310575Y823837D01*
X310800Y824676D01*
Y825545D01*
X310575Y826384D01*
X310141Y827137D01*
X309526Y827751D01*
X308774Y828185D01*
X307934Y828410D01*
D02*
G37*
G36*
X51419Y810081D02*
X50314D01*
X49247Y809796D01*
X48290Y809243D01*
X47938Y808891D01*
X47880Y808855D01*
X47221Y808230D01*
X46935Y807993D01*
X46661Y807789D01*
X46406Y807622D01*
X46171Y807493D01*
X45961Y807398D01*
X45776Y807337D01*
X45618Y807304D01*
X45615Y807304D01*
X35276D01*
X34733Y807196D01*
X34273Y806888D01*
X20998Y793613D01*
X20690Y793153D01*
X20582Y792610D01*
Y703313D01*
X20082Y703247D01*
X20075Y703274D01*
X19641Y704026D01*
X19026Y704641D01*
X18274Y705075D01*
X17435Y705300D01*
X17061D01*
X16991Y705315D01*
X16742Y705320D01*
X16533Y705337D01*
X16340Y705366D01*
X16163Y705406D01*
X16000Y705456D01*
X15851Y705516D01*
X15714Y705586D01*
X15588Y705665D01*
X15513Y705722D01*
X10580Y710655D01*
Y782317D01*
X10593Y782410D01*
X10627Y782555D01*
X10674Y782701D01*
X10737Y782849D01*
X10817Y783000D01*
X10914Y783153D01*
X11030Y783310D01*
X11165Y783470D01*
X11338Y783649D01*
X11377Y783710D01*
X11641Y783974D01*
X12075Y784726D01*
X12300Y785566D01*
Y786435D01*
X12075Y787274D01*
X11641Y788026D01*
X11026Y788641D01*
X10274Y789075D01*
X9434Y789300D01*
X8566D01*
X7726Y789075D01*
X6974Y788641D01*
X6359Y788026D01*
X5925Y787274D01*
X5700Y786435D01*
Y785566D01*
X5925Y784726D01*
X6359Y783974D01*
X6623Y783710D01*
X6662Y783649D01*
X6835Y783470D01*
X6970Y783310D01*
X7086Y783153D01*
X7183Y783000D01*
X7263Y782849D01*
X7326Y782701D01*
X7373Y782555D01*
X7407Y782410D01*
X7420Y782317D01*
Y710000D01*
X7540Y709395D01*
X7882Y708883D01*
X13278Y703487D01*
X13335Y703412D01*
X13414Y703286D01*
X13484Y703149D01*
X13544Y703000D01*
X13594Y702837D01*
X13634Y702660D01*
X13663Y702467D01*
X13680Y702258D01*
X13685Y702009D01*
X13700Y701939D01*
Y701566D01*
X13925Y700726D01*
X14359Y699974D01*
X14974Y699359D01*
X15726Y698925D01*
X16566Y698700D01*
X17435D01*
X18274Y698925D01*
X19026Y699359D01*
X19641Y699974D01*
X20075Y700726D01*
X20082Y700753D01*
X20582Y700687D01*
Y635110D01*
X20690Y634568D01*
X20998Y634108D01*
X45432Y609674D01*
X47251Y606876D01*
X47252Y606876D01*
X47253Y606874D01*
X47293Y606833D01*
X47509Y606459D01*
X48290Y605678D01*
X49247Y605126D01*
X50314Y604840D01*
X51419D01*
X52486Y605126D01*
X53442Y605678D01*
X54224Y606459D01*
X54776Y607416D01*
X55062Y608483D01*
Y609588D01*
X54776Y610655D01*
X54224Y611612D01*
X53442Y612393D01*
X52486Y612945D01*
X51419Y613231D01*
X50314D01*
X49247Y612945D01*
X48290Y612393D01*
X48237Y612340D01*
X48135Y612271D01*
X47909Y612148D01*
X47712Y612067D01*
X47545Y612022D01*
X47406Y612006D01*
X47290Y612012D01*
X47185Y612036D01*
X47078Y612082D01*
X46961Y612157D01*
X46943Y612173D01*
X23418Y635698D01*
Y792023D01*
X35863Y804468D01*
X38098D01*
X38227Y803985D01*
X38167Y803951D01*
X37349Y803132D01*
X36770Y802130D01*
X36583Y801433D01*
X40866D01*
X45149D01*
X44962Y802130D01*
X44384Y803132D01*
X43565Y803951D01*
X43505Y803985D01*
X43635Y804468D01*
X45615D01*
X45618Y804468D01*
X45776Y804435D01*
X45961Y804373D01*
X46171Y804279D01*
X46406Y804150D01*
X46661Y803983D01*
X46928Y803784D01*
X47542Y803249D01*
X47869Y802928D01*
X47933Y802886D01*
X48290Y802528D01*
X49247Y801976D01*
X50314Y801690D01*
X51419D01*
X52486Y801976D01*
X53442Y802528D01*
X54224Y803310D01*
X54776Y804266D01*
X55062Y805334D01*
Y806438D01*
X54776Y807505D01*
X54224Y808462D01*
X53442Y809243D01*
X52486Y809796D01*
X51419Y810081D01*
D02*
G37*
G36*
X45149Y799433D02*
X41866D01*
Y796150D01*
X42563Y796337D01*
X43565Y796916D01*
X44384Y797734D01*
X44962Y798736D01*
X45149Y799433D01*
D02*
G37*
G36*
X39866D02*
X36583D01*
X36770Y798736D01*
X37349Y797734D01*
X38167Y796916D01*
X39169Y796337D01*
X39866Y796150D01*
Y799433D01*
D02*
G37*
G36*
X51419Y799176D02*
X50314D01*
X49247Y798890D01*
X48290Y798338D01*
X47509Y797556D01*
X46957Y796600D01*
X46670Y795533D01*
Y794428D01*
X46957Y793361D01*
X47509Y792404D01*
X48290Y791623D01*
X49247Y791071D01*
X50314Y790785D01*
X51419D01*
X52486Y791071D01*
X53442Y791623D01*
X54224Y792404D01*
X54776Y793361D01*
X55062Y794428D01*
Y795533D01*
X54776Y796600D01*
X54224Y797556D01*
X53442Y798338D01*
X52486Y798890D01*
X51419Y799176D01*
D02*
G37*
G36*
X41419Y793723D02*
X40314D01*
X39247Y793437D01*
X38290Y792885D01*
X37509Y792104D01*
X36957Y791147D01*
X36671Y790080D01*
Y788975D01*
X36957Y787908D01*
X37509Y786951D01*
X38290Y786170D01*
X39247Y785618D01*
X40314Y785332D01*
X41419D01*
X42486Y785618D01*
X43442Y786170D01*
X44224Y786951D01*
X44776Y787908D01*
X45062Y788975D01*
Y790080D01*
X44776Y791147D01*
X44224Y792104D01*
X43442Y792885D01*
X42486Y793437D01*
X41419Y793723D01*
D02*
G37*
G36*
X51419Y788271D02*
X50314D01*
X49247Y787985D01*
X48290Y787432D01*
X47509Y786651D01*
X46957Y785694D01*
X46670Y784627D01*
Y783523D01*
X46957Y782455D01*
X47509Y781499D01*
X48290Y780718D01*
X49247Y780165D01*
X50314Y779879D01*
X51419D01*
X52486Y780165D01*
X53442Y780718D01*
X54224Y781499D01*
X54776Y782455D01*
X55062Y783523D01*
Y784627D01*
X54776Y785694D01*
X54224Y786651D01*
X53442Y787432D01*
X52486Y787985D01*
X51419Y788271D01*
D02*
G37*
G36*
X373140Y791942D02*
X371742D01*
X370370Y791669D01*
X369078Y791134D01*
X367916Y790357D01*
X366927Y789368D01*
X366150Y788205D01*
X365615Y786913D01*
X365342Y785542D01*
Y784143D01*
X365615Y782772D01*
X366150Y781480D01*
X366927Y780317D01*
X367916Y779328D01*
X369078Y778551D01*
X370370Y778016D01*
X371742Y777743D01*
X373140D01*
X374512Y778016D01*
X375804Y778551D01*
X376967Y779328D01*
X377955Y780317D01*
X378732Y781480D01*
X379267Y782772D01*
X379540Y784143D01*
Y785542D01*
X379267Y786913D01*
X378732Y788205D01*
X377955Y789368D01*
X376967Y790357D01*
X375804Y791134D01*
X374512Y791669D01*
X373140Y791942D01*
D02*
G37*
G36*
X231934Y826521D02*
X231066D01*
X230226Y826296D01*
X229474Y825861D01*
X228859Y825247D01*
X228425Y824494D01*
X228200Y823655D01*
Y822786D01*
X228425Y821947D01*
X228859Y821194D01*
X229125Y820928D01*
X229166Y820866D01*
X229372Y820654D01*
X229541Y820463D01*
X229685Y820280D01*
X229804Y820107D01*
X229901Y819943D01*
X229976Y819791D01*
X230030Y819650D01*
X230066Y819521D01*
X230082Y819425D01*
Y778224D01*
X230069Y778133D01*
X230034Y777988D01*
X229982Y777822D01*
X229911Y777637D01*
X229827Y777450D01*
X229417Y776718D01*
X229372Y776649D01*
X229359Y776637D01*
X229326Y776579D01*
X229246Y776456D01*
X229224Y776402D01*
X228925Y775884D01*
X228700Y775045D01*
Y774176D01*
X228925Y773337D01*
X229359Y772584D01*
X229974Y771970D01*
X230726Y771535D01*
X231565Y771310D01*
X232435D01*
X233274Y771535D01*
X234026Y771970D01*
X234641Y772584D01*
X235075Y773337D01*
X235300Y774176D01*
Y775045D01*
X235075Y775884D01*
X234641Y776637D01*
X234026Y777251D01*
X233846Y777355D01*
X233822Y777380D01*
X233604Y777531D01*
X233434Y777666D01*
X233293Y777798D01*
X233178Y777925D01*
X233087Y778047D01*
X233019Y778162D01*
X232969Y778274D01*
X232935Y778383D01*
X232918Y778475D01*
Y819425D01*
X232934Y819521D01*
X232970Y819650D01*
X233024Y819791D01*
X233099Y819943D01*
X233195Y820107D01*
X233309Y820271D01*
X233636Y820662D01*
X233834Y820866D01*
X233875Y820928D01*
X234141Y821194D01*
X234575Y821947D01*
X234800Y822786D01*
Y823655D01*
X234575Y824494D01*
X234141Y825247D01*
X233526Y825861D01*
X232774Y826296D01*
X231934Y826521D01*
D02*
G37*
G36*
X117696Y815306D02*
X109304D01*
Y806915D01*
X112068D01*
X112076Y806868D01*
X112082Y806798D01*
Y805198D01*
X76019Y769134D01*
X53269D01*
X53135Y769634D01*
X53442Y769812D01*
X53794Y770164D01*
X53852Y770200D01*
X54511Y770825D01*
X54797Y771062D01*
X55072Y771266D01*
X55327Y771433D01*
X55561Y771563D01*
X55771Y771657D01*
X55956Y771718D01*
X56114Y771751D01*
X56117Y771751D01*
X62559D01*
X63102Y771859D01*
X63561Y772167D01*
X97003Y805608D01*
X97310Y806068D01*
X97418Y806610D01*
Y806864D01*
X97422Y806915D01*
X100196D01*
Y815306D01*
X91804D01*
Y806915D01*
X93646D01*
X93837Y806453D01*
X61972Y774587D01*
X56117D01*
X56114Y774587D01*
X55956Y774620D01*
X55771Y774682D01*
X55561Y774776D01*
X55327Y774906D01*
X55072Y775072D01*
X54805Y775271D01*
X54190Y775806D01*
X53864Y776127D01*
X53800Y776169D01*
X53442Y776527D01*
X52486Y777079D01*
X51419Y777365D01*
X50314D01*
X49247Y777079D01*
X48290Y776527D01*
X47938Y776175D01*
X47880Y776138D01*
X47221Y775514D01*
X46935Y775277D01*
X46661Y775072D01*
X46406Y774906D01*
X46171Y774776D01*
X45961Y774682D01*
X45776Y774620D01*
X45618Y774587D01*
X45615Y774587D01*
X43269D01*
X43135Y775087D01*
X43442Y775265D01*
X44224Y776046D01*
X44776Y777003D01*
X45062Y778070D01*
Y779174D01*
X44776Y780241D01*
X44224Y781198D01*
X43442Y781979D01*
X42486Y782532D01*
X41419Y782818D01*
X40314D01*
X39247Y782532D01*
X38290Y781979D01*
X37509Y781198D01*
X36957Y780241D01*
X36671Y779174D01*
Y778070D01*
X36957Y777003D01*
X37509Y776046D01*
X38290Y775265D01*
X38860Y774936D01*
X38876Y774884D01*
X38842Y774369D01*
X38548Y774172D01*
X24997Y760622D01*
X24690Y760162D01*
X24582Y759619D01*
Y707826D01*
X24690Y707284D01*
X24997Y706824D01*
X26082Y705739D01*
Y657295D01*
X26066Y657199D01*
X26030Y657070D01*
X25976Y656929D01*
X25901Y656777D01*
X25804Y656614D01*
X25691Y656450D01*
X25364Y656058D01*
X25166Y655855D01*
X25125Y655792D01*
X24859Y655526D01*
X24425Y654774D01*
X24200Y653934D01*
Y653065D01*
X24425Y652226D01*
X24859Y651474D01*
X25474Y650859D01*
X26226Y650425D01*
X27066Y650200D01*
X27934D01*
X28774Y650425D01*
X29526Y650859D01*
X30141Y651474D01*
X30575Y652226D01*
X30800Y653065D01*
Y653934D01*
X30575Y654774D01*
X30141Y655526D01*
X29875Y655792D01*
X29834Y655855D01*
X29628Y656066D01*
X29459Y656257D01*
X29315Y656440D01*
X29195Y656614D01*
X29099Y656777D01*
X29024Y656929D01*
X28970Y657070D01*
X28934Y657199D01*
X28918Y657295D01*
Y706326D01*
X28810Y706869D01*
X28503Y707329D01*
X27418Y708414D01*
Y759032D01*
X36171Y767785D01*
X36187Y767784D01*
X36271Y767770D01*
X36651Y767558D01*
X36631Y766797D01*
X36597Y766427D01*
X36547Y766089D01*
X36484Y765790D01*
X36410Y765533D01*
X36328Y765317D01*
X36241Y765143D01*
X36153Y765008D01*
X36151Y765006D01*
X32998Y761853D01*
X32690Y761393D01*
X32582Y760850D01*
Y645087D01*
X31181Y643686D01*
X31102Y643630D01*
X30985Y643564D01*
X30847Y643503D01*
X30687Y643448D01*
X30503Y643401D01*
X30307Y643365D01*
X29799Y643319D01*
X29515Y643316D01*
X29442Y643300D01*
X29066D01*
X28226Y643075D01*
X27474Y642641D01*
X26859Y642026D01*
X26425Y641274D01*
X26200Y640435D01*
Y639566D01*
X26425Y638726D01*
X26859Y637974D01*
X27474Y637359D01*
X28226Y636925D01*
X29066Y636700D01*
X29934D01*
X30774Y636925D01*
X31526Y637359D01*
X32141Y637974D01*
X32575Y638726D01*
X32800Y639566D01*
Y639942D01*
X32816Y640015D01*
X32819Y640310D01*
X32835Y640564D01*
X32863Y640795D01*
X32901Y641003D01*
X32948Y641187D01*
X33003Y641347D01*
X33064Y641485D01*
X33130Y641602D01*
X33186Y641681D01*
X35002Y643498D01*
X35310Y643957D01*
X35418Y644500D01*
Y760263D01*
X38156Y763001D01*
X38158Y763003D01*
X38293Y763092D01*
X38467Y763179D01*
X38682Y763261D01*
X38940Y763335D01*
X39238Y763397D01*
X39567Y763446D01*
X40380Y763502D01*
X40839Y763506D01*
X40913Y763521D01*
X41419D01*
X42486Y763807D01*
X43442Y764359D01*
X43794Y764711D01*
X43852Y764748D01*
X44511Y765372D01*
X44797Y765609D01*
X45072Y765814D01*
X45327Y765980D01*
X45561Y766110D01*
X45772Y766204D01*
X45956Y766266D01*
X46114Y766299D01*
X46117Y766299D01*
X48464D01*
X48598Y765799D01*
X48290Y765621D01*
X47509Y764840D01*
X46957Y763883D01*
X46670Y762816D01*
Y761712D01*
X46957Y760644D01*
X47509Y759688D01*
X48290Y758907D01*
X48598Y758729D01*
X48464Y758229D01*
X46117D01*
X46114Y758229D01*
X45956Y758262D01*
X45771Y758323D01*
X45561Y758418D01*
X45327Y758547D01*
X45072Y758714D01*
X44805Y758913D01*
X44190Y759447D01*
X43863Y759769D01*
X43800Y759811D01*
X43442Y760168D01*
X42486Y760721D01*
X41419Y761007D01*
X40314D01*
X39247Y760721D01*
X38290Y760168D01*
X37509Y759387D01*
X36957Y758430D01*
X36671Y757363D01*
Y756259D01*
X36957Y755192D01*
X37509Y754235D01*
X38290Y753454D01*
X39247Y752901D01*
X40314Y752615D01*
X41419D01*
X42486Y752901D01*
X43442Y753454D01*
X43794Y753805D01*
X43852Y753842D01*
X44511Y754467D01*
X44797Y754704D01*
X45072Y754908D01*
X45327Y755075D01*
X45561Y755204D01*
X45772Y755299D01*
X45956Y755360D01*
X46114Y755393D01*
X46117Y755393D01*
X48464D01*
X48598Y754893D01*
X48290Y754716D01*
X47509Y753934D01*
X46957Y752978D01*
X46670Y751911D01*
Y750806D01*
X46957Y749739D01*
X47509Y748782D01*
X48290Y748001D01*
X49247Y747448D01*
X50314Y747163D01*
X51419D01*
X52486Y747448D01*
X53442Y748001D01*
X53794Y748353D01*
X53852Y748389D01*
X54511Y749014D01*
X54797Y749251D01*
X55072Y749455D01*
X55327Y749622D01*
X55561Y749752D01*
X55771Y749846D01*
X55956Y749907D01*
X56114Y749940D01*
X56117Y749940D01*
X56665D01*
X57998Y748608D01*
X58457Y748300D01*
X59000Y748193D01*
X84380D01*
X84453Y748180D01*
X84506Y748162D01*
X84528Y748150D01*
X84535Y748145D01*
X84540Y748139D01*
X84552Y748116D01*
X84569Y748063D01*
X84582Y747990D01*
Y630697D01*
X58498Y604613D01*
X58190Y604153D01*
X58082Y603610D01*
Y556198D01*
X57810Y555926D01*
X56117D01*
X56114Y555926D01*
X55956Y555959D01*
X55771Y556020D01*
X55561Y556114D01*
X55327Y556244D01*
X55072Y556411D01*
X54805Y556609D01*
X54190Y557144D01*
X53864Y557466D01*
X53800Y557508D01*
X53442Y557865D01*
X52486Y558418D01*
X51419Y558704D01*
X50314D01*
X49247Y558418D01*
X48290Y557865D01*
X47509Y557084D01*
X46957Y556127D01*
X46670Y555060D01*
Y553956D01*
X46957Y552888D01*
X47509Y551932D01*
X48290Y551151D01*
X49247Y550598D01*
X50314Y550312D01*
X51419D01*
X52486Y550598D01*
X53442Y551151D01*
X53794Y551502D01*
X53852Y551539D01*
X54511Y552164D01*
X54797Y552400D01*
X55072Y552605D01*
X55327Y552772D01*
X55561Y552901D01*
X55771Y552995D01*
X55956Y553057D01*
X56114Y553090D01*
X56117Y553090D01*
X58398D01*
X58940Y553198D01*
X59400Y553505D01*
X60502Y554608D01*
X60810Y555068D01*
X60918Y555610D01*
Y603023D01*
X87002Y629108D01*
X87310Y629568D01*
X87418Y630110D01*
Y748401D01*
X87431Y748522D01*
X87461Y748677D01*
X87502Y748825D01*
X87554Y748967D01*
X87617Y749104D01*
X87693Y749237D01*
X87782Y749368D01*
X87857Y749463D01*
X134502Y796108D01*
X134810Y796568D01*
X134918Y797110D01*
Y797315D01*
X134934Y797411D01*
X134970Y797540D01*
X135024Y797681D01*
X135099Y797833D01*
X135195Y797997D01*
X135309Y798160D01*
X135636Y798552D01*
X135834Y798756D01*
X135875Y798818D01*
X136141Y799084D01*
X136575Y799836D01*
X136800Y800676D01*
Y801545D01*
X136575Y802384D01*
X136141Y803137D01*
X135526Y803751D01*
X134774Y804185D01*
X133934Y804410D01*
X133066D01*
X132226Y804185D01*
X131474Y803751D01*
X130859Y803137D01*
X130425Y802384D01*
X130200Y801545D01*
Y800676D01*
X130425Y799836D01*
X130859Y799084D01*
X131125Y798818D01*
X131166Y798756D01*
X131372Y798544D01*
X131541Y798353D01*
X131685Y798170D01*
X131805Y797997D01*
X131901Y797833D01*
X131976Y797681D01*
X132001Y797616D01*
X85852Y751468D01*
X85758Y751392D01*
X85627Y751303D01*
X85494Y751227D01*
X85356Y751164D01*
X85215Y751112D01*
X85067Y751071D01*
X84911Y751041D01*
X84791Y751028D01*
X59587D01*
X58254Y752361D01*
X57795Y752668D01*
X57252Y752776D01*
X56117D01*
X56114Y752776D01*
X55956Y752809D01*
X55771Y752871D01*
X55561Y752965D01*
X55327Y753095D01*
X55072Y753261D01*
X54805Y753460D01*
X54190Y753995D01*
X53864Y754316D01*
X53800Y754358D01*
X53442Y754716D01*
X53135Y754893D01*
X53269Y755393D01*
X85701D01*
X86243Y755501D01*
X86703Y755808D01*
X107197Y776303D01*
X107505Y776763D01*
X107613Y777305D01*
Y784218D01*
X131319Y807924D01*
X131398Y807981D01*
X131515Y808046D01*
X131653Y808107D01*
X131813Y808162D01*
X131997Y808210D01*
X132193Y808245D01*
X132701Y808291D01*
X132985Y808295D01*
X133058Y808310D01*
X133434D01*
X134274Y808535D01*
X135026Y808970D01*
X135641Y809584D01*
X136075Y810336D01*
X136300Y811176D01*
Y812045D01*
X136075Y812884D01*
X135641Y813636D01*
X135026Y814251D01*
X134274Y814685D01*
X133434Y814910D01*
X132566D01*
X131726Y814685D01*
X130974Y814251D01*
X130359Y813636D01*
X129925Y812884D01*
X129700Y812045D01*
Y811669D01*
X129684Y811596D01*
X129681Y811300D01*
X129665Y811046D01*
X129637Y810815D01*
X129599Y810607D01*
X129552Y810423D01*
X129497Y810263D01*
X129436Y810125D01*
X129370Y810009D01*
X129314Y809929D01*
X105192Y785808D01*
X104885Y785348D01*
X104777Y784805D01*
Y777892D01*
X85114Y758229D01*
X53269D01*
X53135Y758729D01*
X53442Y758907D01*
X54224Y759688D01*
X54776Y760644D01*
X55062Y761712D01*
Y762816D01*
X54776Y763883D01*
X54224Y764840D01*
X53442Y765621D01*
X53135Y765799D01*
X53269Y766299D01*
X76606D01*
X77149Y766407D01*
X77609Y766714D01*
X114503Y803608D01*
X114810Y804068D01*
X114918Y804610D01*
Y806798D01*
X114924Y806868D01*
X114932Y806915D01*
X117696D01*
Y815306D01*
D02*
G37*
G36*
X41866Y750188D02*
Y746905D01*
X45149D01*
X44962Y747602D01*
X44384Y748604D01*
X43565Y749423D01*
X42563Y750002D01*
X41866Y750188D01*
D02*
G37*
G36*
X39866D02*
X39169Y750002D01*
X38167Y749423D01*
X37349Y748604D01*
X36770Y747602D01*
X36583Y746905D01*
X39866D01*
Y750188D01*
D02*
G37*
G36*
X45149Y744905D02*
X41866D01*
Y741623D01*
X42563Y741809D01*
X43565Y742388D01*
X44384Y743206D01*
X44962Y744209D01*
X45149Y744905D01*
D02*
G37*
G36*
X39866D02*
X36583D01*
X36770Y744209D01*
X37349Y743206D01*
X38167Y742388D01*
X39169Y741809D01*
X39866Y741623D01*
Y744905D01*
D02*
G37*
G36*
X51866Y744736D02*
Y741453D01*
X55149D01*
X54962Y742149D01*
X54384Y743152D01*
X53565Y743970D01*
X52563Y744549D01*
X51866Y744736D01*
D02*
G37*
G36*
X49866Y744736D02*
X49169Y744549D01*
X48167Y743970D01*
X47349Y743152D01*
X46770Y742149D01*
X46583Y741453D01*
X49866D01*
Y744736D01*
D02*
G37*
G36*
X55149Y739453D02*
X51866D01*
Y736170D01*
X52563Y736357D01*
X53565Y736935D01*
X54384Y737754D01*
X54962Y738756D01*
X55149Y739453D01*
D02*
G37*
G36*
X49866D02*
X46583D01*
X46770Y738756D01*
X47349Y737754D01*
X48167Y736935D01*
X49169Y736357D01*
X49866Y736170D01*
Y739453D01*
D02*
G37*
G36*
X41866Y739283D02*
Y736000D01*
X45149D01*
X44962Y736697D01*
X44384Y737699D01*
X43565Y738518D01*
X42563Y739096D01*
X41866Y739283D01*
D02*
G37*
G36*
X39866Y739283D02*
X39169Y739096D01*
X38167Y738518D01*
X37349Y737699D01*
X36770Y736697D01*
X36583Y736000D01*
X39866D01*
Y739283D01*
D02*
G37*
G36*
X45149Y734000D02*
X41866D01*
Y730717D01*
X42563Y730904D01*
X43565Y731483D01*
X44384Y732301D01*
X44962Y733303D01*
X45149Y734000D01*
D02*
G37*
G36*
X39866D02*
X36583D01*
X36770Y733303D01*
X37349Y732301D01*
X38167Y731483D01*
X39169Y730904D01*
X39866Y730717D01*
Y734000D01*
D02*
G37*
G36*
X373140Y741942D02*
X371742D01*
X370370Y741669D01*
X369078Y741134D01*
X367916Y740357D01*
X366927Y739368D01*
X366150Y738205D01*
X365615Y736913D01*
X365342Y735542D01*
Y734143D01*
X365615Y732772D01*
X366150Y731480D01*
X366927Y730317D01*
X367916Y729328D01*
X369078Y728551D01*
X370370Y728016D01*
X371742Y727743D01*
X373140D01*
X374512Y728016D01*
X375804Y728551D01*
X376967Y729328D01*
X377955Y730317D01*
X378732Y731480D01*
X379267Y732772D01*
X379540Y734143D01*
Y735542D01*
X379267Y736913D01*
X378732Y738205D01*
X377955Y739368D01*
X376967Y740357D01*
X375804Y741134D01*
X374512Y741669D01*
X373140Y741942D01*
D02*
G37*
G36*
X55062Y733743D02*
X46670D01*
Y725352D01*
X55062D01*
Y733743D01*
D02*
G37*
G36*
X46772Y711324D02*
X44960D01*
X43183Y710970D01*
X41510Y710277D01*
X40003Y709270D01*
X38722Y707989D01*
X37715Y706483D01*
X37022Y704809D01*
X36669Y703032D01*
Y701220D01*
X37022Y699443D01*
X37715Y697769D01*
X38722Y696263D01*
X40003Y694982D01*
X41510Y693975D01*
X43183Y693282D01*
X44960Y692928D01*
X46772D01*
X48549Y693282D01*
X50223Y693975D01*
X51729Y694982D01*
X53010Y696263D01*
X54017Y697769D01*
X54710Y699443D01*
X55064Y701220D01*
Y703032D01*
X54710Y704809D01*
X54017Y706483D01*
X53010Y707989D01*
X51729Y709270D01*
X50223Y710277D01*
X48549Y710970D01*
X46772Y711324D01*
D02*
G37*
G36*
X348741Y696835D02*
X346929D01*
X345152Y696482D01*
X343478Y695789D01*
X341971Y694782D01*
X340690Y693501D01*
X339684Y691994D01*
X338990Y690321D01*
X338637Y688544D01*
Y686732D01*
X338990Y684955D01*
X339684Y683281D01*
X340690Y681775D01*
X341971Y680493D01*
X343478Y679487D01*
X345152Y678794D01*
X346929Y678440D01*
X348741D01*
X350518Y678794D01*
X352191Y679487D01*
X353698Y680493D01*
X354979Y681775D01*
X355985Y683281D01*
X356679Y684955D01*
X357032Y686732D01*
Y688544D01*
X356679Y690321D01*
X355985Y691994D01*
X354979Y693501D01*
X353698Y694782D01*
X352191Y695789D01*
X350518Y696482D01*
X348741Y696835D01*
D02*
G37*
G36*
X347030Y664412D02*
X338639D01*
Y656021D01*
X347030D01*
Y664412D01*
D02*
G37*
G36*
X248935Y658300D02*
X248065D01*
X247226Y658075D01*
X246474Y657641D01*
X246208Y657375D01*
X246145Y657334D01*
X245934Y657128D01*
X245743Y656959D01*
X245560Y656815D01*
X245386Y656696D01*
X245223Y656599D01*
X245071Y656524D01*
X244930Y656470D01*
X244801Y656434D01*
X244705Y656418D01*
X122390D01*
X121847Y656310D01*
X121387Y656003D01*
X67681Y602296D01*
X67602Y602240D01*
X67485Y602174D01*
X67347Y602113D01*
X67187Y602058D01*
X67003Y602011D01*
X66807Y601975D01*
X66299Y601929D01*
X66015Y601926D01*
X65942Y601910D01*
X65566D01*
X64726Y601685D01*
X63974Y601251D01*
X63359Y600636D01*
X62925Y599884D01*
X62700Y599045D01*
Y598176D01*
X62925Y597336D01*
X63359Y596584D01*
X63974Y595970D01*
X64553Y595635D01*
X64562Y595611D01*
Y595109D01*
X64553Y595085D01*
X63974Y594751D01*
X63359Y594136D01*
X62925Y593384D01*
X62700Y592545D01*
Y591676D01*
X62925Y590836D01*
X63359Y590084D01*
X63974Y589470D01*
X64726Y589035D01*
X65566Y588810D01*
X66435D01*
X67274Y589035D01*
X68026Y589470D01*
X68641Y590084D01*
X69075Y590836D01*
X69300Y591676D01*
Y592052D01*
X69315Y592125D01*
X69319Y592420D01*
X69335Y592675D01*
X69363Y592906D01*
X69401Y593113D01*
X69448Y593297D01*
X69503Y593457D01*
X69564Y593595D01*
X69630Y593712D01*
X69686Y593791D01*
X122977Y647082D01*
X237287D01*
X237383Y647066D01*
X237512Y647030D01*
X237653Y646976D01*
X237805Y646901D01*
X237968Y646805D01*
X238132Y646691D01*
X238524Y646364D01*
X238727Y646166D01*
X238790Y646125D01*
X239056Y645859D01*
X239809Y645425D01*
X240648Y645200D01*
X241517D01*
X242356Y645425D01*
X243109Y645859D01*
X243723Y646474D01*
X244157Y647226D01*
X244382Y648066D01*
Y648935D01*
X244157Y649774D01*
X243723Y650526D01*
X243109Y651141D01*
X242356Y651575D01*
X241517Y651800D01*
X240648D01*
X239809Y651575D01*
X239056Y651141D01*
X238790Y650875D01*
X238727Y650834D01*
X238516Y650628D01*
X238325Y650459D01*
X238142Y650315D01*
X237968Y650196D01*
X237805Y650099D01*
X237653Y650024D01*
X237512Y649970D01*
X237383Y649934D01*
X237287Y649918D01*
X122390D01*
X121847Y649810D01*
X121387Y649503D01*
X69729Y597844D01*
X69280Y598103D01*
X69300Y598176D01*
Y598552D01*
X69315Y598625D01*
X69319Y598920D01*
X69335Y599175D01*
X69363Y599405D01*
X69401Y599613D01*
X69448Y599797D01*
X69503Y599957D01*
X69564Y600095D01*
X69630Y600212D01*
X69686Y600291D01*
X122977Y653582D01*
X244705D01*
X244801Y653566D01*
X244930Y653530D01*
X245071Y653476D01*
X245223Y653401D01*
X245386Y653304D01*
X245550Y653191D01*
X245942Y652864D01*
X246145Y652666D01*
X246208Y652625D01*
X246474Y652359D01*
X247226Y651925D01*
X248065Y651700D01*
X248935D01*
X249774Y651925D01*
X250526Y652359D01*
X251141Y652974D01*
X251575Y653726D01*
X251800Y654565D01*
Y655435D01*
X251575Y656274D01*
X251141Y657026D01*
X250526Y657641D01*
X249774Y658075D01*
X248935Y658300D01*
D02*
G37*
G36*
X353387Y658959D02*
X352282D01*
X351215Y658673D01*
X350258Y658121D01*
X349477Y657340D01*
X348925Y656383D01*
X348639Y655316D01*
Y654211D01*
X348925Y653144D01*
X349477Y652188D01*
X350258Y651406D01*
X351215Y650854D01*
X352282Y650568D01*
X353387D01*
X354454Y650854D01*
X355411Y651406D01*
X356192Y652188D01*
X356744Y653144D01*
X357030Y654211D01*
Y655316D01*
X356744Y656383D01*
X356192Y657340D01*
X355411Y658121D01*
X354454Y658673D01*
X353387Y658959D01*
D02*
G37*
G36*
X343387Y653507D02*
X342282D01*
X341215Y653221D01*
X340258Y652668D01*
X339477Y651887D01*
X338925Y650931D01*
X338639Y649863D01*
Y648759D01*
X338925Y647692D01*
X339477Y646735D01*
X340258Y645954D01*
X341215Y645401D01*
X342282Y645115D01*
X343387D01*
X344454Y645401D01*
X345411Y645954D01*
X346192Y646735D01*
X346744Y647692D01*
X347030Y648759D01*
Y649863D01*
X346744Y650931D01*
X346192Y651887D01*
X345411Y652668D01*
X344454Y653221D01*
X343387Y653507D01*
D02*
G37*
G36*
X353387Y648054D02*
X352282D01*
X351215Y647768D01*
X350258Y647216D01*
X349477Y646434D01*
X348925Y645478D01*
X348639Y644411D01*
Y643306D01*
X348925Y642239D01*
X349477Y641282D01*
X350258Y640501D01*
X351215Y639949D01*
X352282Y639663D01*
X353387D01*
X354454Y639949D01*
X355411Y640501D01*
X356192Y641282D01*
X356744Y642239D01*
X357030Y643306D01*
Y644411D01*
X356744Y645478D01*
X356192Y646434D01*
X355411Y647216D01*
X354454Y647768D01*
X353387Y648054D01*
D02*
G37*
G36*
X46772Y645654D02*
X44960D01*
X43183Y645301D01*
X41510Y644607D01*
X40003Y643601D01*
X38722Y642320D01*
X37715Y640813D01*
X37022Y639140D01*
X36669Y637362D01*
Y635551D01*
X37022Y633774D01*
X37715Y632100D01*
X38722Y630593D01*
X40003Y629312D01*
X41510Y628306D01*
X43183Y627612D01*
X44960Y627259D01*
X46772D01*
X48549Y627612D01*
X50223Y628306D01*
X51729Y629312D01*
X53010Y630593D01*
X53521Y631358D01*
X53571Y631405D01*
X54985Y633415D01*
X55637Y634223D01*
X56267Y634920D01*
X56866Y635498D01*
X57430Y635958D01*
X57953Y636301D01*
X58429Y636532D01*
X58855Y636660D01*
X59166Y636692D01*
X74330D01*
X74425Y636337D01*
X74859Y635584D01*
X75474Y634970D01*
X76226Y634535D01*
X77065Y634310D01*
X77934D01*
X78774Y634535D01*
X79526Y634970D01*
X80141Y635584D01*
X80575Y636337D01*
X80800Y637176D01*
Y638045D01*
X80575Y638884D01*
X80141Y639637D01*
X79526Y640251D01*
X78774Y640685D01*
X77934Y640910D01*
X77065D01*
X76226Y640685D01*
X75474Y640251D01*
X74859Y639637D01*
X74766Y639475D01*
X74500Y639528D01*
X58964D01*
X58817Y639547D01*
X58457Y639658D01*
X57977Y639855D01*
X52353Y643197D01*
X51043Y644078D01*
X51042Y644078D01*
X51040Y644080D01*
X50968Y644110D01*
X50223Y644607D01*
X48549Y645301D01*
X46772Y645654D01*
D02*
G37*
G36*
X343387Y642601D02*
X342282D01*
X341215Y642315D01*
X340258Y641763D01*
X339477Y640982D01*
X338925Y640025D01*
X338639Y638958D01*
Y637853D01*
X338925Y636786D01*
X339477Y635829D01*
X340258Y635048D01*
X341215Y634496D01*
X342282Y634210D01*
X343387D01*
X344454Y634496D01*
X345411Y635048D01*
X346192Y635829D01*
X346744Y636786D01*
X347030Y637853D01*
Y638958D01*
X346744Y640025D01*
X346192Y640982D01*
X345411Y641763D01*
X344454Y642315D01*
X343387Y642601D01*
D02*
G37*
G36*
X205434Y635910D02*
X204566D01*
X203726Y635685D01*
X202974Y635251D01*
X202708Y634985D01*
X202645Y634944D01*
X202434Y634738D01*
X202243Y634570D01*
X202060Y634425D01*
X201886Y634306D01*
X201723Y634209D01*
X201571Y634134D01*
X201430Y634080D01*
X201301Y634044D01*
X201205Y634028D01*
X155000D01*
X154457Y633920D01*
X153998Y633613D01*
X59952Y539567D01*
X53269D01*
X53135Y540067D01*
X53442Y540245D01*
X54224Y541026D01*
X54776Y541983D01*
X55062Y543050D01*
Y544155D01*
X54776Y545222D01*
X54224Y546179D01*
X53442Y546960D01*
X52486Y547512D01*
X51419Y547798D01*
X50314D01*
X49247Y547512D01*
X48290Y546960D01*
X47509Y546179D01*
X46957Y545222D01*
X46670Y544155D01*
Y543050D01*
X46957Y541983D01*
X47509Y541026D01*
X48290Y540245D01*
X48598Y540067D01*
X48464Y539567D01*
X46117D01*
X46114Y539568D01*
X45956Y539601D01*
X45771Y539662D01*
X45561Y539756D01*
X45327Y539886D01*
X45072Y540053D01*
X44805Y540251D01*
X44190Y540786D01*
X43863Y541108D01*
X43800Y541150D01*
X43442Y541507D01*
X42486Y542059D01*
X41419Y542345D01*
X40314D01*
X39247Y542059D01*
X38290Y541507D01*
X37509Y540726D01*
X36957Y539769D01*
X36671Y538702D01*
Y537597D01*
X36957Y536530D01*
X37509Y535573D01*
X37861Y535222D01*
X37897Y535164D01*
X38522Y534504D01*
X38759Y534219D01*
X38963Y533944D01*
X39130Y533689D01*
X39260Y533455D01*
X39354Y533244D01*
X39415Y533060D01*
X39448Y532902D01*
X39448Y532899D01*
Y531744D01*
X39556Y531202D01*
X39864Y530742D01*
X42675Y527930D01*
X42675Y527930D01*
X60582Y510023D01*
Y391485D01*
X45507Y376410D01*
X45303Y376220D01*
X45138Y376087D01*
X45037Y376017D01*
X38865D01*
Y367763D01*
X47119D01*
Y373934D01*
X47183Y374027D01*
X47462Y374354D01*
X63003Y389895D01*
X63310Y390355D01*
X63418Y390898D01*
Y510610D01*
X63310Y511153D01*
X63003Y511613D01*
X46574Y528041D01*
X46821Y528501D01*
X47108Y528501D01*
X55062D01*
Y536732D01*
X60539D01*
X61082Y536840D01*
X61542Y537147D01*
X155587Y631192D01*
X201205D01*
X201301Y631176D01*
X201430Y631140D01*
X201571Y631086D01*
X201723Y631011D01*
X201886Y630915D01*
X202050Y630802D01*
X202442Y630475D01*
X202645Y630276D01*
X202708Y630235D01*
X202974Y629970D01*
X203726Y629535D01*
X204566Y629310D01*
X205434D01*
X206274Y629535D01*
X207026Y629970D01*
X207641Y630584D01*
X208075Y631336D01*
X208300Y632176D01*
Y633045D01*
X208075Y633884D01*
X207641Y634636D01*
X207026Y635251D01*
X206274Y635685D01*
X205434Y635910D01*
D02*
G37*
G36*
X353387Y637148D02*
X352282D01*
X351215Y636863D01*
X350258Y636310D01*
X349477Y635529D01*
X348925Y634572D01*
X348639Y633505D01*
Y632400D01*
X348925Y631333D01*
X349477Y630377D01*
X350258Y629595D01*
X351215Y629043D01*
X352282Y628757D01*
X353387D01*
X354454Y629043D01*
X355411Y629595D01*
X356192Y630377D01*
X356744Y631333D01*
X357030Y632400D01*
Y633505D01*
X356744Y634572D01*
X356192Y635529D01*
X355411Y636310D01*
X354454Y636863D01*
X353387Y637148D01*
D02*
G37*
G36*
X343387Y631696D02*
X342282D01*
X341215Y631410D01*
X340258Y630857D01*
X339477Y630076D01*
X338925Y629119D01*
X338639Y628052D01*
Y626948D01*
X338925Y625880D01*
X339477Y624924D01*
X340258Y624143D01*
X341215Y623590D01*
X342282Y623304D01*
X343387D01*
X344454Y623590D01*
X345411Y624143D01*
X346192Y624924D01*
X346744Y625880D01*
X347030Y626948D01*
Y628052D01*
X346744Y629119D01*
X346192Y630076D01*
X345411Y630857D01*
X344454Y631410D01*
X343387Y631696D01*
D02*
G37*
G36*
X353387Y626243D02*
X352282D01*
X351215Y625957D01*
X350258Y625405D01*
X349477Y624623D01*
X348925Y623667D01*
X348639Y622600D01*
Y621495D01*
X348925Y620428D01*
X349477Y619471D01*
X350258Y618690D01*
X351215Y618138D01*
X352282Y617852D01*
X353387D01*
X354454Y618138D01*
X355411Y618690D01*
X356192Y619471D01*
X356744Y620428D01*
X357030Y621495D01*
Y622600D01*
X356744Y623667D01*
X356192Y624623D01*
X355411Y625405D01*
X354454Y625957D01*
X353387Y626243D01*
D02*
G37*
G36*
X343387Y620790D02*
X342282D01*
X341215Y620504D01*
X340258Y619952D01*
X339477Y619171D01*
X338925Y618214D01*
X338639Y617147D01*
Y616042D01*
X338925Y614975D01*
X339477Y614018D01*
X340258Y613237D01*
X341215Y612685D01*
X342282Y612399D01*
X343387D01*
X344454Y612685D01*
X345411Y613237D01*
X346192Y614018D01*
X346744Y614975D01*
X347030Y616042D01*
Y617147D01*
X346744Y618214D01*
X346192Y619171D01*
X345411Y619952D01*
X344454Y620504D01*
X343387Y620790D01*
D02*
G37*
G36*
X353387Y615337D02*
X352282D01*
X351215Y615052D01*
X350258Y614499D01*
X349477Y613718D01*
X348925Y612761D01*
X348639Y611694D01*
Y610589D01*
X348925Y609522D01*
X349477Y608566D01*
X350258Y607784D01*
X351215Y607232D01*
X352282Y606946D01*
X353387D01*
X354454Y607232D01*
X355411Y607784D01*
X356192Y608566D01*
X356744Y609522D01*
X357030Y610589D01*
Y611694D01*
X356744Y612761D01*
X356192Y613718D01*
X355411Y614499D01*
X354454Y615052D01*
X353387Y615337D01*
D02*
G37*
G36*
X41866Y607865D02*
Y604583D01*
X45149D01*
X44962Y605279D01*
X44384Y606282D01*
X43565Y607100D01*
X42563Y607679D01*
X41866Y607865D01*
D02*
G37*
G36*
X39866D02*
X39169Y607679D01*
X38167Y607100D01*
X37349Y606282D01*
X36770Y605279D01*
X36583Y604583D01*
X39866D01*
Y607865D01*
D02*
G37*
G36*
X343387Y609885D02*
X342282D01*
X341215Y609599D01*
X340258Y609046D01*
X339907Y608695D01*
X339849Y608658D01*
X339189Y608033D01*
X338904Y607796D01*
X338629Y607592D01*
X338374Y607425D01*
X338140Y607296D01*
X337929Y607201D01*
X337745Y607140D01*
X337587Y607107D01*
X337583Y607107D01*
X336189D01*
X335646Y606999D01*
X335186Y606692D01*
X331997Y603503D01*
X331690Y603043D01*
X331582Y602500D01*
Y458102D01*
X331690Y457560D01*
X331997Y457100D01*
X346073Y443024D01*
X346160Y442893D01*
X346245Y442723D01*
X346326Y442514D01*
X346398Y442264D01*
X346460Y441974D01*
X346507Y441655D01*
X346563Y440866D01*
X346566Y440420D01*
X346582Y440346D01*
Y439850D01*
X346863Y438801D01*
X347406Y437860D01*
X348175Y437091D01*
X349116Y436548D01*
X350165Y436267D01*
X351252D01*
X352302Y436548D01*
X353242Y437091D01*
X354011Y437860D01*
X354554Y438801D01*
X354835Y439850D01*
Y440937D01*
X354554Y441987D01*
X354011Y442928D01*
X353242Y443696D01*
X352302Y444239D01*
X351252Y444521D01*
X350764D01*
X350698Y444536D01*
X349815Y444560D01*
X349457Y444594D01*
X349128Y444642D01*
X348838Y444704D01*
X348588Y444777D01*
X348379Y444857D01*
X348210Y444943D01*
X348078Y445029D01*
X334418Y458690D01*
Y601913D01*
X336776Y604271D01*
X337583D01*
X337587Y604271D01*
X337745Y604238D01*
X337929Y604177D01*
X338140Y604082D01*
X338374Y603953D01*
X338629Y603786D01*
X338896Y603587D01*
X339510Y603053D01*
X339837Y602731D01*
X339901Y602689D01*
X340258Y602332D01*
X341215Y601779D01*
X342282Y601493D01*
X343387D01*
X344454Y601779D01*
X345411Y602332D01*
X346192Y603113D01*
X346744Y604070D01*
X347030Y605137D01*
Y606241D01*
X346744Y607308D01*
X346192Y608265D01*
X345411Y609046D01*
X344454Y609599D01*
X343387Y609885D01*
D02*
G37*
G36*
X45149Y602583D02*
X41866D01*
Y599300D01*
X42563Y599486D01*
X43565Y600065D01*
X44384Y600884D01*
X44962Y601886D01*
X45149Y602583D01*
D02*
G37*
G36*
X39866D02*
X36583D01*
X36770Y601886D01*
X37349Y600884D01*
X38167Y600065D01*
X39169Y599486D01*
X39866Y599300D01*
Y602583D01*
D02*
G37*
G36*
X353387Y604432D02*
X352282D01*
X351215Y604146D01*
X350258Y603594D01*
X349477Y602812D01*
X348925Y601856D01*
X348639Y600789D01*
Y599684D01*
X348925Y598617D01*
X349477Y597660D01*
X350258Y596879D01*
X351215Y596326D01*
X352282Y596040D01*
X353387D01*
X354454Y596326D01*
X355411Y596879D01*
X356192Y597660D01*
X356744Y598617D01*
X357030Y599684D01*
Y600789D01*
X356744Y601856D01*
X356192Y602812D01*
X355411Y603594D01*
X354454Y604146D01*
X353387Y604432D01*
D02*
G37*
G36*
X51419Y602325D02*
X50314D01*
X49247Y602040D01*
X48290Y601487D01*
X47509Y600706D01*
X46957Y599749D01*
X46670Y598682D01*
Y597577D01*
X46957Y596510D01*
X47509Y595554D01*
X48290Y594772D01*
X49247Y594220D01*
X50314Y593934D01*
X51419D01*
X52486Y594220D01*
X53442Y594772D01*
X54224Y595554D01*
X54776Y596510D01*
X55062Y597577D01*
Y598682D01*
X54776Y599749D01*
X54224Y600706D01*
X53442Y601487D01*
X52486Y602040D01*
X51419Y602325D01*
D02*
G37*
G36*
X343387Y598979D02*
X342282D01*
X341215Y598693D01*
X340258Y598141D01*
X339477Y597360D01*
X338925Y596403D01*
X338639Y595336D01*
Y594231D01*
X338925Y593164D01*
X339477Y592207D01*
X340258Y591426D01*
X341215Y590874D01*
X342282Y590588D01*
X343387D01*
X344454Y590874D01*
X345411Y591426D01*
X346192Y592207D01*
X346744Y593164D01*
X347030Y594231D01*
Y595336D01*
X346744Y596403D01*
X346192Y597360D01*
X345411Y598141D01*
X344454Y598693D01*
X343387Y598979D01*
D02*
G37*
G36*
X41419Y596873D02*
X40314D01*
X39247Y596587D01*
X38290Y596035D01*
X37509Y595253D01*
X36957Y594297D01*
X36671Y593230D01*
Y592125D01*
X36957Y591058D01*
X37509Y590101D01*
X38290Y589320D01*
X39247Y588767D01*
X40314Y588482D01*
X41419D01*
X42486Y588767D01*
X43442Y589320D01*
X44224Y590101D01*
X44776Y591058D01*
X45062Y592125D01*
Y593230D01*
X44776Y594297D01*
X44224Y595253D01*
X43442Y596035D01*
X42486Y596587D01*
X41419Y596873D01*
D02*
G37*
G36*
X353387Y593526D02*
X352282D01*
X351215Y593240D01*
X350258Y592688D01*
X349477Y591907D01*
X348925Y590950D01*
X348639Y589883D01*
Y588778D01*
X348925Y587711D01*
X349477Y586755D01*
X350258Y585973D01*
X351215Y585421D01*
X352282Y585135D01*
X353387D01*
X354454Y585421D01*
X355411Y585973D01*
X356192Y586755D01*
X356744Y587711D01*
X357030Y588778D01*
Y589883D01*
X356744Y590950D01*
X356192Y591907D01*
X355411Y592688D01*
X354454Y593240D01*
X353387Y593526D01*
D02*
G37*
G36*
X51419Y591420D02*
X50314D01*
X49247Y591134D01*
X48290Y590582D01*
X47509Y589801D01*
X46957Y588844D01*
X46670Y587777D01*
Y586672D01*
X46957Y585605D01*
X47509Y584648D01*
X48290Y583867D01*
X49247Y583315D01*
X50314Y583029D01*
X51419D01*
X52486Y583315D01*
X53442Y583867D01*
X54224Y584648D01*
X54776Y585605D01*
X55062Y586672D01*
Y587777D01*
X54776Y588844D01*
X54224Y589801D01*
X53442Y590582D01*
X52486Y591134D01*
X51419Y591420D01*
D02*
G37*
G36*
X343387Y588074D02*
X342282D01*
X341215Y587788D01*
X340258Y587235D01*
X339477Y586454D01*
X338925Y585497D01*
X338639Y584430D01*
Y583326D01*
X338925Y582259D01*
X339477Y581302D01*
X340258Y580521D01*
X341215Y579968D01*
X342282Y579682D01*
X343387D01*
X344454Y579968D01*
X345411Y580521D01*
X346192Y581302D01*
X346744Y582259D01*
X347030Y583326D01*
Y584430D01*
X346744Y585497D01*
X346192Y586454D01*
X345411Y587235D01*
X344454Y587788D01*
X343387Y588074D01*
D02*
G37*
G36*
X7434Y599800D02*
X6566D01*
X5726Y599575D01*
X4974Y599141D01*
X4359Y598526D01*
X3925Y597774D01*
X3700Y596935D01*
Y596066D01*
X3925Y595226D01*
X4359Y594474D01*
X4625Y594208D01*
X4666Y594145D01*
X4872Y593934D01*
X5041Y593743D01*
X5185Y593560D01*
X5305Y593386D01*
X5401Y593223D01*
X5476Y593071D01*
X5530Y592930D01*
X5566Y592801D01*
X5582Y592705D01*
Y583418D01*
X5690Y582876D01*
X5997Y582416D01*
X6689Y581724D01*
X7149Y581416D01*
X7692Y581309D01*
X33937D01*
X34129Y580847D01*
X32998Y579715D01*
X32690Y579255D01*
X32663Y579121D01*
X32141Y579026D01*
X31526Y579641D01*
X30774Y580075D01*
X29934Y580300D01*
X29066D01*
X28226Y580075D01*
X27474Y579641D01*
X26859Y579026D01*
X26425Y578274D01*
X26200Y577434D01*
Y576566D01*
X26425Y575726D01*
X26859Y574974D01*
X27125Y574708D01*
X27166Y574645D01*
X27372Y574434D01*
X27541Y574243D01*
X27685Y574060D01*
X27804Y573886D01*
X27901Y573723D01*
X27976Y573571D01*
X28030Y573430D01*
X28066Y573301D01*
X28082Y573205D01*
Y478500D01*
X28190Y477957D01*
X28497Y477497D01*
X51082Y454913D01*
Y425607D01*
X45623Y420148D01*
X45491Y420061D01*
X45322Y419975D01*
X45112Y419895D01*
X44862Y419822D01*
X44573Y419761D01*
X44254Y419713D01*
X43464Y419658D01*
X43019Y419654D01*
X42944Y419639D01*
X42449D01*
X41399Y419357D01*
X40458Y418814D01*
X39690Y418046D01*
X39147Y417105D01*
X38865Y416055D01*
Y414968D01*
X39147Y413919D01*
X39690Y412978D01*
X40458Y412210D01*
X41399Y411666D01*
X42449Y411385D01*
X43536D01*
X44585Y411666D01*
X45526Y412210D01*
X46294Y412978D01*
X46838Y413919D01*
X47119Y414968D01*
Y415456D01*
X47134Y415523D01*
X47158Y416405D01*
X47192Y416764D01*
X47241Y417093D01*
X47303Y417382D01*
X47375Y417632D01*
X47456Y417841D01*
X47541Y418011D01*
X47628Y418143D01*
X53503Y424017D01*
X53810Y424477D01*
X53918Y425020D01*
Y455500D01*
X53810Y456043D01*
X53503Y456502D01*
X30918Y479087D01*
Y573205D01*
X30934Y573301D01*
X30970Y573430D01*
X31024Y573571D01*
X31099Y573723D01*
X31196Y573886D01*
X31309Y574050D01*
X31636Y574442D01*
X31834Y574645D01*
X31875Y574708D01*
X32082Y574915D01*
X32326Y574875D01*
X32582Y574739D01*
Y533610D01*
X32690Y533068D01*
X32998Y532608D01*
X55875Y509730D01*
Y397684D01*
X45623Y387431D01*
X45491Y387344D01*
X45322Y387259D01*
X45112Y387178D01*
X44862Y387106D01*
X44573Y387044D01*
X44254Y386997D01*
X43464Y386941D01*
X43019Y386937D01*
X42944Y386922D01*
X42449D01*
X41399Y386641D01*
X40458Y386098D01*
X39690Y385329D01*
X39147Y384388D01*
X38865Y383338D01*
Y382252D01*
X39147Y381202D01*
X39690Y380261D01*
X40458Y379493D01*
X41399Y378950D01*
X42449Y378668D01*
X43536D01*
X44585Y378950D01*
X45526Y379493D01*
X46294Y380261D01*
X46838Y381202D01*
X47119Y382252D01*
Y382739D01*
X47134Y382806D01*
X47158Y383689D01*
X47192Y384047D01*
X47241Y384376D01*
X47303Y384665D01*
X47375Y384915D01*
X47456Y385125D01*
X47541Y385294D01*
X47628Y385426D01*
X58296Y396094D01*
X58603Y396554D01*
X58711Y397096D01*
Y510317D01*
X58603Y510860D01*
X58296Y511319D01*
X35418Y534198D01*
Y578126D01*
X36772Y579479D01*
X36779Y579486D01*
X36899Y579568D01*
X36982Y579607D01*
X37029Y579619D01*
X37056Y579619D01*
X37088Y579612D01*
X37146Y579586D01*
X37238Y579522D01*
X37359Y579408D01*
X37447Y579303D01*
X37509Y579195D01*
X38290Y578414D01*
X39247Y577862D01*
X40314Y577576D01*
X41419D01*
X42486Y577862D01*
X43442Y578414D01*
X44224Y579195D01*
X44776Y580152D01*
X45062Y581219D01*
Y582324D01*
X44776Y583391D01*
X44224Y584348D01*
X43442Y585129D01*
X42486Y585681D01*
X41419Y585967D01*
X40314D01*
X39247Y585681D01*
X38884Y585472D01*
X38820Y585452D01*
X37889Y584950D01*
X37111Y584571D01*
X36478Y584307D01*
X36236Y584224D01*
X36035Y584169D01*
X35905Y584144D01*
X8418D01*
Y592705D01*
X8434Y592801D01*
X8470Y592930D01*
X8524Y593071D01*
X8599Y593223D01*
X8696Y593386D01*
X8809Y593550D01*
X9136Y593942D01*
X9334Y594145D01*
X9375Y594208D01*
X9641Y594474D01*
X10075Y595226D01*
X10300Y596066D01*
Y596935D01*
X10075Y597774D01*
X9641Y598526D01*
X9026Y599141D01*
X8274Y599575D01*
X7434Y599800D01*
D02*
G37*
G36*
X51419Y580514D02*
X50314D01*
X49247Y580229D01*
X48290Y579676D01*
X47509Y578895D01*
X46957Y577938D01*
X46670Y576871D01*
Y575767D01*
X46957Y574699D01*
X47509Y573743D01*
X48290Y572962D01*
X49247Y572409D01*
X50314Y572123D01*
X51419D01*
X52486Y572409D01*
X53442Y572962D01*
X54224Y573743D01*
X54776Y574699D01*
X55062Y575767D01*
Y576871D01*
X54776Y577938D01*
X54224Y578895D01*
X53442Y579676D01*
X52486Y580229D01*
X51419Y580514D01*
D02*
G37*
G36*
X41419Y575062D02*
X40314D01*
X39247Y574776D01*
X38290Y574224D01*
X37509Y573442D01*
X36957Y572486D01*
X36671Y571419D01*
Y570314D01*
X36957Y569247D01*
X37509Y568290D01*
X38290Y567509D01*
X39247Y566957D01*
X40314Y566671D01*
X41419D01*
X42486Y566957D01*
X43442Y567509D01*
X44224Y568290D01*
X44776Y569247D01*
X45062Y570314D01*
Y571419D01*
X44776Y572486D01*
X44224Y573442D01*
X43442Y574224D01*
X42486Y574776D01*
X41419Y575062D01*
D02*
G37*
G36*
X51419Y569609D02*
X50314D01*
X49247Y569323D01*
X48290Y568771D01*
X47509Y567990D01*
X46957Y567033D01*
X46670Y565966D01*
Y564861D01*
X46957Y563794D01*
X47509Y562837D01*
X48290Y562056D01*
X49247Y561504D01*
X50314Y561218D01*
X51419D01*
X52486Y561504D01*
X53442Y562056D01*
X54224Y562837D01*
X54776Y563794D01*
X55062Y564861D01*
Y565966D01*
X54776Y567033D01*
X54224Y567990D01*
X53442Y568771D01*
X52486Y569323D01*
X51419Y569609D01*
D02*
G37*
G36*
X41419Y564156D02*
X40314D01*
X39247Y563870D01*
X38290Y563318D01*
X37509Y562537D01*
X36957Y561580D01*
X36671Y560513D01*
Y559408D01*
X36957Y558341D01*
X37509Y557384D01*
X38290Y556603D01*
X39247Y556051D01*
X40314Y555765D01*
X41419D01*
X42486Y556051D01*
X43442Y556603D01*
X44224Y557384D01*
X44776Y558341D01*
X45062Y559408D01*
Y560513D01*
X44776Y561580D01*
X44224Y562537D01*
X43442Y563318D01*
X42486Y563870D01*
X41419Y564156D01*
D02*
G37*
G36*
X329935Y675300D02*
X329065D01*
X328226Y675075D01*
X327474Y674641D01*
X326859Y674026D01*
X326425Y673274D01*
X326200Y672435D01*
Y671565D01*
X326425Y670726D01*
X326496Y670603D01*
X326382Y670489D01*
X326040Y669976D01*
X325920Y669371D01*
Y564655D01*
X321987Y560722D01*
X321912Y560665D01*
X321785Y560586D01*
X321649Y560516D01*
X321500Y560457D01*
X321337Y560406D01*
X321160Y560366D01*
X320967Y560337D01*
X320758Y560320D01*
X320509Y560315D01*
X320439Y560300D01*
X320065D01*
X319226Y560075D01*
X318474Y559641D01*
X317859Y559026D01*
X317425Y558274D01*
X317200Y557435D01*
Y556566D01*
X317425Y555726D01*
X317859Y554974D01*
X318474Y554359D01*
X319226Y553925D01*
X320065Y553700D01*
X320935D01*
X321774Y553925D01*
X322526Y554359D01*
X323141Y554974D01*
X323575Y555726D01*
X323800Y556566D01*
Y556939D01*
X323815Y557009D01*
X323820Y557258D01*
X323837Y557467D01*
X323866Y557660D01*
X323906Y557837D01*
X323956Y558000D01*
X324016Y558149D01*
X324086Y558286D01*
X324165Y558412D01*
X324222Y558487D01*
X328618Y562883D01*
X328960Y563395D01*
X329080Y564000D01*
Y668700D01*
X329935D01*
X330774Y668925D01*
X331526Y669359D01*
X332141Y669974D01*
X332575Y670726D01*
X332800Y671565D01*
Y672435D01*
X332575Y673274D01*
X332141Y674026D01*
X331526Y674641D01*
X330774Y675075D01*
X329935Y675300D01*
D02*
G37*
G36*
X348741Y565654D02*
X346929D01*
X345152Y565301D01*
X343478Y564607D01*
X341971Y563601D01*
X340690Y562320D01*
X339684Y560813D01*
X338990Y559139D01*
X338637Y557363D01*
Y555551D01*
X338990Y553774D01*
X339684Y552100D01*
X340690Y550594D01*
X341971Y549312D01*
X343478Y548306D01*
X345152Y547612D01*
X346929Y547259D01*
X348741D01*
X350518Y547612D01*
X352191Y548306D01*
X353698Y549312D01*
X354979Y550594D01*
X355985Y552100D01*
X356679Y553774D01*
X357032Y555551D01*
Y557363D01*
X356679Y559139D01*
X355985Y560813D01*
X354979Y562320D01*
X353698Y563601D01*
X352191Y564607D01*
X350518Y565301D01*
X348741Y565654D01*
D02*
G37*
G36*
X41419Y553251D02*
X40314D01*
X39247Y552965D01*
X38290Y552412D01*
X37509Y551631D01*
X36957Y550674D01*
X36671Y549607D01*
Y548503D01*
X36957Y547436D01*
X37509Y546479D01*
X38290Y545698D01*
X39247Y545145D01*
X40314Y544859D01*
X41419D01*
X42486Y545145D01*
X43442Y545698D01*
X44224Y546479D01*
X44776Y547436D01*
X45062Y548503D01*
Y549607D01*
X44776Y550674D01*
X44224Y551631D01*
X43442Y552412D01*
X42486Y552965D01*
X41419Y553251D01*
D02*
G37*
G36*
X357301Y521568D02*
X355297D01*
X353333Y521177D01*
X351482Y520410D01*
X349816Y519297D01*
X348400Y517881D01*
X347287Y516215D01*
X346520Y514364D01*
X346129Y512399D01*
Y510396D01*
X346520Y508431D01*
X347287Y506580D01*
X348400Y504915D01*
X349816Y503498D01*
X351482Y502385D01*
X353333Y501618D01*
X355297Y501228D01*
X357301D01*
X359266Y501618D01*
X361117Y502385D01*
X362782Y503498D01*
X364199Y504915D01*
X365312Y506580D01*
X366078Y508431D01*
X366469Y510396D01*
Y512399D01*
X366078Y514364D01*
X365312Y516215D01*
X364199Y517881D01*
X362782Y519297D01*
X361117Y520410D01*
X359266Y521177D01*
X357301Y521568D01*
D02*
G37*
G36*
X46772Y514473D02*
X44960D01*
X43183Y514120D01*
X41510Y513426D01*
X40003Y512420D01*
X38722Y511139D01*
X37715Y509632D01*
X37022Y507959D01*
X36669Y506181D01*
Y504370D01*
X37022Y502593D01*
X37715Y500919D01*
X38722Y499412D01*
X40003Y498131D01*
X41510Y497125D01*
X43183Y496431D01*
X44960Y496078D01*
X46772D01*
X48549Y496431D01*
X50223Y497125D01*
X51729Y498131D01*
X53010Y499412D01*
X54017Y500919D01*
X54710Y502593D01*
X55064Y504370D01*
Y506181D01*
X54710Y507959D01*
X54017Y509632D01*
X53010Y511139D01*
X51729Y512420D01*
X50223Y513426D01*
X48549Y514120D01*
X46772Y514473D01*
D02*
G37*
G36*
X354835Y488142D02*
X346582D01*
Y479889D01*
X354835D01*
Y488142D01*
D02*
G37*
G36*
X362433Y482690D02*
X361347D01*
X360297Y482409D01*
X359356Y481865D01*
X358588Y481097D01*
X358044Y480156D01*
X357763Y479106D01*
Y478020D01*
X358044Y476970D01*
X358588Y476029D01*
X359356Y475261D01*
X360297Y474717D01*
X361347Y474436D01*
X362433D01*
X363483Y474717D01*
X364424Y475261D01*
X365192Y476029D01*
X365735Y476970D01*
X366017Y478020D01*
Y479106D01*
X365735Y480156D01*
X365192Y481097D01*
X364424Y481865D01*
X363483Y482409D01*
X362433Y482690D01*
D02*
G37*
G36*
X351252Y477237D02*
X350165D01*
X349116Y476956D01*
X348175Y476413D01*
X347406Y475644D01*
X346863Y474703D01*
X346582Y473654D01*
Y472567D01*
X346863Y471518D01*
X347406Y470576D01*
X348175Y469808D01*
X349116Y469265D01*
X350165Y468984D01*
X351252D01*
X352302Y469265D01*
X353242Y469808D01*
X354011Y470576D01*
X354554Y471518D01*
X354835Y472567D01*
Y473654D01*
X354554Y474703D01*
X354011Y475644D01*
X353242Y476413D01*
X352302Y476956D01*
X351252Y477237D01*
D02*
G37*
G36*
X362433Y471784D02*
X361347D01*
X360297Y471503D01*
X359356Y470960D01*
X358588Y470191D01*
X358044Y469250D01*
X357763Y468201D01*
Y467114D01*
X358044Y466065D01*
X358588Y465124D01*
X359356Y464355D01*
X360297Y463812D01*
X361347Y463531D01*
X362433D01*
X363483Y463812D01*
X364424Y464355D01*
X365192Y465124D01*
X365735Y466065D01*
X366017Y467114D01*
Y468201D01*
X365735Y469250D01*
X365192Y470191D01*
X364424Y470960D01*
X363483Y471503D01*
X362433Y471784D01*
D02*
G37*
G36*
X351252Y466331D02*
X350165D01*
X349116Y466050D01*
X348175Y465507D01*
X347406Y464739D01*
X346863Y463798D01*
X346582Y462748D01*
Y461661D01*
X346863Y460612D01*
X347406Y459671D01*
X348175Y458903D01*
X349116Y458359D01*
X350165Y458078D01*
X351252D01*
X352302Y458359D01*
X353242Y458903D01*
X354011Y459671D01*
X354554Y460612D01*
X354835Y461661D01*
Y462748D01*
X354554Y463798D01*
X354011Y464739D01*
X353242Y465507D01*
X352302Y466050D01*
X351252Y466331D01*
D02*
G37*
G36*
X362433Y460879D02*
X361347D01*
X360297Y460598D01*
X359356Y460054D01*
X358588Y459286D01*
X358044Y458345D01*
X357763Y457295D01*
Y456209D01*
X358044Y455159D01*
X358588Y454218D01*
X359356Y453450D01*
X360297Y452906D01*
X361347Y452625D01*
X362433D01*
X363483Y452906D01*
X364424Y453450D01*
X365192Y454218D01*
X365735Y455159D01*
X366017Y456209D01*
Y457295D01*
X365735Y458345D01*
X365192Y459286D01*
X364424Y460054D01*
X363483Y460598D01*
X362433Y460879D01*
D02*
G37*
G36*
X351252Y455426D02*
X350165D01*
X349116Y455145D01*
X348175Y454602D01*
X347406Y453833D01*
X346863Y452892D01*
X346582Y451843D01*
Y450756D01*
X346863Y449707D01*
X347406Y448765D01*
X348175Y447997D01*
X349116Y447454D01*
X350165Y447172D01*
X351252D01*
X352302Y447454D01*
X353242Y447997D01*
X354011Y448765D01*
X354554Y449707D01*
X354835Y450756D01*
Y451843D01*
X354554Y452892D01*
X354011Y453833D01*
X353242Y454602D01*
X352302Y455145D01*
X351252Y455426D01*
D02*
G37*
G36*
X362433Y449973D02*
X361347D01*
X360297Y449692D01*
X359356Y449149D01*
X358588Y448380D01*
X358044Y447439D01*
X357763Y446390D01*
Y445303D01*
X358044Y444254D01*
X358588Y443313D01*
X359356Y442544D01*
X360297Y442001D01*
X361347Y441720D01*
X362433D01*
X363483Y442001D01*
X364424Y442544D01*
X365192Y443313D01*
X365735Y444254D01*
X366017Y445303D01*
Y446390D01*
X365735Y447439D01*
X365192Y448380D01*
X364424Y449149D01*
X363483Y449692D01*
X362433Y449973D01*
D02*
G37*
G36*
X38403Y453064D02*
X36400D01*
X34435Y452673D01*
X32584Y451906D01*
X30918Y450793D01*
X29502Y449377D01*
X28389Y447711D01*
X27622Y445860D01*
X27231Y443895D01*
Y441892D01*
X27622Y439927D01*
X28389Y438076D01*
X29502Y436411D01*
X30918Y434994D01*
X32584Y433881D01*
X34435Y433114D01*
X36400Y432724D01*
X38403D01*
X40368Y433114D01*
X42219Y433881D01*
X43885Y434994D01*
X45301Y436411D01*
X46414Y438076D01*
X47181Y439927D01*
X47572Y441892D01*
Y443895D01*
X47181Y445860D01*
X46414Y447711D01*
X45301Y449377D01*
X43885Y450793D01*
X42219Y451906D01*
X40368Y452673D01*
X38403Y453064D01*
D02*
G37*
G36*
X22434Y579800D02*
X21565D01*
X20726Y579575D01*
X19974Y579141D01*
X19359Y578526D01*
X18925Y577774D01*
X18700Y576934D01*
Y576065D01*
X18925Y575226D01*
X19359Y574474D01*
X19625Y574208D01*
X19666Y574145D01*
X19872Y573934D01*
X20041Y573743D01*
X20185Y573560D01*
X20304Y573386D01*
X20401Y573223D01*
X20476Y573071D01*
X20530Y572930D01*
X20566Y572801D01*
X20582Y572705D01*
Y420000D01*
X20690Y419457D01*
X20998Y418997D01*
X28104Y411891D01*
X27965Y411652D01*
X27684Y410602D01*
Y409516D01*
X27965Y408466D01*
X28509Y407525D01*
X29277Y406757D01*
X30218Y406214D01*
X31268Y405932D01*
X32354D01*
X33404Y406214D01*
X34345Y406757D01*
X35113Y407525D01*
X35656Y408466D01*
X35938Y409516D01*
Y410602D01*
X35656Y411652D01*
X35113Y412593D01*
X34345Y413361D01*
X33404Y413905D01*
X32354Y414186D01*
X31268D01*
X30218Y413905D01*
X30143Y413862D01*
X23418Y420587D01*
Y572705D01*
X23434Y572801D01*
X23470Y572930D01*
X23524Y573071D01*
X23599Y573223D01*
X23696Y573386D01*
X23809Y573550D01*
X24136Y573942D01*
X24334Y574145D01*
X24375Y574208D01*
X24641Y574474D01*
X25075Y575226D01*
X25300Y576065D01*
Y576934D01*
X25075Y577774D01*
X24641Y578526D01*
X24026Y579141D01*
X23274Y579575D01*
X22434Y579800D01*
D02*
G37*
G36*
X357301Y423182D02*
X355297D01*
X353333Y422791D01*
X351482Y422024D01*
X349816Y420911D01*
X348400Y419495D01*
X347287Y417829D01*
X346520Y415978D01*
X346129Y414013D01*
Y412010D01*
X346520Y410045D01*
X347287Y408194D01*
X348400Y406529D01*
X349816Y405112D01*
X351482Y403999D01*
X353333Y403232D01*
X355297Y402842D01*
X357301D01*
X359266Y403232D01*
X361117Y403999D01*
X362782Y405112D01*
X364199Y406529D01*
X365312Y408194D01*
X366078Y410045D01*
X366469Y412010D01*
Y414013D01*
X366078Y415978D01*
X365312Y417829D01*
X364199Y419495D01*
X362782Y420911D01*
X361117Y422024D01*
X359266Y422791D01*
X357301Y423182D01*
D02*
G37*
G36*
X43536Y408733D02*
X42449D01*
X41399Y408452D01*
X40458Y407908D01*
X39690Y407140D01*
X39147Y406199D01*
X38865Y405150D01*
Y404063D01*
X39147Y403013D01*
X39690Y402072D01*
X40458Y401304D01*
X41399Y400761D01*
X42449Y400480D01*
X43536D01*
X44585Y400761D01*
X45526Y401304D01*
X46294Y402072D01*
X46838Y403013D01*
X47119Y404063D01*
Y405150D01*
X46838Y406199D01*
X46294Y407140D01*
X45526Y407908D01*
X44585Y408452D01*
X43536Y408733D01*
D02*
G37*
G36*
X32354Y403280D02*
X31268D01*
X30218Y402999D01*
X29277Y402456D01*
X28509Y401687D01*
X27965Y400746D01*
X27684Y399697D01*
Y398610D01*
X27965Y397561D01*
X28509Y396620D01*
X29277Y395851D01*
X30218Y395308D01*
X31268Y395027D01*
X32354D01*
X33404Y395308D01*
X34345Y395851D01*
X35113Y396620D01*
X35656Y397561D01*
X35938Y398610D01*
Y399697D01*
X35656Y400746D01*
X35113Y401687D01*
X34345Y402456D01*
X33404Y402999D01*
X32354Y403280D01*
D02*
G37*
G36*
X43536Y397828D02*
X42449D01*
X41399Y397546D01*
X40458Y397003D01*
X39690Y396235D01*
X39147Y395294D01*
X38865Y394244D01*
Y393158D01*
X39147Y392108D01*
X39690Y391167D01*
X40458Y390399D01*
X41399Y389855D01*
X42449Y389574D01*
X43536D01*
X44585Y389855D01*
X45526Y390399D01*
X46294Y391167D01*
X46838Y392108D01*
X47119Y393158D01*
Y394244D01*
X46838Y395294D01*
X46294Y396235D01*
X45526Y397003D01*
X44585Y397546D01*
X43536Y397828D01*
D02*
G37*
G36*
X32811Y392460D02*
Y389248D01*
X36022D01*
X35843Y389918D01*
X35273Y390905D01*
X34468Y391710D01*
X33481Y392280D01*
X32811Y392460D01*
D02*
G37*
G36*
X30811D02*
X30141Y392280D01*
X29154Y391710D01*
X28349Y390905D01*
X27779Y389918D01*
X27599Y389248D01*
X30811D01*
Y392460D01*
D02*
G37*
G36*
X36022Y387248D02*
X32811D01*
Y384037D01*
X33481Y384216D01*
X34468Y384786D01*
X35273Y385591D01*
X35843Y386578D01*
X36022Y387248D01*
D02*
G37*
G36*
X30811D02*
X27599D01*
X27779Y386578D01*
X28349Y385591D01*
X29154Y384786D01*
X30141Y384216D01*
X30811Y384037D01*
Y387248D01*
D02*
G37*
G36*
X32354Y381469D02*
X31268D01*
X30218Y381188D01*
X29277Y380645D01*
X28509Y379876D01*
X27965Y378935D01*
X27684Y377886D01*
Y376799D01*
X27965Y375750D01*
X28509Y374809D01*
X29277Y374040D01*
X30218Y373497D01*
X31268Y373216D01*
X32354D01*
X33404Y373497D01*
X34345Y374040D01*
X35113Y374809D01*
X35656Y375750D01*
X35938Y376799D01*
Y377886D01*
X35656Y378935D01*
X35113Y379876D01*
X34345Y380645D01*
X33404Y381188D01*
X32354Y381469D01*
D02*
G37*
G36*
X348741Y379906D02*
X346929D01*
X345152Y379553D01*
X343478Y378859D01*
X341971Y377853D01*
X340690Y376572D01*
X339684Y375065D01*
X338990Y373391D01*
X338637Y371615D01*
Y369803D01*
X338990Y368026D01*
X339684Y366352D01*
X340690Y364845D01*
X341971Y363564D01*
X343478Y362558D01*
X345152Y361864D01*
X346929Y361511D01*
X348741D01*
X350518Y361864D01*
X352191Y362558D01*
X353698Y363564D01*
X354979Y364845D01*
X355985Y366352D01*
X356679Y368026D01*
X357032Y369803D01*
Y371615D01*
X356679Y373391D01*
X355985Y375065D01*
X354979Y376572D01*
X353698Y377853D01*
X352191Y378859D01*
X350518Y379553D01*
X348741Y379906D01*
D02*
G37*
G36*
X347030Y347483D02*
X338639D01*
Y339092D01*
X347030D01*
Y347483D01*
D02*
G37*
G36*
X38403Y354678D02*
X36400D01*
X34435Y354287D01*
X32584Y353520D01*
X30918Y352408D01*
X29502Y350991D01*
X28389Y349325D01*
X27622Y347474D01*
X27231Y345510D01*
Y343506D01*
X27622Y341541D01*
X28389Y339690D01*
X29502Y338025D01*
X30918Y336608D01*
X32584Y335495D01*
X34435Y334729D01*
X36400Y334338D01*
X38403D01*
X40368Y334729D01*
X42219Y335495D01*
X43885Y336608D01*
X45301Y338025D01*
X46414Y339690D01*
X47181Y341541D01*
X47572Y343506D01*
Y345510D01*
X47181Y347474D01*
X46414Y349325D01*
X45301Y350991D01*
X43885Y352408D01*
X42219Y353520D01*
X40368Y354287D01*
X38403Y354678D01*
D02*
G37*
G36*
X353387Y342030D02*
X352282D01*
X351215Y341744D01*
X350258Y341192D01*
X349477Y340411D01*
X348925Y339454D01*
X348639Y338387D01*
Y337282D01*
X348925Y336215D01*
X349477Y335258D01*
X350258Y334477D01*
X351215Y333925D01*
X352282Y333639D01*
X353387D01*
X354454Y333925D01*
X355411Y334477D01*
X356192Y335258D01*
X356744Y336215D01*
X357030Y337282D01*
Y338387D01*
X356744Y339454D01*
X356192Y340411D01*
X355411Y341192D01*
X354454Y341744D01*
X353387Y342030D01*
D02*
G37*
G36*
X343387Y336578D02*
X342282D01*
X341215Y336292D01*
X340258Y335739D01*
X339477Y334958D01*
X338925Y334001D01*
X338639Y332934D01*
Y331829D01*
X338925Y330762D01*
X339477Y329806D01*
X340258Y329024D01*
X341215Y328472D01*
X342282Y328186D01*
X343387D01*
X344454Y328472D01*
X345411Y329024D01*
X346192Y329806D01*
X346744Y330762D01*
X347030Y331829D01*
Y332934D01*
X346744Y334001D01*
X346192Y334958D01*
X345411Y335739D01*
X344454Y336292D01*
X343387Y336578D01*
D02*
G37*
G36*
X353387Y331125D02*
X352282D01*
X351215Y330839D01*
X350258Y330287D01*
X349477Y329505D01*
X348925Y328549D01*
X348639Y327482D01*
Y326377D01*
X348925Y325310D01*
X349477Y324353D01*
X350258Y323572D01*
X351215Y323020D01*
X352282Y322733D01*
X353387D01*
X354454Y323020D01*
X355411Y323572D01*
X356192Y324353D01*
X356744Y325310D01*
X357030Y326377D01*
Y327482D01*
X356744Y328549D01*
X356192Y329505D01*
X355411Y330287D01*
X354454Y330839D01*
X353387Y331125D01*
D02*
G37*
G36*
X343387Y325672D02*
X342282D01*
X341215Y325386D01*
X340258Y324834D01*
X339477Y324053D01*
X338925Y323096D01*
X338639Y322029D01*
Y320924D01*
X338925Y319857D01*
X339477Y318900D01*
X340258Y318119D01*
X341215Y317567D01*
X342282Y317281D01*
X343387D01*
X344454Y317567D01*
X345411Y318119D01*
X346192Y318900D01*
X346744Y319857D01*
X347030Y320924D01*
Y322029D01*
X346744Y323096D01*
X346192Y324053D01*
X345411Y324834D01*
X344454Y325386D01*
X343387Y325672D01*
D02*
G37*
G36*
X353387Y320219D02*
X352282D01*
X351215Y319933D01*
X350258Y319381D01*
X349477Y318600D01*
X348925Y317643D01*
X348639Y316576D01*
Y315471D01*
X348925Y314404D01*
X349477Y313447D01*
X350258Y312666D01*
X351215Y312114D01*
X352282Y311828D01*
X353387D01*
X354454Y312114D01*
X355411Y312666D01*
X356192Y313447D01*
X356744Y314404D01*
X357030Y315471D01*
Y316576D01*
X356744Y317643D01*
X356192Y318600D01*
X355411Y319381D01*
X354454Y319933D01*
X353387Y320219D01*
D02*
G37*
G36*
X343387Y314767D02*
X342282D01*
X341215Y314480D01*
X340258Y313928D01*
X339477Y313147D01*
X338925Y312190D01*
X338639Y311123D01*
Y310018D01*
X338925Y308951D01*
X339477Y307995D01*
X340258Y307213D01*
X341215Y306661D01*
X342282Y306375D01*
X343387D01*
X344454Y306661D01*
X345411Y307213D01*
X346192Y307995D01*
X346744Y308951D01*
X347030Y310018D01*
Y311123D01*
X346744Y312190D01*
X346192Y313147D01*
X345411Y313928D01*
X344454Y314480D01*
X343387Y314767D01*
D02*
G37*
G36*
X353387Y309314D02*
X352282D01*
X351215Y309028D01*
X350258Y308476D01*
X349477Y307694D01*
X348925Y306738D01*
X348639Y305671D01*
Y304566D01*
X348925Y303499D01*
X349477Y302542D01*
X350258Y301761D01*
X351215Y301208D01*
X352282Y300922D01*
X353387D01*
X354454Y301208D01*
X355411Y301761D01*
X356192Y302542D01*
X356744Y303499D01*
X357030Y304566D01*
Y305671D01*
X356744Y306738D01*
X356192Y307694D01*
X355411Y308476D01*
X354454Y309028D01*
X353387Y309314D01*
D02*
G37*
G36*
X343387Y303861D02*
X342282D01*
X341215Y303575D01*
X340258Y303023D01*
X339477Y302242D01*
X338925Y301285D01*
X338639Y300218D01*
Y299113D01*
X338925Y298046D01*
X339477Y297089D01*
X340258Y296308D01*
X341215Y295756D01*
X342282Y295470D01*
X342757D01*
X342905Y295247D01*
X345522Y292630D01*
X345215Y292230D01*
X344454Y292670D01*
X343387Y292955D01*
X342282D01*
X341215Y292670D01*
X340258Y292117D01*
X339907Y291765D01*
X339848Y291729D01*
X339189Y291104D01*
X338904Y290867D01*
X338629Y290663D01*
X338374Y290496D01*
X338140Y290366D01*
X337929Y290272D01*
X337745Y290211D01*
X337587Y290178D01*
X337583Y290178D01*
X310118D01*
X309575Y290070D01*
X309116Y289762D01*
X209489Y190136D01*
X209182Y189676D01*
X209074Y189134D01*
Y170867D01*
X48130D01*
X47976Y170898D01*
X47796Y170958D01*
X47591Y171049D01*
X47363Y171174D01*
X47114Y171335D01*
X46855Y171528D01*
X46258Y172046D01*
X45940Y172359D01*
X45876Y172401D01*
X45526Y172751D01*
X44585Y173294D01*
X43536Y173575D01*
X42449D01*
X41399Y173294D01*
X40458Y172751D01*
X39690Y171983D01*
X39147Y171042D01*
X38865Y169992D01*
Y168905D01*
X39147Y167856D01*
X39690Y166915D01*
X40458Y166147D01*
X41399Y165603D01*
X42362Y165345D01*
X42296Y164845D01*
X40000D01*
X39457Y164737D01*
X38998Y164430D01*
X37097Y162530D01*
X36790Y162070D01*
X36682Y161528D01*
Y152530D01*
X36790Y151987D01*
X37097Y151527D01*
X38357Y150268D01*
X38443Y150137D01*
X38529Y149967D01*
X38609Y149758D01*
X38682Y149508D01*
X38743Y149218D01*
X38791Y148899D01*
X38798Y148795D01*
X38685Y148712D01*
X38311Y148596D01*
X36447Y150460D01*
X36360Y150592D01*
X36274Y150761D01*
X36194Y150970D01*
X36121Y151220D01*
X36060Y151510D01*
X36012Y151829D01*
X35957Y152619D01*
X35953Y153064D01*
X35938Y153138D01*
Y153634D01*
X35656Y154683D01*
X35113Y155624D01*
X34345Y156393D01*
X33404Y156936D01*
X32354Y157217D01*
X31268D01*
X30218Y156936D01*
X29277Y156393D01*
X28509Y155624D01*
X27966Y154683D01*
X27684Y153634D01*
Y152547D01*
X27966Y151498D01*
X28509Y150557D01*
X29277Y149788D01*
X30218Y149245D01*
X31268Y148964D01*
X31755D01*
X31822Y148949D01*
X32704Y148924D01*
X33063Y148891D01*
X33392Y148842D01*
X33681Y148780D01*
X33931Y148708D01*
X34141Y148627D01*
X34310Y148541D01*
X34442Y148455D01*
X35982Y146914D01*
Y144214D01*
X35482Y144080D01*
X35113Y144719D01*
X34345Y145487D01*
X33404Y146030D01*
X32354Y146312D01*
X31268D01*
X30218Y146030D01*
X29277Y145487D01*
X28509Y144719D01*
X27966Y143778D01*
X27684Y142728D01*
Y142241D01*
X27669Y142174D01*
X27645Y141291D01*
X27611Y140933D01*
X27562Y140604D01*
X27501Y140315D01*
X27428Y140065D01*
X27347Y139855D01*
X27262Y139686D01*
X27175Y139554D01*
X25897Y138277D01*
X25590Y137817D01*
X25482Y137274D01*
Y117128D01*
X25590Y116585D01*
X25897Y116125D01*
X30997Y111025D01*
X31457Y110718D01*
X32000Y110610D01*
X330413D01*
X333698Y107325D01*
X334157Y107018D01*
X334700Y106910D01*
X361600D01*
X362143Y107018D01*
X362602Y107325D01*
X367803Y112525D01*
X367963Y112765D01*
X368202Y112925D01*
X368510Y113385D01*
X368618Y113928D01*
Y133528D01*
Y271300D01*
X368510Y271843D01*
X368202Y272303D01*
X361648Y278857D01*
X361188Y279164D01*
X360646Y279272D01*
X355237D01*
X355103Y279772D01*
X355411Y279950D01*
X356192Y280731D01*
X356287Y280896D01*
X356538Y281240D01*
X356773Y281529D01*
X357001Y281777D01*
X357221Y281983D01*
X357429Y282149D01*
X357623Y282276D01*
X357803Y282368D01*
X357969Y282428D01*
X358122Y282461D01*
X358138Y282462D01*
X363723D01*
X364265Y282570D01*
X364725Y282878D01*
X370087Y288240D01*
X377413D01*
X383814Y281839D01*
X383870Y281759D01*
X383936Y281642D01*
X383997Y281505D01*
X384052Y281344D01*
X384099Y281160D01*
X384135Y280964D01*
X384181Y280456D01*
X384185Y280172D01*
X384200Y280099D01*
Y279723D01*
X384425Y278884D01*
X384859Y278131D01*
X385474Y277517D01*
X386226Y277082D01*
X387066Y276857D01*
X387934D01*
X388774Y277082D01*
X389526Y277517D01*
X390141Y278131D01*
X390575Y278884D01*
X390800Y279723D01*
Y280592D01*
X390575Y281431D01*
X390141Y282184D01*
X389526Y282798D01*
X388774Y283233D01*
X387934Y283457D01*
X387558D01*
X387485Y283473D01*
X387190Y283477D01*
X386936Y283493D01*
X386705Y283520D01*
X386497Y283558D01*
X386313Y283605D01*
X386153Y283660D01*
X386015Y283721D01*
X385898Y283787D01*
X385819Y283844D01*
X379002Y290660D01*
X378543Y290967D01*
X378000Y291075D01*
X369500D01*
X368957Y290967D01*
X368497Y290660D01*
X363136Y285298D01*
X357944D01*
X357795Y285327D01*
X357610Y285383D01*
X357080Y285606D01*
X356802Y285751D01*
X355703Y286437D01*
X355483Y286593D01*
X355411Y286664D01*
X354454Y287217D01*
X353387Y287503D01*
X352282D01*
X351215Y287217D01*
X350418Y286756D01*
X349990Y286947D01*
X349918Y287023D01*
Y290540D01*
X350418Y290763D01*
X351215Y290303D01*
X352282Y290017D01*
X353387D01*
X354454Y290303D01*
X355411Y290855D01*
X356192Y291636D01*
X356744Y292593D01*
X357030Y293660D01*
Y294765D01*
X356744Y295832D01*
X356192Y296789D01*
X355411Y297570D01*
X354454Y298122D01*
X353387Y298408D01*
X352282D01*
X351215Y298122D01*
X350258Y297570D01*
X349477Y296789D01*
X348925Y295832D01*
X348639Y294765D01*
Y294231D01*
X348139Y294024D01*
X345633Y296530D01*
X346192Y297089D01*
X346744Y298046D01*
X347030Y299113D01*
Y300218D01*
X346744Y301285D01*
X346192Y302242D01*
X345411Y303023D01*
X344454Y303575D01*
X343387Y303861D01*
D02*
G37*
G36*
X38403Y207001D02*
X36400D01*
X34435Y206610D01*
X32584Y205843D01*
X30918Y204730D01*
X29502Y203314D01*
X28389Y201648D01*
X27622Y199797D01*
X27231Y197832D01*
Y195829D01*
X27622Y193864D01*
X28389Y192013D01*
X29502Y190348D01*
X30918Y188931D01*
X32584Y187818D01*
X34435Y187051D01*
X36400Y186661D01*
X38403D01*
X40368Y187051D01*
X42219Y187818D01*
X43885Y188931D01*
X45301Y190348D01*
X46414Y192013D01*
X47181Y193864D01*
X47572Y195829D01*
Y197832D01*
X47181Y199797D01*
X46414Y201648D01*
X45301Y203314D01*
X43885Y204730D01*
X42219Y205843D01*
X40368Y206610D01*
X38403Y207001D01*
D02*
G37*
G36*
X32354Y168123D02*
X31268D01*
X30218Y167842D01*
X29277Y167298D01*
X28509Y166530D01*
X27966Y165589D01*
X27684Y164540D01*
Y163453D01*
X27966Y162403D01*
X28509Y161462D01*
X29277Y160694D01*
X30218Y160151D01*
X31268Y159869D01*
X32354D01*
X33404Y160151D01*
X34345Y160694D01*
X35113Y161462D01*
X35656Y162403D01*
X35938Y163453D01*
Y164540D01*
X35656Y165589D01*
X35113Y166530D01*
X34345Y167298D01*
X33404Y167842D01*
X32354Y168123D01*
D02*
G37*
G36*
X38403Y108615D02*
X36400D01*
X34435Y108224D01*
X32584Y107458D01*
X30918Y106345D01*
X29502Y104928D01*
X28389Y103262D01*
X27622Y101411D01*
X27231Y99447D01*
Y97443D01*
X27622Y95478D01*
X28389Y93628D01*
X29502Y91962D01*
X30918Y90545D01*
X32584Y89432D01*
X34435Y88666D01*
X36400Y88275D01*
X38403D01*
X40368Y88666D01*
X42219Y89432D01*
X43885Y90545D01*
X45301Y91962D01*
X46414Y93628D01*
X47181Y95478D01*
X47572Y97443D01*
Y99447D01*
X47181Y101411D01*
X46414Y103262D01*
X45301Y104928D01*
X43885Y106345D01*
X42219Y107458D01*
X40368Y108224D01*
X38403Y108615D01*
D02*
G37*
G36*
X357301Y96804D02*
X355297D01*
X353333Y96413D01*
X351482Y95647D01*
X349816Y94534D01*
X348400Y93117D01*
X347287Y91451D01*
X346520Y89600D01*
X346129Y87636D01*
Y85632D01*
X346520Y83667D01*
X347287Y81817D01*
X348400Y80151D01*
X349816Y78734D01*
X351482Y77621D01*
X353333Y76855D01*
X355297Y76464D01*
X357301D01*
X359266Y76855D01*
X361117Y77621D01*
X362782Y78734D01*
X364199Y80151D01*
X365312Y81817D01*
X366078Y83667D01*
X366469Y85632D01*
Y87636D01*
X366078Y89600D01*
X365312Y91451D01*
X364199Y93117D01*
X362782Y94534D01*
X361117Y95647D01*
X359266Y96413D01*
X357301Y96804D01*
D02*
G37*
G36*
X215609Y62808D02*
X214391D01*
X213215Y62493D01*
X212160Y61884D01*
X211299Y61023D01*
X210690Y59968D01*
X210375Y58792D01*
Y57574D01*
X210690Y56398D01*
X211299Y55343D01*
X212160Y54482D01*
X213215Y53873D01*
X214391Y53558D01*
X215609D01*
X216785Y53873D01*
X217840Y54482D01*
X218701Y55343D01*
X219310Y56398D01*
X219625Y57574D01*
Y58792D01*
X219310Y59968D01*
X218701Y61023D01*
X217840Y61884D01*
X216785Y62493D01*
X215609Y62808D01*
D02*
G37*
G36*
X175609D02*
X174391D01*
X173215Y62493D01*
X172160Y61884D01*
X171299Y61023D01*
X170690Y59968D01*
X170375Y58792D01*
Y57574D01*
X170690Y56398D01*
X171299Y55343D01*
X172160Y54482D01*
X173215Y53873D01*
X174391Y53558D01*
X175609D01*
X176785Y53873D01*
X177840Y54482D01*
X178701Y55343D01*
X179310Y56398D01*
X179625Y57574D01*
Y58792D01*
X179310Y59968D01*
X178701Y61023D01*
X177840Y61884D01*
X176785Y62493D01*
X175609Y62808D01*
D02*
G37*
G36*
X196000Y50817D02*
Y44222D01*
X202594D01*
X202350Y45452D01*
X201774Y46843D01*
X200937Y48095D01*
X199873Y49160D01*
X198621Y49996D01*
X197230Y50572D01*
X196000Y50817D01*
D02*
G37*
G36*
X194000D02*
X192770Y50572D01*
X191379Y49996D01*
X190127Y49160D01*
X189063Y48095D01*
X188226Y46843D01*
X187650Y45452D01*
X187406Y44222D01*
X194000D01*
Y50817D01*
D02*
G37*
G36*
X202594Y42222D02*
X196000D01*
Y35628D01*
X197230Y35872D01*
X198621Y36449D01*
X199873Y37285D01*
X200937Y38350D01*
X201774Y39602D01*
X202350Y40993D01*
X202594Y42222D01*
D02*
G37*
G36*
X194000D02*
X187406D01*
X187650Y40993D01*
X188226Y39602D01*
X189063Y38350D01*
X190127Y37285D01*
X191379Y36449D01*
X192770Y35872D01*
X194000Y35628D01*
Y42222D01*
D02*
G37*
G36*
X215609Y22808D02*
X214391D01*
X213215Y22493D01*
X212160Y21884D01*
X211299Y21023D01*
X210690Y19968D01*
X210375Y18792D01*
Y17574D01*
X210690Y16398D01*
X211299Y15343D01*
X212160Y14482D01*
X213215Y13873D01*
X214391Y13558D01*
X215609D01*
X216785Y13873D01*
X217840Y14482D01*
X218701Y15343D01*
X219310Y16398D01*
X219625Y17574D01*
Y18792D01*
X219310Y19968D01*
X218701Y21023D01*
X217840Y21884D01*
X216785Y22493D01*
X215609Y22808D01*
D02*
G37*
G36*
X175609D02*
X174391D01*
X173215Y22493D01*
X172160Y21884D01*
X171299Y21023D01*
X170690Y19968D01*
X170375Y18792D01*
Y17574D01*
X170690Y16398D01*
X171299Y15343D01*
X172160Y14482D01*
X173215Y13873D01*
X174391Y13558D01*
X175609D01*
X176785Y13873D01*
X177840Y14482D01*
X178701Y15343D01*
X179310Y16398D01*
X179625Y17574D01*
Y18792D01*
X179310Y19968D01*
X178701Y21023D01*
X177840Y21884D01*
X176785Y22493D01*
X175609Y22808D01*
D02*
G37*
G36*
X376779Y26603D02*
X375189D01*
X375111Y26587D01*
X375030D01*
X373471Y26277D01*
X373397Y26247D01*
X373318Y26231D01*
X371849Y25622D01*
X371782Y25578D01*
X371708Y25547D01*
X370386Y24664D01*
X370329Y24607D01*
X370263Y24562D01*
X369138Y23438D01*
X369094Y23371D01*
X369037Y23315D01*
X368154Y21993D01*
X368123Y21918D01*
X368078Y21852D01*
X367470Y20383D01*
X367454Y20304D01*
X367424Y20230D01*
X367113Y18671D01*
Y18590D01*
X367098Y18511D01*
Y16922D01*
X367113Y16843D01*
Y16762D01*
X367424Y15203D01*
X367454Y15129D01*
X367470Y15050D01*
X368078Y13581D01*
X368123Y13515D01*
X368154Y13440D01*
X369037Y12118D01*
X369094Y12062D01*
X369138Y11995D01*
X370263Y10871D01*
X370329Y10826D01*
X370386Y10769D01*
X371708Y9886D01*
X371782Y9855D01*
X371849Y9811D01*
X373318Y9202D01*
X373397Y9187D01*
X373471Y9156D01*
X375030Y8846D01*
X375111D01*
X375189Y8830D01*
X376779D01*
X376858Y8846D01*
X376938D01*
X378498Y9156D01*
X378572Y9187D01*
X378651Y9202D01*
X380119Y9811D01*
X380186Y9855D01*
X380260Y9886D01*
X381582Y10769D01*
X381639Y10826D01*
X381706Y10871D01*
X382830Y11995D01*
X382875Y12062D01*
X382931Y12118D01*
X383815Y13440D01*
X383845Y13515D01*
X383890Y13581D01*
X384499Y15050D01*
X384514Y15129D01*
X384545Y15203D01*
X384855Y16762D01*
Y16843D01*
X384871Y16922D01*
Y18511D01*
X384855Y18590D01*
Y18671D01*
X384545Y20230D01*
X384514Y20304D01*
X384499Y20383D01*
X383890Y21852D01*
X383845Y21918D01*
X383815Y21993D01*
X382931Y23315D01*
X382875Y23371D01*
X382830Y23438D01*
X381706Y24562D01*
X381639Y24607D01*
X381582Y24664D01*
X380260Y25547D01*
X380186Y25578D01*
X380119Y25622D01*
X378651Y26231D01*
X378572Y26247D01*
X378498Y26277D01*
X376938Y26587D01*
X376858D01*
X376779Y26603D01*
D02*
G37*
G36*
X18511D02*
X16922D01*
X16843Y26587D01*
X16762D01*
X15203Y26277D01*
X15129Y26247D01*
X15050Y26231D01*
X13581Y25622D01*
X13515Y25578D01*
X13440Y25547D01*
X12118Y24664D01*
X12062Y24607D01*
X11995Y24562D01*
X10871Y23438D01*
X10826Y23371D01*
X10769Y23315D01*
X9886Y21993D01*
X9855Y21918D01*
X9811Y21852D01*
X9202Y20383D01*
X9187Y20304D01*
X9156Y20230D01*
X8846Y18671D01*
Y18590D01*
X8830Y18511D01*
Y16922D01*
X8846Y16843D01*
Y16762D01*
X9156Y15203D01*
X9187Y15129D01*
X9202Y15050D01*
X9811Y13581D01*
X9855Y13515D01*
X9886Y13440D01*
X10769Y12118D01*
X10826Y12062D01*
X10871Y11995D01*
X11995Y10871D01*
X12062Y10826D01*
X12118Y10769D01*
X13440Y9886D01*
X13515Y9855D01*
X13581Y9811D01*
X15050Y9202D01*
X15129Y9187D01*
X15203Y9156D01*
X16762Y8846D01*
X16843D01*
X16922Y8830D01*
X18511D01*
X18590Y8846D01*
X18671D01*
X20230Y9156D01*
X20304Y9187D01*
X20383Y9202D01*
X21852Y9811D01*
X21918Y9855D01*
X21993Y9886D01*
X23315Y10769D01*
X23371Y10826D01*
X23438Y10871D01*
X24562Y11995D01*
X24607Y12062D01*
X24664Y12118D01*
X25547Y13440D01*
X25578Y13515D01*
X25622Y13581D01*
X26231Y15050D01*
X26247Y15129D01*
X26277Y15203D01*
X26587Y16762D01*
Y16843D01*
X26603Y16922D01*
Y18511D01*
X26587Y18590D01*
Y18671D01*
X26277Y20230D01*
X26247Y20304D01*
X26231Y20383D01*
X25622Y21852D01*
X25578Y21918D01*
X25547Y21993D01*
X24664Y23315D01*
X24607Y23371D01*
X24562Y23438D01*
X23438Y24562D01*
X23371Y24607D01*
X23315Y24664D01*
X21993Y25547D01*
X21918Y25578D01*
X21852Y25622D01*
X20383Y26231D01*
X20304Y26247D01*
X20230Y26277D01*
X18671Y26587D01*
X18590D01*
X18511Y26603D01*
D02*
G37*
%LPD*%
G36*
X309030Y823099D02*
X308659Y822655D01*
X308508Y822436D01*
X308380Y822221D01*
X308276Y822008D01*
X308195Y821797D01*
X308137Y821589D01*
X308102Y821384D01*
X308090Y821181D01*
X306909D01*
X306898Y821384D01*
X306863Y821589D01*
X306805Y821797D01*
X306724Y822008D01*
X306620Y822221D01*
X306492Y822436D01*
X306341Y822655D01*
X306167Y822875D01*
X305970Y823099D01*
X305750Y823325D01*
X309250D01*
X309030Y823099D01*
D02*
G37*
G36*
X308102Y815337D02*
X308137Y815131D01*
X308195Y814923D01*
X308276Y814713D01*
X308380Y814500D01*
X308508Y814284D01*
X308659Y814066D01*
X308833Y813845D01*
X309030Y813622D01*
X309250Y813396D01*
X305750D01*
X305970Y813622D01*
X306341Y814066D01*
X306492Y814284D01*
X306620Y814500D01*
X306724Y814713D01*
X306805Y814923D01*
X306863Y815131D01*
X306898Y815337D01*
X306909Y815539D01*
X308090D01*
X308102Y815337D01*
D02*
G37*
G36*
X48441Y803509D02*
X48096Y803848D01*
X47440Y804420D01*
X47128Y804652D01*
X46827Y804849D01*
X46536Y805009D01*
X46257Y805134D01*
X45989Y805224D01*
X45731Y805277D01*
X45485Y805295D01*
Y806476D01*
X45731Y806494D01*
X45989Y806548D01*
X46257Y806637D01*
X46536Y806762D01*
X46827Y806923D01*
X47128Y807119D01*
X47440Y807352D01*
X47763Y807620D01*
X48441Y808263D01*
Y803509D01*
D02*
G37*
G36*
X10560Y784017D02*
X10390Y783817D01*
X10240Y783614D01*
X10110Y783408D01*
X10000Y783200D01*
X9910Y782988D01*
X9840Y782774D01*
X9790Y782557D01*
X9760Y782338D01*
X9750Y782115D01*
X8250D01*
X8240Y782338D01*
X8210Y782557D01*
X8160Y782774D01*
X8090Y782988D01*
X8000Y783200D01*
X7890Y783408D01*
X7760Y783614D01*
X7610Y783817D01*
X7440Y784017D01*
X7250Y784215D01*
X10750D01*
X10560Y784017D01*
D02*
G37*
G36*
X14948Y705127D02*
X15124Y704993D01*
X15313Y704875D01*
X15514Y704773D01*
X15727Y704687D01*
X15952Y704618D01*
X16190Y704564D01*
X16439Y704527D01*
X16701Y704505D01*
X16975Y704500D01*
X14500Y702025D01*
X14495Y702299D01*
X14473Y702561D01*
X14436Y702810D01*
X14382Y703048D01*
X14313Y703273D01*
X14227Y703486D01*
X14125Y703687D01*
X14007Y703876D01*
X13873Y704052D01*
X13723Y704217D01*
X14783Y705277D01*
X14948Y705127D01*
D02*
G37*
G36*
X47935Y607321D02*
X46038Y610237D01*
X46255Y611691D01*
X46470Y611503D01*
X46695Y611358D01*
X46931Y611258D01*
X47176Y611201D01*
X47432Y611188D01*
X47698Y611218D01*
X47975Y611293D01*
X48261Y611411D01*
X48558Y611573D01*
X48865Y611779D01*
X47935Y607321D01*
D02*
G37*
G36*
X233030Y821209D02*
X232659Y820765D01*
X232508Y820547D01*
X232380Y820331D01*
X232276Y820118D01*
X232195Y819907D01*
X232137Y819699D01*
X232102Y819494D01*
X232090Y819291D01*
X230909D01*
X230898Y819494D01*
X230863Y819699D01*
X230805Y819907D01*
X230724Y820118D01*
X230620Y820331D01*
X230492Y820547D01*
X230341Y820765D01*
X230167Y820986D01*
X229970Y821209D01*
X229750Y821435D01*
X233250D01*
X233030Y821209D01*
D02*
G37*
G36*
X232103Y778395D02*
X232141Y778187D01*
X232205Y777984D01*
X232293Y777786D01*
X232407Y777594D01*
X232547Y777407D01*
X232711Y777225D01*
X232901Y777048D01*
X233117Y776876D01*
X233358Y776710D01*
X229928Y776010D01*
X230115Y776295D01*
X230556Y777083D01*
X230664Y777323D01*
X230752Y777553D01*
X230821Y777771D01*
X230870Y777979D01*
X230900Y778175D01*
X230909Y778360D01*
X232090Y778609D01*
X232103Y778395D01*
D02*
G37*
G36*
X132975Y809110D02*
X132659Y809106D01*
X132083Y809054D01*
X131822Y809007D01*
X131579Y808945D01*
X131355Y808868D01*
X131149Y808776D01*
X130961Y808670D01*
X130791Y808549D01*
X130639Y808414D01*
X129804Y809249D01*
X129939Y809401D01*
X130060Y809571D01*
X130166Y809759D01*
X130257Y809965D01*
X130334Y810190D01*
X130396Y810432D01*
X130444Y810693D01*
X130477Y810972D01*
X130496Y811270D01*
X130500Y811585D01*
X132975Y809110D01*
D02*
G37*
G36*
X97016Y807715D02*
X96927Y807682D01*
X96848Y807626D01*
X96780Y807548D01*
X96722Y807448D01*
X96675Y807325D01*
X96638Y807180D01*
X96612Y807012D01*
X96596Y806822D01*
X96591Y806610D01*
X95410D01*
X95404Y806822D01*
X95388Y807012D01*
X95362Y807180D01*
X95325Y807325D01*
X95278Y807448D01*
X95220Y807548D01*
X95152Y807626D01*
X95073Y807682D01*
X94984Y807715D01*
X94884Y807727D01*
X97116D01*
X97016Y807715D01*
D02*
G37*
G36*
X114569Y807715D02*
X114469Y807679D01*
X114380Y807620D01*
X114303Y807538D01*
X114238Y807431D01*
X114185Y807301D01*
X114144Y807148D01*
X114114Y806971D01*
X114096Y806770D01*
X114091Y806546D01*
X112909D01*
X112903Y806770D01*
X112886Y806971D01*
X112856Y807148D01*
X112815Y807301D01*
X112762Y807431D01*
X112697Y807538D01*
X112620Y807620D01*
X112531Y807679D01*
X112431Y807715D01*
X112319Y807727D01*
X114681D01*
X114569Y807715D01*
D02*
G37*
G36*
X135030Y799099D02*
X134659Y798655D01*
X134508Y798436D01*
X134380Y798221D01*
X134276Y798008D01*
X134195Y797797D01*
X134137Y797589D01*
X134102Y797384D01*
X134091Y797181D01*
X132909D01*
X132898Y797384D01*
X132863Y797589D01*
X132805Y797797D01*
X132724Y798008D01*
X132620Y798221D01*
X132492Y798436D01*
X132341Y798655D01*
X132167Y798876D01*
X131970Y799099D01*
X131750Y799325D01*
X135250D01*
X135030Y799099D01*
D02*
G37*
G36*
X53636Y775207D02*
X54293Y774635D01*
X54605Y774403D01*
X54906Y774206D01*
X55196Y774046D01*
X55475Y773921D01*
X55744Y773831D01*
X56001Y773778D01*
X56248Y773760D01*
Y772579D01*
X56001Y772561D01*
X55744Y772507D01*
X55475Y772418D01*
X55196Y772293D01*
X54906Y772132D01*
X54605Y771936D01*
X54293Y771703D01*
X53970Y771435D01*
X53291Y770792D01*
Y775546D01*
X53636Y775207D01*
D02*
G37*
G36*
X48441Y770792D02*
X48096Y771132D01*
X47440Y771703D01*
X47128Y771936D01*
X46827Y772132D01*
X46536Y772293D01*
X46257Y772418D01*
X45989Y772507D01*
X45731Y772561D01*
X45485Y772579D01*
Y773760D01*
X45731Y773778D01*
X45989Y773831D01*
X46257Y773921D01*
X46536Y774046D01*
X46827Y774206D01*
X47128Y774403D01*
X47440Y774635D01*
X47763Y774903D01*
X48441Y775546D01*
Y770792D01*
D02*
G37*
G36*
X43636Y769754D02*
X44293Y769182D01*
X44605Y768950D01*
X44906Y768754D01*
X45196Y768593D01*
X45475Y768468D01*
X45744Y768379D01*
X46001Y768325D01*
X46248Y768307D01*
Y767126D01*
X46001Y767108D01*
X45744Y767055D01*
X45475Y766965D01*
X45196Y766840D01*
X44906Y766679D01*
X44605Y766483D01*
X44293Y766251D01*
X43970Y765983D01*
X43291Y765340D01*
Y770094D01*
X43636Y769754D01*
D02*
G37*
G36*
X40832Y764321D02*
X40349Y764317D01*
X39480Y764257D01*
X39095Y764201D01*
X38743Y764127D01*
X38424Y764035D01*
X38138Y763926D01*
X37885Y763800D01*
X37666Y763656D01*
X37479Y763494D01*
X36643Y764329D01*
X36805Y764516D01*
X36949Y764736D01*
X37076Y764989D01*
X37185Y765275D01*
X37276Y765594D01*
X37350Y765945D01*
X37407Y766330D01*
X37446Y766748D01*
X37471Y767683D01*
X40832Y764321D01*
D02*
G37*
G36*
X43636Y758849D02*
X44293Y758277D01*
X44605Y758045D01*
X44906Y757848D01*
X45196Y757687D01*
X45475Y757562D01*
X45744Y757473D01*
X46001Y757419D01*
X46248Y757402D01*
Y756220D01*
X46001Y756203D01*
X45744Y756149D01*
X45475Y756060D01*
X45196Y755935D01*
X44906Y755774D01*
X44605Y755577D01*
X44293Y755345D01*
X43970Y755077D01*
X43291Y754434D01*
Y759188D01*
X43636Y758849D01*
D02*
G37*
G36*
X53636Y753396D02*
X54293Y752824D01*
X54605Y752592D01*
X54906Y752395D01*
X55196Y752235D01*
X55475Y752110D01*
X55744Y752020D01*
X56001Y751967D01*
X56248Y751949D01*
Y750768D01*
X56001Y750750D01*
X55744Y750696D01*
X55475Y750607D01*
X55196Y750482D01*
X54906Y750321D01*
X54605Y750125D01*
X54293Y749892D01*
X53970Y749624D01*
X53291Y748981D01*
Y753735D01*
X53636Y753396D01*
D02*
G37*
G36*
X87426Y750201D02*
X87267Y750030D01*
X87125Y749853D01*
X87000Y749669D01*
X86891Y749477D01*
X86799Y749279D01*
X86724Y749074D01*
X86666Y748862D01*
X86624Y748643D01*
X86599Y748417D01*
X86590Y748184D01*
X85409Y747839D01*
X85398Y748063D01*
X85362Y748264D01*
X85303Y748441D01*
X85220Y748595D01*
X85114Y748724D01*
X84984Y748831D01*
X84831Y748913D01*
X84654Y748973D01*
X84453Y749008D01*
X84228Y749020D01*
X84574Y750201D01*
X84807Y750209D01*
X85033Y750234D01*
X85252Y750276D01*
X85464Y750334D01*
X85669Y750410D01*
X85867Y750501D01*
X86058Y750610D01*
X86243Y750735D01*
X86420Y750877D01*
X86590Y751036D01*
X87426Y750201D01*
D02*
G37*
G36*
X28102Y657227D02*
X28137Y657021D01*
X28195Y656813D01*
X28276Y656603D01*
X28380Y656390D01*
X28508Y656174D01*
X28659Y655956D01*
X28833Y655735D01*
X29030Y655511D01*
X29250Y655285D01*
X25750D01*
X25970Y655511D01*
X26341Y655956D01*
X26492Y656174D01*
X26620Y656390D01*
X26724Y656603D01*
X26805Y656813D01*
X26863Y657021D01*
X26898Y657227D01*
X26909Y657429D01*
X28091D01*
X28102Y657227D01*
D02*
G37*
G36*
X32696Y642361D02*
X32561Y642209D01*
X32440Y642039D01*
X32334Y641851D01*
X32243Y641645D01*
X32166Y641421D01*
X32103Y641178D01*
X32056Y640917D01*
X32023Y640638D01*
X32004Y640341D01*
X32000Y640025D01*
X29525Y642500D01*
X29841Y642504D01*
X30417Y642556D01*
X30678Y642603D01*
X30921Y642666D01*
X31145Y642743D01*
X31351Y642834D01*
X31539Y642940D01*
X31709Y643061D01*
X31861Y643196D01*
X32696Y642361D01*
D02*
G37*
G36*
X53636Y556545D02*
X54293Y555974D01*
X54605Y555742D01*
X54906Y555545D01*
X55196Y555384D01*
X55475Y555259D01*
X55744Y555170D01*
X56001Y555116D01*
X56248Y555098D01*
Y553917D01*
X56001Y553899D01*
X55744Y553846D01*
X55475Y553757D01*
X55196Y553631D01*
X54906Y553471D01*
X54605Y553274D01*
X54293Y553042D01*
X53970Y552774D01*
X53291Y552131D01*
Y556885D01*
X53636Y556545D01*
D02*
G37*
G36*
X246715Y653250D02*
X246489Y653470D01*
X246044Y653841D01*
X245826Y653992D01*
X245610Y654120D01*
X245397Y654224D01*
X245187Y654305D01*
X244979Y654363D01*
X244774Y654398D01*
X244571Y654410D01*
Y655590D01*
X244774Y655602D01*
X244979Y655637D01*
X245187Y655695D01*
X245397Y655776D01*
X245610Y655880D01*
X245826Y656008D01*
X246044Y656159D01*
X246265Y656333D01*
X246489Y656530D01*
X246715Y656750D01*
Y653250D01*
D02*
G37*
G36*
X239297Y646750D02*
X239071Y646970D01*
X238627Y647341D01*
X238408Y647492D01*
X238193Y647620D01*
X237980Y647724D01*
X237769Y647805D01*
X237561Y647863D01*
X237356Y647898D01*
X237153Y647909D01*
Y649090D01*
X237356Y649102D01*
X237561Y649137D01*
X237769Y649195D01*
X237980Y649276D01*
X238193Y649380D01*
X238408Y649508D01*
X238627Y649659D01*
X238847Y649833D01*
X239071Y650030D01*
X239297Y650250D01*
Y646750D01*
D02*
G37*
G36*
X69196Y600971D02*
X69061Y600819D01*
X68940Y600650D01*
X68834Y600462D01*
X68743Y600255D01*
X68666Y600031D01*
X68603Y599788D01*
X68556Y599527D01*
X68523Y599248D01*
X68504Y598951D01*
X68500Y598635D01*
X66025Y601110D01*
X66341Y601114D01*
X66917Y601166D01*
X67178Y601214D01*
X67421Y601276D01*
X67645Y601353D01*
X67851Y601444D01*
X68039Y601550D01*
X68209Y601671D01*
X68361Y601806D01*
X69196Y600971D01*
D02*
G37*
G36*
Y594471D02*
X69061Y594319D01*
X68940Y594150D01*
X68834Y593962D01*
X68743Y593755D01*
X68666Y593531D01*
X68603Y593288D01*
X68556Y593027D01*
X68523Y592748D01*
X68504Y592451D01*
X68500Y592135D01*
X66025Y594610D01*
X66341Y594614D01*
X66917Y594666D01*
X67178Y594714D01*
X67421Y594776D01*
X67645Y594853D01*
X67851Y594944D01*
X68039Y595050D01*
X68209Y595171D01*
X68361Y595306D01*
X69196Y594471D01*
D02*
G37*
G36*
X51916Y642508D02*
X57612Y639124D01*
X58182Y638889D01*
X58643Y638748D01*
X58997Y638701D01*
X59235Y637520D01*
X58694Y637463D01*
X58132Y637294D01*
X57550Y637012D01*
X56947Y636616D01*
X56324Y636108D01*
X55681Y635487D01*
X55017Y634753D01*
X54333Y633907D01*
X52903Y631874D01*
X50588Y643401D01*
X51916Y642508D01*
D02*
G37*
G36*
X203215Y630860D02*
X202989Y631080D01*
X202544Y631452D01*
X202326Y631602D01*
X202110Y631730D01*
X201897Y631834D01*
X201687Y631915D01*
X201479Y631973D01*
X201273Y632008D01*
X201071Y632020D01*
Y633201D01*
X201273Y633212D01*
X201479Y633247D01*
X201687Y633305D01*
X201897Y633386D01*
X202110Y633491D01*
X202326Y633618D01*
X202544Y633769D01*
X202765Y633943D01*
X202989Y634140D01*
X203215Y634360D01*
Y630860D01*
D02*
G37*
G36*
X43636Y540187D02*
X44293Y539615D01*
X44605Y539383D01*
X44906Y539187D01*
X45196Y539026D01*
X45475Y538901D01*
X45744Y538812D01*
X46001Y538758D01*
X46248Y538740D01*
Y537559D01*
X46001Y537541D01*
X45744Y537488D01*
X45475Y537398D01*
X45196Y537273D01*
X44906Y537113D01*
X44605Y536916D01*
X44293Y536684D01*
X43970Y536416D01*
X43291Y535773D01*
Y540527D01*
X43636Y540187D01*
D02*
G37*
G36*
X42904Y535380D02*
X42332Y534723D01*
X42100Y534411D01*
X41903Y534110D01*
X41743Y533820D01*
X41618Y533541D01*
X41528Y533272D01*
X41475Y533015D01*
X41457Y532768D01*
X40276D01*
X40258Y533015D01*
X40204Y533272D01*
X40115Y533541D01*
X39990Y533820D01*
X39829Y534110D01*
X39632Y534411D01*
X39400Y534723D01*
X39132Y535046D01*
X38489Y535725D01*
X43243D01*
X42904Y535380D01*
D02*
G37*
G36*
X47142Y375205D02*
X46907Y374961D01*
X46537Y374526D01*
X46402Y374333D01*
X46301Y374158D01*
X46233Y373999D01*
X46198Y373857D01*
X46197Y373733D01*
X46229Y373625D01*
X46295Y373534D01*
X44637Y375193D01*
X44727Y375127D01*
X44835Y375095D01*
X44960Y375096D01*
X45101Y375131D01*
X45260Y375199D01*
X45436Y375300D01*
X45628Y375435D01*
X45837Y375603D01*
X46307Y376040D01*
X47142Y375205D01*
D02*
G37*
G36*
X340410Y603312D02*
X340065Y603651D01*
X339408Y604223D01*
X339096Y604455D01*
X338795Y604652D01*
X338505Y604813D01*
X338226Y604938D01*
X337957Y605027D01*
X337700Y605081D01*
X337453Y605098D01*
Y606280D01*
X337700Y606297D01*
X337957Y606351D01*
X338226Y606440D01*
X338505Y606565D01*
X338795Y606726D01*
X339096Y606923D01*
X339408Y607155D01*
X339731Y607423D01*
X340410Y608066D01*
Y603312D01*
D02*
G37*
G36*
X347584Y444378D02*
X347800Y444236D01*
X348048Y444111D01*
X348328Y444003D01*
X348639Y443913D01*
X348983Y443839D01*
X349358Y443784D01*
X349765Y443745D01*
X350675Y443720D01*
X347382Y440427D01*
X347378Y440898D01*
X347319Y441744D01*
X347263Y442119D01*
X347190Y442463D01*
X347099Y442774D01*
X346992Y443054D01*
X346867Y443302D01*
X346724Y443518D01*
X346565Y443703D01*
X347400Y444538D01*
X347584Y444378D01*
D02*
G37*
G36*
X8530Y594489D02*
X8159Y594044D01*
X8008Y593826D01*
X7880Y593610D01*
X7776Y593397D01*
X7695Y593187D01*
X7637Y592979D01*
X7602Y592773D01*
X7591Y592571D01*
X6409D01*
X6398Y592773D01*
X6363Y592979D01*
X6305Y593187D01*
X6224Y593397D01*
X6120Y593610D01*
X5992Y593826D01*
X5841Y594044D01*
X5667Y594265D01*
X5470Y594489D01*
X5250Y594715D01*
X8750D01*
X8530Y594489D01*
D02*
G37*
G36*
X38209Y581326D02*
X38153Y579729D01*
X37954Y579968D01*
X37753Y580158D01*
X37549Y580299D01*
X37343Y580392D01*
X37134Y580436D01*
X36923Y580432D01*
X36709Y580380D01*
X36493Y580279D01*
X36274Y580129D01*
X36053Y579931D01*
X35641Y581189D01*
X36328Y581914D01*
X36246Y581959D01*
X35988Y582057D01*
X35723Y582116D01*
X35453Y582136D01*
X35805Y583317D01*
X35996Y583331D01*
X36220Y583373D01*
X36477Y583444D01*
X36767Y583544D01*
X37448Y583827D01*
X38261Y584224D01*
X39207Y584734D01*
X38209Y581326D01*
D02*
G37*
G36*
X31030Y574989D02*
X30659Y574544D01*
X30508Y574326D01*
X30380Y574110D01*
X30276Y573897D01*
X30195Y573687D01*
X30137Y573479D01*
X30102Y573274D01*
X30091Y573071D01*
X28909D01*
X28898Y573274D01*
X28863Y573479D01*
X28805Y573687D01*
X28724Y573897D01*
X28620Y574110D01*
X28492Y574326D01*
X28341Y574544D01*
X28167Y574765D01*
X27970Y574989D01*
X27750Y575215D01*
X31250D01*
X31030Y574989D01*
D02*
G37*
G36*
X47136Y418821D02*
X46977Y418636D01*
X46834Y418420D01*
X46709Y418172D01*
X46601Y417893D01*
X46511Y417581D01*
X46438Y417237D01*
X46382Y416862D01*
X46344Y416455D01*
X46319Y415545D01*
X43025Y418839D01*
X43496Y418842D01*
X44342Y418902D01*
X44718Y418958D01*
X45061Y419031D01*
X45373Y419121D01*
X45653Y419229D01*
X45901Y419354D01*
X46117Y419496D01*
X46301Y419656D01*
X47136Y418821D01*
D02*
G37*
G36*
Y386104D02*
X46977Y385920D01*
X46834Y385704D01*
X46709Y385456D01*
X46601Y385176D01*
X46511Y384864D01*
X46438Y384521D01*
X46382Y384145D01*
X46344Y383738D01*
X46319Y382828D01*
X43025Y386122D01*
X43496Y386126D01*
X44342Y386185D01*
X44718Y386241D01*
X45061Y386314D01*
X45373Y386404D01*
X45653Y386512D01*
X45901Y386637D01*
X46117Y386780D01*
X46301Y386939D01*
X47136Y386104D01*
D02*
G37*
G36*
X328960Y669559D02*
X328920Y669559D01*
X328868Y669543D01*
X328804Y669511D01*
X328728Y669462D01*
X328641Y669399D01*
X328432Y669223D01*
X328176Y668984D01*
X328030Y668841D01*
X326970Y669902D01*
X327074Y670009D01*
X327241Y670200D01*
X327304Y670285D01*
X327354Y670363D01*
X327391Y670433D01*
X327414Y670496D01*
X327423Y670551D01*
X327419Y670599D01*
X327402Y670640D01*
X328960Y669559D01*
D02*
G37*
G36*
X323777Y559217D02*
X323627Y559052D01*
X323493Y558876D01*
X323375Y558687D01*
X323273Y558486D01*
X323187Y558273D01*
X323117Y558048D01*
X323064Y557810D01*
X323026Y557561D01*
X323005Y557299D01*
X323000Y557025D01*
X320525Y559500D01*
X320799Y559505D01*
X321061Y559526D01*
X321310Y559564D01*
X321548Y559618D01*
X321773Y559687D01*
X321986Y559773D01*
X322187Y559875D01*
X322376Y559993D01*
X322552Y560127D01*
X322717Y560277D01*
X323777Y559217D01*
D02*
G37*
G36*
X23530Y574489D02*
X23159Y574044D01*
X23008Y573826D01*
X22880Y573610D01*
X22776Y573397D01*
X22695Y573187D01*
X22637Y572979D01*
X22602Y572774D01*
X22591Y572571D01*
X21409D01*
X21398Y572774D01*
X21363Y572979D01*
X21305Y573187D01*
X21224Y573397D01*
X21120Y573610D01*
X20992Y573826D01*
X20841Y574044D01*
X20667Y574265D01*
X20470Y574489D01*
X20250Y574715D01*
X23750D01*
X23530Y574489D01*
D02*
G37*
G36*
X340410Y286383D02*
X340065Y286722D01*
X339408Y287294D01*
X339096Y287526D01*
X338795Y287723D01*
X338505Y287883D01*
X338226Y288008D01*
X337957Y288098D01*
X337700Y288151D01*
X337453Y288169D01*
Y289350D01*
X337700Y289368D01*
X337957Y289422D01*
X338226Y289511D01*
X338505Y289636D01*
X338795Y289797D01*
X339096Y289994D01*
X339408Y290226D01*
X339731Y290494D01*
X340410Y291137D01*
Y286383D01*
D02*
G37*
G36*
X355252Y285757D02*
X356397Y285043D01*
X356732Y284868D01*
X357334Y284614D01*
X357599Y284534D01*
X357842Y284487D01*
X358062Y284471D01*
X358268Y283290D01*
X358005Y283271D01*
X357741Y283213D01*
X357478Y283117D01*
X357214Y282983D01*
X356950Y282811D01*
X356686Y282600D01*
X356421Y282351D01*
X356156Y282063D01*
X355891Y281738D01*
X355626Y281374D01*
X354823Y286059D01*
X355252Y285757D01*
D02*
G37*
G36*
X385291Y283218D02*
X385461Y283098D01*
X385649Y282992D01*
X385855Y282900D01*
X386079Y282823D01*
X386322Y282761D01*
X386583Y282713D01*
X386862Y282680D01*
X387159Y282661D01*
X387475Y282657D01*
X385000Y280183D01*
X384996Y280498D01*
X384944Y281075D01*
X384896Y281335D01*
X384834Y281578D01*
X384757Y281803D01*
X384666Y282009D01*
X384560Y282197D01*
X384439Y282367D01*
X384304Y282518D01*
X385139Y283353D01*
X385291Y283218D01*
D02*
G37*
G36*
X345604Y279892D02*
X346261Y279320D01*
X346573Y279088D01*
X346874Y278892D01*
X347164Y278731D01*
X347444Y278606D01*
X347712Y278516D01*
X347969Y278463D01*
X348216Y278445D01*
Y277264D01*
X347969Y277246D01*
X347712Y277192D01*
X347444Y277103D01*
X347164Y276978D01*
X346874Y276817D01*
X346573Y276621D01*
X346261Y276389D01*
X345938Y276120D01*
X345260Y275477D01*
Y280231D01*
X345604Y279892D01*
D02*
G37*
G36*
X301537Y241201D02*
X301730Y241026D01*
X301926Y240873D01*
X302127Y240739D01*
X302331Y240626D01*
X302539Y240534D01*
X302752Y240462D01*
X302968Y240411D01*
X303188Y240380D01*
X303412Y240370D01*
X303354Y238870D01*
X303133Y238860D01*
X302914Y238831D01*
X302696Y238783D01*
X302480Y238715D01*
X302266Y238627D01*
X302053Y238520D01*
X301842Y238394D01*
X301633Y238248D01*
X301426Y238083D01*
X301219Y237898D01*
X301349Y241395D01*
X301537Y241201D01*
D02*
G37*
G36*
X341773Y233716D02*
X340810Y234695D01*
X338225Y237015D01*
X337465Y237581D01*
X336755Y238045D01*
X336096Y238406D01*
X335488Y238664D01*
X334931Y238819D01*
X334424Y238870D01*
X334441Y240370D01*
X334938Y240421D01*
X335491Y240574D01*
X336099Y240829D01*
X336763Y241186D01*
X337481Y241646D01*
X338255Y242207D01*
X339968Y243635D01*
X341903Y245472D01*
X341773Y233716D01*
D02*
G37*
G36*
X331737Y186169D02*
X331411Y186132D01*
X330819Y186026D01*
X330553Y185958D01*
X330308Y185880D01*
X330082Y185791D01*
X329876Y185692D01*
X329691Y185582D01*
X329525Y185462D01*
X329380Y185332D01*
X328454Y186077D01*
X328593Y186233D01*
X328714Y186406D01*
X328816Y186595D01*
X328900Y186800D01*
X328965Y187021D01*
X329012Y187259D01*
X329041Y187512D01*
X329051Y187782D01*
X329043Y188068D01*
X329016Y188371D01*
X331737Y186169D01*
D02*
G37*
G36*
X325566Y181518D02*
X325431Y181367D01*
X325310Y181197D01*
X325204Y181009D01*
X325113Y180803D01*
X325036Y180578D01*
X324974Y180335D01*
X324926Y180075D01*
X324893Y179795D01*
X324874Y179498D01*
X324870Y179183D01*
X322395Y181657D01*
X322711Y181661D01*
X323287Y181713D01*
X323548Y181761D01*
X323791Y181823D01*
X324015Y181900D01*
X324221Y181992D01*
X324410Y182098D01*
X324579Y182218D01*
X324731Y182353D01*
X325566Y181518D01*
D02*
G37*
G36*
X355744Y175666D02*
X354220Y175736D01*
X350368Y175660D01*
X349324Y175540D01*
X348400Y175371D01*
X347596Y175154D01*
X346912Y174890D01*
X346349Y174578D01*
X345905Y174218D01*
X344897Y175331D01*
X345225Y175740D01*
X345526Y176281D01*
X345799Y176955D01*
X346044Y177762D01*
X346262Y178701D01*
X346615Y180978D01*
X346750Y182315D01*
X346936Y185388D01*
X355744Y175666D01*
D02*
G37*
G36*
X45704Y171447D02*
X46344Y170891D01*
X46649Y170665D01*
X46943Y170474D01*
X47228Y170317D01*
X47502Y170196D01*
X47765Y170109D01*
X48019Y170057D01*
X48262Y170039D01*
Y168858D01*
X48019Y168841D01*
X47765Y168789D01*
X47502Y168702D01*
X47228Y168580D01*
X46943Y168424D01*
X46649Y168233D01*
X46344Y168007D01*
X46029Y167746D01*
X45368Y167120D01*
Y171777D01*
X45704Y171447D01*
D02*
G37*
G36*
X329464Y157777D02*
X329320Y157621D01*
X329185Y157451D01*
X329060Y157267D01*
X328945Y157069D01*
X328840Y156857D01*
X328745Y156632D01*
X328659Y156392D01*
X328584Y156139D01*
X328461Y155590D01*
X326487Y158480D01*
X326742Y158439D01*
X326988Y158420D01*
X327224Y158423D01*
X327451Y158447D01*
X327668Y158493D01*
X327876Y158560D01*
X328075Y158650D01*
X328264Y158761D01*
X328443Y158893D01*
X328613Y159048D01*
X329464Y157777D01*
D02*
G37*
G36*
X46323Y158039D02*
X46382Y157193D01*
X46438Y156818D01*
X46511Y156474D01*
X46601Y156163D01*
X46709Y155883D01*
X46834Y155635D01*
X46977Y155419D01*
X47136Y155235D01*
X46301Y154399D01*
X46117Y154559D01*
X45901Y154701D01*
X45653Y154826D01*
X45373Y154934D01*
X45061Y155025D01*
X44718Y155098D01*
X44342Y155153D01*
X43935Y155192D01*
X43025Y155217D01*
X46319Y158510D01*
X46323Y158039D01*
D02*
G37*
G36*
X35141Y152586D02*
X35201Y151740D01*
X35257Y151365D01*
X35330Y151022D01*
X35420Y150710D01*
X35528Y150430D01*
X35653Y150182D01*
X35795Y149966D01*
X35955Y149782D01*
X35120Y148946D01*
X34936Y149106D01*
X34719Y149249D01*
X34471Y149374D01*
X34192Y149481D01*
X33880Y149572D01*
X33537Y149645D01*
X33161Y149701D01*
X32754Y149739D01*
X31844Y149764D01*
X35138Y153057D01*
X35141Y152586D01*
D02*
G37*
G36*
X39868Y151622D02*
X40084Y151480D01*
X40332Y151355D01*
X40611Y151247D01*
X40923Y151156D01*
X41267Y151084D01*
X41642Y151028D01*
X42049Y150989D01*
X42959Y150964D01*
X39666Y147671D01*
X39662Y148142D01*
X39602Y148988D01*
X39546Y149363D01*
X39473Y149707D01*
X39383Y150019D01*
X39275Y150298D01*
X39150Y150546D01*
X39008Y150762D01*
X38848Y150947D01*
X39683Y151782D01*
X39868Y151622D01*
D02*
G37*
G36*
X349930Y143498D02*
X349673Y143549D01*
X349424Y143575D01*
X349183Y143577D01*
X348950Y143555D01*
X348725Y143508D01*
X348508Y143437D01*
X348299Y143342D01*
X348098Y143222D01*
X347906Y143078D01*
X347721Y142910D01*
X346886Y143745D01*
X347055Y143930D01*
X347199Y144122D01*
X347318Y144323D01*
X347413Y144532D01*
X347484Y144748D01*
X347531Y144973D01*
X347553Y145206D01*
X347551Y145447D01*
X347525Y145696D01*
X347474Y145954D01*
X349930Y143498D01*
D02*
G37*
G36*
X46323Y147134D02*
X46382Y146288D01*
X46438Y145912D01*
X46511Y145569D01*
X46601Y145257D01*
X46709Y144977D01*
X46834Y144729D01*
X46977Y144513D01*
X47136Y144329D01*
X46301Y143494D01*
X46117Y143653D01*
X45901Y143796D01*
X45653Y143921D01*
X45373Y144029D01*
X45061Y144119D01*
X44718Y144192D01*
X44342Y144248D01*
X43935Y144286D01*
X43025Y144311D01*
X46319Y147605D01*
X46323Y147134D01*
D02*
G37*
G36*
X61111Y144857D02*
X61556Y144486D01*
X61774Y144335D01*
X61990Y144208D01*
X62203Y144104D01*
X62413Y144023D01*
X62621Y143965D01*
X62827Y143930D01*
X63029Y143918D01*
Y142737D01*
X62827Y142725D01*
X62621Y142691D01*
X62413Y142633D01*
X62203Y142552D01*
X61990Y142447D01*
X61774Y142320D01*
X61556Y142169D01*
X61335Y141995D01*
X61111Y141798D01*
X60885Y141578D01*
Y145078D01*
X61111Y144857D01*
D02*
G37*
G36*
X358765Y145264D02*
X358981Y145122D01*
X359229Y144997D01*
X359509Y144889D01*
X359821Y144798D01*
X360164Y144725D01*
X360540Y144669D01*
X360947Y144631D01*
X361857Y144606D01*
X358563Y141313D01*
X358559Y141784D01*
X358500Y142630D01*
X358444Y143005D01*
X358371Y143349D01*
X358281Y143660D01*
X358173Y143940D01*
X358048Y144188D01*
X357906Y144404D01*
X357746Y144588D01*
X358581Y145424D01*
X358765Y145264D01*
D02*
G37*
G36*
X31778Y138858D02*
X31307Y138855D01*
X30461Y138795D01*
X30085Y138739D01*
X29742Y138666D01*
X29430Y138576D01*
X29151Y138468D01*
X28903Y138343D01*
X28686Y138201D01*
X28502Y138041D01*
X27667Y138876D01*
X27827Y139060D01*
X27969Y139277D01*
X28094Y139524D01*
X28202Y139804D01*
X28292Y140116D01*
X28365Y140459D01*
X28421Y140835D01*
X28460Y141242D01*
X28484Y142152D01*
X31778Y138858D01*
D02*
G37*
G36*
X254715Y134907D02*
X254489Y135128D01*
X254044Y135499D01*
X253826Y135650D01*
X253610Y135777D01*
X253397Y135881D01*
X253187Y135963D01*
X252979Y136021D01*
X252773Y136055D01*
X252571Y136067D01*
Y137248D01*
X252773Y137260D01*
X252979Y137294D01*
X253187Y137352D01*
X253397Y137434D01*
X253610Y137538D01*
X253826Y137665D01*
X254044Y137816D01*
X254265Y137990D01*
X254489Y138187D01*
X254715Y138408D01*
Y134907D01*
D02*
G37*
G36*
X72011Y138187D02*
X72456Y137816D01*
X72674Y137665D01*
X72890Y137538D01*
X73103Y137434D01*
X73313Y137352D01*
X73521Y137294D01*
X73726Y137260D01*
X73929Y137248D01*
Y136067D01*
X73726Y136055D01*
X73521Y136021D01*
X73313Y135963D01*
X73103Y135881D01*
X72890Y135777D01*
X72674Y135650D01*
X72456Y135499D01*
X72235Y135325D01*
X72011Y135128D01*
X71785Y134907D01*
Y138408D01*
X72011Y138187D01*
D02*
G37*
G36*
X353420Y137825D02*
X354060Y137269D01*
X354365Y137043D01*
X354660Y136852D01*
X354944Y136695D01*
X355218Y136574D01*
X355482Y136487D01*
X355735Y136435D01*
X355979Y136417D01*
Y135236D01*
X355735Y135219D01*
X355482Y135167D01*
X355218Y135080D01*
X354944Y134958D01*
X354660Y134802D01*
X354365Y134610D01*
X354060Y134385D01*
X353745Y134124D01*
X353084Y133498D01*
Y138155D01*
X353420Y137825D01*
D02*
G37*
G36*
X359514Y128045D02*
X359178Y128375D01*
X358538Y128932D01*
X358233Y129158D01*
X357939Y129349D01*
X357654Y129505D01*
X357380Y129627D01*
X357117Y129714D01*
X356863Y129766D01*
X356620Y129783D01*
Y130965D01*
X356863Y130982D01*
X357117Y131034D01*
X357380Y131121D01*
X357654Y131243D01*
X357939Y131399D01*
X358233Y131590D01*
X358538Y131816D01*
X358853Y132077D01*
X359514Y132703D01*
Y128045D01*
D02*
G37*
G36*
X33829Y128621D02*
X33757Y128526D01*
X33692Y128414D01*
X33637Y128285D01*
X33590Y128138D01*
X33552Y127975D01*
X33522Y127795D01*
X33500Y127597D01*
X33483Y127151D01*
X32302D01*
X32297Y127302D01*
X32280Y127436D01*
X32252Y127556D01*
X32213Y127659D01*
X32162Y127747D01*
X32101Y127820D01*
X32028Y127876D01*
X31944Y127918D01*
X31849Y127943D01*
X31743Y127954D01*
X33910Y128699D01*
X33829Y128621D01*
D02*
G37*
G36*
X348333Y122593D02*
X347997Y122923D01*
X347357Y123479D01*
X347052Y123705D01*
X346757Y123896D01*
X346473Y124053D01*
X346199Y124174D01*
X345935Y124261D01*
X345682Y124313D01*
X345439Y124331D01*
Y125512D01*
X345682Y125529D01*
X345935Y125581D01*
X346199Y125668D01*
X346473Y125790D01*
X346757Y125946D01*
X347052Y126138D01*
X347357Y126364D01*
X347672Y126624D01*
X348333Y127250D01*
Y122593D01*
D02*
G37*
G36*
X359514Y117140D02*
X359178Y117470D01*
X358538Y118026D01*
X358233Y118252D01*
X357939Y118444D01*
X357654Y118600D01*
X357380Y118722D01*
X357117Y118808D01*
X356863Y118861D01*
X356620Y118878D01*
Y120059D01*
X356863Y120077D01*
X357117Y120129D01*
X357380Y120216D01*
X357654Y120337D01*
X357939Y120494D01*
X358233Y120685D01*
X358538Y120911D01*
X358853Y121172D01*
X359514Y121797D01*
Y117140D01*
D02*
G37*
D15*
X86000Y630110D02*
Y749610D01*
X59500Y603610D02*
X86000Y630110D01*
X22000Y420000D02*
X29500Y412500D01*
X22000Y420000D02*
Y576500D01*
X7000Y583418D02*
Y596500D01*
X7692Y582726D02*
X38287D01*
X7000Y583418D02*
X7692Y582726D01*
X27500Y653500D02*
Y706326D01*
X26000Y707826D02*
X27500Y706326D01*
X26000Y707826D02*
Y759619D01*
X29500Y640000D02*
X34000Y644500D01*
Y760850D02*
X40866Y767717D01*
X34000Y644500D02*
Y760850D01*
X26000Y759619D02*
X39550Y773169D01*
X50866D01*
X40866Y767717D02*
X76606D01*
X22000Y635110D02*
X48000Y609110D01*
X22000Y635110D02*
Y792610D01*
X35276Y805886D01*
X41981Y414501D02*
X52500Y425020D01*
X29500Y478500D02*
X52500Y455500D01*
Y425020D02*
Y455500D01*
X29500Y478500D02*
Y577000D01*
X39516Y581772D02*
X40866D01*
X34000Y578713D02*
X38287Y583000D01*
X39516Y581772D01*
X48000Y609110D02*
X52000D01*
X378000Y289657D02*
X387500Y280157D01*
X369500Y289657D02*
X378000D01*
X363723Y283880D02*
X369500Y289657D01*
X367200Y113928D02*
Y133528D01*
X342835Y277854D02*
X360646D01*
X367200Y133528D02*
Y271300D01*
X360646Y277854D02*
X367200Y271300D01*
X333000Y602500D02*
X336189Y605689D01*
X333000Y458102D02*
X350709Y440394D01*
X333000Y458102D02*
Y602500D01*
X336189Y605689D02*
X342835D01*
X322370Y179157D02*
X331500Y188287D01*
Y188657D01*
X353408Y283880D02*
X363723D01*
X352835Y283307D02*
X353408Y283880D01*
X366800Y133528D02*
X367082D01*
X366800Y113928D02*
X367082D01*
X345000Y283157D02*
X348500Y286658D01*
X315421Y283157D02*
X345000D01*
X348500Y286658D02*
Y291657D01*
X215376Y183113D02*
X315421Y283157D01*
X342835Y299665D02*
X343908Y298592D01*
Y296249D02*
Y298592D01*
Y296249D02*
X348500Y291657D01*
X310118Y288760D02*
X342835D01*
X210492Y189134D02*
X310118Y288760D01*
X210492Y169449D02*
Y189134D01*
X122390Y648500D02*
X241082D01*
X66000Y592110D02*
X122390Y648500D01*
X66000Y598610D02*
X122390Y655000D01*
X248500D01*
X86000Y749610D02*
X133500Y797110D01*
Y801110D01*
X106195Y777305D02*
Y784805D01*
X133000Y811610D01*
X307500D02*
Y825110D01*
X231500Y775110D02*
Y823221D01*
Y775110D02*
X232000Y774610D01*
X70000Y136658D02*
X256500D01*
X60256Y130374D02*
X361890D01*
X42992Y147638D02*
X60256Y130374D01*
X46400Y131328D02*
X52806Y124921D01*
X350709D01*
X215376Y163428D02*
Y183113D01*
X47520Y638110D02*
X74500D01*
X45866Y636457D02*
X47520Y638110D01*
X58398Y554508D02*
X59500Y555610D01*
Y603610D01*
X50866Y751358D02*
X57252D01*
X50866Y554508D02*
X58398D01*
X57252Y751358D02*
X59000Y749610D01*
X86000D01*
X35276Y805886D02*
X50866D01*
X76606Y767717D02*
X113500Y804610D01*
Y811110D01*
X50866Y773169D02*
X62559D01*
X96000Y806610D01*
Y811110D01*
X60539Y538150D02*
X155000Y632610D01*
X205000D01*
X344391Y151559D02*
X354968D01*
X357065Y146105D02*
Y149463D01*
X354968Y151559D02*
X357065Y149463D01*
Y146105D02*
X361890Y141280D01*
X40866Y538150D02*
X60539D01*
X50866Y598130D02*
X51356Y598620D01*
X40866Y592677D02*
X40900Y592644D01*
X40866Y756811D02*
X85701D01*
X106195Y777305D01*
X42992Y382795D02*
X57293Y397096D01*
X34000Y533610D02*
X57293Y510317D01*
Y397096D02*
Y510317D01*
X34000Y533610D02*
Y578713D01*
X40866Y531744D02*
X43677Y528933D01*
X40866Y531744D02*
Y538150D01*
X43677Y528933D02*
X43677D01*
X62000Y390898D02*
Y510610D01*
X43677Y528933D02*
X62000Y510610D01*
X42992Y371890D02*
X62000Y390898D01*
X59100Y143328D02*
X347304D01*
X350709Y146732D01*
X38100Y152530D02*
X42992Y147638D01*
X38100Y152530D02*
Y161528D01*
X40000Y163428D01*
X215376D01*
X42992Y158543D02*
X52832Y148704D01*
X341535D01*
X344391Y151559D01*
X42992Y169449D02*
X210492D01*
X31811Y131280D02*
X32893Y130198D01*
Y127151D02*
Y130198D01*
Y127151D02*
X40576Y119469D01*
X361890D01*
X26900Y137274D02*
X31811Y142185D01*
X26900Y117128D02*
Y137274D01*
Y117128D02*
X32000Y112028D01*
X331000D01*
X334700Y108328D01*
X361600D01*
X366800Y113528D01*
Y113928D01*
X350709Y135827D02*
X364501D01*
X366800Y133528D01*
X39600Y131328D02*
X46400D01*
X37400Y133528D02*
X39600Y131328D01*
X37400Y133528D02*
Y147502D01*
X31811Y153091D02*
X37400Y147502D01*
D42*
X9000Y710000D02*
X17000Y702000D01*
X9000Y710000D02*
Y786000D01*
X327500Y669371D02*
X329500Y671371D01*
X320500Y557000D02*
X327500Y564000D01*
X329500Y671371D02*
Y672000D01*
X327500Y564000D02*
Y669371D01*
X326654Y156028D02*
X355646Y185020D01*
X299592Y239620D02*
X347742D01*
D43*
X347835Y687638D02*
D03*
Y556457D02*
D03*
X45866Y505276D02*
D03*
Y636457D02*
D03*
Y833307D02*
D03*
Y702126D02*
D03*
X347835Y370709D02*
D03*
Y239528D02*
D03*
D44*
X342835Y660217D02*
D03*
X50866Y532697D02*
D03*
Y729547D02*
D03*
X342835Y343287D02*
D03*
D45*
X342835Y649311D02*
D03*
Y638406D02*
D03*
Y627500D02*
D03*
Y616595D02*
D03*
Y605689D02*
D03*
Y594783D02*
D03*
Y583878D02*
D03*
X352835Y654764D02*
D03*
Y643858D02*
D03*
Y632953D02*
D03*
Y622047D02*
D03*
Y611142D02*
D03*
Y600236D02*
D03*
Y589331D02*
D03*
X50866Y543602D02*
D03*
Y554508D02*
D03*
Y565413D02*
D03*
Y576319D02*
D03*
Y587224D02*
D03*
Y598130D02*
D03*
Y609035D02*
D03*
X40866Y538150D02*
D03*
Y549055D02*
D03*
Y559961D02*
D03*
Y570866D02*
D03*
Y581772D02*
D03*
Y592677D02*
D03*
Y603583D02*
D03*
Y800433D02*
D03*
Y789528D02*
D03*
Y778622D02*
D03*
Y767717D02*
D03*
Y756811D02*
D03*
Y745905D02*
D03*
Y735000D02*
D03*
X50866Y805886D02*
D03*
Y794980D02*
D03*
Y784075D02*
D03*
Y773169D02*
D03*
Y762264D02*
D03*
Y751358D02*
D03*
Y740453D02*
D03*
X342835Y332382D02*
D03*
Y321476D02*
D03*
Y310571D02*
D03*
Y299665D02*
D03*
Y288760D02*
D03*
Y277854D02*
D03*
Y266949D02*
D03*
X352835Y337835D02*
D03*
Y326929D02*
D03*
Y316024D02*
D03*
Y305118D02*
D03*
Y294213D02*
D03*
Y283307D02*
D03*
Y272402D02*
D03*
D46*
X350709Y114016D02*
D03*
X361890Y119469D02*
D03*
X350709Y124921D02*
D03*
X361890Y130374D02*
D03*
X350709Y135827D02*
D03*
X361890Y141280D02*
D03*
X350709Y146732D02*
D03*
X361890Y152185D02*
D03*
X350709Y440394D02*
D03*
X361890Y445847D02*
D03*
X350709Y451299D02*
D03*
X361890Y456752D02*
D03*
X350709Y462205D02*
D03*
X361890Y467658D02*
D03*
X350709Y473110D02*
D03*
X361890Y478563D02*
D03*
X31811Y377343D02*
D03*
X42992Y382795D02*
D03*
X31811Y388248D02*
D03*
X42992Y393701D02*
D03*
X31811Y399153D02*
D03*
X42992Y404606D02*
D03*
X31811Y410059D02*
D03*
X42992Y415512D02*
D03*
X42992Y169449D02*
D03*
X31811Y163996D02*
D03*
X42992Y158543D02*
D03*
X31811Y153091D02*
D03*
X42992Y147638D02*
D03*
X31811Y142185D02*
D03*
X42992Y136732D02*
D03*
X31811Y131280D02*
D03*
D47*
X350709Y157638D02*
D03*
Y484016D02*
D03*
X42992Y371890D02*
D03*
X42992Y125827D02*
D03*
D48*
X356299Y185020D02*
D03*
Y86634D02*
D03*
Y511398D02*
D03*
Y413012D02*
D03*
X37402Y442894D02*
D03*
Y344508D02*
D03*
X37402Y98445D02*
D03*
Y196831D02*
D03*
D49*
X215000Y18183D02*
D03*
Y58183D02*
D03*
X175000D02*
D03*
Y18183D02*
D03*
D50*
X195000Y43222D02*
D03*
D51*
X372441Y734842D02*
D03*
Y784842D02*
D03*
D52*
X343701Y841610D02*
D03*
Y851610D02*
D03*
X256721Y885827D02*
D03*
D53*
X363701Y861610D02*
D03*
Y821610D02*
D03*
D54*
X256721Y868110D02*
D03*
D55*
X192480Y889610D02*
D03*
X182480D02*
D03*
X172480D02*
D03*
X162480D02*
D03*
X152480D02*
D03*
X142480D02*
D03*
X132480D02*
D03*
X122480D02*
D03*
X192480Y899610D02*
D03*
X182480D02*
D03*
X122480D02*
D03*
X132480D02*
D03*
X142480D02*
D03*
X152480D02*
D03*
X162480D02*
D03*
X172480D02*
D03*
D56*
X113500Y811110D02*
D03*
X96000D02*
D03*
D57*
X77500Y637610D02*
D03*
X22000Y576500D02*
D03*
X7000Y596500D02*
D03*
X27500Y653500D02*
D03*
X29500Y640000D02*
D03*
Y577000D02*
D03*
X383858Y826772D02*
D03*
X354331Y767717D02*
D03*
X383858Y708661D02*
D03*
Y590551D02*
D03*
X354331Y531496D02*
D03*
X383858Y472441D02*
D03*
Y354331D02*
D03*
Y118110D02*
D03*
X354331Y59055D02*
D03*
X295276Y767717D02*
D03*
X324803Y708661D02*
D03*
X295276Y649606D02*
D03*
Y531496D02*
D03*
X324803Y472441D02*
D03*
Y354331D02*
D03*
X295276Y295276D02*
D03*
Y59055D02*
D03*
X265748Y826772D02*
D03*
Y708661D02*
D03*
Y590551D02*
D03*
X236221Y531496D02*
D03*
X265748Y472441D02*
D03*
X236221Y413386D02*
D03*
X265748Y354331D02*
D03*
X236221Y295276D02*
D03*
Y59055D02*
D03*
X206693Y708661D02*
D03*
Y590551D02*
D03*
X177165Y531496D02*
D03*
X206693Y472441D02*
D03*
X177165Y413386D02*
D03*
X206693Y354331D02*
D03*
X177165Y295276D02*
D03*
X206693Y236221D02*
D03*
X177165Y177165D02*
D03*
X147638Y826772D02*
D03*
X118110Y767717D02*
D03*
X147638Y708661D02*
D03*
Y590551D02*
D03*
X118110Y531496D02*
D03*
X147638Y472441D02*
D03*
X118110Y413386D02*
D03*
X147638Y354331D02*
D03*
X118110Y295276D02*
D03*
X147638Y236221D02*
D03*
X118110Y177165D02*
D03*
Y59055D02*
D03*
X88583Y826772D02*
D03*
X59055Y649606D02*
D03*
X88583Y590551D02*
D03*
X59055Y531496D02*
D03*
X88583Y472441D02*
D03*
Y354331D02*
D03*
X59055Y295276D02*
D03*
X88583Y236221D02*
D03*
X59055Y59055D02*
D03*
X17000Y702000D02*
D03*
X9000Y786000D02*
D03*
X329500Y672000D02*
D03*
X320500Y557000D02*
D03*
X331500Y188657D02*
D03*
X322370Y179157D02*
D03*
X326000Y156028D02*
D03*
X387500Y280157D02*
D03*
X241082Y648500D02*
D03*
X248500Y655000D02*
D03*
X133500Y801110D02*
D03*
X133000Y811610D02*
D03*
X307500Y825110D02*
D03*
Y811610D02*
D03*
X232000Y774610D02*
D03*
X231500Y823221D02*
D03*
X70000Y136658D02*
D03*
X256500D02*
D03*
X299500Y239713D02*
D03*
X205000Y632610D02*
D03*
X66000Y592110D02*
D03*
Y598610D02*
D03*
X59100Y143328D02*
D03*
D58*
X363701Y821610D02*
Y861610D01*
M02*
