G04*
G04 #@! TF.GenerationSoftware,Altium Limited,Altium Designer,23.3.1 (30)*
G04*
G04 Layer_Color=16711935*
%FSLAX25Y25*%
%MOIN*%
G70*
G04*
G04 #@! TF.SameCoordinates,0E6FF7DC-0273-4275-BA36-AC07C98EDA83*
G04*
G04*
G04 #@! TF.FilePolarity,Negative*
G04*
G01*
G75*
%ADD27C,0.17595*%
%ADD28R,0.07591X0.07591*%
%ADD29C,0.07591*%
%ADD30C,0.07453*%
%ADD31R,0.07453X0.07453*%
%ADD32C,0.19540*%
%ADD33C,0.08450*%
%ADD34C,0.14087*%
%ADD35C,0.13398*%
%ADD36C,0.07887*%
%ADD37C,0.14580*%
%ADD38C,0.08674*%
%ADD39C,0.06600*%
%ADD40R,0.07591X0.07591*%
D27*
X347835Y687638D02*
D03*
Y556457D02*
D03*
X45866Y505276D02*
D03*
Y636457D02*
D03*
Y833307D02*
D03*
Y702126D02*
D03*
X347835Y370709D02*
D03*
Y239528D02*
D03*
D28*
X342835Y660217D02*
D03*
X50866Y532697D02*
D03*
Y729547D02*
D03*
X342835Y343287D02*
D03*
D29*
X342835Y649311D02*
D03*
Y638406D02*
D03*
Y627500D02*
D03*
Y616595D02*
D03*
Y605689D02*
D03*
Y594783D02*
D03*
Y583878D02*
D03*
X352835Y654764D02*
D03*
Y643858D02*
D03*
Y632953D02*
D03*
Y622047D02*
D03*
Y611142D02*
D03*
Y600236D02*
D03*
Y589331D02*
D03*
X50866Y543602D02*
D03*
Y554508D02*
D03*
Y565413D02*
D03*
Y576319D02*
D03*
Y587224D02*
D03*
Y598130D02*
D03*
Y609035D02*
D03*
X40866Y538150D02*
D03*
Y549055D02*
D03*
Y559961D02*
D03*
Y570866D02*
D03*
Y581772D02*
D03*
Y592677D02*
D03*
Y603583D02*
D03*
Y800433D02*
D03*
Y789528D02*
D03*
Y778622D02*
D03*
Y767717D02*
D03*
Y756811D02*
D03*
Y745905D02*
D03*
Y735000D02*
D03*
X50866Y805886D02*
D03*
Y794980D02*
D03*
Y784075D02*
D03*
Y773169D02*
D03*
Y762264D02*
D03*
Y751358D02*
D03*
Y740453D02*
D03*
X342835Y332382D02*
D03*
Y321476D02*
D03*
Y310571D02*
D03*
Y299665D02*
D03*
Y288760D02*
D03*
Y277854D02*
D03*
Y266949D02*
D03*
X352835Y337835D02*
D03*
Y326929D02*
D03*
Y316024D02*
D03*
Y305118D02*
D03*
Y294213D02*
D03*
Y283307D02*
D03*
Y272402D02*
D03*
D30*
X350709Y114016D02*
D03*
X361890Y119469D02*
D03*
X350709Y124921D02*
D03*
X361890Y130374D02*
D03*
X350709Y135827D02*
D03*
X361890Y141280D02*
D03*
X350709Y146732D02*
D03*
X361890Y152185D02*
D03*
X350709Y440394D02*
D03*
X361890Y445847D02*
D03*
X350709Y451299D02*
D03*
X361890Y456752D02*
D03*
X350709Y462205D02*
D03*
X361890Y467658D02*
D03*
X350709Y473110D02*
D03*
X361890Y478563D02*
D03*
X31811Y377343D02*
D03*
X42992Y382795D02*
D03*
X31811Y388248D02*
D03*
X42992Y393701D02*
D03*
X31811Y399153D02*
D03*
X42992Y404606D02*
D03*
X31811Y410059D02*
D03*
X42992Y415512D02*
D03*
X42992Y169449D02*
D03*
X31811Y163996D02*
D03*
X42992Y158543D02*
D03*
X31811Y153091D02*
D03*
X42992Y147638D02*
D03*
X31811Y142185D02*
D03*
X42992Y136732D02*
D03*
X31811Y131280D02*
D03*
D31*
X350709Y157638D02*
D03*
Y484016D02*
D03*
X42992Y371890D02*
D03*
X42992Y125827D02*
D03*
D32*
X356299Y185020D02*
D03*
Y86634D02*
D03*
Y511398D02*
D03*
Y413012D02*
D03*
X37402Y442894D02*
D03*
Y344508D02*
D03*
X37402Y98445D02*
D03*
Y196831D02*
D03*
D33*
X215000Y18183D02*
D03*
Y58183D02*
D03*
X175000D02*
D03*
Y18183D02*
D03*
D34*
X195000Y43222D02*
D03*
D35*
X372441Y734842D02*
D03*
Y784842D02*
D03*
D36*
X343701Y841610D02*
D03*
Y851610D02*
D03*
X256721Y885827D02*
D03*
D37*
X363701Y861610D02*
D03*
Y821610D02*
D03*
D38*
X256721Y868110D02*
D03*
D39*
X192480Y889610D02*
D03*
X182480D02*
D03*
X172480D02*
D03*
X162480D02*
D03*
X152480D02*
D03*
X142480D02*
D03*
X132480D02*
D03*
X122480D02*
D03*
X192480Y899610D02*
D03*
X182480D02*
D03*
X122480D02*
D03*
X132480D02*
D03*
X142480D02*
D03*
X152480D02*
D03*
X162480D02*
D03*
X172480D02*
D03*
D40*
X113500Y811110D02*
D03*
X96000D02*
D03*
M02*
