M48
;Layer_Color=9474304
;FILE_FORMAT=2:4
INCH,TZ
;TYPE=PLATED
T1F00S00C0.0280
T2F00S00C0.0400
T3F00S00C0.0429
T4F00S00C0.0453
T5F00S00C0.0472
T6F00S00C0.0531
T7F00S00C0.0886
T8F00S00C0.0945
T9F00S00C0.1280
T10F00S00C0.1283
;TYPE=NON_PLATED
T11F00S00C0.0709
T12F00S00C0.0787
T13F00S00C0.1260
%
T01
X5906Y5906
X11811
X7000Y13666
X5910Y14333
X25650Y13666
X23622Y5906
X29528
X35433
X38386Y11811
X32600Y15603
X32237Y17916
X33150Y18866
X38750Y28016
X29528Y29528
X23622
X17717
X20669Y23622
X17717Y17717
X29950Y23971
X14764Y23622
X8858
X11811Y29528
X5906
X11811Y17717
X14764Y35433
X8858
X11811Y41339
X17717
X23622
X26575Y35433
X20669
X32480
X38386
Y47244
X32480
X35433Y53150
X32050Y55700
X38386Y59055
X26575
X20669
X23622Y53150
X29528
X26575Y47244
X20669
X17717Y53150
X11811
X5906
X6600Y59211
Y59861
X8858Y59055
X14764
Y47244
X8858
X2950Y57700
X2200Y57650
X700Y59650
X2950Y64000
X2750Y65350
X5906Y64961
X7750Y63761
X1700Y70200
X14764Y70866
X11811Y76772
X23200Y77461
X29528Y76772
X26575Y70866
X20669
X20500Y63261
X24108Y64850
X24850Y65500
X29528Y64961
X32950Y67200
X32480Y70866
X38386
X35433Y76772
X38386Y82677
X30750Y82511
Y81161
X26575Y82677
X23150Y82322
X14764Y82677
X13300Y81161
X13350Y80111
X8858Y82677
X900Y78600
T02
X16248Y88961
X17248
X18248
X19248
Y89961
X18248
X17248
X16248
X15248
Y88961
X14248
X13248
X12248
Y89961
X13248
X14248
T03
X3181Y13128
Y14218
Y15309
X4299Y14764
Y13673
Y12583
X35071Y12492
Y13583
Y14673
X36189Y15218
Y14128
Y13037
Y11947
X35071Y11402
Y15764
X4299Y15854
Y16945
X3181Y16400
X3181Y37734
Y38825
Y39915
Y41006
X4299Y40461
Y39370
Y38280
Y37189
Y41551
X35071Y44039
Y45130
Y46220
X36189Y45675
Y44585
Y46766
Y47856
X35071Y47311
Y48402
T04
X34283Y26695
Y27785
Y28876
Y29967
Y31057
X35283Y30512
Y29421
Y28331
Y27240
Y31602
Y32693
Y33783
X34283Y34329
Y33238
Y32148
X34283Y58388
Y59478
Y60569
Y61659
X35283Y61114
Y62205
Y60024
Y58933
X5087Y58722
Y59813
Y60904
X4087Y60358
Y59268
Y58177
Y57087
Y55996
Y54906
Y53815
X5087Y53270
Y54360
Y55451
Y56541
Y57632
Y72955
Y74045
Y75136
Y76226
Y77317
X4087Y76772
Y77862
Y75681
Y74591
Y73500
X34283Y66022
Y64931
Y63841
Y62750
X35283Y63295
Y64386
Y65476
X11350Y81111
X9600
X5087Y80589
Y79498
Y78407
X4087Y78953
Y80043
T05
X34370Y84161
Y85161
T06
X17500Y1818
X21500
Y5818
X17500
T07
X19500Y4322
T08
X36370Y82161
Y86161
T09
X34783Y23953
Y37071
X34783Y55646
X4587Y50528
Y63646
Y70213
X34783Y68764
X4587Y83331
T10
X3740Y9844
X35630Y8663
Y18502
X3740Y19683
X3740Y34451
Y44289
X35630Y41301
Y51140
T11
X25672Y88583
T12
X25672Y86811
T13
X37244Y73484
Y78484
M30
