M48
;Layer_Color=9474304
;FILE_FORMAT=2:4
INCH,TZ
;TYPE=PLATED
T1F00S00C0.0280
T2F00S00C0.0394
T3F00S00C0.0400
T4F00S00C0.0429
T5F00S00C0.0453
T6F00S00C0.0472
T7F00S00C0.0531
T8F00S00C0.0886
T9F00S00C0.0945
T10F00S00C0.1260
T11F00S00C0.1283
;TYPE=NON_PLATED
T12F00S00C0.0709
T13F00S00C0.0787
T14F00S00C0.1260
%
T01
X5906Y5906
X11811
X7000Y13666
X5910Y14333
X25650Y13666
X23622Y5906
X29528
X35433
X38386Y11811
X32600Y15603
X32237Y17916
X33150Y18866
X38750Y28016
X29528Y29528
X23622
X17717
X20669Y23622
X17717Y17789
X29950Y23971
X14764Y23622
X8858
X11811Y17789
Y29528
X5906
X8858Y35433
X14764
X11811Y41339
X17717
X23622
X26575Y35433
X20669
X32480
X38386
Y47244
X32480
X35433Y53150
X32050Y55700
X38386Y59055
X26575
X20669
X23622Y53150
X29528
X26575Y47244
X20669
X17717Y53150
X11811
X5811
X6600Y59211
Y59861
X8858Y59055
X14764
Y47244
X8858
X2350Y57650
X1700
X700Y59650
X2500Y64100
X2211Y65350
X5906Y64961
X7750Y63761
X1550Y70200
X14764Y70866
X11811Y76772
X23200Y77461
X29528Y76772
X26575Y70866
X20669
X20500Y63261
X24108Y64850
X24850Y65500
X29528Y64961
X32950Y67200
X32480Y70866
X38386
X35433Y76772
X38386Y82677
X30750Y82511
Y81161
X26575Y82677
X23150Y82322
X14764Y82677
X13300Y81161
X13350Y80111
X8858Y82677
X900Y78600
T02
X35130Y26695
Y27785
Y28876
Y29967
Y31057
X36248Y30512
Y29421
Y28331
Y27240
Y31602
Y32693
Y33783
X35130Y34329
Y33238
Y32148
Y58388
Y59478
Y60569
Y61659
X36248Y61114
Y60024
Y58933
Y62205
X4339Y60904
Y59813
Y58722
Y57632
Y56541
Y55451
Y54360
Y53270
X3220Y53815
Y54906
Y55996
Y57087
Y58177
Y59268
Y60358
Y73500
Y74591
Y75681
Y76772
Y77862
X4339Y77317
Y76226
Y75136
Y74045
Y72955
X35130Y66022
Y64931
Y63841
Y62750
X36248Y63295
Y64386
Y65476
X4339Y78407
Y79498
Y80589
X3220Y80043
Y78953
T03
X16248Y88961
Y89961
X17248
X18248
X19248
Y88961
X18248
X17248
X15248
Y89961
X14248
X13248
X12248
Y88961
X13248
X14248
T04
X3181Y13128
Y14218
Y15309
X4299Y14764
Y13673
Y12583
X35071Y12492
Y11402
X36189Y11947
Y13037
Y14128
Y15219
X35071Y14673
Y13583
Y15764
X4299Y15854
Y16945
X3181Y16400
Y37734
Y38825
Y39915
Y41006
X4299Y41551
Y40461
Y39370
Y38280
Y37189
X35071Y44039
Y45130
Y46220
X36189Y45675
Y44585
Y46766
Y47856
X35071Y48402
Y47311
T05
X9600Y81111
X11350
T06
X34370Y84161
Y85161
T07
X17500Y1818
X21500
Y5818
X17500
T08
X19500Y4322
T09
X36370Y82161
Y86161
T10
X35689Y23953
Y37071
Y55646
X3780Y50528
Y63646
Y70213
X35689Y68764
X3780Y83331
T11
X3740Y9844
X35630Y8663
Y18502
X3740Y19683
Y34451
Y44289
X35630Y41301
Y51140
T12
X25672Y88583
T13
X25672Y86811
T14
X37244Y73484
Y78484
M30
